<?xml version="1.0" encoding="UTF-8" standalone="no"?><!-- Created with Inkscape (http://www.inkscape.org/) --><svg   width="39"   height="70"   viewBox="0 0 10.318754 18.520826"   version="1.1"   id="svg3956"   inkscape:version="1.2.2 (732a01da63, 2022-12-09)"   inkscape:export-filename="dente_21_cima_notplain.svg"   inkscape:export-xdpi="96"   inkscape:export-ydpi="96"   sodipodi:docname="dente_16_cima.svg"   xmlns:inkscape="http://www.inkscape.org/namespaces/inkscape"   xmlns:sodipodi="http://sodipodi.sourceforge.net/DTD/sodipodi-0.dtd"   xmlns="http://www.w3.org/2000/svg"   xmlns:svg="http://www.w3.org/2000/svg">  <sodipodi:namedview     id="namedview3958"     pagecolor="#ffffff"     bordercolor="#000000"     borderopacity="0.25"     inkscape:showpageshadow="2"     inkscape:pageopacity="0.0"     inkscape:pagecheckerboard="0"     inkscape:deskcolor="#d1d1d1"     inkscape:document-units="px"     showgrid="false"     inkscape:zoom="5.9081369"     inkscape:cx="5.0777428"     inkscape:cy="36.305861"     inkscape:window-width="958"     inkscape:window-height="1000"     inkscape:window-x="953"     inkscape:window-y="0"     inkscape:window-maximized="0"     inkscape:current-layer="layer18" />  <defs     id="defs3953">    <inkscape:path-effect       effect="bspline"       id="path-effect1422"       is_visible="true"       lpeversion="1"       weight="33.333333"       steps="2"       helper_size="0"       apply_no_weight="true"       apply_with_weight="true"       only_selected="false" />    <inkscape:path-effect       effect="bspline"       id="path-effect1426"       is_visible="true"       lpeversion="1"       weight="33.333333"       steps="2"       helper_size="0"       apply_no_weight="true"       apply_with_weight="true"       only_selected="false" />  </defs>  <g     inkscape:groupmode="layer"     id="layer21"     inkscape:label="Image 21"     transform="matrix(0.0963853,0,0,0.0963853,-64.365553,-9.4497463)">    <path       style="fill:none;stroke:#030303;stroke-width:0.7;stroke-linecap:round;stroke-linejoin:round;stroke-dasharray:none;stroke-opacity:1;paint-order:stroke fill markers"       d="m 731.67536,101.11721 c -1.78912,1.1392 -3.67155,3.69969 -5.69504,6.70919 -2.02348,3.0095 -4.18787,6.46777 -6.421,10.66301 -2.23313,4.19525 -4.53482,9.12704 -6.42069,13.86126 -1.88587,4.73423 -3.35581,9.27044 -4.84309,16.5129 -1.48729,7.24245 -2.99189,17.19043 -4.30887,25.9585 -1.31698,8.76806 -2.44627,16.3557 -3.40567,24.17726 -0.9594,7.82155 -1.74888,15.87649 -1.43257,18.70363 0.31631,2.82714 1.73848,0.42702 3.43903,-1.98058 1.70055,-2.40761 3.67928,-4.82236 5.96401,-6.31434 2.28473,-1.49197 4.8745,-2.06084 7.70797,-2.06715 2.83348,-0.006 5.91011,0.54953 8.88376,1.67891 2.97365,1.12937 5.8441,2.83168 8.27709,4.78691 2.43299,1.95522 4.4286,4.16287 6.25665,6.18446 1.82806,2.02159 3.48846,3.857 4.48281,5.07992 0.99436,1.22292 1.32293,1.83315 1.70457,1.00829 0.38163,-0.82487 0.8171,-3.08436 0.83153,-6.54098 0.0144,-3.45661 -0.39241,-8.11042 -1.15001,-13.08603 -0.75761,-4.97561 -1.86606,-10.27279 -2.76677,-14.76421 -0.90072,-4.49141 -1.59361,-8.17679 -2.63921,-13.77991 -1.0456,-5.60311 -2.44384,-13.12358 -3.30026,-19.75705 -0.85643,-6.63346 -1.17085,-12.37944 -1.13713,-18.52412 0.0337,-6.14468 0.41567,-12.68758 0.8834,-18.27271 0.46773,-5.58512 1.02126,-10.2121 1.08014,-13.5209 0.0589,-3.3088 -0.37722,-5.29954 -1.44213,-6.43646 -1.0649,-1.13693 -2.7594,-1.419001 -4.54852,-0.2798 z"       id="path1420"       inkscape:path-effect="#path-effect1422"       inkscape:original-d="m 731.76881,99.695741 c -1.88144,2.561499 -3.76388,5.121989 -5.64732,7.681489 -2.16348,3.4594 -4.32787,6.91767 -6.49331,10.375 -2.30079,4.93299 -4.60248,9.86478 -6.90522,14.79567 -1.469,4.53739 -2.93895,9.0736 -4.40992,13.60891 -1.50366,9.94938 -3.00826,19.89736 -4.51389,29.84454 -1.12833,7.58895 -2.25763,15.17659 -3.38794,22.76338 -0.78852,8.05626 -1.57801,16.1112 -2.36851,24.16529 1.42322,-2.39922 2.84539,-4.79934 4.26658,-7.20051 1.97981,-2.41385 3.95855,-4.8286 5.93632,-7.24439 2.59086,-0.56789 5.18062,-1.13676 7.76943,-1.70663 3.07775,0.55687 6.15438,1.11273 9.23007,1.66759 2.87157,1.70339 5.74202,3.40571 8.61154,5.10706 1.99669,2.20874 3.9923,4.41639 5.98695,6.62309 1.66146,1.83648 3.32186,3.67189 4.98129,5.50633 0.32959,0.61126 0.65816,1.22149 0.98574,1.83074 0.43648,-2.25857 0.87195,-4.51806 1.30643,-6.77859 -0.40586,-4.653 -0.81271,-9.30681 -1.22056,-13.96171 -1.1075,-5.2964 -2.21595,-10.59358 -3.32543,-15.89187 -0.69193,-3.68453 -1.38482,-7.36991 -2.07873,-11.05637 -1.39729,-7.51977 -2.79552,-15.04024 -4.19478,-22.56186 -0.31343,-5.74521 -0.62785,-11.49119 -0.94328,-17.23829 0.38297,-6.54215 0.76492,-13.08505 1.14588,-19.62907 0.55455,-4.62616 1.10808,-9.25314 1.66062,-13.8812 -0.43513,-1.98983 -0.87124,-3.98057 -1.30836,-5.97236 -1.69357,-0.28108 -3.38807,-0.563158 -5.0836,-0.846239 z" />    <path       style="fill:none;stroke:#030303;stroke-width:0.7;stroke-linecap:round;stroke-linejoin:round;stroke-dasharray:none;stroke-opacity:1;paint-order:stroke fill markers"       d="m 699.15882,218.92683 c -0.72905,3.41799 -1.45793,6.83523 -2.18147,10.20142 -0.72354,3.36619 -1.44169,6.6812 -1.9881,10.32439 -0.54641,3.64319 -0.92113,7.61419 -1.25798,11.54366 -0.33685,3.92948 -0.63584,7.81719 -0.88476,11.43986 -0.24891,3.62267 -0.44776,6.98007 -0.55031,10.06741 -0.10255,3.08735 -0.10885,5.9044 0.008,8.02618 0.11696,2.12178 0.35699,3.54804 1.05033,4.48547 0.69334,0.93744 1.83892,1.38667 3.85569,1.76582 2.01677,0.37915 4.90471,0.68856 9.42009,0.78382 4.51538,0.0953 10.65802,-0.0235 16.87739,-0.21194 6.21937,-0.18846 12.51513,-0.4466 16.9795,-1.06219 4.46436,-0.6156 7.09751,-1.58844 9.15454,-3.08739 2.05703,-1.49896 3.53852,-3.5243 4.74248,-5.93736 1.20397,-2.41306 2.13041,-5.21413 2.46133,-8.11023 0.33091,-2.89611 0.066,-5.88756 -0.70555,-9.82043 -0.77155,-3.93288 -2.04989,-8.80702 -3.27537,-13.01208 -1.22548,-4.20507 -2.39812,-7.74084 -3.6846,-10.9645 -1.28648,-3.22365 -2.68691,-6.13499 -4.08794,-9.0476"       id="path1424"       inkscape:path-effect="#path-effect1426"       inkscape:original-d="m 699.15882,218.92683 c -0.72788,3.41824 -1.45677,6.83548 -2.18666,10.25172 -0.71718,3.31614 -1.43534,6.63115 -2.15451,9.94523 -0.37373,3.97215 -0.74844,7.94315 -1.12416,11.91322 -0.298,3.88886 -0.59699,7.77657 -0.89698,11.66335 -0.19786,3.35854 -0.39671,6.71594 -0.59656,10.07242 -0.005,2.81815 -0.0116,5.6352 -0.0189,8.4513 0.24104,1.42732 0.48107,2.85358 0.72011,4.27887 1.14662,0.45025 2.2922,0.89948 3.4368,1.34772 2.88906,0.31041 5.777,0.61982 8.664,0.92823 6.14387,-0.11775 12.28651,-0.23649 18.42826,-0.35624 6.29701,-0.25715 12.59277,-0.51529 18.88765,-0.77443 2.63426,-0.97188 5.2674,-1.94473 7.8996,-2.91859 1.48255,-2.02442 2.96404,-4.04976 4.44456,-6.07614 0.92748,-2.80017 1.85392,-5.60124 2.77938,-8.40336 -0.26392,-2.99057 -0.52883,-5.98202 -0.79475,-8.97453 -1.2774,-4.87334 -2.55574,-9.74748 -3.83511,-14.62271 -1.17168,-3.53492 -2.34432,-7.07069 -3.51797,-10.60753 -1.39949,-2.91047 -2.79991,-5.82182 -4.20137,-8.73422" />  </g></svg>