<?xml version="1.0" encoding="UTF-8" standalone="no"?>
<!-- Created with Inkscape (http://www.inkscape.org/) -->

<svg
   version="1.1"
   id="svg316"
   width="32"
   height="32"
   viewBox="0 0 32.000001 32.000001"
   sodipodi:docname="dente18_frente.svg"
   inkscape:version="1.2.2 (b0a8486541, 2022-12-01)"
   xmlns:inkscape="http://www.inkscape.org/namespaces/inkscape"
   xmlns:sodipodi="http://sodipodi.sourceforge.net/DTD/sodipodi-0.dtd"
   xmlns="http://www.w3.org/2000/svg"
   xmlns:svg="http://www.w3.org/2000/svg">
  <defs
     id="defs320" />
  <sodipodi:namedview
     id="namedview318"
     pagecolor="#505050"
     bordercolor="#eeeeee"
     borderopacity="1"
     inkscape:showpageshadow="0"
     inkscape:pageopacity="0"
     inkscape:pagecheckerboard="0"
     inkscape:deskcolor="#505050"
     showgrid="false"
     inkscape:zoom="8"
     inkscape:cx="29.8125"
     inkscape:cy="19.75"
     inkscape:window-width="1366"
     inkscape:window-height="747"
     inkscape:window-x="0"
     inkscape:window-y="0"
     inkscape:window-maximized="1" />
  <g
     inkscape:groupmode="layer"
     style="display:inline"
     id="g1563">
    <path
       style="fill:none;stroke:#000000;stroke-width:0.216227;stroke-linecap:round;stroke-linejoin:round;stroke-dasharray:none;paint-order:stroke fill markers"
       d="m 13.063146,3.1531274 c 0,0 -0.134531,-0.3021109 -0.315577,-0.4342096 -0.160943,-0.1174241 -0.546916,-0.068608 -0.639971,0.066089 -0.107178,0.1551827 -0.179754,0.2800559 -0.179754,0.437856 v 1.7439581 c 0,0 -0.05455,0.6377408 -0.06666,0.9453107 -0.02573,0.6544896 -0.06447,1.3001492 -0.229176,1.9239856 -0.233763,0.885439 -0.711257,2.6882618 -0.711257,2.6882618 0,0 -0.3423,1.668964 -0.424472,2.515234 -0.118298,1.218374 -0.111507,2.447835 -0.09693,3.670994 0.0078,0.654067 0.01599,1.352083 -0.08956,1.994252 -0.06826,0.415248 -0.23408,0.8164 -0.4404338,1.183164 -0.1645591,0.292429 -0.3392858,0.485035 -0.4749136,0.747137 -0.201798,0.389944 -0.3440293,0.808181 -0.4993986,1.218864 -0.1962799,0.518771 -0.4140335,1.033118 -0.5463318,1.571785 -0.1370309,0.557904 -0.2287047,1.130877 -0.2527079,1.704875 -0.011878,0.283942 -0.078684,0.839111 -0.078684,0.839111 0,0 0.018598,0.799636 0.1230517,1.172047 0.096566,0.344277 0.3198131,0.651738 0.5655815,0.911424 0.3041112,0.321359 0.6987929,0.644521 1.0596271,0.900541 0.3582834,0.254206 0.7109184,0.421789 1.0977244,0.63001 0.390815,0.21038 0.801312,0.446218 1.244287,0.474091 0.305265,0.01927 0.609496,-0.09849 0.891683,-0.216457 0.519106,-0.217022 0.578194,-0.410712 1.059452,-0.702149 0.215415,-0.130436 0.887438,-0.710027 1.097322,-0.570847 0.474743,0.314777 1.361458,0.903734 1.361458,0.903734 0,0 0.981824,0.542104 1.488959,0.75256 0.262606,0.109025 0.502159,0.164866 0.782755,0.21072 0.281475,0.04632 0.597917,0.07442 0.8904,0.04804 0.393853,-0.03551 0.733392,-0.07754 1.073114,-0.209487 0.539341,-0.209582 1.031841,-0.540618 1.48135,-0.904964 0.302697,-0.245351 0.623123,-0.503656 0.729806,-0.878388 0.11111,-0.390296 0.131776,-0.740927 0.11111,-1.119294 -0.0359,-0.657281 -0.116293,-1.306392 -0.179061,-1.958779 -0.03875,-0.402781 -0.09668,-0.812948 -0.140545,-1.215244 -0.04726,-0.432628 0,-0.469236 -0.221021,-1.281782 L 22.058415,21.276805 C 21.958705,20.933517 21.75036,20.249529 21.75036,20.249529 l -0.223904,-0.334671 0.01448,-2.556844 0.03855,-1.537089 0.225027,-0.941735 -0.06037,-2.562709 c 0,0 -0.216654,-1.00458 -0.211844,-1.094429 0.0053,-0.08982 -0.329728,-1.4450563 -0.329728,-1.4450563 L 20.07292,7.6480112 18.850301,5.515521 17.164244,3.7513349 15.409735,2.3603653 14.551722,2.0182931 13.526455,1.9879853 c 0,0 -0.409152,0.4849512 -0.463301,0.5737187 -0.0541,0.088772 0,0.5914111 0,0.5914111 z"
       id="path1553" />
    <path
       style="fill:none;stroke:#000000;stroke-width:0.216227;stroke-linecap:round;stroke-linejoin:round;stroke-dasharray:none;paint-order:stroke fill markers"
       d="m 13.063146,3.1531274 c 0.15291,0.2551858 0.306565,0.5099627 0.460968,0.7642362 0.108878,0.1793197 0.218122,0.3584585 0.325425,0.5387062 0.110367,0.1854457 0.218861,0.3723937 0.344564,0.5477821 0.155831,0.2173578 0.337388,0.4159223 0.48406,0.6395641 0.169121,0.2579228 0.288785,0.5444393 0.432073,0.8175404 0.144807,0.2759782 0.31435,0.5394997 0.439451,0.8249242 0.115942,0.26456 0.192527,0.5461141 0.228622,0.8326929 0.02817,0.2238087 0.03188,0.4501404 0.05919,0.6740346 0.01647,0.1343434 0.04155,0.2677207 0.05078,0.4028119 0.0091,0.1350442 0.0027,0.2734228 -0.04354,0.4007758 -0.04015,0.1116884 -0.108449,0.2105955 -0.169431,0.3123672 -0.061,0.101881 -0.116263,0.211389 -0.125727,0.329706 -0.0021,0.02399 -0.0021,0.0482 0,0.0722"
       id="path1555" />
    <path
       style="fill:none;stroke:#000000;stroke-width:0.216227;stroke-linecap:round;stroke-linejoin:round;stroke-dasharray:none;paint-order:stroke fill markers"
       d="m 21.63842,20.082259 c -0.150798,0.01478 -0.304253,0.0059 -0.450897,-0.03507 -0.0901,-0.02356 -0.177278,-0.05673 -0.266321,-0.08383 -0.149477,-0.04533 -0.303575,-0.07365 -0.457133,-0.1026 -0.107899,-0.02034 -0.215753,-0.04099 -0.324093,-0.05888 -0.18351,-0.03008 -0.368333,-0.05205 -0.553491,-0.06949 -0.244662,-0.02296 -0.490025,-0.0385 -0.73561,-0.04748 -0.24553,-0.0091 -0.491244,-0.01158 -0.73691,-0.0136 -0.217483,-0.0059 -0.435032,-0.0059 -0.652315,-0.01254 -0.141797,-0.0059 -0.284219,-0.01587 -0.42234,-0.04854 -0.150692,-0.03573 -0.293555,-0.09787 -0.43661,-0.157216 -0.153375,-0.06362 -0.308011,-0.124142 -0.464494,-0.179661 -0.198863,-0.0705 -0.401756,-0.133312 -0.588519,-0.23156 -0.107039,-0.05625 -0.208122,-0.123907 -0.318023,-0.174406 -0.05557,-0.02541 -0.114301,-0.04662 -0.175361,-0.04929 -0.07011,-0.0059 -0.139011,0.01917 -0.20236,0.04929 -0.09791,0.04652 -0.185341,0.111861 -0.273782,0.174406 -0.109281,0.07724 -0.221951,0.151424 -0.345144,0.203901 -0.105778,0.0452 -0.217746,0.07335 -0.329109,0.101861 -0.170039,0.04363 -0.339955,0.08787 -0.507821,0.139148 -0.17873,0.05458 -0.355396,0.117053 -0.537716,0.158029 -0.07404,0.01645 -0.148929,0.03009 -0.224138,0.04008 -0.200052,0.02763 -0.402178,0.03655 -0.603893,0.04645 -0.257324,0.01305 -0.514634,0.02773 -0.772249,0.0311 -0.4028,0.0059 -0.805429,-0.01554 -1.207955,-0.0311 -0.02257,-0.0047 -0.04554,-0.0059 -0.067423,0.0059 -0.010968,0.0059 -0.02157,0.0072 -0.030848,0.01359 -0.00929,0.0059 -0.01721,0.01478 -0.022276,0.02516 0,9e-6 0,9e-6 0,9e-6"
       id="path1557" />
    <path
       style="fill:none;fill-opacity:1;stroke:#333333;stroke-width:0.144144;stroke-linecap:round;stroke-linejoin:round;stroke-dasharray:none;stroke-opacity:1;paint-order:stroke fill markers"
       d="m 15.068017,28.405349 c 0.0048,-0.07239 0.0073,-0.144711 0.0098,-0.217075 0.0047,-0.12429 0.005,-0.248644 0.0055,-0.372963 5.79e-4,-0.09609 5.79e-4,-0.19222 0.0076,-0.287939 0.005,-0.06227 0.01239,-0.124758 0.0071,-0.186979 -0.0018,-0.01692 -0.0047,-0.03367 -0.0055,-0.05069 -0.0069,-0.07631 0.0071,-0.153118 0.0041,-0.229705 -0.0039,-0.08009 -0.02401,-0.158813 -0.02818,-0.238919 -0.0065,-0.110544 0.01973,-0.220298 0.02376,-0.330885 0.0044,-0.100545 -0.01068,-0.200756 -0.0168,-0.301205 -0.0026,-0.03654 -0.0041,-0.07347 5.82e-4,-0.110052 0.0048,-0.03649 0.01377,-0.07284 0.03203,-0.104719 0.02723,-0.04759 0.0721,-0.08321 0.120469,-0.109044 0.04838,-0.02568 0.100891,-0.043 0.152346,-0.062 0.0726,-0.02685 0.143583,-0.05802 0.214713,-0.08849 0.06781,-0.029 0.135897,-0.05806 0.203018,-0.08879 0.04309,-0.01967 0.08579,-0.04071 0.127661,-0.06276 0.05651,-0.03001 0.111312,-0.06377 0.166884,-0.09561 0.06243,-0.03588 0.125908,-0.07018 0.190285,-0.102469 l 0.07538,-0.03766"
       id="path1559" />
    <path
       style="fill:none;stroke:#333333;stroke-width:0.144144;stroke-linecap:round;stroke-linejoin:round;stroke-dasharray:none;stroke-opacity:1;paint-order:stroke fill markers"
       d="m 15.107594,25.974132 c -0.08976,-0.07734 -0.181577,-0.152228 -0.27534,-0.224655 -0.110836,-0.08561 -0.225769,-0.16857 -0.355244,-0.221998 -0.08641,-0.0357 -0.178242,-0.0577 -0.262198,-0.09874 -0.06616,-0.03234 -0.126218,-0.07596 -0.182375,-0.123498 -0.06322,-0.05351 -0.122167,-0.112803 -0.191325,-0.158502 -0.01275,-0.0081 -0.0259,-0.01617 -0.03918,-0.02365"
       id="path1561" />
  </g>
</svg>
