<?xml version="1.0" encoding="UTF-8" standalone="no"?><!-- Created with Inkscape (http://www.inkscape.org/) --><svg   width="39"   height="70"   viewBox="0 0 10.318754 18.520826"   version="1.1"   id="svg3956"   inkscape:version="1.2.2 (732a01da63, 2022-12-09)"   inkscape:export-filename="dente_16_cima_notplain.svg"   inkscape:export-xdpi="96"   inkscape:export-ydpi="96"   sodipodi:docname="dente_16_cima.svg"   xmlns:inkscape="http://www.inkscape.org/namespaces/inkscape"   xmlns:sodipodi="http://sodipodi.sourceforge.net/DTD/sodipodi-0.dtd"   xmlns="http://www.w3.org/2000/svg"   xmlns:svg="http://www.w3.org/2000/svg">  <sodipodi:namedview     id="namedview3958"     pagecolor="#ffffff"     bordercolor="#000000"     borderopacity="0.25"     inkscape:showpageshadow="2"     inkscape:pageopacity="0.0"     inkscape:pagecheckerboard="0"     inkscape:deskcolor="#d1d1d1"     inkscape:document-units="px"     showgrid="false"     inkscape:zoom="4.1776837"     inkscape:cx="-29.083102"     inkscape:cy="47.394685"     inkscape:window-width="1920"     inkscape:window-height="1009"     inkscape:window-x="-8"     inkscape:window-y="-8"     inkscape:window-maximized="1"     inkscape:current-layer="layer7" />  <defs     id="defs3953">    <inkscape:path-effect       effect="bspline"       id="path-effect1139"       is_visible="true"       lpeversion="1"       weight="33.333333"       steps="2"       helper_size="0"       apply_no_weight="true"       apply_with_weight="true"       only_selected="false" />    <inkscape:path-effect       effect="bspline"       id="path-effect1143"       is_visible="true"       lpeversion="1"       weight="33.333333"       steps="2"       helper_size="0"       apply_no_weight="true"       apply_with_weight="true"       only_selected="false" />    <inkscape:path-effect       effect="bspline"       id="path-effect1147"       is_visible="true"       lpeversion="1"       weight="33.333333"       steps="2"       helper_size="0"       apply_no_weight="true"       apply_with_weight="true"       only_selected="false" />    <inkscape:path-effect       effect="bspline"       id="path-effect1151"       is_visible="true"       lpeversion="1"       weight="33.333333"       steps="2"       helper_size="0"       apply_no_weight="true"       apply_with_weight="true"       only_selected="false" />    <inkscape:path-effect       effect="bspline"       id="path-effect1225"       is_visible="true"       lpeversion="1"       weight="33.333333"       steps="2"       helper_size="0"       apply_no_weight="true"       apply_with_weight="true"       only_selected="false" />  </defs>  <g     inkscape:groupmode="layer"     id="layer7"     inkscape:label="Image 7"     transform="matrix(0.06989947,0,0,0.06989947,-14.063778,-4.0020257)">    <path       style="fill:none;stroke:#030303;stroke-width:1.03461;stroke-linecap:round;stroke-linejoin:round;stroke-dasharray:none;stroke-opacity:1;paint-order:stroke fill markers"       d="m 229.55222,233.05169 c 0.25723,-1.72403 0.77187,-5.17333 0.86535,-9.73235 0.0935,-4.55903 -0.23447,-10.22787 -1.04039,-16.63227 -0.80593,-6.4044 -2.09,-13.54407 -3.83723,-20.45415 -1.74723,-6.91009 -3.9578,-13.59028 -5.85591,-19.64865 -1.89811,-6.05837 -3.48358,-11.49456 -5.53379,-16.42707 -2.05021,-4.9325 -4.56553,-9.36103 -6.60619,-14.27945 -2.04066,-4.91842 -3.60606,-10.32646 -4.53913,-15.42092 -0.93307,-5.09446 -1.23335,-9.87485 -1.28082,-14.15126 -0.0475,-4.27641 0.15804,-8.048418 0.54865,-11.626748 0.39062,-3.578331 0.96644,-6.962577 2.06221,-9.042759 1.09578,-2.080182 2.71059,-2.854698 3.82686,-3.00589 1.11627,-0.151191 1.73287,0.319392 2.25984,0.767555 0.52698,0.448163 0.96442,0.873655 1.89179,2.644343 0.92737,1.770688 2.34528,4.886109 3.68333,8.382548 1.33806,3.496438 2.59642,7.373681 3.64333,10.702911 1.0469,3.32924 1.88233,6.11025 3.38361,9.85651 1.50128,3.74625 3.66804,8.45748 6.10608,13.15761 2.43805,4.70014 5.14705,9.38891 8.1167,13.84603 2.96966,4.45712 6.19953,8.68241 9.22194,12.069 3.02241,3.38659 5.8369,5.93455 9.01138,9.44163 3.17448,3.50709 6.709,7.97284 9.59592,12.05011 2.88692,4.07727 5.1263,7.76569 6.66976,10.35666 1.54346,2.59097 2.39098,4.08434 3.06535,5.02266 0.67437,0.93831 1.17493,1.32202 2.00728,0.57184 0.83236,-0.75019 1.99836,-2.63336 3.91608,-4.65642 1.91772,-2.02307 4.5866,-4.18535 7.32327,-7.26422 2.73667,-3.07887 5.54134,-7.07455 8.27427,-11.98764 2.73293,-4.91308 5.39406,-10.74364 7.02636,-15.67198 1.6323,-4.92834 2.23558,-8.95474 2.78917,-13.27008 0.55358,-4.31535 1.05739,-8.91943 1.05988,-14.64533 0.002,-5.7259 -0.4966,-12.57352 -1.07763,-17.71502 -0.58103,-5.14151 -1.24417,-8.576744 -1.98643,-11.275544 -0.74225,-2.6988 -1.56399,-4.6611 -2.5247,-6.810964 -0.96071,-2.149864 -2.06042,-4.48715 -2.66292,-6.812186 -0.60249,-2.325036 -0.70697,-4.63744 -0.63876,-6.639743 0.0682,-2.002303 0.30935,-3.694092 0.65574,-4.974535 0.34639,-1.280443 0.79812,-2.148787 1.85148,-2.382006 1.05337,-0.233219 2.70626,0.168824 4.95566,1.590383 2.2494,1.421559 5.09531,3.861586 8.13686,6.769893 3.04156,2.908308 6.27872,6.28456 8.9805,9.985595 2.70179,3.701034 4.86855,7.726374 6.61882,12.00677 1.75027,4.280397 3.08437,8.815577 4.31185,13.185247 1.22747,4.36967 2.3483,8.57358 3.17849,12.71182 0.83019,4.13824 1.36994,8.21065 1.61877,12.48726 0.24883,4.27662 0.20695,8.75734 -0.26743,13.52452 -0.47438,4.76718 -1.38101,9.82078 -2.22693,14.87931 -0.84592,5.05853 -1.63108,10.12161 -2.31966,14.08525 -0.68857,3.96364 -1.28048,6.82772 -1.78964,9.66238 -0.50916,2.83467 -0.93558,5.63967 -1.13409,9.13812 -0.19852,3.49846 -0.16932,7.6899 -0.3308,11.53185 -0.16147,3.84195 -0.51347,7.33437 -0.5996,10.13886 -0.0861,2.8045 0.0933,4.92064 -0.0564,6.1226 -0.14968,1.20195 -0.62877,1.49148 -1.81855,1.31425 -1.18978,-0.17724 -3.09149,-0.82209 -4.97994,-1.14482 -1.88844,-0.32273 -3.76321,-0.32273 -5.27128,-0.10668 -1.50807,0.21605 -2.64866,0.64843 -3.78536,1.14611 -1.1367,0.49768 -2.26923,1.06062 -4.28384,1.25083 -2.0146,0.19022 -4.91208,0.007 -7.59034,-0.18571 -2.67826,-0.19301 -5.13717,-0.39616 -7.20016,-0.96081 -2.06298,-0.56466 -3.73011,-1.49164 -5.59143,-2.68949 -1.86131,-1.19786 -3.91661,-2.66673 -5.54049,-3.15645 -1.62387,-0.48972 -2.81521,0.001 -3.9231,0.53026 -1.1079,0.52899 -2.13197,1.09587 -3.43361,2.17135 -1.30164,1.07548 -2.88011,2.65908 -4.45778,3.93015 -1.57767,1.27107 -3.1548,2.22973 -5.15762,3.07667 -2.00283,0.84693 -4.43177,1.58213 -7.43178,2.03957 -3.00002,0.45744 -6.57139,0.63688 -10.64157,0.72019 -4.07018,0.0833 -8.639,0.0704 -11.97191,0.32535 -3.3329,0.25493 -5.4293,0.77794 -6.47804,1.03958 -1.04874,0.26164 -1.04861,0.2616 -0.79138,-1.46243 z"       id="path1137"       inkscape:path-effect="#path-effect1139"       inkscape:original-d="m 229.29499,234.77572 c 0.51612,-3.44781 1.03077,-6.89711 1.54393,-10.34787 -0.32647,-5.66762 -0.65443,-11.33646 -0.98386,-17.00692 -1.28264,-7.13847 -2.56671,-14.27814 -3.85227,-21.41943 -2.20919,-6.67896 -4.41975,-13.35916 -6.63184,-20.04094 -1.58405,-5.43494 -3.16953,-10.87113 -4.7565,-16.30892 -2.51394,-4.42721 -5.02925,-8.85574 -7.54609,-13.28583 -1.56399,-5.40676 -3.1294,-10.8148 -4.69631,-16.22442 -0.29881,-4.77911 -0.5991,-9.5595 -0.90086,-14.34147 0.20699,-3.77068 0.41251,-7.542683 0.61655,-11.31624 0.57731,-3.382905 1.15313,-6.76715 1.72749,-10.152943 1.61637,-0.773078 3.23118,-1.547594 4.84458,-2.323622 0.61812,0.472085 1.23472,0.94267 1.84988,1.411803 0.43894,0.426994 0.87638,0.852484 1.31236,1.276522 1.41944,3.117017 2.83736,6.232434 4.25381,9.346429 1.25991,3.87889 2.51826,7.756141 3.77517,11.632001 0.83694,2.78261 1.67236,5.56363 2.50633,8.34323 2.1683,4.71289 4.33506,9.42412 6.50038,14.13396 2.71058,4.69046 5.41959,9.37923 8.12716,14.06663 3.23149,4.22694 6.46136,8.45223 9.68981,12.67612 2.81608,2.54953 5.63057,5.0975 8.44364,7.64402 3.53615,4.46742 7.07067,8.93317 10.60379,13.39754 2.24095,3.69006 4.48033,7.37848 6.71828,11.0655 0.84903,1.49491 1.69655,2.98828 2.54261,4.4802 0.50203,0.3852 1.00259,0.76891 1.50167,1.15115 1.16753,-1.88176 2.33354,-3.76493 3.49808,-5.64961 2.67047,-2.1609 5.33935,-4.32319 8.00681,-6.487 2.80626,-3.99436 5.61092,-7.99004 8.41417,-11.98727 2.66271,-5.82931 5.32384,-11.65987 7.98354,-17.49202 0.60478,-4.02509 1.20806,-8.05149 1.80988,-12.07946 0.50531,-4.60279 1.00912,-9.20687 1.51147,-13.81254 -0.49763,-6.84641 -0.99671,-13.69403 -1.49729,-20.54326 -0.66169,-3.4339 -1.32484,-6.869136 -1.98948,-10.30592 -0.82029,-1.960901 -1.64202,-3.923203 -2.46526,-5.887022 -1.09828,-2.335902 -2.19799,-4.673189 -3.29921,-7.012002 -0.10302,-2.311019 -0.20748,-4.623424 -0.31344,-6.937352 0.24263,-1.690378 0.48377,-3.382166 0.72343,-5.075466 0.45323,-0.866902 0.90496,-1.735246 1.35522,-2.605087 1.65444,0.403539 3.30733,0.805583 4.95879,1.206157 2.8475,2.441607 5.6934,4.881637 8.53789,7.320237 3.23876,3.377862 6.47592,6.754112 9.71166,10.128951 2.16832,4.02698 4.33508,8.052321 6.50042,12.076264 1.33563,4.53685 2.66973,9.07203 4.0024,13.60583 1.12234,4.20555 2.24317,8.40946 3.36254,12.61197 0.54125,4.07407 1.081,8.14648 1.6193,12.21751 -0.0403,4.48238 -0.0822,8.9631 -0.12564,13.44244 -0.90519,5.05531 -1.81183,10.10891 -2.71997,15.16116 -0.78372,5.06477 -1.56888,10.12785 -2.35554,15.18956 -0.59045,2.86566 -1.18236,5.72974 -1.77576,8.59238 -0.42496,2.80659 -0.85139,5.61159 -1.27929,8.41516 0.0307,4.19308 0.0599,8.38452 0.0876,12.57455 -0.35052,3.49404 -0.70252,6.98646 -1.05601,10.47746 0.18094,2.11772 0.36042,4.23386 0.5384,6.34859 -0.47764,0.29102 -0.95673,0.58056 -1.43732,0.86863 -1.90032,-0.6434 -3.80203,-1.28825 -5.70525,-1.93459 -1.87337,0.001 -3.74814,0.001 -5.62444,0 -1.13916,0.43389 -2.27976,0.86626 -3.42185,1.29718 -1.13109,0.56444 -2.26363,1.12737 -3.39768,1.68885 -2.89613,-0.18144 -5.79361,-0.36434 -8.69263,-0.54874 -2.45752,-0.20168 -4.91643,-0.40483 -7.37687,-0.60945 -1.6657,-0.92553 -3.33283,-1.85251 -5.00145,-2.78097 -2.05393,-1.46747 -4.10923,-2.93634 -6.16613,-4.40677 -1.18992,0.49249 -2.38125,0.98349 -3.57412,1.47302 -1.02268,0.56842 -2.04675,1.13531 -3.07241,1.70077 -1.57712,1.58521 -3.15558,3.16881 -4.73565,4.75104 -1.5757,0.96018 -3.15283,1.91883 -4.73146,2.87602 -2.42755,0.7367 -4.85649,1.4719 -7.28693,2.20564 -3.57004,0.18092 -7.14141,0.36037 -10.71433,0.53834 -4.56752,-0.0118 -9.13634,-0.0244 -13.70673,-0.0387 -2.09499,0.52451 -4.19139,1.04752 -6.2893,1.56906 z"       sodipodi:nodetypes="scccccccccccccccccccccccccccccccccccccccccccccccccccccccccccccccccccccs" />    <path       style="fill:none;stroke:#030303;stroke-width:1.03461;stroke-linecap:round;stroke-linejoin:round;stroke-dasharray:none;stroke-opacity:1;paint-order:stroke fill markers"       d="m 229.73186,234.96758 c -1.61517,2.02646 -3.23019,4.05275 -4.69276,6.31822 -1.46257,2.26547 -2.77248,4.76963 -4.12538,8.4403 -1.3529,3.67067 -2.74872,8.50717 -4.02489,13.0262 -1.27618,4.51902 -2.43265,8.72028 -3.03751,11.56236 -0.60486,2.84208 -0.6583,4.3244 -0.71504,6.58451 -0.0567,2.26011 -0.11679,5.29781 0.42279,8.29375 0.53958,2.99594 1.67804,5.94959 3.13567,8.42549 1.45762,2.4759 3.23362,4.47412 5.30197,5.96745 2.06835,1.49333 4.42853,2.48249 6.93194,3.79455 2.5034,1.31206 5.14995,2.94663 7.45281,4.71256 2.30285,1.76594 4.26213,3.66275 5.86638,4.93557 1.60426,1.27283 2.85314,1.92211 5.5607,2.24308 2.70757,0.32096 6.87383,0.31449 11.15508,-0.96912 4.28126,-1.28361 8.67815,-3.84401 11.89106,-5.89272 3.21292,-2.04871 5.24193,-3.58571 6.63112,-4.64142 1.3892,-1.0557 2.13853,-1.63005 4.17699,-0.61318 2.03846,1.01688 5.36443,3.62339 8.86024,5.82318 3.49581,2.19978 7.16088,3.99299 10.03936,5.22441 2.87848,1.23142 4.97003,1.90122 6.59173,2.27908 1.6217,0.37786 2.77362,0.4642 4.22171,0.37684 1.44808,-0.0874 3.19253,-0.3481 5.25161,-1.40209 2.05908,-1.05399 4.43361,-2.90116 7.5872,-5.31292 3.1536,-2.41175 7.08604,-5.38793 10.56863,-8.14759 3.4826,-2.75966 6.51523,-5.3027 8.44707,-8.40038 1.93185,-3.09768 2.76319,-6.751 3.0063,-10.3218 0.24311,-3.5708 -0.10241,-7.05937 -0.70051,-10.96466 -0.59809,-3.9053 -1.4489,-8.22715 -3.13929,-13.96575 -1.69039,-5.73859 -4.22056,-12.89365 -6.50525,-19.10566 -2.28469,-6.212 -4.32385,-11.48064 -6.36372,-16.75113"       id="path1141"       inkscape:path-effect="#path-effect1143"       inkscape:original-d="m 229.73186,234.96758 c -1.61354,2.02776 -3.22857,4.05404 -4.84507,6.07885 -1.30849,2.50576 -2.61839,5.00993 -3.92982,7.51268 -1.39439,4.83817 -2.79021,9.67467 -4.18753,14.50979 -1.15504,4.2029 -2.3115,8.40416 -3.46948,12.60402 -0.052,1.48387 -0.10538,2.9662 -0.16033,4.44709 -0.0585,3.0393 -0.11869,6.077 -0.18017,9.1133 1.13999,2.95524 2.27844,5.9089 3.41545,8.86113 1.77755,1.99978 3.55354,3.99801 5.3281,5.99481 2.36175,0.99067 4.72192,1.97983 7.08066,2.96752 2.64813,1.63611 5.29468,3.27067 7.93979,4.90379 1.96083,1.89837 3.9201,3.79519 5.87794,5.69057 1.25041,0.6508 2.49929,1.30007 3.74675,1.94792 4.16796,-0.004 8.33422,-0.0118 12.49921,-0.0194 4.39854,-2.55901 8.79543,-5.1194 13.1909,-7.68132 2.03059,-1.5356 4.0596,-3.07261 6.08717,-4.61113 0.75083,-0.5729 1.50016,-1.14725 2.24802,-1.72309 3.32764,2.60815 6.65361,5.21466 9.9783,7.81985 3.66679,1.79479 7.33186,3.58801 10.99569,5.37983 2.09314,0.67132 4.18469,1.34112 6.27484,2.00946 1.15344,0.0878 2.30536,0.17416 3.45584,0.25903 1.74604,-0.25929 3.49049,-0.52004 5.23357,-0.78227 2.3761,-1.84577 4.75063,-3.69294 7.12373,-5.54162 3.93407,-2.97481 7.86652,-5.95098 11.79756,-8.92871 3.03423,-2.54165 6.06686,-5.08469 9.09808,-7.62927 0.83286,-3.65199 1.66419,-7.30531 2.49407,-10.96017 -0.34405,-3.48726 -0.68958,-6.97583 -1.03659,-10.46596 -0.84936,-4.32055 -1.70016,-8.64241 -2.55246,-12.96582 -2.52879,-7.15385 -5.05895,-14.30891 -7.59064,-21.46557 -2.03775,-5.26736 -4.07691,-10.53599 -6.11757,-15.80618"       sodipodi:nodetypes="cccccccccccccccccccccccccccccc" />    <path       style="fill:none;stroke:#030303;stroke-width:1.03461;stroke-linecap:round;stroke-linejoin:round;stroke-dasharray:none;stroke-opacity:1;paint-order:stroke fill markers"       d="m 279.6277,306.52172 c -0.21838,-4.24195 -0.43684,-8.48544 -0.52925,-11.79454 -0.0924,-3.30911 -0.0587,-5.68364 0.45921,-7.32209 0.51786,-1.63846 1.51967,-2.5392 3.30614,-3.5142 1.78646,-0.975 4.35679,-2.02395 6.92641,-3.07261"       id="path1145"       inkscape:path-effect="#path-effect1147"       inkscape:original-d="m 279.6277,306.52172 c -0.21699,-4.24202 -0.43544,-8.48551 -0.65538,-12.73047 0.0352,-2.37316 0.069,-4.74769 0.10124,-7.12374 1.00335,-0.89933 2.00516,-1.80008 3.00554,-2.70233 2.57189,-1.04751 5.14222,-2.09646 7.71111,-3.1469" />    <path       style="fill:none;stroke:#030303;stroke-width:1.03461;stroke-linecap:round;stroke-linejoin:round;stroke-dasharray:none;stroke-opacity:1;paint-order:stroke fill markers"       d="m 279.33,287.96504 c -1.35005,-1.55677 -2.70146,-3.11512 -4.41113,-4.51171 -1.70966,-1.3966 -3.77787,-2.63086 -5.84785,-3.86617"       id="path1149"       inkscape:path-effect="#path-effect1151"       inkscape:original-d="m 279.33,287.96504 c -1.34993,-1.55687 -2.70135,-3.11522 -4.05424,-4.67504 -2.06681,-1.23283 -4.13502,-2.46709 -6.20474,-3.70284" />    <path       style="fill:none;stroke:#030303;stroke-width:1.03461;stroke-linecap:round;stroke-linejoin:round;stroke-dasharray:none;stroke-opacity:1;paint-order:stroke fill markers"       d="m 241.02182,146.68694 c 1.95431,-9.22971 3.90885,-18.46055 5.36151,-25.83609 1.45266,-7.37553 2.40334,-12.89551 3.00735,-18.05933 0.60401,-5.163816 0.86115,-9.971156 1.09891,-15.125177 0.23775,-5.154022 0.45609,-10.654323 0.66883,-14.539091 0.21274,-3.884769 0.41993,-6.153463 0.77358,-7.939083 0.35366,-1.78562 0.8539,-3.087413 1.60138,-4.11181 0.74747,-1.024396 1.74155,-1.77031 2.69323,-2.176061 0.95169,-0.40575 1.85978,-0.471389 2.87975,0.01689 1.01997,0.488274 2.15157,1.528897 3.21336,3.137685 1.06179,1.608788 2.05437,3.78517 3.11496,6.202197 1.06058,2.417027 2.1891,5.074413 3.72719,8.267361 1.53809,3.192947 3.4854,6.921097 5.34966,11.202223 1.86426,4.281127 3.6455,9.114688 5.97699,14.20533 2.33148,5.09063 5.21263,10.43773 7.43567,14.60021 2.22303,4.16248 3.7877,7.13982 5.29003,10.48916 1.50234,3.34933 2.9424,7.07027 4.52743,10.37096 1.58503,3.30069 3.31451,6.18082 4.37502,8.30486 1.06051,2.12403 1.45252,3.49179 1.84402,4.8578"       id="path1223"       inkscape:path-effect="#path-effect1225"       inkscape:original-d="m 241.02182,146.68694 c 1.95601,-9.22935 3.91057,-18.46019 5.86363,-27.6925 0.95221,-5.51883 1.9029,-11.03881 2.85217,-16.5606 0.25862,-4.806053 0.51576,-9.613393 0.77143,-14.422309 0.21982,-5.499149 0.43816,-10.99945 0.65503,-16.501554 0.20868,-2.267348 0.41588,-4.536041 0.6216,-6.806346 0.50176,-1.300396 1.00201,-2.602189 1.50081,-3.905545 0.9956,-0.744472 1.98968,-1.490387 2.98232,-2.237798 0.9096,-0.06416 1.81769,-0.129799 2.72433,-0.196922 1.13313,1.042161 2.26473,2.082778 3.39491,3.121983 0.99413,2.178002 1.98671,4.354385 2.97787,6.529422 1.13006,2.659017 2.25858,5.316403 3.38569,7.972467 1.9489,3.729849 3.89622,7.457996 5.84217,11.184889 1.78284,4.835344 3.56406,9.668913 5.34395,14.501303 2.8828,5.3489 5.76395,10.696 8.6438,16.04195 1.56624,2.979 3.13091,5.95634 4.69419,8.93237 1.44162,3.72263 2.8817,7.44356 4.32036,11.16325 1.73104,2.88174 3.46052,5.76187 5.18858,8.64064 0.3935,1.36928 0.78549,2.73704 1.17603,4.10333"       sodipodi:nodetypes="ccccccccccccccccccc" />  </g></svg>