<?xml version="1.0" encoding="UTF-8" standalone="no"?><!-- Created with Inkscape (http://www.inkscape.org/) --><svg   width="85.560585"   height="171.42401"   viewBox="0 0 22.637914 45.355921"   version="1.1"   id="svg3956"   inkscape:version="1.2.2 (732a01da63, 2022-12-09)"   inkscape:export-filename="dente_27_cima_notplain.svg"   inkscape:export-xdpi="96"   inkscape:export-ydpi="96"   sodipodi:docname="dente_16_cima.svg"   xmlns:inkscape="http://www.inkscape.org/namespaces/inkscape"   xmlns:sodipodi="http://sodipodi.sourceforge.net/DTD/sodipodi-0.dtd"   xmlns="http://www.w3.org/2000/svg"   xmlns:svg="http://www.w3.org/2000/svg">  <sodipodi:namedview     id="namedview3958"     pagecolor="#ffffff"     bordercolor="#000000"     borderopacity="0.25"     inkscape:showpageshadow="2"     inkscape:pageopacity="0.0"     inkscape:pagecheckerboard="0"     inkscape:deskcolor="#d1d1d1"     inkscape:document-units="px"     showgrid="false"     inkscape:zoom="5.9081369"     inkscape:cx="5.0777428"     inkscape:cy="36.305861"     inkscape:window-width="958"     inkscape:window-height="1000"     inkscape:window-x="953"     inkscape:window-y="0"     inkscape:window-maximized="0"     inkscape:current-layer="layer18" />  <defs     id="defs3953">    <inkscape:path-effect       effect="bspline"       id="path-effect1643"       is_visible="true"       lpeversion="1"       weight="33.333333"       steps="2"       helper_size="0"       apply_no_weight="true"       apply_with_weight="true"       only_selected="false" />    <inkscape:path-effect       effect="bspline"       id="path-effect1647"       is_visible="true"       lpeversion="1"       weight="33.333333"       steps="2"       helper_size="0"       apply_no_weight="true"       apply_with_weight="true"       only_selected="false" />    <inkscape:path-effect       effect="bspline"       id="path-effect1655"       is_visible="true"       lpeversion="1"       weight="33.333333"       steps="2"       helper_size="0"       apply_no_weight="true"       apply_with_weight="true"       only_selected="false" />    <inkscape:path-effect       effect="bspline"       id="path-effect1659"       is_visible="true"       lpeversion="1"       weight="33.333333"       steps="2"       helper_size="0"       apply_no_weight="true"       apply_with_weight="true"       only_selected="false" />    <inkscape:path-effect       effect="bspline"       id="path-effect1651"       is_visible="true"       lpeversion="1"       weight="33.333333"       steps="2"       helper_size="0"       apply_no_weight="true"       apply_with_weight="true"       only_selected="false" />  </defs>  <g     inkscape:groupmode="layer"     id="layer36"     inkscape:label="Image 36"     transform="matrix(0.26458334,0,0,0.26458334,-309.85941,-18.73755)">    <path       style="fill:none;stroke:#030303;stroke-width:0.7;stroke-linecap:round;stroke-linejoin:round;stroke-dasharray:none;stroke-opacity:1;paint-order:stroke fill markers"       d="m 1200.5076,80.676271 c -1.8182,0.733268 -3.7395,2.02788 -5.5689,3.552449 -1.8295,1.524569 -3.5669,3.278904 -4.9801,5.138221 -1.4132,1.859318 -2.502,3.823206 -3.6046,5.85625 -1.1026,2.033044 -2.2189,4.135084 -3.1996,6.383999 -0.9808,2.24891 -1.8259,4.64434 -2.5275,6.90412 -0.7015,2.25977 -1.2595,4.38363 -1.7288,6.32788 -0.4694,1.94426 -0.8502,3.70876 -1.0608,5.55405 -0.2107,1.84529 -0.2513,3.77099 -0.336,6.1432 -0.085,2.37221 -0.2134,5.19075 -0.2477,8.39963 -0.034,3.20888 0.026,6.80782 0.087,9.73367 0.061,2.92586 0.1242,5.17845 0.3617,7.82045 0.2376,2.642 0.6498,5.67316 0.9973,8.64468 0.3476,2.97153 0.6304,5.88327 0.8936,8.44174 0.2632,2.55846 0.5067,4.76347 0.5267,6.96403 0.02,2.20055 -0.1831,4.3967 -0.4063,6.00415 -0.2231,1.60745 -0.4662,2.62628 0.2173,2.33725 0.6835,-0.28904 2.2934,-1.88522 3.6602,-2.84141 1.3668,-0.9562 2.4897,-1.27217 4.3482,-0.92324 1.8585,0.34892 4.452,1.36211 6.6839,1.92944 2.232,0.56733 4.1024,0.68923 5.9706,0.58973 1.8682,-0.0995 3.7343,-0.42018 5.0238,-0.99316 1.2894,-0.57298 2.003,-1.39842 2.6693,-2.38272 0.6663,-0.9843 1.2856,-2.12766 2.21,-2.34009 0.9244,-0.21244 2.1526,0.50577 3.3164,1.32509 1.1639,0.81932 2.2633,1.73944 4.3739,2.03851 2.1107,0.29907 5.2326,-0.022 7.3192,-0.58205 2.0865,-0.56009 3.1385,-1.35915 5.718,-1.33131 2.5796,0.0278 6.6856,0.88224 9.3086,1.19551 2.6231,0.31327 3.7636,0.0858 4.6435,-0.0279 0.88,-0.11366 1.4993,-0.11366 1.0496,-1.4069 -0.4496,-1.29323 -1.9677,-3.88076 -2.888,-6.63437 -0.9203,-2.75361 -1.2421,-5.67302 -1.6688,-8.921 -0.4267,-3.24797 -0.9583,-6.82432 -1.0616,-11.15628 -0.1034,-4.33196 0.2218,-9.41907 0.5601,-14.84578 0.3384,-5.42671 0.69,-11.1927 1.3813,-15.44564 0.6914,-4.25294 1.7226,-6.99222 2.7068,-10.0618 0.9841,-3.06958 1.9211,-6.46946 2.4374,-9.26092 0.5163,-2.79147 0.6118,-4.974687 0.4906,-7.465634 -0.1212,-2.490947 -0.4592,-5.289632 -1.1472,-7.405494 -0.6881,-2.115862 -1.727,-3.54888 -2.5799,-4.285267 -0.8528,-0.736387 -1.5199,-0.775097 -2.1846,-0.255518 -0.6646,0.519578 -1.3253,1.597154 -2.1218,3.338621 -0.7965,1.741467 -1.7286,4.14636 -2.8364,7.09761 -1.1078,2.95125 -2.3912,6.448602 -3.8984,10.236522 -1.5072,3.78793 -3.2382,7.86627 -4.9137,11.55778 -1.6755,3.69151 -3.2954,6.99605 -4.8498,10.07598 -1.5545,3.07994 -3.0432,5.93506 -4.1325,8.97639 -1.0893,3.04133 -1.779,6.26825 -2.5387,9.07269 -0.7597,2.80445 -1.5893,5.18641 -2.4157,6.9932 -0.8264,1.80678 -1.6497,3.03862 -2.6043,3.53173 -0.9546,0.49311 -2.0418,0.24741 -3.4125,-1.82057 -1.3706,-2.06797 -3.0239,-5.959 -4.7563,-10.37051 -1.7323,-4.41151 -3.5436,-9.34323 -4.6307,-14.34504 -1.0871,-5.00181 -1.4496,-10.0733 -1.2622,-14.91578 0.1875,-4.84247 0.9251,-9.45539 1.6766,-12.77288 0.7515,-3.317486 1.5169,-5.339104 2.4458,-7.490865 0.9288,-2.151761 2.0209,-4.43347 2.7671,-6.001766 0.7461,-1.568295 1.1461,-2.423161 1.2494,-3.463471 0.1033,-1.04031 -0.091,-2.266747 -1.0444,-2.794618 -0.9538,-0.52787 -2.6681,-0.355896 -4.4863,0.377371 z"       id="path1641"       inkscape:path-effect="#path-effect1643"       inkscape:original-d="m 1200.6105,80.115077 c -1.9203,1.295613 -3.8416,2.590226 -5.7639,3.883838 -1.7364,1.755387 -3.4738,3.509704 -5.2122,5.263055 -1.0878,1.964957 -2.1766,3.928836 -3.2664,5.891754 -1.1154,2.103127 -2.2317,4.205171 -3.349,6.306256 -0.8442,2.39654 -1.6893,4.79199 -2.5355,7.18648 -0.5569,2.12494 -1.1149,4.24878 -1.6738,6.37167 -0.3798,1.76557 -0.7606,3.53007 -1.1424,5.2936 -0.04,1.92681 -0.08,3.85253 -0.1219,5.7773 -0.1278,2.81966 -0.2565,5.63821 -0.3862,8.45581 0.061,3.60009 0.1211,7.19903 0.1802,10.79705 0.064,2.25368 0.1265,4.50627 0.1883,6.75791 0.4133,3.03227 0.8255,6.06343 1.2367,9.09364 0.2839,2.91287 0.5668,5.82461 0.8486,8.73542 0.2445,2.20611 0.4879,4.41113 0.7304,6.61519 -0.2022,2.19724 -0.4054,4.39338 -0.6095,6.58857 -0.2421,1.01989 -0.4851,2.03874 -0.7292,3.05661 1.6109,-1.59524 3.2208,-3.19141 4.8297,-4.78861 1.124,-0.315 2.2469,-0.63098 3.3689,-0.94797 2.5945,1.0142 5.188,2.02735 7.7804,3.03953 1.8716,0.1229 3.742,0.2448 5.6115,0.36571 1.8672,-0.31969 3.7333,-0.64037 5.5985,-0.96206 0.7146,-0.82448 1.4281,-1.64994 2.1407,-2.47641 0.6202,-1.14242 1.2394,-2.28578 1.8577,-3.43017 1.2292,0.71924 2.4574,1.43745 3.6847,2.15467 1.1005,0.92117 2.1999,1.84131 3.2984,2.76047 3.123,-0.32004 6.2449,-0.64107 9.3658,-0.96311 1.053,-0.79811 2.1049,-1.59719 3.1559,-2.39728 4.1071,0.85543 8.2131,1.70982 12.3181,2.56323 1.1415,-0.22647 2.282,-0.45394 3.4215,-0.68241 0.6202,10e-4 1.2395,10e-4 1.8577,0 -1.5172,-2.58665 -3.0353,-5.17419 -4.5545,-7.76279 -0.3208,-2.91853 -0.6426,-5.83794 -0.9654,-8.75841 -0.5307,-3.5755 -1.0623,-7.15185 -1.5949,-10.72927 0.3262,-5.08631 0.6513,-10.17342 0.9755,-15.26163 0.3525,-5.76522 0.7041,-11.53121 1.0547,-17.29832 1.0323,-2.73837 2.0636,-5.47763 3.0938,-8.21794 0.938,-3.39901 1.875,-6.79888 2.811,-10.19982 0.096,-2.18229 0.1919,-4.365493 0.2864,-6.549739 -0.337,-2.797797 -0.675,-5.596482 -1.014,-8.396223 -1.0378,-1.432034 -2.0767,-2.865011 -3.1165,-4.299016 -0.6662,-0.03771 -1.3333,-0.07643 -2.0015,-0.11614 -0.6598,1.078643 -1.3205,2.156243 -1.9823,3.232865 -0.9312,2.406029 -1.8632,4.810961 -2.7964,7.214942 -1.2824,3.49849 -2.5658,6.995841 -3.8503,10.492261 -1.73,4.07949 -3.461,8.15782 -5.193,12.23524 -1.619,3.30568 -3.2389,6.61023 -4.8599,9.91384 -1.4879,2.85627 -2.9766,5.71143 -4.4665,8.56564 -0.6887,3.22805 -1.3784,6.45497 -2.0691,9.68096 -0.8287,2.38305 -1.6583,4.76502 -2.4889,7.14603 -0.8223,1.23291 -1.6455,2.46478 -2.4698,3.69567 -1.0863,-0.24472 -2.1735,-0.49043 -3.2618,-0.73715 -1.6523,-3.89018 -3.3056,-7.7812 -4.9599,-11.6733 -1.8104,-4.93091 -3.6217,-9.86262 -5.434,-14.79543 -0.3615,-5.07069 -0.724,-10.14218 -1.0875,-15.21478 0.7386,-4.6121 1.4762,-9.22502 2.2128,-13.839031 0.7665,-2.020683 1.532,-4.042284 2.2964,-6.064926 1.0932,-2.280779 2.1854,-4.562466 3.2765,-6.8452 0.4011,-0.853886 0.8012,-1.708735 1.2002,-2.564607 -0.1928,-1.225478 -0.3867,-2.451909 -0.5816,-3.679421 -1.7135,0.172989 -3.4278,0.344963 -5.1432,0.515952 z"       sodipodi:nodetypes="ccccccccccccccccccccccccccccccccccccccccccccccccccccccccccccc" />    <path       style="fill:none;stroke:#030303;stroke-width:0.7;stroke-linecap:round;stroke-linejoin:round;stroke-dasharray:none;stroke-opacity:1;paint-order:stroke fill markers"       d="m 1224.4781,124.50069 c -0.9114,-2.42459 -1.8233,-4.85041 -2.6311,-7.53891 -0.8078,-2.6885 -1.5113,-5.63952 -1.8461,-8.95177 -0.3349,-3.31226 -0.3008,-6.98539 -0.3041,-10.5546 -0,-3.569212 -0.044,-7.034309 -0.2299,-10.032237 -0.186,-2.997929 -0.5176,-5.528595 -0.9116,-7.875917 -0.394,-2.347323 -0.8505,-4.511204 -1.7051,-5.965322 -0.8547,-1.454118 -2.1085,-2.197963 -3.4759,-2.371647 -1.3674,-0.173683 -2.8479,0.22368 -4.0837,0.902685 -1.2358,0.679006 -2.2262,1.639441 -3.143,2.962424 -0.9168,1.322983 -1.7596,3.008024 -2.6023,4.692693"       id="path1645"       inkscape:path-effect="#path-effect1647"       inkscape:original-d="m 1224.4781,124.50069 c -0.9108,-2.42482 -1.8227,-4.85063 -2.7356,-7.27744 -0.7026,-2.95013 -1.4061,-5.90115 -2.1106,-8.85322 0.035,-3.67227 0.069,-7.3454 0.1023,-11.019595 -0.04,-3.464244 -0.08,-6.929349 -0.1219,-10.395524 -0.3306,-2.529775 -0.6621,-5.060449 -0.9947,-7.592174 -0.4555,-2.162965 -0.912,-4.326844 -1.3695,-6.491767 -1.2528,-0.742864 -2.5066,-1.486698 -3.7614,-2.231547 -1.4795,0.398363 -2.96,0.79571 -4.4414,1.192065 -0.9895,0.961498 -1.9799,1.921957 -2.9714,2.881436 -0.8418,1.686089 -1.6847,3.37111 -2.5286,5.055165"       sodipodi:nodetypes="ccccccccccc" />    <path       style="fill:none;stroke:#4d4d4d;stroke-width:0.7;stroke-linecap:round;stroke-linejoin:round;stroke-dasharray:none;stroke-opacity:1;paint-order:stroke fill markers"       d="m 1216.7882,229.56411 c 0.021,-2.86087 0.041,-5.72271 -0.044,-8.18676 -0.085,-2.46404 -0.2757,-4.53027 0.7221,-6.16059 0.9979,-1.63031 3.184,-2.82336 5.3698,-4.01619"       id="path1653"       inkscape:path-effect="#path-effect1655"       inkscape:original-d="m 1216.7882,229.56411 c 0.022,-2.86086 0.042,-5.72271 0.062,-8.58556 -0.1898,-2.06532 -0.3805,-4.13156 -0.5723,-6.19884 2.1872,-1.19207 4.3734,-2.38509 6.5585,-3.57914" />    <path       style="fill:none;stroke:#4d4d4d;stroke-width:0.7;stroke-linecap:round;stroke-linejoin:round;stroke-dasharray:none;stroke-opacity:1;paint-order:stroke fill markers"       d="m 1216.7547,220.32106 c -0.2147,-1.37326 -0.4295,-2.74765 -0.8801,-3.90324 -0.4507,-1.1556 -1.1377,-2.09234 -2.4207,-2.94224 -1.2831,-0.8499 -3.1624,-1.61222 -5.043,-2.37507"       id="path1657"       inkscape:path-effect="#path-effect1659"       inkscape:original-d="m 1216.7547,220.32106 c -0.2138,-1.37339 -0.4287,-2.74777 -0.6445,-4.12316 -0.6861,-0.9358 -1.3731,-1.87256 -2.0612,-2.81035 -1.8784,-0.76136 -3.7577,-1.5237 -5.6381,-2.28704" />    <path       style="fill:none;stroke:#030303;stroke-width:0.7;stroke-linecap:round;stroke-linejoin:round;stroke-dasharray:none;stroke-opacity:1;paint-order:stroke fill markers"       d="m 1245.8307,180.56603 c 1.5602,1.87747 3.1195,3.75386 4.5837,6.37005 1.4643,2.61619 2.8338,5.9719 3.8873,9.65021 1.0536,3.67832 1.7914,7.67908 1.9805,11.39727 0.189,3.71819 -0.1705,7.15385 -0.7746,9.89742 -0.604,2.74357 -1.4526,4.79535 -2.7762,6.69375 -1.3236,1.8984 -3.1223,3.64378 -5.5883,5.38305 -2.466,1.73927 -5.5994,3.47248 -8.0682,4.74158 -2.4688,1.26911 -4.2732,2.07411 -6.5769,1.80676 -2.3037,-0.26735 -5.1073,-1.60771 -7.6522,-2.82041 -2.5449,-1.21269 -4.8309,-2.29763 -6.239,-3.04836 -1.408,-0.75073 -1.9379,-1.1675 -2.9274,-0.6692 -0.9894,0.49829 -2.4372,1.91256 -4.4836,3.28508 -2.0464,1.37252 -4.6917,2.70341 -7.0368,4.06857 -2.3451,1.36516 -4.3896,2.76443 -6.592,3.65327 -2.2024,0.88884 -4.5631,1.26716 -7.3897,0.52732 -2.8266,-0.73984 -6.1193,-2.59859 -9.2577,-5.25459 -3.1384,-2.65599 -6.1221,-6.10944 -7.7767,-9.35078 -1.6546,-3.24135 -1.9791,-6.27045 -1.4212,-10.89712 0.5579,-4.62668 1.9985,-10.85027 3.23,-15.83363 1.2315,-4.98337 2.2538,-8.72622 2.9835,-11.06322 0.7298,-2.33701 1.1669,-3.26781 1.6042,-4.19906"       id="path1649"       inkscape:path-effect="#path-effect1651"       inkscape:original-d="m 1245.8307,180.56603 c 1.5603,1.87739 3.1196,3.75378 4.6779,5.62917 1.3706,3.35685 2.7401,6.71256 4.1086,10.06733 0.7389,4.00193 1.4767,8.0027 2.2136,12.00255 -0.3585,3.43679 -0.718,6.87244 -1.0785,10.30716 -0.8475,2.05283 -1.6961,4.10458 -2.5456,6.15538 -1.7979,1.74649 -3.5966,3.49191 -5.3964,5.23636 -3.1325,1.73428 -6.2659,3.46748 -9.4004,5.19972 -1.8033,0.806 -3.6077,1.61096 -5.413,2.41495 -2.8028,-1.33944 -5.6064,-2.67981 -8.4111,-4.02122 -2.2851,-1.08399 -4.5711,-2.16893 -6.8582,-3.2549 -0.5289,-0.4158 -1.0588,-0.83258 -1.5898,-1.25037 -1.4468,1.41529 -2.8946,2.82953 -4.3433,4.2428 -2.6445,1.33197 -5.2898,2.66288 -7.9362,3.99282 -2.0436,1.40033 -4.0881,2.79961 -6.1337,4.19792 -2.3598,0.37934 -4.7205,0.75767 -7.0823,1.135 -3.2918,-1.85781 -6.5845,-3.71656 -9.8782,-5.57634 -2.9829,-3.45258 -5.9666,-6.90603 -8.9513,-10.36055 -0.3236,-3.02823 -0.6482,-6.05733 -0.9737,-9.08749 1.4416,-6.22284 2.8822,-12.44643 4.3219,-18.67114 1.0233,-3.74197 2.0457,-7.4848 3.067,-11.22869 0.4382,-0.92986 0.8753,-1.86067 1.3114,-2.7925"       sodipodi:nodetypes="cccccccccccccccccccccc" />  </g></svg>