<?xml version="1.0" encoding="UTF-8" standalone="no"?><!-- Created with Inkscape (http://www.inkscape.org/) --><svg   version="1.1"   id="svg228"   width="59.687119"   height="198.14696"   viewBox="0 0 59.687121 198.14697"   xmlns="http://www.w3.org/2000/svg"   xmlns:svg="http://www.w3.org/2000/svg">  <defs     id="defs232" />  <g     id="layer66"     transform="translate(-840.46106,-570.42151)">    <path       style="fill:none;stroke:#030303;stroke-width:0.7;stroke-linecap:round;stroke-linejoin:round;stroke-dasharray:none;stroke-opacity:1;paint-order:stroke fill markers"       d="m 859.46824,689.02074 c -2.05617,2.23038 -3.49052,4.32844 -5.29761,7.07256 -1.8071,2.74413 -3.98683,6.13415 -5.43036,9.1103 -1.44353,2.97614 -2.15075,5.53781 -2.82942,8.59682 -0.67867,3.05901 -1.3288,6.61505 -2.03817,10.87987 -0.70937,4.26483 -1.47794,9.23812 -2.10233,13.6966 -0.62439,4.45849 -1.10458,8.40187 -0.91837,11.35678 0.18622,2.95491 1.0382,4.92085 2.97247,6.93245 1.93428,2.01159 4.95009,4.06915 7.52251,5.74897 2.57241,1.67983 4.70126,2.98189 6.44217,3.88081 1.74092,0.89893 3.09376,1.39492 4.49693,1.67164 1.40317,0.27672 2.8567,0.33453 4.33568,0.12379 1.47899,-0.21074 2.98375,-0.68976 4.48349,-1.54949 1.49975,-0.85973 2.99491,-2.10022 4.84198,-3.06765 1.84707,-0.96743 4.04542,-1.66165 6.68608,-2.53537 2.64066,-0.87372 5.7235,-1.92687 8.18799,-3.08138 2.46449,-1.15452 4.31088,-2.41037 5.77689,-4.39436 1.46601,-1.98398 2.55201,-4.69663 2.97406,-8.30474 0.42205,-3.6081 0.17986,-8.11195 -0.14569,-11.93097 -0.32556,-3.81903 -0.73455,-6.95308 -1.58029,-9.75703 -0.84574,-2.80394 -2.12864,-5.27773 -3.54116,-8.88297 -1.41252,-3.60524 -2.95434,-8.34169 -3.72547,-11.42293 -0.77112,-3.08123 -0.77112,-4.50689 -1.99298,-6.73645 -1.22186,-2.22956 -3.66636,-5.26295 -5.97695,-7.5058 -2.3106,-2.24284 -4.48742,-3.69469 -7.08661,-4.70579 -2.59919,-1.01111 -5.62058,-1.58086 -8.47076,-0.68464 -2.85018,0.89622 -5.52791,3.2586 -7.58408,5.48898 z"       id="path2929" />    <path       style="fill:none;stroke:#030303;stroke-width:0.7;stroke-linecap:round;stroke-linejoin:round;stroke-dasharray:none;stroke-opacity:1;paint-order:stroke fill markers"       d="m 890.2781,695.25548 c 0.23543,-2.1157 0.54271,-5.61628 0.72235,-12.22155 0.17964,-6.60527 0.23155,-16.31493 0.13564,-23.11644 -0.0959,-6.80152 -0.33971,-10.69462 -0.861,-15.17501 -0.52129,-4.48039 -1.32016,-9.54786 -1.7299,-14.57972 -0.40974,-5.03187 -0.43017,-10.0277 -0.85365,-15.13678 -0.42347,-5.10909 -1.25013,-10.33124 -1.83775,-14.83533 -0.58761,-4.50409 -0.93607,-8.28981 -1.10902,-12.68915 -0.17295,-4.39935 -0.17029,-9.41195 -1.08852,-12.55424 -0.91823,-3.1423 -2.75843,-4.41392 -4.58371,-4.14043 -1.82527,0.27348 -3.63436,2.0928 -5.14308,4.23113 -1.50871,2.13832 -2.71675,4.59509 -3.76534,8.44509 -1.04858,3.85 -1.9377,9.09257 -2.7091,14.43511 -0.77139,5.34254 -1.42505,10.78468 -2.16253,15.8419 -0.73748,5.05722 -1.5587,9.72931 -2.63241,14.17498 -1.0737,4.44567 -2.39977,8.66486 -3.62698,13.5172 -1.22722,4.85234 -2.35554,10.33741 -3.33677,15.6054 -0.98122,5.26799 -1.81531,10.31854 -2.39436,15.5795 -0.57905,5.26095 -0.90351,10.73872 -0.98436,15.11202 -0.0808,4.37331 0.0812,7.65974 0.1222,9.23421 0.041,1.57447 -0.0397,1.43309 0.58782,0.23162 0.62749,-1.20148 1.96361,-3.46105 3.57793,-5.39369 1.61432,-1.93264 3.50617,-3.53737 5.49638,-5.10853 1.99021,-1.57116 4.07845,-3.1085 7.31024,-3.27901 3.23178,-0.17051 7.6058,1.02543 10.91381,3.33474 3.308,2.30932 5.55024,5.73102 6.93769,7.92731 1.38745,2.1963 1.92013,3.16704 2.26782,3.2867 0.34769,0.11967 0.51118,-0.61132 0.7466,-2.72703 z"       id="path2933" />    <path       style="fill:none;stroke:#4d4d4d;stroke-width:0.7;stroke-linecap:round;stroke-linejoin:round;stroke-dasharray:none;stroke-opacity:1;paint-order:stroke fill markers"       d="m 846.75232,743.59389 c 1.45141,-4.57707 2.90301,-9.15477 4.15333,-13.37219 1.25031,-4.21741 2.29929,-8.07446 3.52847,-11.54546 1.22919,-3.471 2.63853,-6.55552 3.75957,-8.26068 1.12105,-1.70516 1.95299,-2.03023 2.64404,-1.25579 0.69105,0.77443 1.24134,2.64689 1.70334,5.53166 0.46201,2.88477 0.83595,6.78175 0.38931,10.35875 -0.44664,3.57701 -1.71352,6.83439 -2.1964,10.41912 -0.48288,3.58473 -0.18203,7.49605 0.11874,11.40637"       id="path2937" />    <path       style="fill:none;stroke:#4d4d4d;stroke-width:0.7;stroke-linecap:round;stroke-linejoin:round;stroke-dasharray:none;stroke-opacity:1;paint-order:stroke fill markers"       d="m 864.41691,747.98509 c 0.73532,-4.47784 1.47077,-8.95649 2.43913,-13.65422 0.96836,-4.69774 2.16962,-9.61427 3.25737,-13.89928 1.08775,-4.28501 2.06193,-7.93823 3.51188,-9.80512 1.44996,-1.86689 3.37446,-1.94665 5.27654,-0.75593 1.90209,1.19072 3.78176,3.65068 5.9589,7.12714 2.17714,3.47646 4.65181,7.96912 6.33666,12.40033 1.68485,4.4312 2.58021,8.80071 3.47535,13.16915"       id="path2941" />  </g></svg>