<?xml version="1.0" encoding="UTF-8" standalone="no"?><!-- Created with Inkscape (http://www.inkscape.org/) --><svg   width="22.182295"   height="67.945641"   viewBox="0 0 5.8690678 17.977277"   version="1.1"   id="svg3956"   inkscape:version="1.2.2 (732a01da63, 2022-12-09)"   inkscape:export-filename="dente_23_cima_notplain.svg"   inkscape:export-xdpi="96"   inkscape:export-ydpi="96"   sodipodi:docname="dente_16_cima.svg"   xmlns:inkscape="http://www.inkscape.org/namespaces/inkscape"   xmlns:sodipodi="http://sodipodi.sourceforge.net/DTD/sodipodi-0.dtd"   xmlns="http://www.w3.org/2000/svg"   xmlns:svg="http://www.w3.org/2000/svg">  <sodipodi:namedview     id="namedview3958"     pagecolor="#ffffff"     bordercolor="#000000"     borderopacity="0.25"     inkscape:showpageshadow="2"     inkscape:pageopacity="0.0"     inkscape:pagecheckerboard="0"     inkscape:deskcolor="#d1d1d1"     inkscape:document-units="px"     showgrid="false"     inkscape:zoom="5.9081369"     inkscape:cx="5.0777428"     inkscape:cy="36.305861"     inkscape:window-width="958"     inkscape:window-height="1000"     inkscape:window-x="953"     inkscape:window-y="0"     inkscape:window-maximized="0"     inkscape:current-layer="layer18" />  <defs     id="defs3953">    <inkscape:path-effect       effect="bspline"       id="path-effect1503"       is_visible="true"       lpeversion="1"       weight="33.333333"       steps="2"       helper_size="0"       apply_no_weight="true"       apply_with_weight="true"       only_selected="false" />    <inkscape:path-effect       effect="bspline"       id="path-effect1507"       is_visible="true"       lpeversion="1"       weight="33.333333"       steps="2"       helper_size="0"       apply_no_weight="true"       apply_with_weight="true"       only_selected="false" />    <inkscape:path-effect       effect="bspline"       id="path-effect1511"       is_visible="true"       lpeversion="1"       weight="33.333333"       steps="2"       helper_size="0"       apply_no_weight="true"       apply_with_weight="true"       only_selected="false" />  </defs>  <g     inkscape:groupmode="layer"     id="layer27"     inkscape:label="Image 27"     transform="matrix(0.15037379,0,0,0.15037379,-143.37845,-40.279186)">    <path       style="fill:none;stroke:#030303;stroke-width:0.487512;stroke-linecap:round;stroke-linejoin:round;stroke-dasharray:none;stroke-opacity:1;paint-order:stroke fill markers"       d="m 981.69307,269.3644 c -0.66974,0.65547 -2.00923,1.96644 -3.25618,3.62268 -1.24695,1.65624 -2.40118,3.65746 -3.55967,5.96512 -1.15849,2.30767 -2.32115,4.92154 -3.59323,7.87438 -1.27208,2.95284 -2.65351,6.24444 -3.63658,9.66677 -0.98306,3.42234 -1.56777,6.97498 -2.44318,11.34946 -0.87541,4.37448 -2.04145,9.57058 -2.87298,13.48912 -0.83153,3.91855 -1.32853,6.5593 -1.57489,8.99603 -0.24635,2.43673 -0.24215,4.66914 -0.31064,6.87024 -0.0685,2.20109 -0.20964,4.37079 -0.23463,5.94961 -0.025,1.57881 0.0661,2.56656 0.29329,2.85246 0.22723,0.28591 0.59074,-0.12933 1.35335,-1.02161 0.7626,-0.89228 1.92426,-2.26156 3.19206,-3.35591 1.26779,-1.09436 2.64139,-1.91354 4.12122,-2.34622 1.47983,-0.43267 3.06535,-0.47894 4.61853,-0.15294 1.55318,0.326 3.07375,1.02383 4.31746,1.79994 1.24371,0.7761 2.21058,1.63017 3.33725,2.80521 1.12667,1.17503 2.41317,2.67086 3.31333,3.84489 0.90016,1.17404 1.41409,2.02616 1.61978,1.61681 0.2057,-0.40934 0.1036,-2.08 0.23309,-3.95477 0.12948,-1.87476 0.49067,-3.95335 0.74369,-6.17779 0.25301,-2.22445 0.39777,-4.59472 0.31459,-6.80489 -0.0832,-2.21017 -0.39446,-4.26026 -0.76218,-6.93252 -0.36772,-2.67226 -0.79184,-5.96653 -1.10091,-9.59923 -0.30907,-3.6327 -0.50301,-7.60356 -0.78537,-11.20471 -0.28236,-3.60115 -0.65318,-6.8324 -0.9147,-10.15415 -0.26152,-3.32175 -0.41368,-6.73375 -0.33679,-10.06245 0.0769,-3.32869 0.38289,-6.57379 0.73281,-9.14489 0.34991,-2.5711 0.74376,-4.46797 0.60614,-5.54241 -0.13762,-1.07444 -0.80766,-1.3262 -1.35404,-1.33987 -0.54638,-0.0137 -0.96852,0.21117 -1.17971,0.32367 -0.21119,0.11249 -0.21117,0.11249 -0.88091,0.76797 z"       id="path1501"       inkscape:path-effect="#path-effect1503"       inkscape:original-d="m 982.36281,268.70892 c -1.33879,1.31166 -2.67828,2.62262 -4.01847,3.93289 -1.15358,2.00199 -2.30781,4.0032 -3.46276,6.00376 -1.16201,2.61467 -2.32467,5.22854 -3.48805,7.84178 -1.38079,3.29242 -2.76221,6.58402 -4.14436,9.875 -0.58404,3.55347 -1.16875,7.10611 -1.75416,10.65813 -1.16539,5.19699 -2.33141,10.39309 -3.49817,15.58859 -0.49632,2.64156 -0.99333,5.28231 -1.49103,7.92242 0.005,2.2332 0.009,4.46561 0.0126,6.69737 -0.14045,2.17048 -0.28159,4.34018 -0.42343,6.50922 0.0918,0.98848 0.1828,1.97623 0.27315,2.9633 0.36422,-0.41455 0.72773,-0.82979 1.09055,-1.24573 1.16241,-1.36863 2.32406,-2.73791 3.48505,-4.10792 1.37434,-0.81852 2.74794,-1.6377 4.12085,-2.45759 1.58628,-0.0455 3.1718,-0.0918 4.75665,-0.13879 1.52134,0.69856 3.04192,1.39638 4.56184,2.09353 0.9676,0.8548 1.93447,1.70887 2.90067,2.56227 1.28724,1.49657 2.57373,2.9924 3.85955,4.48755 0.51466,0.85284 1.02861,1.70495 1.54182,2.55639 -0.1014,-1.67003 -0.2035,-3.34069 -0.30629,-5.01208 0.36187,-2.07797 0.72312,-4.15655 1.0836,-6.23586 0.14548,-2.36967 0.29028,-4.73994 0.4343,-7.11096 -0.31054,-2.04947 -0.62186,-4.09955 -0.93386,-6.15038 -0.42344,-3.29368 -0.84758,-6.58794 -1.27238,-9.88297 -0.19325,-3.97033 -0.38718,-7.94119 -0.58183,-11.91283 -0.37013,-3.2307 -0.74095,-6.46195 -1.11247,-9.69397 -0.15147,-3.41144 -0.30363,-6.82344 -0.45648,-10.23621 0.30672,-3.24452 0.61273,-6.48962 0.91805,-9.73548 0.39456,-1.89624 0.7884,-3.79311 1.18156,-5.69071 -0.66935,-0.25106 -1.33938,-0.50282 -2.01011,-0.75528 -0.42145,0.22556 -0.84358,0.45041 -1.26641,0.67456 z" />    <path       style="fill:none;stroke:#030303;stroke-width:0.487512;stroke-linecap:round;stroke-linejoin:round;stroke-dasharray:none;stroke-opacity:1;paint-order:stroke fill markers"       d="m 960.71331,346.10007 c -0.85575,1.76905 -1.71135,3.5378 -2.50248,5.72467 -0.79113,2.18686 -1.51777,4.79153 -2.21456,7.67008 -0.6968,2.87855 -1.36374,6.03074 -1.7821,8.49827 -0.41835,2.46754 -0.58814,4.25018 -0.43356,5.75823 0.15458,1.50804 0.63312,2.74119 1.68278,3.73311 1.04966,0.99192 2.66985,1.74301 4.25261,2.38664 1.58276,0.64363 3.128,1.17986 4.53253,1.92746 1.40452,0.7476 2.66832,1.70622 3.85272,2.60822 1.1844,0.90199 2.28934,1.74731 3.23246,2.24885 0.94313,0.50155 1.72435,0.65972 2.74417,0.37406 1.01982,-0.28567 2.27877,-1.01487 3.73909,-1.84279 1.46033,-0.82792 3.1219,-1.75449 4.43246,-2.52088 1.31057,-0.76639 2.27004,-1.37254 3.10455,-2.02723 0.83451,-0.65468 1.54418,-1.35799 2.36738,-1.82444 0.8232,-0.46646 1.75937,-0.69592 2.47762,-1.1644 0.71826,-0.46848 1.21917,-1.17617 1.58176,-2.0623 0.36259,-0.88612 0.58684,-1.95098 0.44138,-3.75555 -0.14546,-1.80457 -0.66089,-4.34901 -1.25072,-7.12773 -0.58983,-2.77871 -1.25404,-5.79153 -1.98439,-8.16699 -0.73036,-2.37546 -1.52699,-4.11341 -2.17856,-5.40046 -0.65156,-1.28705 -1.15811,-2.12307 -1.66516,-2.95992"       id="path1505"       inkscape:path-effect="#path-effect1507"       inkscape:original-d="m 960.71331,346.10007 c -0.85491,1.76946 -1.71051,3.53821 -2.56682,5.30628 -0.72596,2.60548 -1.4526,5.21015 -2.17994,7.81417 -0.66627,3.15302 -1.33321,6.30521 -2.00087,9.45677 -0.16909,1.78341 -0.33889,3.56605 -0.50938,5.34803 0.47926,1.2339 0.9578,2.46705 1.43566,3.69953 1.62095,0.75181 3.24114,1.5029 4.86067,2.2533 1.54599,0.53695 3.09123,1.07319 4.6358,1.60874 1.26454,0.95935 2.52834,1.91797 3.79147,2.87591 1.10567,0.84604 2.21061,1.69136 3.31487,2.536 0.78196,0.15888 1.56318,0.31705 2.34372,0.47454 1.25969,-0.72852 2.51864,-1.45772 3.77691,-2.18763 1.66236,-0.92593 3.32393,-1.8525 4.98489,-2.77982 0.96022,-0.60548 1.91969,-1.21163 2.87852,-1.8185 0.71036,-0.70263 1.42004,-1.40593 2.12903,-2.10993 0.93692,-0.22877 1.87309,-0.45824 2.80855,-0.6884 0.50165,-0.70705 1.00254,-1.41476 1.50279,-2.12318 0.22496,-1.06421 0.44921,-2.12907 0.67277,-3.19465 -0.51474,-2.54384 -1.03018,-5.08828 -1.54632,-7.63346 -0.66357,-3.01225 -1.32777,-6.02507 -1.99267,-9.03865 -0.79604,-1.73735 -1.59263,-3.47532 -2.38999,-5.21403 -0.5059,-0.83536 -1.01244,-1.67139 -1.51968,-2.50812"       sodipodi:nodetypes="cccccccccccccccccccccc" />    <path       style="fill:none;stroke:#030303;stroke-width:0.487512;stroke-linecap:round;stroke-linejoin:round;stroke-dasharray:none;stroke-opacity:1;paint-order:stroke fill markers"       d="m 972.03612,285.08928 c 0.2045,-1.28691 0.40889,-2.57312 0.59523,-3.94956 0.18634,-1.37645 0.35481,-2.84432 0.54342,-4.48039 0.1886,-1.63608 0.39734,-3.44025 0.7344,-4.86679 0.33706,-1.42654 0.80248,-2.47509 1.29006,-3.09683 0.48757,-0.62174 0.99674,-0.81615 1.73713,-0.28005 0.74039,0.53611 1.71175,1.80179 2.68252,3.0667"       id="path1509"       inkscape:path-effect="#path-effect1511"       inkscape:original-d="m 972.03612,285.08928 c 0.20649,-1.28659 0.41088,-2.5728 0.61317,-3.85868 0.16917,-1.46724 0.33764,-2.93511 0.50541,-4.40371 0.20944,-1.80355 0.41818,-3.60772 0.62622,-5.41262 0.46615,-1.0479 0.93157,-2.09645 1.39632,-3.14573 0.50988,-0.19373 1.01905,-0.38815 1.52753,-0.58326 0.97209,1.26641 1.94344,2.53209 2.91411,3.79708"       sodipodi:nodetypes="ccccccc" />  </g></svg>