<?xml version="1.0" encoding="UTF-8" standalone="no"?><!-- Created with Inkscape (http://www.inkscape.org/) --><svg   width="79.145096"   height="152.25212"   viewBox="0 0 20.940482 40.28336"   version="1.1"   id="svg3956"   inkscape:version="1.2.2 (732a01da63, 2022-12-09)"   inkscape:export-filename="dente_27_cima_notplain.svg"   inkscape:export-xdpi="96"   inkscape:export-ydpi="96"   sodipodi:docname="dente_16_cima.svg"   xmlns:inkscape="http://www.inkscape.org/namespaces/inkscape"   xmlns:sodipodi="http://sodipodi.sourceforge.net/DTD/sodipodi-0.dtd"   xmlns="http://www.w3.org/2000/svg"   xmlns:svg="http://www.w3.org/2000/svg">  <sodipodi:namedview     id="namedview3958"     pagecolor="#ffffff"     bordercolor="#000000"     borderopacity="0.25"     inkscape:showpageshadow="2"     inkscape:pageopacity="0.0"     inkscape:pagecheckerboard="0"     inkscape:deskcolor="#d1d1d1"     inkscape:document-units="px"     showgrid="false"     inkscape:zoom="5.9081369"     inkscape:cx="5.0777428"     inkscape:cy="36.305861"     inkscape:window-width="958"     inkscape:window-height="1000"     inkscape:window-x="953"     inkscape:window-y="0"     inkscape:window-maximized="0"     inkscape:current-layer="layer18" />  <defs     id="defs3953">    <inkscape:path-effect       effect="bspline"       id="path-effect1711"       is_visible="true"       lpeversion="1"       weight="33.333333"       steps="2"       helper_size="0"       apply_no_weight="true"       apply_with_weight="true"       only_selected="false" />    <inkscape:path-effect       effect="bspline"       id="path-effect2525"       is_visible="true"       lpeversion="1"       weight="33.333333"       steps="2"       helper_size="0"       apply_no_weight="true"       apply_with_weight="true"       only_selected="false" />    <inkscape:path-effect       effect="bspline"       id="path-effect2529"       is_visible="true"       lpeversion="1"       weight="33.333333"       steps="2"       helper_size="0"       apply_no_weight="true"       apply_with_weight="true"       only_selected="false" />    <inkscape:path-effect       effect="bspline"       id="path-effect1715"       is_visible="true"       lpeversion="1"       weight="33.333333"       steps="2"       helper_size="0"       apply_no_weight="true"       apply_with_weight="true"       only_selected="false" />  </defs>  <g     inkscape:groupmode="layer"     id="layer39"     inkscape:label="Image 39"     transform="matrix(0.26458334,0,0,0.26458334,-336.60847,-25.607624)">    <path       style="fill:none;stroke:#030303;stroke-width:0.7;stroke-linecap:round;stroke-linejoin:round;stroke-dasharray:none;stroke-opacity:1;paint-order:stroke fill markers"       d="m 1316.5327,98.603684 c -0.5661,0.325566 -1.6989,0.977061 -3.0385,1.783476 -1.3397,0.80642 -2.8862,1.76775 -4.8218,3.05279 -1.9355,1.28503 -4.2598,2.89362 -6.4251,4.93756 -2.1652,2.04393 -4.1708,4.52273 -6.2461,6.90121 -2.0752,2.37849 -4.2201,4.65659 -6.4482,7.90218 -2.2282,3.24559 -4.5392,7.45797 -6.1345,10.91714 -1.5954,3.45917 -2.4748,6.16443 -3.0213,9.33954 -0.5464,3.17512 -0.7599,6.81951 -0.8339,9.47508 -0.074,2.65558 -0.01,4.32215 0.058,7.3706 0.066,3.04845 0.1331,7.47862 0.2612,11.30798 0.128,3.82936 0.3172,7.05767 0.3254,9.8987 0.01,2.84102 -0.1646,5.29474 -0.2951,7.36412 -0.1305,2.06938 -0.2187,3.75434 0.3879,4.34069 0.6067,0.58635 1.9076,0.0753 3.2039,-0.47311 1.2963,-0.54842 2.5878,-1.13417 4.7143,-1.42693 2.1264,-0.29275 5.087,-0.29275 7.8747,-0.40236 2.7877,-0.10962 5.4024,-0.32876 7.9035,-0.79759 2.5011,-0.46882 4.8888,-1.18718 6.5702,-1.92831 1.6813,-0.74113 2.6567,-1.50506 3.6056,-1.68048 0.9488,-0.17542 1.87,0.23704 3.0756,0.94233 1.2056,0.70528 2.6956,1.70311 4.2267,2.37319 1.531,0.67008 3.1028,1.01288 5.0389,1.19664 1.9361,0.18375 4.2365,0.20869 6.513,0.23552 2.2764,0.0268 4.5286,0.0556 5.8361,-0.0692 1.3075,-0.12475 1.6709,-0.40284 1.5141,-1.24378 -0.1569,-0.84094 -0.8345,-2.24595 -1.3097,-4.06323 -0.4753,-1.81728 -0.7477,-4.04663 -0.6874,-6.58585 0.06,-2.53922 0.4536,-5.38791 0.6923,-8.50581 0.2387,-3.1179 0.3229,-6.50496 -0,-9.35861 -0.3251,-2.85365 -1.0597,-5.17392 -1.6003,-7.89594 -0.5407,-2.72202 -0.8871,-5.84551 -1.4894,-9.1543 -0.6023,-3.30879 -1.4607,-6.80271 -2.2992,-9.90564 -0.8385,-3.10293 -1.657,-5.81471 -2.1647,-8.58856 -0.5077,-2.77386 -0.7042,-5.60951 -0.7147,-8.16224 -0.011,-2.55273 0.1649,-4.82224 0.1288,-6.99682 -0.036,-2.17457 -0.2839,-4.25429 -0.6156,-5.62029 -0.3317,-1.36599 -0.7478,-2.01828 -1.2723,-2.48461 -0.5246,-0.46632 -1.1581,-0.74604 -1.7872,-0.75858 -0.6292,-0.0125 -1.2533,0.24284 -1.7793,0.87617 -0.5259,0.63333 -0.9531,1.64389 -1.7306,3.10229 -0.7775,1.4584 -1.9054,3.3646 -2.9939,5.14713 -1.0885,1.78253 -2.1376,3.44124 -3.2912,5.39735 -1.1535,1.9561 -2.4115,4.20939 -3.3866,6.00584 -0.9751,1.79646 -1.6673,3.13591 -2.3083,4.98684 -0.641,1.85092 -1.2307,4.21288 -1.4247,5.93605 -0.1941,1.72318 0.01,2.80705 0.1425,3.80443 0.1354,0.99738 0.2049,1.90822 0.4168,2.61873 0.212,0.71051 0.5657,1.22055 0.6763,1.63279 0.1105,0.41223 -0.021,0.72724 -0.1771,0.68211 -0.1562,-0.0451 -0.3377,-0.45108 -0.604,-1.08737 -0.2663,-0.63629 -0.6174,-1.50282 -0.8025,-3.20027 -0.1852,-1.69745 -0.2038,-4.22544 0.1512,-6.44703 0.355,-2.2216 1.084,-4.13615 1.8795,-6.00972 0.7955,-1.87357 1.6575,-3.70587 2.7563,-5.60219 1.0989,-1.89633 2.4346,-3.85644 3.6859,-5.77704 1.2513,-1.92061 2.4183,-3.80162 3.4045,-5.27888 0.9862,-1.47726 1.7915,-2.55045 2.1984,-3.57165 0.4069,-1.02119 0.4153,-1.9911 0.4655,-2.91903 0.05,-0.92793 0.1423,-1.81355 -0.036,-2.612226 -0.1782,-0.798678 -0.6275,-1.510406 -1.3976,-1.931786 -0.77,-0.42138 -1.8608,-0.551242 -2.9148,-0.388566 -1.054,0.162676 -2.0702,0.618167 -2.5787,0.846057 -0.5084,0.227891 -0.5083,0.227869 -1.0744,0.553435 z"       id="path1709"       inkscape:path-effect="#path-effect1711"       inkscape:original-d="m 1317.0988,98.278118 c -1.1315,0.65231 -2.2643,1.303815 -3.398,1.954242 -1.5456,0.96237 -3.0921,1.9237 -4.6396,2.88406 -2.3235,1.6097 -4.6478,3.21833 -6.9733,4.82599 -2.0047,2.47992 -4.0103,4.95873 -6.017,7.4366 -2.1439,2.27918 -4.2888,4.55724 -6.4347,6.83444 -2.3102,4.21369 -4.6212,8.42608 -6.9334,12.63775 -0.8785,2.70639 -1.7579,5.41167 -2.6384,8.11603 -0.2125,3.64553 -0.4261,7.28992 -0.6406,10.93338 0.066,1.66761 0.1319,3.33416 0.1964,4.99974 0.068,4.43134 0.1349,8.86151 0.2008,13.29076 0.1902,3.22943 0.3794,6.45774 0.5675,9.68512 -0.1717,2.45481 -0.3444,4.90852 -0.5181,7.36128 -0.087,1.686 -0.1756,3.37094 -0.2649,5.05491 1.3021,-0.51009 2.603,-1.02116 3.903,-1.53324 1.2926,-0.58475 2.5842,-1.17048 3.8747,-1.75722 2.9618,0.001 5.9224,0.001 8.8821,0 2.6158,-0.21815 5.2305,-0.43729 7.8442,-0.65744 2.3888,-0.71738 4.7765,-1.43573 7.1632,-2.1551 0.9765,-0.76297 1.9519,-1.52691 2.9263,-2.29187 0.9222,0.41347 1.8434,0.82592 2.7636,1.23738 1.4911,0.99886 2.9811,1.99669 4.4701,2.99354 1.573,0.34383 3.1448,0.68665 4.7157,1.02847 2.3015,0.0259 4.6019,0.0509 6.9014,0.0748 2.2534,0.0297 4.5056,0.0585 6.7569,0.0862 0.3645,-0.2771 0.728,-0.55519 1.0905,-0.83428 -0.6767,-1.40408 -1.3543,-2.8091 -2.0329,-4.21515 -0.2714,-2.22843 -0.5438,-4.45778 -0.8172,-6.68817 0.3942,-2.84779 0.7875,-5.69647 1.1797,-8.54621 0.085,-3.3862 0.1693,-6.77326 0.2525,-10.16139 -0.7337,-2.31937 -1.4683,-4.63965 -2.2039,-6.96097 -0.3454,-3.12263 -0.6918,-6.24612 -1.0392,-9.37068 -0.8575,-3.49308 -1.7158,-6.98701 -2.5752,-10.48202 -0.8176,-2.71088 -1.6362,-5.42265 -2.4558,-8.13547 -0.1955,-2.83476 -0.392,-5.67041 -0.5894,-8.50712 0.1764,-2.26861 0.3519,-4.53812 0.5264,-6.80868 -0.2468,-2.07878 -0.4947,-4.15849 -0.7435,-6.23923 -0.4151,-0.65132 -0.8312,-1.3036 -1.2483,-1.95691 -0.6325,-0.27872 -1.266,-0.55843 -1.9005,-0.83915 -0.6231,0.25639 -1.2472,0.51176 -1.8723,0.76614 -0.4261,1.01159 -0.8533,2.02212 -1.2814,3.03172 -1.127,1.90738 -2.2548,3.8136 -3.3837,5.71897 -1.0481,1.65975 -2.0972,3.31846 -3.1473,4.97615 -1.2571,2.2544 -2.515,4.50772 -3.774,6.76009 -0.6912,1.3405 -1.3834,2.67995 -2.0766,4.01843 -0.5888,2.36304 -1.1786,4.72499 -1.7693,7.08599 0.2023,1.08492 0.4036,2.16879 0.6039,3.25168 0.071,0.91191 0.14,1.82279 0.2085,2.73268 0.3547,0.51106 0.7084,1.0211 1.0611,1.53015 -0.1306,0.31604 -0.2621,0.63106 -0.3946,0.94508 -0.1805,-0.40497 -0.362,-0.81092 -0.5445,-1.2179 -0.3501,-0.86561 -0.7012,-1.73214 -1.0533,-2.59973 -0.018,-2.5271 -0.036,-5.0551 -0.056,-7.58415 0.73,-1.91365 1.4589,-3.82821 2.1868,-5.74386 0.8631,-1.83137 1.7251,-3.66368 2.5861,-5.49703 1.3366,-1.95913 2.6723,-3.91921 4.007,-5.88037 1.168,-1.88011 2.335,-3.7611 3.501,-5.64323 0.8064,-1.07226 1.6117,-2.14545 2.416,-3.21972 0.01,-0.96898 0.018,-1.93889 0.025,-2.9099 0.093,-0.88476 0.1852,-1.77037 0.2764,-2.65716 -0.4484,-0.710856 -0.8978,-1.422554 -1.3482,-2.135408 -1.09,-0.128887 -2.1808,-0.25875 -3.2728,-0.389633 -1.0154,0.456568 -2.0316,0.912073 -3.049,1.366641 z"       sodipodi:nodetypes="scccccccccccccccccccccccccccccccccccccccccccccccccccccccccccccss" />    <path       style="fill:none;stroke:#4d4d4d;stroke-width:0.7;stroke-linecap:round;stroke-linejoin:round;stroke-dasharray:none;stroke-opacity:1;paint-order:stroke fill markers"       d="m 1314.2124,237.02876 c -0.1809,-3.38574 -0.3619,-6.77252 -0.4524,-9.00743 -0.091,-2.23492 -0.091,-3.31788 1.1381,-4.53631 1.2285,-1.21844 3.6853,-2.57109 6.1417,-3.92359"       id="path2523"       inkscape:path-effect="#path-effect2525"       inkscape:original-d="m 1314.2124,237.02876 c -0.1799,-3.38579 -0.3609,-6.77257 -0.5429,-10.16035 10e-4,-1.082 10e-4,-2.16496 0,-3.24894 2.4578,-1.3517 4.9145,-2.70436 7.3703,-4.05804" />    <path       style="fill:none;stroke:#4d4d4d;stroke-width:0.7;stroke-linecap:round;stroke-linejoin:round;stroke-dasharray:none;stroke-opacity:1;paint-order:stroke fill markers"       d="m 1313.9167,225.26507 c -0.1968,-0.79094 -0.3939,-1.58307 -1.5702,-2.54539 -1.1762,-0.96231 -3.3325,-2.09425 -5.49,-3.22683"       id="path2527"       inkscape:path-effect="#path-effect2529"       inkscape:original-d="m 1313.9167,225.26507 c -0.1961,-0.79112 -0.3932,-1.58325 -0.5913,-2.37637 -2.1553,-1.13097 -4.3116,-2.2629 -6.4689,-3.39585" />    <path       style="fill:none;stroke:#030303;stroke-width:0.7;stroke-linecap:round;stroke-linejoin:round;stroke-dasharray:none;stroke-opacity:1;paint-order:stroke fill markers"       d="m 1280.4098,193.39752 c -0.782,1.29263 -1.5639,2.58505 -2.167,3.76087 -0.6032,1.17583 -1.0275,2.2348 -1.4353,3.57939 -0.4077,1.3446 -0.7989,2.97452 -1.1994,4.8013 -0.4006,1.82678 -0.8105,3.85024 -1.1067,5.5322 -0.2962,1.68195 -0.4787,3.02221 -0.6619,4.39451 -0.1833,1.37231 -0.3672,2.77655 -0.5202,4.42557 -0.1529,1.64902 -0.2748,3.54262 -0.3793,4.95548 -0.1046,1.41285 -0.1918,2.34497 -0.252,3.67417 -0.06,1.3292 -0.094,3.05534 -0.1104,4.36781 -0.017,1.31248 -0.017,2.21113 0.1994,3.1672 0.2165,0.95608 0.6491,1.96924 1.1601,2.8917 0.511,0.92246 1.0999,1.75413 2.4507,2.84164 1.3508,1.08751 3.463,2.43127 5.4018,3.5027 1.9387,1.07142 3.7039,1.87074 5.3941,2.45953 1.6902,0.58879 3.3054,0.96734 4.8602,0.93309 1.5547,-0.0342 3.0497,-0.48085 4.5071,-1.08059 1.4574,-0.59974 2.8775,-1.35265 4.6831,-2.37726 1.8056,-1.0246 3.9968,-2.32091 5.926,-3.52465 1.9291,-1.20373 3.5962,-2.31485 4.6802,-3.13189 1.084,-0.81704 1.5851,-1.34016 2.5005,-1.10083 0.9155,0.23933 2.2443,1.24025 3.9045,2.38506 1.6602,1.1448 3.6515,2.43352 5.5321,3.4879 1.8806,1.05438 3.6502,1.87456 5.2367,2.17676 1.5864,0.3022 2.9899,0.0871 4.7421,-0.64277 1.7522,-0.72985 3.8535,-1.97434 6.4831,-4.14074 2.6295,-2.16641 5.7876,-5.25482 7.7188,-7.65053 1.9311,-2.39571 2.6357,-4.09914 2.9215,-6.91366 0.2859,-2.81451 0.1529,-6.74045 -0.7013,-11.0568 -0.8541,-4.31635 -2.4296,-9.02301 -4.2148,-13.04727 -1.7852,-4.02427 -3.7803,-7.3659 -5.7761,-10.70877"       id="path1713"       inkscape:path-effect="#path-effect1715"       inkscape:original-d="m 1280.4098,193.39752 c -0.7808,1.29336 -1.5627,2.58578 -2.3456,3.87714 -0.4234,1.06003 -0.8477,2.11902 -1.2731,3.17705 -0.3901,1.63097 -0.7813,3.26088 -1.1735,4.88985 -0.4089,2.02454 -0.8188,4.04801 -1.2298,6.07052 -0.1815,1.3413 -0.364,2.68156 -0.5475,4.02084 -0.183,1.40532 -0.3669,2.80957 -0.5519,4.21286 -0.1209,1.89467 -0.2428,3.78827 -0.3657,5.6809 -0.086,0.93313 -0.1734,1.86523 -0.2616,2.79634 -0.032,1.72722 -0.065,3.45336 -0.1,5.17855 7e-4,0.89973 5e-4,1.79838 -8e-4,2.69608 0.4337,1.01423 0.8663,2.02741 1.298,3.03966 0.59,0.83271 1.1789,1.66439 1.7668,2.49505 2.1133,1.34478 4.2256,2.6885 6.3368,4.03125 1.7662,0.80033 3.5314,1.59962 5.2955,2.39793 1.6163,0.37957 3.2315,0.75811 4.8457,1.13566 1.4959,-0.44559 2.9909,-0.89217 4.4848,-1.33975 1.4211,-0.75192 2.8412,-1.50482 4.2603,-2.25872 2.1922,-1.29535 4.3834,-2.59164 6.5736,-3.88895 1.6682,-1.11018 3.3353,-2.22131 5.0015,-3.33346 0.502,-0.52211 1.0031,-1.0452 1.5031,-1.5693 1.3298,1.00194 2.6586,2.00285 3.9864,3.00277 1.9925,1.28977 3.9839,2.57848 5.9743,3.86623 1.7707,0.82122 3.5403,1.64141 5.309,2.46062 1.4046,-0.21414 2.8081,-0.42926 4.2107,-0.64539 2.1023,-1.24353 4.2036,-2.488 6.3039,-3.7335 3.1591,-3.08749 6.3172,-6.17586 9.4742,-9.26529 0.7056,-1.70251 1.4101,-3.40595 2.1136,-5.11043 -0.1321,-3.92509 -0.2651,-7.85103 -0.3991,-11.77804 -1.5746,-4.70586 -3.1501,-9.41253 -4.7267,-14.12029 -1.9941,-3.34075 -3.9892,-6.68237 -5.9853,-10.02506"       sodipodi:nodetypes="ccccccccccccccccccccccccccccccc" />  </g></svg>