<?xml version="1.0" encoding="UTF-8" standalone="no"?><!-- Created with Inkscape (http://www.inkscape.org/) --><svg   width="39"   height="70"   viewBox="0 0 10.318754 18.520826"   version="1.1"   id="svg3956"   inkscape:version="1.2.2 (732a01da63, 2022-12-09)"   inkscape:export-filename="dente_22_cima_notplain.svg"   inkscape:export-xdpi="96"   inkscape:export-ydpi="96"   sodipodi:docname="dente_16_cima.svg"   xmlns:inkscape="http://www.inkscape.org/namespaces/inkscape"   xmlns:sodipodi="http://sodipodi.sourceforge.net/DTD/sodipodi-0.dtd"   xmlns="http://www.w3.org/2000/svg"   xmlns:svg="http://www.w3.org/2000/svg">  <sodipodi:namedview     id="namedview3958"     pagecolor="#ffffff"     bordercolor="#000000"     borderopacity="0.25"     inkscape:showpageshadow="2"     inkscape:pageopacity="0.0"     inkscape:pagecheckerboard="0"     inkscape:deskcolor="#d1d1d1"     inkscape:document-units="px"     showgrid="false"     inkscape:zoom="5.9081369"     inkscape:cx="5.0777428"     inkscape:cy="36.305861"     inkscape:window-width="958"     inkscape:window-height="1000"     inkscape:window-x="953"     inkscape:window-y="0"     inkscape:window-maximized="0"     inkscape:current-layer="layer18" />  <defs     id="defs3953">    <inkscape:path-effect       effect="bspline"       id="path-effect1483"       is_visible="true"       lpeversion="1"       weight="33.333333"       steps="2"       helper_size="0"       apply_no_weight="true"       apply_with_weight="true"       only_selected="false" />    <inkscape:path-effect       effect="bspline"       id="path-effect1487"       is_visible="true"       lpeversion="1"       weight="33.333333"       steps="2"       helper_size="0"       apply_no_weight="true"       apply_with_weight="true"       only_selected="false" />  </defs>  <g     inkscape:groupmode="layer"     id="layer25"     inkscape:label="Image 25"     transform="matrix(0.08376766,0,0,0.08376766,-68.084958,-5.6814542)">    <path       style="fill:none;stroke:#030303;stroke-width:0.7;stroke-linecap:round;stroke-linejoin:round;stroke-dasharray:none;stroke-opacity:1;paint-order:stroke fill markers"       d="m 890.72719,71.465162 c -1.30406,0.829877 -3.91243,2.48979 -5.6918,5.1551 -1.77937,2.66531 -2.72927,6.335014 -4.46381,10.792445 -1.73454,4.457431 -4.25359,9.702581 -6.28126,15.001393 -2.02766,5.29882 -3.56383,10.65074 -4.89706,15.12395 -1.33323,4.4732 -2.46343,8.06749 -3.94588,14.02313 -1.48245,5.95563 -3.31709,14.2721 -4.96586,21.58848 -1.64877,7.31637 -3.11157,13.63224 -4.30454,20.21863 -1.19298,6.58638 -2.11613,13.44276 -2.76374,18.83595 -0.64761,5.3932 -1.01966,9.32287 -1.17726,11.78094 -0.15761,2.45807 -0.10089,3.44428 0.83409,2.39007 0.93499,-1.05422 2.74841,-4.14801 4.94264,-6.5322 2.19423,-2.38419 4.76869,-4.05817 7.76761,-4.85247 2.99892,-0.79431 6.42132,-0.70908 9.82784,-0.1527 3.40651,0.55639 6.79676,1.58355 9.47831,3.8027 2.68155,2.21915 4.65477,5.62932 6.30735,7.89334 1.65259,2.26401 2.98406,3.38202 3.82131,3.52168 0.83726,0.13966 1.18154,-0.69862 1.60592,-3.40537 0.42437,-2.70676 0.9287,-7.28218 1.36452,-12.41519 0.43581,-5.13302 0.80305,-10.82338 0.97583,-17.5361 0.17279,-6.71273 0.15106,-14.44745 -0.25293,-21.05988 -0.40398,-6.61243 -1.19034,-12.1023 -2.08667,-17.81471 -0.89634,-5.71241 -1.90264,-11.64703 -2.35542,-17.65258 -0.45277,-6.00555 -0.35181,-12.08151 -0.0169,-16.98883 0.33487,-4.907316 0.90374,-8.645572 1.58437,-11.869825 0.68063,-3.224252 1.47305,-5.934142 2.0896,-8.651559 0.61655,-2.717418 1.05715,-5.442365 0.68303,-7.598112 -0.37412,-2.155748 -1.56388,-3.742474 -2.82896,-4.386128 -1.26507,-0.643654 -2.60528,-0.342927 -3.27577,-0.192479 -0.67048,0.150449 -0.67047,0.150449 -1.97453,0.980325 z"       id="path1481"       inkscape:path-effect="#path-effect1483"       inkscape:original-d="m 892.03125,70.635286 c -2.60738,1.660914 -5.21575,3.320829 -7.82512,4.979743 -0.94893,3.670849 -1.89883,7.340552 -2.84974,11.009328 -2.51815,5.246359 -5.0372,10.491509 -7.5573,15.735763 -1.53524,5.35314 -3.07141,10.70506 -4.60862,16.05609 -1.12924,3.59542 -2.25944,7.18971 -3.39066,10.78306 -1.83372,8.3178 -3.66836,16.63427 -5.50404,24.94991 -1.46185,6.31712 -2.92465,12.63299 -4.38847,18.94799 -0.92219,6.85765 -1.84534,13.71403 -2.76951,20.56955 -0.37107,3.93082 -0.74313,7.86049 -1.11619,11.78924 0.0577,0.98724 0.11442,1.97345 0.17014,2.95868 1.8145,-3.09292 3.62792,-6.18671 5.44038,-9.28157 2.57558,-1.67305 5.15004,-3.34703 7.72356,-5.02205 3.42354,0.0862 6.84594,0.17146 10.26741,0.25568 3.39139,1.02821 6.78164,2.05537 10.17096,3.08155 1.97429,3.4113 3.94751,6.82147 5.91976,10.23071 1.33252,1.11906 2.66399,2.23707 3.99448,3.35411 0.3453,-0.83732 0.68959,-1.67559 1.03288,-2.51489 0.50535,-4.57459 1.00968,-9.15001 1.51302,-13.72651 0.36825,-5.68958 0.73549,-11.37994 1.10173,-17.07142 -0.0207,-7.73404 -0.0425,-15.46876 -0.0652,-23.20465 -0.78539,-5.48909 -1.57174,-10.97896 -2.35912,-16.46995 -1.00533,-5.93385 -2.01163,-11.86847 -3.01895,-17.80421 0.10197,-6.0752 0.20294,-12.15116 0.30291,-18.22824 0.56989,-3.737404 1.13876,-7.47566 1.70663,-11.214991 0.79345,-2.708998 1.58587,-5.418887 2.3773,-8.12983 0.44162,-2.724057 0.88221,-5.449005 1.32182,-8.175007 -1.18882,-1.585793 -2.37858,-3.172522 -3.56937,-4.760283 -1.33926,0.301738 -2.67947,0.602465 -4.0207,0.902197 z" />    <path       style="fill:none;stroke:#030303;stroke-width:0.7;stroke-linecap:round;stroke-linejoin:round;stroke-dasharray:none;stroke-opacity:1;paint-order:stroke fill markers"       d="m 852.21268,207.22953 c -0.86406,1.54601 -1.72792,3.09167 -2.75952,5.37138 -1.0316,2.27972 -2.23087,5.29318 -3.09424,7.98103 -0.86338,2.68785 -1.39085,5.04971 -2.12494,7.79888 -0.73409,2.74916 -1.67472,5.88555 -2.42424,9.12409 -0.74952,3.23853 -1.30794,6.57883 -1.83047,9.3402 -0.52253,2.76137 -1.00911,4.94372 -1.39339,6.93624 -0.38428,1.99251 -0.66628,3.79499 -0.70636,5.77183 -0.0401,1.97684 0.16154,4.12765 0.93338,6.07378 0.77184,1.94613 2.1131,3.68744 3.68728,4.90195 1.57419,1.21452 3.38086,1.90283 5.41753,3.11173 2.03667,1.2089 4.30331,2.93792 6.95343,4.89707 2.65013,1.95915 5.68356,4.14834 8.52018,5.53768 2.83662,1.38935 5.47625,1.97933 7.01618,2.23397 1.53994,0.25465 1.9805,0.17436 2.84702,-0.0248 0.86651,-0.19912 2.159,-0.51703 4.05928,-1.85781 1.90028,-1.34078 4.40891,-3.70447 6.76601,-5.68703 2.35709,-1.98256 4.56238,-3.58377 6.43454,-4.91872 1.87216,-1.33496 3.41107,-2.40357 5.68424,-3.45137 2.27318,-1.0478 5.28008,-2.07466 7.46041,-3.44659 2.18033,-1.37194 3.53466,-3.0892 4.61353,-4.90539 1.07887,-1.8162 1.88232,-3.73158 2.29467,-6.05252 0.41236,-2.32095 0.43339,-5.04781 -0.0779,-8.16147 -0.51125,-3.11366 -1.55509,-6.61414 -3.12994,-10.54052 -1.57485,-3.92638 -3.68082,-8.27844 -5.34376,-11.99616 -1.66294,-3.71772 -2.88266,-6.80091 -4.00419,-9.27543 -1.12152,-2.47453 -2.14498,-4.34024 -3.16911,-6.20718"       id="path1485"       inkscape:path-effect="#path-effect1487"       inkscape:original-d="m 852.21268,207.22953 c -0.86287,1.54667 -1.72673,3.09233 -2.5916,4.637 -1.19832,3.01458 -2.39759,6.02804 -3.59788,9.04057 -0.52649,2.36295 -1.05397,4.72481 -1.58245,7.08572 -0.93967,3.13752 -1.8803,6.27391 -2.82195,9.40936 -0.55745,3.34145 -1.11587,6.68175 -1.6753,10.02113 -0.48559,2.18343 -0.97217,4.36578 -1.45976,6.54717 -0.28101,1.80356 -0.56301,3.60604 -0.84602,5.40756 0.20262,2.1519 0.40424,4.30271 0.60486,6.45257 1.34231,1.74237 2.68356,3.48368 4.02384,5.22402 1.80774,0.68934 3.61441,1.37765 5.42011,2.06497 2.26773,1.73009 4.53438,3.4591 6.80006,5.18716 3.03455,2.19028 6.06798,4.37947 9.10046,6.56771 2.64073,0.591 5.28035,1.18099 7.91902,1.76998 0.44158,-0.0793 0.88214,-0.15958 1.3217,-0.24088 1.29355,-0.31692 2.58604,-0.63483 3.87756,-0.95375 2.50972,-2.36279 5.01835,-4.72648 7.52602,-7.09122 2.20637,-1.60028 4.41166,-3.20149 6.61599,-4.80373 1.53996,-1.06766 3.07887,-2.13627 4.61681,-3.2059 3.00803,-1.0259 6.01493,-2.05277 9.0209,-3.08065 1.35538,-1.71632 2.70971,-3.43358 4.06307,-5.15187 0.80449,-1.91446 1.60794,-3.82984 2.41041,-5.74626 0.022,-2.72597 0.043,-5.45283 0.0631,-8.18074 -1.04288,-3.49961 -2.08672,-7.00009 -3.13159,-10.50163 -2.10506,-4.35123 -4.21103,-8.70329 -6.31805,-13.05643 -1.21876,-3.08231 -2.43847,-6.1655 -3.65921,-9.24974 -1.02249,-1.86479 -2.04595,-3.7305 -3.07043,-5.59725" />  </g></svg>