<?xml version="1.0" encoding="UTF-8" standalone="no"?><!-- Created with Inkscape (http://www.inkscape.org/) --><svg   width="32.187016"   height="101.92583"   viewBox="0 0 8.5161512 26.967868"   version="1.1"   id="svg3956"   inkscape:version="1.2.2 (732a01da63, 2022-12-09)"   inkscape:export-filename="dente_24_cima_notplain.svg"   inkscape:export-xdpi="96"   inkscape:export-ydpi="96"   sodipodi:docname="dente_16_cima.svg"   xmlns:inkscape="http://www.inkscape.org/namespaces/inkscape"   xmlns:sodipodi="http://sodipodi.sourceforge.net/DTD/sodipodi-0.dtd"   xmlns="http://www.w3.org/2000/svg"   xmlns:svg="http://www.w3.org/2000/svg">  <sodipodi:namedview     id="namedview3958"     pagecolor="#ffffff"     bordercolor="#000000"     borderopacity="0.25"     inkscape:showpageshadow="2"     inkscape:pageopacity="0.0"     inkscape:pagecheckerboard="0"     inkscape:deskcolor="#d1d1d1"     inkscape:document-units="px"     showgrid="false"     inkscape:zoom="5.9081369"     inkscape:cx="5.0777428"     inkscape:cy="36.305861"     inkscape:window-width="958"     inkscape:window-height="1000"     inkscape:window-x="953"     inkscape:window-y="0"     inkscape:window-maximized="0"     inkscape:current-layer="layer18" />  <defs     id="defs3953">    <inkscape:path-effect       effect="bspline"       id="path-effect1543"       is_visible="true"       lpeversion="1"       weight="33.333333"       steps="2"       helper_size="0"       apply_no_weight="true"       apply_with_weight="true"       only_selected="false" />    <inkscape:path-effect       effect="bspline"       id="path-effect1547"       is_visible="true"       lpeversion="1"       weight="33.333333"       steps="2"       helper_size="0"       apply_no_weight="true"       apply_with_weight="true"       only_selected="false" />  </defs>  <g     inkscape:groupmode="layer"     id="layer27"     inkscape:label="Image 27"     transform="matrix(0.15037379,0,0,0.15037379,-140.5099,-30.891345)">    <g       inkscape:groupmode="layer"       id="layer30"       inkscape:label="Image 30"       transform="matrix(1.0516441,0,0,1.0516441,-112.64623,115.70818)">      <path         style="fill:none;stroke:#030303;stroke-width:0.7;stroke-linecap:round;stroke-linejoin:round;stroke-dasharray:none;stroke-opacity:1;paint-order:stroke fill markers"         d="m 1025.9519,86.252546 c -0.8471,0.660928 -2.5412,1.982889 -4.3461,4.416585 -1.8049,2.433696 -3.7202,5.978519 -5.5268,10.088449 -1.8065,4.10993 -3.5043,8.7845 -4.9382,13.4583 -1.4339,4.67379 -2.6039,9.34641 -3.6229,14.24247 -1.0191,4.89606 -1.8871,10.01519 -2.4954,15.75027 -0.6083,5.73508 -0.9568,12.08563 -1.2051,17.88797 -0.2483,5.80234 -0.3964,11.0561 -0.388,16.48767 0.01,5.43158 0.1729,11.04056 -0.1437,15.64724 -0.3166,4.60668 -1.1143,8.21109 -0.9045,8.97037 0.2097,0.75928 1.4269,-1.32611 3.2812,-3.42309 1.8544,-2.09698 4.3454,-4.20499 7.1117,-5.30027 2.7663,-1.09527 5.8067,-1.17775 8.5938,-0.70336 2.7872,0.4744 5.3207,1.5051 7.8019,2.83441 2.4811,1.3293 4.9099,2.9568 6.7868,4.7672 1.8769,1.81041 3.2022,3.80321 3.2949,2.64535 0.093,-1.15785 -1.0468,-5.46621 -1.6346,-9.8657 -0.5878,-4.39949 -0.6236,-8.88968 -0.7394,-13.17376 -0.1157,-4.28408 -0.3115,-8.36184 -0.5086,-13.75753 -0.1972,-5.39569 -0.3957,-12.10894 -0.6567,-17.26589 -0.2609,-5.15694 -0.5845,-8.75736 -1.2226,-13.65081 -0.6381,-4.89344 -1.5908,-11.07963 -2.5935,-15.29346 -1.0026,-4.21384 -2.0556,-6.4552 -2.4825,-9.54849 -0.4269,-3.09328 -0.2272,-7.03808 -0.1247,-11.32941 0.1025,-4.291336 0.1079,-8.928991 -0.3228,-11.411089 -0.4307,-2.482099 -1.2986,-2.807999 -1.7331,-2.971175 -0.4346,-0.163177 -0.4341,-0.163177 -1.2811,0.49775 z"         id="path1541"         inkscape:path-effect="#path-effect1543"         inkscape:original-d="m 1026.7989,85.591619 c -1.6932,1.322945 -3.3874,2.64489 -5.0825,3.965836 -1.9144,3.545991 -3.8296,7.09084 -5.7459,10.634755 -1.6968,4.67575 -3.3946,9.35031 -5.0934,14.02396 -1.169,4.6738 -2.339,9.34641 -3.51,14.01811 -0.8671,5.12033 -1.7352,10.23945 -2.6043,15.35768 -0.3475,6.3518 -0.6961,12.70235 -1.0456,19.05202 -0.1471,5.25498 -0.2951,10.50874 -0.4442,15.76161 0.1656,5.61022 0.3302,11.2192 0.4939,16.8273 -0.7967,3.60554 -1.5944,7.20994 -2.393,10.81341 1.2182,-2.08447 2.4354,-4.16985 3.6516,-6.25628 2.4922,-2.10713 4.9832,-4.21518 7.4734,-6.32428 3.0415,-0.0815 6.0819,-0.16395 9.1214,-0.24743 2.5346,1.03174 5.0681,2.06244 7.6006,3.09216 2.4299,1.62859 4.8586,3.25612 7.2864,4.88268 1.3264,1.99386 2.6518,3.98663 3.9761,5.97845 -1.1385,-4.30753 -2.278,-8.61588 -3.4185,-12.92533 -0.035,-4.48936 -0.071,-8.97954 -0.1074,-13.47081 -0.1948,-4.07693 -0.3905,-8.1547 -0.5873,-12.23355 -0.1975,-6.71251 -0.396,-13.42576 -0.5955,-20.14014 -0.3226,-3.59956 -0.6461,-7.19998 -0.9706,-10.80147 -0.9518,-6.18544 -1.9045,-12.37163 -2.8582,-18.55894 -1.052,-2.24044 -2.105,-4.48178 -3.1589,-6.72417 0.2007,-3.94395 0.4004,-7.88875 0.5991,-11.83462 0.01,-4.636841 0.012,-9.274499 0.016,-13.913249 -0.8669,-0.324908 -1.7348,-0.650802 -2.6037,-0.977702 z" />      <path         style="fill:none;stroke:#030303;stroke-width:0.7;stroke-linecap:round;stroke-linejoin:round;stroke-dasharray:none;stroke-opacity:1;paint-order:stroke fill markers"         d="m 1002.5391,203.60807 c -0.7611,1.83527 -1.5221,3.67005 -2.2467,5.92542 -0.72456,2.25538 -1.41282,4.93103 -1.92261,7.85289 -0.5098,2.92185 -0.84119,6.08954 -1.14767,8.5188 -0.30648,2.42926 -0.588,4.12006 -0.77062,5.86248 -0.18263,1.74242 -0.26645,3.53621 -0.36992,5.22197 -0.10347,1.68576 -0.22656,3.26342 0.23775,4.54334 0.46431,1.27993 1.51487,2.26198 2.53198,2.98265 1.0171,0.72067 2.00049,1.18031 3.05989,1.53617 1.0595,0.35587 2.1948,0.6082 3.2412,0.99668 1.0464,0.38848 2.0038,0.91269 3.0485,1.46562 1.0448,0.55292 2.1768,1.13454 3.8556,1.92578 1.6787,0.79123 3.904,1.79205 5.6107,2.78546 1.7067,0.99342 2.8946,1.97888 4.0273,2.21345 1.1328,0.23456 2.2109,-0.28071 3.8795,-0.91583 1.6686,-0.63512 3.9273,-1.39002 6.7053,-2.89031 2.7779,-1.5003 6.0754,-3.74596 8.6052,-5.29501 2.5298,-1.54905 4.2916,-2.40135 5.5451,-3.4351 1.2534,-1.03376 1.999,-2.24933 2.3812,-3.97957 0.3822,-1.73023 0.4008,-3.97568 0.1794,-6.0979 -0.2214,-2.12222 -0.6832,-4.12125 -1.338,-6.55119 -0.6549,-2.42993 -1.503,-5.29061 -2.3542,-7.67296 -0.8512,-2.38234 -1.7058,-4.28626 -2.7897,-6.43322 -1.084,-2.14695 -2.3974,-4.53683 -3.4707,-6.30883 -1.0734,-1.77199 -1.9068,-2.92593 -2.741,-4.08101"         id="path1545"         inkscape:path-effect="#path-effect1547"         inkscape:original-d="m 1002.5391,203.60807 c -0.7599,1.83578 -1.5208,3.67057 -2.2828,5.50436 -0.68725,2.67675 -1.37553,5.3524 -2.06481,8.02711 -0.3304,3.1688 -0.66179,6.33649 -0.99419,9.50323 -0.28053,1.69186 -0.56204,3.38266 -0.84456,5.07249 -0.0828,1.79487 -0.16665,3.58866 -0.25147,5.38149 -0.12209,1.57872 -0.24518,3.15638 -0.36927,4.73308 1.05161,0.9831 2.10217,1.96516 3.15176,2.94624 0.98445,0.46066 1.96784,0.92031 2.95034,1.37897 1.1364,0.25336 2.2717,0.50569 3.4061,0.75705 0.9584,0.52522 1.9158,1.04942 2.8722,1.57263 1.1331,0.58267 2.2651,1.1643 3.3962,1.74497 2.2264,1.00187 4.4517,2.00265 6.6761,3.00256 1.1891,0.98658 2.377,1.97205 3.564,2.95661 1.0792,-0.51431 2.1573,-1.02958 3.2345,-1.5459 2.2598,-0.75394 4.5185,-1.50882 6.7762,-2.26473 3.2986,-2.24475 6.5961,-4.49041 9.8927,-6.73714 1.7628,-0.85132 3.5246,-1.70361 5.2855,-2.55695 0.7466,-1.21464 1.4921,-2.43024 2.2367,-3.64686 0.02,-2.24454 0.038,-4.48999 0.056,-6.73648 -0.4608,-1.99812 -0.9225,-3.99717 -1.3853,-5.99725 -0.8471,-2.8598 -1.6951,-5.72049 -2.5442,-8.58224 -0.8535,-1.90298 -1.7081,-3.80688 -2.5637,-5.71181 -1.3124,-2.38898 -2.6258,-4.77886 -3.9403,-7.16979 -0.8324,-1.15298 -1.6658,-2.30691 -2.5002,-3.46186"         sodipodi:nodetypes="ccccccccccccccccccccccccc" />    </g>  </g></svg>