<?xml version="1.0" encoding="UTF-8" standalone="no"?><!-- Created with Inkscape (http://www.inkscape.org/) --><svg   width="39"   height="70"   viewBox="0 0 10.318754 18.520826"   version="1.1"   id="svg3956"   inkscape:version="1.2.2 (732a01da63, 2022-12-09)"   inkscape:export-filename="dente_16_cima_notplain.svg"   inkscape:export-xdpi="96"   inkscape:export-ydpi="96"   sodipodi:docname="dente_16_cima.svg"   xmlns:inkscape="http://www.inkscape.org/namespaces/inkscape"   xmlns:sodipodi="http://sodipodi.sourceforge.net/DTD/sodipodi-0.dtd"   xmlns="http://www.w3.org/2000/svg"   xmlns:svg="http://www.w3.org/2000/svg">  <sodipodi:namedview     id="namedview3958"     pagecolor="#ffffff"     bordercolor="#000000"     borderopacity="0.25"     inkscape:showpageshadow="2"     inkscape:pageopacity="0.0"     inkscape:pagecheckerboard="0"     inkscape:deskcolor="#d1d1d1"     inkscape:document-units="px"     showgrid="false"     inkscape:zoom="4.1776837"     inkscape:cx="-29.083102"     inkscape:cy="47.394685"     inkscape:window-width="1920"     inkscape:window-height="1009"     inkscape:window-x="-8"     inkscape:window-y="-8"     inkscape:window-maximized="1"     inkscape:current-layer="layer7" />  <defs     id="defs3953">    <inkscape:path-effect       effect="bspline"       id="path-effect1287"       is_visible="true"       lpeversion="1"       weight="33.333333"       steps="2"       helper_size="0"       apply_no_weight="true"       apply_with_weight="true"       only_selected="false" />    <inkscape:path-effect       effect="bspline"       id="path-effect1291"       is_visible="true"       lpeversion="1"       weight="33.333333"       steps="2"       helper_size="0"       apply_no_weight="true"       apply_with_weight="true"       only_selected="false" />  </defs>  <g     inkscape:groupmode="layer"     id="layer9"     inkscape:label="Image 9"     transform="matrix(0.1066661,0,0,0.1066661,-31.350457,-8.9088647)">    <path       style="fill:none;stroke:#030303;stroke-width:0.7;stroke-linecap:round;stroke-linejoin:round;stroke-dasharray:none;stroke-opacity:1;paint-order:stroke fill markers"       d="m 317.04069,233.72449 c 0.0124,-1.01589 0.23086,-1.39474 1.04375,-4.23299 0.81289,-2.83825 2.22017,-8.13596 3.60427,-12.37255 1.3841,-4.23659 2.74492,-7.41141 4.73229,-10.2418 1.98737,-2.83039 4.60093,-5.31571 7.1032,-7.1666 2.50227,-1.85089 4.89273,-3.06707 7.50903,-3.83374 2.6163,-0.76667 5.45778,-1.08389 8.07755,-0.83697 2.61978,0.24691 5.01739,1.05742 7.40811,2.67284 2.39072,1.61541 4.77461,4.03502 6.57079,6.75552 1.79619,2.72051 3.00507,5.74155 3.74523,8.88063 0.74017,3.13908 1.01196,6.39615 1.25611,10.24908 0.24415,3.85293 0.46068,8.3014 0.50967,11.62127 0.049,3.31988 -0.0695,5.51085 -0.71568,7.16102 -0.6462,1.65017 -1.82016,2.76031 -3.10304,3.52966 -1.28289,0.76934 -2.67515,1.19795 -4.56432,2.23173 -1.88917,1.03379 -4.2747,2.67262 -6.97614,4.01782 -2.70144,1.34521 -5.71894,2.39673 -7.89284,2.96267 -2.17391,0.56594 -3.50435,0.64608 -5.22246,-0.059 -1.71811,-0.70509 -3.82388,-2.19619 -6.35851,-3.89667 -2.53463,-1.70047 -5.49788,-3.61009 -8.10316,-5.32899 -2.60527,-1.7189 -4.85236,-3.24699 -6.16785,-4.51385 -1.31549,-1.26687 -1.69854,-2.27279 -1.98687,-3.60193 -0.28832,-1.32914 -0.48157,-2.98125 -0.46913,-3.99713 z"       id="path1285"       inkscape:path-effect="#path-effect1287"       inkscape:original-d="m 316.83488,233.08714 c 0.21943,-0.37786 0.43785,-0.75671 0.65528,-1.13656 1.40836,-5.29702 2.81563,-10.59473 4.22199,-15.89376 1.36187,-3.17394 2.72268,-6.34876 4.08252,-9.52462 2.61467,-2.48442 5.22823,-4.96974 7.84085,-7.45611 2.39156,-1.21523 4.78202,-2.43141 7.17153,-3.64862 2.8426,-0.31623 5.68408,-0.63345 8.52461,-0.95167 2.3987,0.81154 4.79631,1.62205 7.19296,2.43158 2.38499,2.42071 4.76889,4.84031 7.15183,7.25897 1.20993,3.02215 2.41882,6.04319 3.62673,9.06328 0.2728,3.2582 0.5446,6.51527 0.8154,9.77141 0.21754,4.44975 0.43407,8.89822 0.64961,13.34597 -0.11746,2.19211 -0.23592,4.38308 -0.35538,6.57318 -1.17303,1.11121 -2.34699,2.22135 -3.52203,3.33057 -1.39133,0.42963 -2.78359,0.85824 -4.17688,1.28586 -2.38463,1.6399 -4.77016,3.27874 -7.15674,4.91661 -3.01667,1.05259 -6.03417,2.10411 -9.05283,3.1547 -1.32951,0.0811 -2.65995,0.16128 -3.99146,0.24043 -2.10491,-1.4902 -4.21068,-2.9813 -6.31758,-4.47349 -2.96238,-1.9087 -5.92563,-3.81832 -8.88994,-5.72897 -2.24623,-1.52718 -4.49332,-3.05527 -6.74154,-4.58444 -0.38207,-1.00499 -0.76512,-2.01091 -1.14919,-3.0179 -0.19225,-1.65118 -0.38549,-3.30329 -0.57974,-4.95642 z"       sodipodi:nodetypes="ccccccccccccccccccccccc" />    <path       style="fill:none;stroke:#030303;stroke-width:0.7;stroke-linecap:round;stroke-linejoin:round;stroke-dasharray:none;stroke-opacity:1;paint-order:stroke fill markers"       d="m 327.53503,205.6439 c 0.12486,-4.12658 0.24974,-8.25412 0.46729,-12.22312 0.21754,-3.969 0.52778,-7.77923 0.63707,-11.86548 0.10929,-4.08625 0.0176,-8.44837 0.15217,-13.66449 0.13462,-5.21611 0.49568,-11.28581 0.87804,-16.83397 0.38237,-5.54817 0.78603,-10.57446 1.62083,-16.10662 0.8348,-5.53217 2.10076,-11.56972 2.97116,-16.64001 0.8704,-5.07029 1.34513,-9.17316 1.5594,-12.80657 0.21428,-3.63342 0.16798,-6.797322 0.0206,-9.658355 -0.14735,-2.861032 -0.39583,-5.419101 -0.18373,-7.113614 0.2121,-1.694513 0.88497,-2.524417 1.82138,-3.12896 0.93641,-0.604543 2.13559,-0.983383 3.96541,0.93505 1.82982,1.918434 4.2901,6.132606 6.25713,10.231176 1.96703,4.098573 3.44096,8.081263 4.91607,13.054533 1.4751,4.97327 2.95145,10.9368 4.20733,17.10246 1.25589,6.16566 2.29134,12.53311 3.10179,18.08587 0.81046,5.55276 1.39592,10.29053 1.63832,16.56166 0.24241,6.27113 0.1419,14.07534 0.34202,21.29873 0.20011,7.2234 0.70073,13.86548 1.0398,17.59 0.33908,3.72451 0.51641,4.53119 0.69349,5.33673"       id="path1289"       inkscape:path-effect="#path-effect1291"       inkscape:original-d="m 327.53503,205.6439 c 0.12589,-4.12655 0.25077,-8.25409 0.37466,-12.38265 0.31124,-3.80938 0.62148,-7.61961 0.93072,-11.43092 -0.0908,-4.3613 -0.1825,-8.72342 -0.27524,-13.08664 0.36207,-6.06893 0.72313,-12.13863 1.08319,-18.20944 0.40469,-5.02549 0.80835,-10.05178 1.21102,-15.07917 1.26701,-6.03679 2.53297,-12.07434 3.79796,-18.11301 0.47575,-4.10202 0.95048,-8.20489 1.42422,-12.30884 -0.0453,-3.16302 -0.0916,-6.326927 -0.13891,-9.491892 -0.2475,-2.557171 -0.49598,-5.115241 -0.74547,-7.674361 0.67389,-0.828935 1.34676,-1.658837 2.01864,-2.489756 1.20023,-0.377855 2.39941,-0.756696 3.59761,-1.136544 2.46137,4.215338 4.92165,8.429508 7.38097,12.642761 1.47499,3.983862 2.94891,7.966562 4.42187,11.948342 1.47741,5.96478 2.95376,11.92831 4.42914,17.89097 1.03649,6.36871 2.07195,12.73616 3.10642,19.10274 0.58648,4.73896 1.17194,9.47673 1.75641,14.21359 -0.0995,7.80552 -0.20001,15.60973 -0.30152,23.41309 0.50164,6.64335 1.00226,13.28543 1.50189,19.92665 0.17834,0.80772 0.35567,1.6144 0.53201,2.4201"       sodipodi:nodetypes="cccccccccccccccccccc" />  </g></svg>