<?xml version="1.0" encoding="UTF-8" standalone="no"?><!-- Created with Inkscape (http://www.inkscape.org/) --><svg   width="39"   height="70"   viewBox="0 0 10.318754 18.520826"   version="1.1"   id="svg3956"   inkscape:version="1.2.2 (732a01da63, 2022-12-09)"   inkscape:export-filename="dente_14_cima_notplain.svg"   inkscape:export-xdpi="96"   inkscape:export-ydpi="96"   sodipodi:docname="dente_16_cima.svg"   xmlns:inkscape="http://www.inkscape.org/namespaces/inkscape"   xmlns:sodipodi="http://sodipodi.sourceforge.net/DTD/sodipodi-0.dtd"   xmlns="http://www.w3.org/2000/svg"   xmlns:svg="http://www.w3.org/2000/svg">  <sodipodi:namedview     id="namedview3958"     pagecolor="#ffffff"     bordercolor="#000000"     borderopacity="0.25"     inkscape:showpageshadow="2"     inkscape:pageopacity="0.0"     inkscape:pagecheckerboard="0"     inkscape:deskcolor="#d1d1d1"     inkscape:document-units="px"     showgrid="false"     inkscape:zoom="4.1776837"     inkscape:cx="-30.519304"     inkscape:cy="47.634051"     inkscape:window-width="1920"     inkscape:window-height="1009"     inkscape:window-x="-8"     inkscape:window-y="-8"     inkscape:window-maximized="1"     inkscape:current-layer="layer9" />  <defs     id="defs3953">    <inkscape:path-effect       effect="bspline"       id="path-effect1369"       is_visible="true"       lpeversion="1"       weight="33.333333"       steps="2"       helper_size="0"       apply_no_weight="true"       apply_with_weight="true"       only_selected="false" />    <inkscape:path-effect       effect="bspline"       id="path-effect1373"       is_visible="true"       lpeversion="1"       weight="33.333333"       steps="2"       helper_size="0"       apply_no_weight="true"       apply_with_weight="true"       only_selected="false" />  </defs>  <g     inkscape:groupmode="layer"     id="layer15"     inkscape:label="Image 15"     transform="matrix(0.08347013,0,0,0.08347013,-35.800119,-5.6077662)">    <path       style="fill:none;stroke:#030303;stroke-width:0.7;stroke-linecap:round;stroke-linejoin:round;stroke-dasharray:none;stroke-opacity:1;paint-order:stroke fill markers"       d="m 483.19943,197.32104 c -0.89643,0.67379 -2.68944,2.02151 -4.91789,4.22995 -2.22846,2.20843 -4.89201,5.27727 -6.84063,8.00342 -1.94861,2.72616 -3.18205,5.10916 -4.65403,8.17979 -1.47199,3.07062 -3.18242,6.8286 -4.50465,10.04705 -1.32223,3.21844 -2.25618,5.89704 -3.5975,8.99912 -1.34132,3.10207 -3.08992,6.6276 -3.95966,9.50525 -0.86973,2.87764 -0.86076,5.10665 -0.46187,7.95802 0.3989,2.85138 1.18743,6.32477 2.48799,8.65632 1.30055,2.33155 3.11214,3.52154 5.89673,4.70089 2.78459,1.17936 6.54197,2.34838 9.32209,3.73351 2.78012,1.38513 4.583,2.9857 6.51142,4.7546 1.92842,1.7689 3.9823,3.70597 6.18311,5.42379 2.20081,1.71781 4.54827,3.21649 6.48654,4.07872 1.93827,0.86222 3.46728,1.08853 5.40215,0.76512 1.93487,-0.32342 4.27605,-1.19616 6.23743,-2.62525 1.96138,-1.42909 3.5435,-3.41477 6.32135,-5.44364 2.77785,-2.02888 6.75077,-4.1005 9.82548,-5.93845 3.07471,-1.83794 5.25124,-3.44215 6.66754,-5.89137 1.4163,-2.44922 2.07261,-5.74419 1.70782,-9.91899 -0.36478,-4.17481 -1.7511,-9.22959 -2.93629,-14.12283 -1.18518,-4.89324 -2.16906,-9.62462 -3.39241,-14.54775 -1.22335,-4.92313 -2.68617,-10.03774 -4.58214,-14.27544 -1.89597,-4.2377 -4.22541,-7.5982 -6.69912,-10.43216 -2.47371,-2.83396 -5.09179,-5.14101 -8.33343,-6.49595 -3.24164,-1.35494 -7.10664,-1.75687 -10.08958,-1.60109 -2.98294,0.15578 -5.08314,0.86956 -6.13356,1.22657 -1.05042,0.357 -1.05046,0.357 -1.94689,1.0308 z"       id="path1367"       inkscape:path-effect="#path-effect1369"       inkscape:original-d="m 484.09586,196.64724 c -1.79201,1.34872 -3.58503,2.69643 -5.37904,4.04314 -2.66267,3.06997 -5.32622,6.13881 -7.99084,9.20671 -1.23248,2.3841 -2.46592,4.7671 -3.70038,7.14915 -1.7095,3.75913 -3.41994,7.51711 -5.13141,11.27417 -0.93299,2.6797 -1.86694,5.3583 -2.8019,8.03595 -1.74768,3.52667 -3.49628,7.05221 -5.24592,10.57681 0.01,2.23009 0.0189,4.4591 0.0269,6.68714 0.78956,3.47454 1.5781,6.94793 2.36565,10.4204 1.81266,1.19104 3.62425,2.38103 5.43488,3.57005 3.75852,1.17007 7.51589,2.3391 11.27233,3.50715 1.80395,1.60164 3.60682,3.20222 5.40874,4.80183 2.05495,1.93815 4.10883,3.87522 6.16174,5.81133 2.34857,1.49975 4.69604,2.99843 7.04255,4.49614 1.53007,0.22732 3.05908,0.45363 4.58712,0.67894 2.34227,-0.87177 4.68345,-1.74451 7.02367,-2.61827 1.58318,-1.98476 3.16531,-3.97043 4.74646,-5.95715 3.97408,-2.07071 7.94699,-4.14234 11.91899,-6.21501 2.17763,-1.60328 4.35416,-3.20749 6.52974,-4.81274 0.65734,-3.29409 1.31365,-6.58906 1.96898,-9.88509 -1.38538,-5.05399 -2.7717,-10.10877 -4.15905,-15.16466 -0.98293,-4.73057 -1.96681,-9.46195 -2.95172,-14.19442 -1.46188,-5.11382 -2.92471,-10.22843 -4.38857,-15.34415 -2.32853,-3.35964 -4.65797,-6.72013 -6.98846,-10.0817 -2.61719,-2.30615 -5.23528,-4.6132 -7.85443,-6.9213 -3.86416,-0.40095 -7.72916,-0.80289 -11.59525,-1.20583 -2.09929,0.71482 -4.19949,1.42861 -6.30074,2.14141 z" />    <path       style="fill:none;stroke:#030303;stroke-width:0.7;stroke-linecap:round;stroke-linejoin:round;stroke-dasharray:none;stroke-opacity:1;paint-order:stroke fill markers"       d="m 514.73655,209.91367 c -1.14093,-9.18096 -2.282,-18.36303 -3.53847,-27.14668 -1.25647,-8.78365 -2.62834,-17.16856 -4.37407,-25.76957 -1.74574,-8.60102 -3.86532,-17.41767 -6.03777,-24.74629 -2.17245,-7.32863 -4.3978,-13.16886 -5.67321,-17.6036 -1.27541,-4.43474 -1.60048,-7.46362 -2.59634,-10.76369 -0.99587,-3.30006 -2.6629,-6.87122 -4.7867,-11.351577 -2.12379,-4.480356 -4.70422,-9.869616 -7.34261,-13.936762 -2.63838,-4.067146 -5.33498,-6.81177 -7.19768,-8.024835 -1.8627,-1.213065 -2.89105,-0.893327 -3.90031,-0.183598 -1.00925,0.709728 -1.99868,1.809151 -2.25383,3.823024 -0.25516,2.013873 0.22374,4.94098 1.01489,9.457112 0.79115,4.516133 1.89448,10.620975 2.63267,16.992276 0.73819,6.37129 1.11135,13.00874 0.60753,19.69905 -0.50383,6.69031 -1.88437,13.43337 -2.68303,22.71229 -0.79865,9.27892 -1.01551,21.09286 -1.14777,30.81372 -0.13226,9.72086 -0.17992,17.34809 0.30625,23.28282 0.48617,5.93472 1.50586,10.17645 2.52528,14.41709"       id="path1371"       inkscape:path-effect="#path-effect1373"       inkscape:original-d="m 514.73655,209.91367 c -1.14007,-9.18107 -2.28113,-18.36314 -3.4232,-27.54621 -1.37092,-8.38425 -2.74279,-16.76916 -4.11569,-25.15523 -2.11867,-8.816 -4.23825,-17.63265 -6.35888,-26.45047 -2.22444,-5.83947 -4.4498,-11.6797 -6.6762,-17.52105 -0.32408,-3.02801 -0.64915,-6.05689 -0.97522,-9.08683 -1.6661,-3.57031 -3.33313,-7.141466 -5.0012,-10.713698 -2.57954,-5.388476 -5.15997,-10.777737 -7.74145,-16.168106 -2.6957,-2.743732 -5.3923,-5.488354 -8.08995,-8.234031 -1.02739,0.320751 -2.05574,0.640489 -3.08511,0.959234 -0.98846,1.100465 -1.97789,2.199886 -2.96834,3.298329 0.47991,2.928224 0.9588,5.855331 1.4367,8.781497 1.10438,6.106088 2.20771,12.210931 3.31007,18.314895 0.37418,6.63872 0.74733,13.27617 1.1195,19.91275 -1.3796,6.74433 -2.76015,13.48739 -4.14172,20.22959 -0.21587,11.81542 -0.43273,23.62936 -0.6506,35.44254 -0.0467,7.62853 -0.0943,15.25576 -0.14299,22.88214 1.02072,4.24289 2.04041,8.48462 3.05911,12.72543"       sodipodi:nodetypes="cccccccccccccccccc" />  </g></svg>