<?xml version="1.0" encoding="UTF-8" standalone="no"?><!-- Created with Inkscape (http://www.inkscape.org/) --><svg   width="39"   height="70"   viewBox="0 0 10.318754 18.520826"   version="1.1"   id="svg3956"   inkscape:version="1.2.2 (732a01da63, 2022-12-09)"   inkscape:export-filename="dente_15_cima_notplain.svg"   inkscape:export-xdpi="96"   inkscape:export-ydpi="96"   sodipodi:docname="dente_16_cima.svg"   xmlns:inkscape="http://www.inkscape.org/namespaces/inkscape"   xmlns:sodipodi="http://sodipodi.sourceforge.net/DTD/sodipodi-0.dtd"   xmlns="http://www.w3.org/2000/svg"   xmlns:svg="http://www.w3.org/2000/svg">  <sodipodi:namedview     id="namedview3958"     pagecolor="#ffffff"     bordercolor="#000000"     borderopacity="0.25"     inkscape:showpageshadow="2"     inkscape:pageopacity="0.0"     inkscape:pagecheckerboard="0"     inkscape:deskcolor="#d1d1d1"     inkscape:document-units="px"     showgrid="false"     inkscape:zoom="4.1776837"     inkscape:cx="-30.519304"     inkscape:cy="47.634051"     inkscape:window-width="1920"     inkscape:window-height="1009"     inkscape:window-x="-8"     inkscape:window-y="-8"     inkscape:window-maximized="1"     inkscape:current-layer="layer9" />  <defs     id="defs3953">    <inkscape:path-effect       effect="bspline"       id="path-effect1333"       is_visible="true"       lpeversion="1"       weight="33.333333"       steps="2"       helper_size="0"       apply_no_weight="true"       apply_with_weight="true"       only_selected="false" />    <inkscape:path-effect       effect="bspline"       id="path-effect1337"       is_visible="true"       lpeversion="1"       weight="33.333333"       steps="2"       helper_size="0"       apply_no_weight="true"       apply_with_weight="true"       only_selected="false" />    <inkscape:path-effect       effect="bspline"       id="path-effect5359"       is_visible="true"       lpeversion="1"       weight="33.333333"       steps="2"       helper_size="0"       apply_no_weight="true"       apply_with_weight="true"       only_selected="false" />  </defs>  <g     inkscape:groupmode="layer"     id="layer12"     inkscape:label="Image 12"     transform="matrix(0.10761466,0,0,0.10761466,-39.357755,-9.2504122)">    <path       style="fill:none;stroke:#030303;stroke-width:0.7;stroke-linecap:round;stroke-linejoin:round;stroke-dasharray:none;stroke-opacity:1;paint-order:stroke fill markers"       d="m 394.30309,206.08548 c 0.93891,-1.67089 2.12722,-3.52955 3.79443,-5.82116 1.66721,-2.29161 3.81318,-5.01594 5.95589,-7.02565 2.14272,-2.00971 4.28166,-3.30438 6.40039,-4.15716 2.11872,-0.85278 4.21662,-1.26366 6.61711,-0.62701 2.4005,0.63664 5.10304,2.31986 7.79005,4.82668 2.68702,2.50682 5.35863,5.8367 7.42621,9.53611 2.06757,3.6994 3.53144,7.76798 4.67964,11.71698 1.14821,3.94899 1.98088,7.77821 2.69661,11.67524 0.71574,3.89704 1.31458,7.86168 1.25183,11.20783 -0.0628,3.34615 -0.78674,6.07405 -2.91471,7.91869 -2.12797,1.84465 -5.66062,2.80682 -8.54728,3.86358 -2.88666,1.05676 -5.12687,2.20806 -7.26524,3.61913 -2.13837,1.41108 -4.1745,3.08173 -6.26358,3.85896 -2.08908,0.77722 -4.23192,0.66083 -6.48339,-0.20118 -2.25148,-0.86202 -4.61154,-2.47033 -6.60353,-4.19557 -1.992,-1.72525 -3.61559,-3.5676 -5.34213,-4.67107 -1.72654,-1.10347 -3.55614,-1.46718 -5.65881,-2.65252 -2.10266,-1.18535 -4.4782,-3.19293 -5.17613,-6.34354 -0.69792,-3.15062 0.28302,-7.44387 1.45031,-12.28295 1.1673,-4.83908 2.5209,-10.22365 3.54244,-13.65761 1.02153,-3.43396 1.71098,-4.91688 2.64989,-6.58778 z"       id="path1331"       inkscape:path-effect="#path-effect1333"       inkscape:original-d="m 394.05385,206.27299 c 1.18931,-1.85766 2.37762,-3.71632 3.56493,-5.57597 2.14706,-2.72344 4.29302,-5.44777 6.43804,-8.17316 2.14002,-1.29372 4.27896,-2.58839 6.41694,-3.88409 2.09899,-0.40989 4.19688,-0.82077 6.29382,-1.23265 2.70366,1.68429 5.4062,3.36751 8.1078,5.04977 2.67272,3.33101 5.34433,6.6609 8.015,9.98985 1.46493,4.06975 2.92879,8.13833 4.39169,12.20599 0.8337,3.83037 1.66637,7.65959 2.49805,11.48788 0.59987,3.96581 1.19871,7.93046 1.79657,11.89419 -0.72301,2.72901 -1.447,5.4569 -2.172,8.18385 -3.5318,0.96321 -7.06445,1.92539 -10.59817,2.88658 -2.2393,1.15234 -4.47951,2.30364 -6.72076,3.45395 -2.03521,1.67173 -4.07135,3.34238 -6.10852,5.01207 -2.14193,-0.11539 -4.28477,-0.23178 -6.42866,-0.34916 -2.35916,-1.60737 -4.71922,-3.21568 -7.08033,-4.82502 -1.62266,-1.84143 -3.24626,-3.68378 -4.87088,-5.52717 -1.82867,-0.36272 -3.65827,-0.72643 -5.4889,-1.09114 -2.37463,-2.00666 -4.75017,-4.01424 -7.12675,-6.02286 0.98197,-4.29243 1.96291,-8.58568 2.94287,-12.88002 1.35465,-5.38379 2.70825,-10.76836 4.06087,-16.15404 0.69048,-1.48198 1.37993,-2.9649 2.06839,-4.44885 z" />    <path       style="fill:none;stroke:#030303;stroke-width:0.7;stroke-linecap:round;stroke-linejoin:round;stroke-dasharray:none;stroke-opacity:1;paint-order:stroke fill markers"       d="m 394.65433,205.26004 c -0.45367,-4.32079 -0.90745,-8.64267 -1.12529,-13.02289 -0.21785,-4.38022 -0.19965,-8.81851 -0.0723,-13.45535 0.12731,-4.63684 0.36376,-9.4719 0.77495,-14.77569 0.41119,-5.30378 0.99714,-11.0759 1.63916,-16.95508 0.64203,-5.87919 1.34011,-11.86506 1.76402,-17.57606 0.42391,-5.71101 0.57355,-11.1469 0.59741,-16.26919 0.0239,-5.1223 -0.0781,-9.93074 -0.46859,-13.410314 -0.39049,-3.479575 -1.0698,-5.630279 -1.55307,-7.664551 -0.48327,-2.034272 -0.77027,-3.951919 -0.0664,-4.798392 0.70385,-0.846472 2.39753,-0.620766 4.10682,0.56733 1.70928,1.188095 3.43429,3.337535 5.57357,6.639095 2.13928,3.301559 4.69289,7.754922 6.97585,12.209562 2.28296,4.45464 4.29528,8.91025 5.91323,12.79357 1.61795,3.88332 2.84153,7.19412 4.12344,11.84114 1.2819,4.64702 2.62221,10.62999 3.81338,16.54625 1.19117,5.91626 2.23318,11.76548 3.00638,16.33605 0.7732,4.57057 1.27759,7.86226 1.62848,12.70585 0.35088,4.84359 0.54838,11.23887 0.65337,15.75237 0.10499,4.51349 0.11748,7.14499 0.12998,9.77555"       id="path1335"       inkscape:path-effect="#path-effect1337"       inkscape:original-d="m 394.65433,205.26004 c -0.45278,-4.32088 -0.90656,-8.64276 -1.36134,-12.96564 0.0192,-4.43747 0.0374,-8.87576 0.0546,-13.31514 0.23746,-4.83425 0.47392,-9.66931 0.70938,-14.50547 0.58696,-5.77135 1.17291,-11.54347 1.75786,-17.31671 0.69911,-5.98511 1.39719,-11.97098 2.09428,-17.95797 0.15065,-5.43512 0.3003,-10.87101 0.44895,-16.30802 -0.10098,-4.80763 -0.20296,-9.61607 -0.30593,-14.425603 -0.67835,-2.149791 -1.35766,-4.300497 -2.03799,-6.452245 -0.286,-1.916724 -0.57299,-3.834371 -0.86099,-5.753056 1.69475,0.226716 3.38843,0.452423 5.08114,0.677134 1.72609,2.150529 3.4511,4.299972 5.17515,6.448458 2.55471,4.454545 5.10832,8.907912 7.66098,13.360372 2.0134,4.45679 4.02572,8.9124 6.03708,13.36711 1.22464,3.31193 2.44822,6.62273 3.67083,9.9326 1.34137,5.98422 2.68169,11.96719 4.02104,17.94928 1.04305,5.85045 2.08506,11.69967 3.12608,17.54801 0.50541,3.29281 1.0098,6.5845 1.5132,9.87525 0.1985,6.39653 0.396,12.79181 0.59251,19.18622 0.0135,2.63261 0.026,5.26411 0.0375,7.89467" />    <path       style="fill:none;stroke:#000000;stroke-width:0.7;stroke-linecap:round;stroke-opacity:1"       d="m 415.07168,111.5461 c -0.47115,-2.17909 -0.94256,-4.35934 -1.41401,-7.0405 -0.47145,-2.68117 -0.94285,-5.86308 -1.32588,-8.691542 -0.38304,-2.828461 -0.67766,-5.303286 -1.20746,-6.717777 -0.5298,-1.414491 -1.29582,-1.768035 -2.12109,-1.797874 -0.82527,-0.02984 -1.70913,0.264781 -2.47557,1.11954 -0.76645,0.85476 -1.41462,2.268946 -1.76814,3.123527 -0.35353,0.854582 -0.41246,1.149209 -0.47123,1.443068"       id="path5357"       inkscape:path-effect="#path-effect5359"       inkscape:original-d="m 415.07168,111.5461 c -0.4704,-2.17925 -0.94181,-4.3595 -1.41421,-6.54074 -0.47042,-3.18105 -0.94181,-6.362964 -1.41422,-9.545944 -0.29363,-2.473923 -0.58825,-4.948748 -0.88388,-7.424621 -0.76505,-0.352561 -1.53106,-0.706107 -2.2981,-1.060661 -0.8829,0.295634 -1.76676,0.590256 -2.65165,0.883884 -0.64719,1.415242 -1.29536,2.829427 -1.94454,4.242641 -0.0579,0.295633 -0.11685,0.590255 -0.17678,0.883883" />  </g></svg>