<?xml version="1.0" encoding="UTF-8" standalone="no"?><!-- Created with Inkscape (http://www.inkscape.org/) --><svg   width="48"   height="48"   viewBox="0 0 12.7 12.7"   version="1.1"   id="svg1802"   sodipodi:docname="dente_17_cima.svg"   inkscape:version="1.2.2 (732a01da63, 2022-12-09)"   inkscape:export-filename="dente_17_cima_notnotplain.svg"   inkscape:export-xdpi="96"   inkscape:export-ydpi="96"   xmlns:inkscape="http://www.inkscape.org/namespaces/inkscape"   xmlns:sodipodi="http://sodipodi.sourceforge.net/DTD/sodipodi-0.dtd"   xmlns="http://www.w3.org/2000/svg"   xmlns:svg="http://www.w3.org/2000/svg">  <sodipodi:namedview     id="namedview1804"     pagecolor="#ffffff"     bordercolor="#000000"     borderopacity="0.25"     inkscape:showpageshadow="3"     inkscape:pageopacity="0.0"     inkscape:pagecheckerboard="0"     inkscape:deskcolor="#d1d1d1"     inkscape:document-units="px"     showgrid="false"     inkscape:zoom="11.313709"     inkscape:cx="16.83798"     inkscape:cy="23.246135"     inkscape:window-width="1920"     inkscape:window-height="1009"     inkscape:window-x="-8"     inkscape:window-y="-8"     inkscape:window-maximized="1"     inkscape:current-layer="svg1802" />  <defs     id="defs1799">    <inkscape:path-effect       effect="bspline"       id="path-effect1748"       is_visible="true"       lpeversion="1"       weight="33.333333"       steps="2"       helper_size="0"       apply_no_weight="true"       apply_with_weight="true"       only_selected="false" />    <inkscape:path-effect       effect="bspline"       id="path-effect1742"       is_visible="true"       lpeversion="1"       weight="33.333333"       steps="2"       helper_size="0"       apply_no_weight="true"       apply_with_weight="true"       only_selected="false" />    <inkscape:path-effect       effect="bspline"       id="path-effect1676"       is_visible="true"       lpeversion="1"       weight="33.333333"       steps="2"       helper_size="0"       apply_no_weight="true"       apply_with_weight="true"       only_selected="false" />    <inkscape:path-effect       effect="bspline"       id="path-effect1087"       is_visible="true"       lpeversion="1"       weight="33.333333"       steps="2"       helper_size="0"       apply_no_weight="true"       apply_with_weight="true"       only_selected="false" />  </defs>  <path     style="display:inline;fill:none;stroke:#030303;stroke-width:0.0516202;stroke-linecap:round;stroke-linejoin:round;stroke-dasharray:none;stroke-opacity:1;paint-order:stroke fill markers"     inkscape:path-effect="#path-effect1748"     inkscape:original-d="m 9.0486161,8.3304294 c 0.035188,0.089297 0.070031,0.1781249 0.1047699,0.267097 0.054492,0.148294 0.1089102,0.2965122 0.163258,0.4446597 0.053953,0.2204541 0.1078347,0.4408313 0.1616349,0.661136 0.018302,0.1530197 0.036586,0.3059659 0.054754,0.4588439 0.031285,0.18698 0.062523,0.373864 0.093708,0.560692 0.00544,0.08844 0.010684,0.176796 0.016024,0.265096 -0.00588,0.164312 -0.011759,0.328543 -0.017809,0.492703 -0.070147,0.104118 -0.140386,0.208155 -0.210679,0.312132 -0.1545762,0.163443 -0.3092013,0.326806 -0.4639201,0.490101 -0.1536091,0.100852 -0.3072799,0.201627 -0.4610462,0.302337 -0.091483,0.02815 -0.1830541,0.05619 -0.2746771,0.08422 -0.1138051,-0.01558 -0.2276799,-0.03128 -0.3416328,-0.04703 -0.09094,-0.0354 -0.1819412,-0.07087 -0.2730342,-0.106409 C 7.3872168,12.401079 7.1743896,12.286085 6.9614872,12.17099 6.7950247,12.049633 6.6284909,11.928199 6.4618817,11.806689 c -0.027256,-0.03185 -0.054609,-0.06379 -0.082034,-0.09576 -0.00737,0.0066 -0.015003,0.01261 -0.022873,0.01901 -0.077433,0.05901 -0.1549542,0.11794 -0.2325232,0.17679 -0.1141699,0.06382 -0.2284041,0.127587 -0.3427176,0.191237 -0.1574723,0.05699 -0.3150172,0.113895 -0.4726455,0.170745 -0.096473,0.01873 -0.1930247,0.03738 -0.2896367,0.05597 C 4.9066254,12.28007 4.7937362,12.23542 4.680763,12.19067 4.5755384,12.101218 4.4702462,12.011696 4.3648772,11.922086 4.2065063,11.786849 4.048066,11.651549 3.8895454,11.516154 3.7640147,11.405575 3.6384218,11.29493 3.5127456,11.184203 3.4794585,11.012982 3.4461085,10.841708 3.4126755,10.67035 c 0.00648,-0.203229 0.012772,-0.406519 0.019222,-0.609892 0.034483,-0.2113388 0.068887,-0.4227377 0.1032239,-0.6342296 0.043528,-0.1239493 0.086936,-0.2479738 0.1303105,-0.372073 0.028901,-0.085313 0.057511,-0.1708159 0.085845,-0.2565449 0.1738394,-0.2047051 0.3476188,-0.4099162 0.5210313,-0.6152712 0.02448,-0.020715 0.048695,-0.041694 0.072646,-0.062938 0.048497,-0.00111 0.096727,-0.00249 0.144694,-0.00413 0.088461,-0.00387 0.1766535,-0.008 0.2645834,-0.012402 0.082948,0.0044 0.1656291,0.00853 0.2480468,0.012402 0.071924,-0.00387 0.1435806,-0.008 0.214974,-0.012402 0.030582,0.00578 0.060898,0.011289 0.09095,0.016536 0.08157,0.019557 0.1628731,0.03885 0.2439128,0.057878 0.060899,2.646e-4 0.1215319,2.646e-4 0.181901,0 0.1311809,0.00853 0.2620919,0.016801 0.3927409,0.024805 0.065034,-0.01076 0.1298002,-0.021784 0.1943034,-0.033073 0.089839,-0.023162 0.1794095,-0.046589 0.2687174,-0.07028 0.030582,-0.00663 0.060898,-0.013516 0.090951,-0.020671 0.041607,2.646e-4 0.082947,2.646e-4 0.1240234,0 0.048497,0.011289 0.096727,0.022313 0.144694,0.033073 0.051253,0.026448 0.1022394,0.05263 0.1529622,0.078548 0.071924,0.030582 0.1435806,0.060898 0.214974,0.09095 0.040229,0.014045 0.080191,0.027825 0.1198893,0.041341 0.049875,0.00715 0.099483,0.014045 0.1488282,0.020671 0.084327,-0.01765 0.1683852,-0.035564 0.2521809,-0.053743 0.093973,-0.013516 0.1876778,-0.027296 0.2811198,-0.041341 0.065034,-0.021784 0.1298002,-0.043833 0.1943034,-0.066146 0.082948,0.0044 0.1656292,0.00853 0.2480469,0.012402 0.080192,0.00578 0.160117,0.011289 0.2397786,0.016536 0.045741,0.019558 0.091215,0.03885 0.1364258,0.057878 0.037152,0.020998 0.074038,0.041731 0.1106604,0.0622 z"     d="m 9.0661404,8.3751052 c 0.017524,0.044676 0.052367,0.1335038 0.097032,0.2521168 0.044665,0.1186131 0.099084,0.2668311 0.1532274,0.4511312 0.054144,0.1843 0.1080218,0.404678 0.1440804,0.5913358 0.036059,0.1866578 0.05431,0.339608 0.079057,0.509535 0.024746,0.169928 0.05598,0.356812 0.074265,0.494446 0.018285,0.137634 0.023625,0.225984 0.023324,0.352289 -3.009e-4,0.126305 -0.00624,0.290534 -0.044322,0.424645 -0.038085,0.134111 -0.1083119,0.238156 -0.2207438,0.371858 -0.112432,0.133702 -0.267063,0.29706 -0.4212159,0.429128 -0.1541529,0.132067 -0.3078253,0.23284 -0.4304354,0.297268 -0.1226102,0.06443 -0.2141709,0.0925 -0.3168703,0.09871 -0.1026994,0.0062 -0.2165774,-0.0095 -0.319021,-0.03503 C 7.7820749,12.586981 7.6910722,12.551514 7.5391519,12.476283 7.3872317,12.401051 7.1744097,12.286048 6.9847228,12.167833 6.795036,12.049618 6.6285015,11.928184 6.5315553,11.851519 6.4346091,11.774853 6.4072511,11.742918 6.3897477,11.730083 c -0.017503,-0.01284 -0.024972,-0.0066 -0.067622,0.02608 -0.04265,0.0327 -0.1201661,0.09164 -0.2160291,0.152972 -0.095863,0.06133 -0.2101074,0.12508 -0.3459876,0.185407 -0.1358801,0.06033 -0.2934222,0.11724 -0.420466,0.155029 -0.1270438,0.03779 -0.223594,0.05645 -0.3283003,0.04346 C 4.9066362,12.280043 4.793753,12.235377 4.6846496,12.168293 4.5755463,12.101209 4.4702557,12.011685 4.3383838,11.899264 4.2065119,11.786842 4.0480753,11.651538 3.9060476,11.528554 3.7640198,11.405569 3.6384265,11.294925 3.5589149,11.153959 3.4794033,11.012993 3.4460488,10.84172 3.4325648,10.654419 c -0.013484,-0.1873 -0.00708,-0.390587 0.013327,-0.59795 0.020404,-0.2073635 0.05481,-0.4187621 0.093732,-0.5864943 C 3.5785448,9.3022425 3.6219785,9.178227 3.6579967,9.0734815 3.6940149,8.968736 3.7226258,8.8832334 3.8237288,8.7379489 3.9248318,8.5926644 4.0986111,8.3874533 4.1975775,8.2743978 4.2965439,8.1613423 4.3207589,8.1403633 4.3571011,8.1291903 c 0.036342,-0.011173 0.084572,-0.01255 0.1527838,-0.015307 0.068211,-0.00276 0.1564037,-0.00689 0.2418555,-0.00688 0.085452,1.28e-5 0.1681327,0.00415 0.2452893,0.00413 0.077157,-1.41e-5 0.148813,-0.00415 0.1998282,-0.00342 0.051015,7.238e-4 0.081331,0.00624 0.1371452,0.018647 0.055814,0.012412 0.1371178,0.031704 0.2080644,0.041314 0.070947,0.00961 0.1315796,0.00961 0.2273623,0.013753 0.095783,0.00414 0.2266939,0.012411 0.324502,0.011006 0.097808,-0.00141 0.1625743,-0.012429 0.2397301,-0.029661 0.077156,-0.017231 0.1667265,-0.040658 0.2266776,-0.055815 0.059951,-0.015157 0.090266,-0.022047 0.1261313,-0.02547 0.035865,-0.00342 0.077205,-0.00342 0.122014,0.00212 0.044809,0.00555 0.093039,0.016572 0.1426528,0.035222 0.049614,0.01865 0.1006004,0.044832 0.1619251,0.073068 0.061325,0.028236 0.1329812,0.058552 0.1887917,0.080588 0.05581,0.022036 0.095772,0.035816 0.1405476,0.046117 0.044775,0.010301 0.094384,0.017191 0.1611717,0.011637 0.066788,-0.00555 0.1508461,-0.023468 0.2397413,-0.03931 0.088895,-0.015842 0.1826,-0.029623 0.2618057,-0.047548 0.079206,-0.017925 0.1439721,-0.039973 0.217758,-0.048897 0.073786,-0.00892 0.156467,-0.00479 0.2377742,3.6e-5 0.081307,0.00483 0.161232,0.010338 0.2239523,0.022798 0.06272,0.012461 0.1081942,0.031753 0.1493729,0.051787 0.041179,0.020034 0.078065,0.040767 0.096351,0.051045 0.018287,0.010279 0.018287,0.010275 0.035811,0.05495 z"     id="path1744"     inkscape:export-filename="dente_17_cima_notnotplain.svg"     inkscape:export-xdpi="96"     inkscape:export-ydpi="96" />  <path     style="display:inline;fill:none;stroke:#030303;stroke-width:0.0516202;stroke-linecap:round;stroke-linejoin:round;stroke-dasharray:none;stroke-opacity:1;paint-order:stroke fill markers"     inkscape:path-effect="#path-effect1742"     inkscape:original-d="M 5.8299658,3.9923911 C 5.8878069,3.6972017 5.945188,3.4015539 6.0026952,3.106029 6.0399263,2.9097306 6.0771209,2.713368 6.1142172,2.5169271 6.1296042,2.327824 6.1449147,2.1386556 6.1601834,1.9494089 6.16876,1.8143858 6.1771546,1.6792958 6.1855127,1.5441264 c 0.00468,-0.2526393 0.00916,-0.5053448 0.013475,-0.75812899 0.02225,-0.14199205 0.044346,-0.2840503 0.066421,-0.42618492 0.021274,-0.0713304 0.042443,-0.14271132 0.063569,-0.21417578 0.05229,-0.038629 0.1044877,-0.07727802 0.1566268,-0.11606318 0.053438,0.02099794 0.1068239,0.0419152 0.1601267,0.062772 0.081474,0.09445535 0.1628398,0.1888493 0.2441412,0.28316959 0.070041,0.10127898 0.1400016,0.20248248 0.2098911,0.30361428 0.049013,0.0600943 0.098147,0.1203963 0.1468233,0.18019758 -0.00508,0.0238813 -0.010416,0.0474971 -0.01602,0.0708488 0.014045,0.0870827 0.027825,0.17389742 0.041341,0.26044922 0.026448,0.056765 0.05263,0.1132637 0.078548,0.1694987 0.030582,0.07468 0.060898,0.1490927 0.09095,0.2232422 0.030582,0.073302 0.060898,0.1463366 0.090951,0.2191081 0.023692,0.060899 0.047118,0.1215319 0.07028,0.181901 0.023692,0.071924 0.047118,0.1435806 0.07028,0.214974 0.026448,0.1132659 0.05263,0.2262628 0.078548,0.3389974 0.00991,0.1298027 0.019557,0.2593357 0.028939,0.3886067 -0.00111,0.095351 -0.00249,0.1904339 -0.00413,0.2852539 -0.00525,0.1353151 -0.01076,0.2703601 -0.016536,0.4051433 C 7.746217,3.725104 7.7324369,3.8325888 7.7183919,3.9398112 7.7048758,4.0572114 7.6910957,4.1743423 7.6770508,4.2912109 7.6290831,4.4540873 7.5808527,4.6166925 7.5323568,4.7790365 7.4995478,4.8702534 7.4664755,4.9612021 7.433138,5.051888 7.3865484,5.1679101 7.339696,5.283663 7.2925781,5.3991536 7.2459885,5.5069074 7.1991361,5.6143922 7.1520182,5.7216146 7.0971602,5.8073192 7.0420397,5.8927559 6.9866536,5.9779297 6.9276614,6.0291827 6.8684069,6.0801691 6.8088867,6.1308919 c -0.047968,0.00302 -0.096198,0.00578 -0.144694,0.00827 C 6.6506766,6.1146195 6.6368965,6.0898154 6.6228516,6.0647461 6.5459445,5.8376298 6.4687759,5.6102581 6.3913411,5.3826172 6.2786043,5.0865976 6.1656075,4.7903253 6.0523437,4.4937825 5.983705,4.3493502 5.9148045,4.2046591 5.845638,4.0597005 5.8406784,4.0375282 5.8354545,4.0150922 5.8299658,3.9923911 Z"     d="m 5.8613821,3.8561397 c 0.02612,-0.1589974 0.083726,-0.4546014 0.1311012,-0.7005117 0.047375,-0.2459102 0.084549,-0.4422767 0.1108,-0.6350432 0.026251,-0.1927665 0.041572,-0.381934 0.053456,-0.5440708 0.011883,-0.1621368 0.020326,-0.2972238 0.026795,-0.491127 0.00647,-0.1939033 0.010961,-0.4466086 0.024273,-0.64400427 0.013313,-0.19739571 0.035451,-0.33944729 0.057116,-0.44618796 0.021665,-0.10674067 0.04285,-0.17811684 0.079568,-0.23319029 0.036719,-0.0550735 0.088902,-0.09374209 0.1417346,-0.10260899 0.052833,-0.0088669 0.1062148,0.01205972 0.173586,0.06974174 0.067371,0.057682 0.1487474,0.152067 0.2244153,0.24986802 0.075668,0.097801 0.1456299,0.19900347 0.2050746,0.27962289 0.059445,0.0806194 0.1085783,0.14092166 0.1302391,0.18271649 0.021661,0.0417948 0.016321,0.0654098 0.020587,0.12067904 0.00427,0.0552692 0.018046,0.14208393 0.038078,0.21375233 0.020032,0.071668 0.046214,0.1281669 0.074455,0.1936247 0.028241,0.065458 0.058557,0.1398705 0.088876,0.2135962 0.030318,0.073726 0.060635,0.1467602 0.087502,0.2135955 0.026867,0.066835 0.050294,0.1274681 0.073711,0.1936137 0.023417,0.066146 0.046843,0.1378021 0.071632,0.2301278 0.024789,0.092326 0.050971,0.2053226 0.06886,0.3265779 0.017889,0.1212554 0.027535,0.2507884 0.031658,0.3630884 0.00412,0.1123 0.00275,0.2073829 -7.019e-4,0.3224469 -0.00345,0.1150639 -0.00896,0.2501088 -0.018616,0.3713642 -0.00966,0.1212554 -0.023438,0.22874 -0.037218,0.3410529 -0.01378,0.1123129 -0.02756,0.2294438 -0.058579,0.3692867 C 7.6287678,4.4539938 7.5805374,4.616599 7.5398833,4.7433683 7.4992291,4.8701375 7.4661569,4.9610862 7.4261929,5.0644335 7.386229,5.1677808 7.3393766,5.2835337 7.2925229,5.395151 7.2456692,5.5067682 7.1988168,5.614253 7.1478348,5.710687 7.0968528,5.8071209 7.0417324,5.8925576 6.9845752,5.9607287 6.927418,6.0288998 6.8681635,6.0798863 6.8145332,6.1067603 6.7609028,6.1336344 6.7126726,6.136391 6.6816294,6.1255304 6.6505863,6.1146697 6.6368064,6.0898654 6.5912971,5.9637742 6.5457877,5.837683 6.4686191,5.6103113 6.3735403,5.3484817 6.2784614,5.0866521 6.1654645,4.7903798 6.0745283,4.5698919 5.983592,4.349404 5.9146915,4.2047129 5.8775887,4.121143 5.8404859,4.037573 5.8352619,4.015137 5.8613821,3.8561397 Z"     id="path1738" />  <path     style="display:inline;fill:none;stroke:#030303;stroke-width:0.0516202;stroke-linecap:round;stroke-linejoin:round;stroke-dasharray:none;stroke-opacity:1;paint-order:stroke fill markers"     inkscape:path-effect="#path-effect1676"     inkscape:original-d="m 4.1941195,1.1138315 c -0.030149,0.084435 -0.060705,0.1697707 -0.090705,0.2531265 -0.00727,0.191844 -0.014531,0.3885372 -0.021886,0.5818407 0.016006,0.3661765 0.091472,0.7274069 0.1371263,1.0910018 0.1115311,0.374551 0.2229877,0.7490162 0.3343713,1.1234164 0.016243,0.3405888 0.0324,0.6811105 0.048508,1.0215531 0.02014,0.4388271 0.040221,0.8775812 0.060222,1.3162659 -0.060211,0.2164055 -0.1204665,0.4327304 -0.1808126,0.6489902 -0.053433,0.299353 -0.107159,0.5986006 -0.1611772,0.8977369 -0.00279,0.021764 -0.00584,0.043216 -0.00916,0.064465 0.054931,0.00178 0.1094206,0.00329 0.1638055,0.00454 0.1908293,0.00475 0.3815784,0.00951 0.5722593,0.013803 0.079366,-0.014659 0.1586753,-0.029412 0.2379036,-0.044183 0.093954,0.035186 0.1879009,0.070203 0.2817481,0.1050172 0.053229,-0.010262 0.1057438,-0.020698 0.1585643,-0.031513 0.1458887,0.020298 0.2917016,0.040585 0.4374375,0.060739 0.113607,-0.020728 0.2271333,-0.041569 0.3405891,-0.062488 0.045283,-0.035496 0.090475,-0.071108 0.1355894,-0.1067729 0.086466,0.00871 0.1728191,0.01716 0.2590659,0.025367 0.067283,0.03682 0.1339045,0.073159 0.200693,0.1094682 0.1025702,0.055999 0.2050477,0.1119626 0.3074624,0.1678238 0.1318365,-0.011909 0.2635966,-0.023944 0.3952826,-0.036067 0.1119099,-0.02522 0.223727,-0.050588 0.3354679,-0.075977 0.158384,-0.025022 0.3166996,-0.050218 0.4749321,-0.075411 0.1262934,0.042186 0.2525074,0.084312 0.3786503,0.1263845 0.032076,0.038857 0.064094,0.077632 0.096017,0.1163475 0.0047,-0.241009 0.0092,-0.4820924 0.013493,-0.7232478 0.046349,-0.492205 0.092652,-0.9844663 0.1388671,-1.4768113 0.016607,-0.3737992 0.033212,-0.747652 0.049626,-1.1215977 0.00712,-0.4401209 0.01393,-0.8802869 0.020763,-1.3205487 C 9.1924311,3.2711935 9.0759769,2.7752765 8.9594413,2.2792533 8.7558738,1.969573 8.5522475,1.6598381 8.3485355,1.3500095 8.1630188,1.1922368 7.9774395,1.0343976 7.7917792,0.87647812 7.7055096,0.81135651 7.6191814,0.74612886 7.5327701,0.6808401 7.4508476,0.67227255 7.3688031,0.66383429 7.2867014,0.65524398 7.2542722,0.76165056 7.2217483,0.86797611 7.1891661,0.97423401 7.2409592,1.1124594 7.292685,1.2506013 7.344327,1.3886774 7.4861696,1.705685 7.6279285,2.0226013 7.7696148,2.3394605 7.7768986,2.6314276 7.7839275,2.9233112 7.7909399,3.2151242 7.7633078,3.5443972 7.735567,3.8735821 7.7077865,4.2027029 7.6325537,4.4486438 7.5572185,4.694498 7.481821,4.9402859 7.3965192,5.1575819 7.3111286,5.3747979 7.2256675,5.5919436 7.137901,5.7335327 7.0500788,5.8750362 6.9621685,6.0164781 6.8561567,6.1123534 6.7500655,6.2081222 6.6439046,6.3038408 6.5722578,6.0224922 6.5005665,5.741086 6.4287846,5.4595884 6.3257949,5.1923519 6.2227326,4.9250548 6.1195968,4.6576723 5.9221936,4.2238175 5.7247166,3.789924 5.5271599,3.3559236 5.3313688,2.9505105 5.1355157,2.5450464 4.9395805,2.1394858 4.8711028,1.9132415 4.8025506,1.6869374 4.7339222,1.4605476 4.6759887,1.3215466 4.6179442,1.1824737 4.5598508,1.043328 4.5425882,1.0247493 4.5252947,1.0061103 4.5078755,0.98737037 4.4551245,0.97216729 4.4023408,0.95691688 4.3494642,0.94155411 c -0.040514,0.0284177 -0.081099,0.0567638 -0.121743,0.08504 -0.011199,0.029082 -0.02237,0.058075 -0.033689,0.086986 z"     d="m 4.1789974,1.156032 c -0.015122,0.0422 -0.045699,0.1275288 -0.064249,0.2651504 -0.01855,0.1376216 -0.025949,0.3343096 -0.00681,0.6121941 0.019143,0.2778844 0.065013,0.6428347 0.1436049,1.0119118 C 4.3301395,3.4143653 4.4415946,3.7888309 4.5053968,4.14632 4.569199,4.503809 4.5853685,4.8443301 4.60349,5.2339651 4.6216115,5.6236 4.6416855,6.0623544 4.6215778,6.3898874 4.60147,6.7174205 4.5412016,6.9337418 4.4842049,7.1915333 4.4272082,7.4493248 4.3734821,7.7485724 4.345081,7.9090286 c -0.028401,0.1604563 -0.031449,0.1819085 -0.00549,0.1933153 0.025956,0.011407 0.080446,0.012917 0.2030513,0.015972 0.1226053,0.00305 0.3133583,0.00766 0.4483708,0.00259 0.1350125,-0.00507 0.2143261,-0.019799 0.3009495,-0.00964 0.086623,0.010162 0.1805703,0.045179 0.254051,0.057376 0.073481,0.012197 0.1259953,0.00176 0.225383,0.00663 0.099388,0.00487 0.2452062,0.025121 0.3748619,0.024818 0.1296556,-3.028e-4 0.2431841,-0.021132 0.322523,-0.04934 0.079339,-0.028208 0.1245429,-0.063805 0.1903785,-0.07736 0.065836,-0.013555 0.1521883,-0.0051 0.228967,0.017485 0.076779,0.022585 0.1434002,0.058924 0.2280569,0.1051196 0.084657,0.046196 0.1871458,0.1021379 0.3042574,0.1240699 0.1171117,0.021932 0.248873,0.00991 0.3706623,-0.00877 0.1217893,-0.018678 0.2336158,-0.044004 0.3686772,-0.069233 0.1350615,-0.025228 0.2933861,-0.050367 0.4356592,-0.041852 0.1422731,0.00852 0.2684867,0.050643 0.3475889,0.091123 0.079102,0.040481 0.1111091,0.079265 0.1293269,-0.02189 0.018218,-0.1011554 0.022715,-0.3422388 0.048107,-0.7089202 0.025391,-0.3666814 0.07168,-0.858944 0.1030967,-1.2920139 C 9.2549736,5.835445 9.2715151,5.4615894 9.2832478,5.0545574 9.2949805,4.6475255 9.3019012,4.2073612 9.2471384,3.7392839 9.1923756,3.2712065 9.0759224,2.7752893 8.91589,2.3724365 8.7558575,1.9695837 8.552231,1.659849 8.357628,1.4260392 8.163025,1.1922295 7.9774454,1.0343906 7.8414873,0.92286063 7.7055291,0.81133064 7.6191908,0.74611645 7.5350168,0.70921723 c -0.084174,-0.0368992 -0.1662085,-0.0454325 -0.223525,0.003486 -0.057316,0.0489181 -0.089828,0.15524741 -0.080199,0.27750917 0.00963,0.12226179 0.061348,0.26040619 0.158094,0.48794779 0.096746,0.2275417 0.2385042,0.5444585 0.3129215,0.8488653 0.074417,0.3044067 0.081526,0.5962884 0.071217,0.9068264 -0.010309,0.310538 -0.038026,0.6397249 -0.08955,0.9272427 C 7.6324499,4.448612 7.5571289,4.6944705 7.4767751,4.926007 7.3964214,5.1575435 7.3110372,5.374762 7.2244277,5.5541217 7.1378182,5.7334813 7.0499918,5.8749822 6.9530353,5.9936247 6.8560789,6.1122672 6.7499984,6.2080479 6.6611083,6.1152751 6.5722181,6.0225023 6.500515,5.7410991 6.4131348,5.4667333 6.3257546,5.1923675 6.2226948,4.9250694 6.0724244,4.5744525 5.922154,4.2238355 5.7246839,3.7899389 5.5280115,3.3702319 5.331339,2.9505249 5.1354864,2.5450605 5.0032697,2.2291586 4.871053,1.9132566 4.8025027,1.6869519 4.7392201,1.5042599 4.6759374,1.321568 4.6179107,1.1824877 4.5802511,1.103617 c -0.03766,-0.078871 -0.054963,-0.0975 -0.090038,-0.11449978 -0.035074,-0.0169995 -0.087854,-0.0322646 -0.1345862,-0.0257446 -0.046732,0.00652 -0.087316,0.0348684 -0.1132382,0.0635751 -0.025923,0.028707 -0.037144,0.05768 -0.04275,0.072156 -0.00561,0.014476 -0.00552,0.014727 -0.020641,0.056928 z"     id="path1672" />  <path     id="path1085"     style="display:inline;fill:none;stroke:#030303;stroke-width:0.0516202;stroke-linecap:round;stroke-linejoin:round;stroke-dasharray:none;stroke-opacity:1;paint-order:stroke fill markers"     inkscape:path-effect="#path-effect1087"     inkscape:original-d="M 6.3857326,10.752065 C 6.3313516,10.699555 6.2769016,10.646991 6.222365,10.594359 6.1493,10.555239 6.0761329,10.516069 6.0029096,10.476821 c -0.034559,-0.02745 -0.069228,-0.055 -0.1039263,-0.08259 m 0.4781444,1.322136 c -0.00121,-0.198862 -0.00267,-0.397802 -0.00441,-0.596822 -6.561e-4,-0.137947 -0.00134,-0.27598 -0.00317,-0.414081 0.059416,-0.02402 0.1187421,-0.04828 0.1780102,-0.0725 0.092832,-0.04169 0.1855671,-0.08343 0.2782415,-0.12525 0.027595,-0.02618 0.055131,-0.05246 0.082564,-0.0788"     d="m 6.3857326,10.752065 c -0.054388,-0.0525 -0.1088383,-0.105066 -0.1726328,-0.150951 -0.063795,-0.04589 -0.1369543,-0.08507 -0.1908483,-0.11841 -0.053894,-0.03334 -0.088562,-0.06089 -0.1232682,-0.08847 m 0.4781444,1.322136 c -0.00147,-0.19886 -0.00294,-0.3978 -0.0042,-0.566283 -0.00126,-0.168483 -0.00232,-0.306513 0.026828,-0.387653 0.029148,-0.08114 0.088508,-0.105317 0.1645542,-0.138278 0.076046,-0.03296 0.1687792,-0.0747 0.228894,-0.108703 0.060115,-0.034 0.08765,-0.06028 0.1151621,-0.08654" /></svg>