<?xml version="1.0" encoding="UTF-8" standalone="no"?><!-- Created with Inkscape (http://www.inkscape.org/) --><svg   version="1.1"   id="svg228"   width="79.240257:"   height="151.74164"   viewBox="0 0 79.24026 151.74165"   xmlns="http://www.w3.org/2000/svg"   xmlns:svg="http://www.w3.org/2000/svg">  <defs     id="defs232" />  <g     id="layer86"     transform="translate(-14.004052,-97.18359)">    <path       style="display:inline;fill:none;stroke:#000000;stroke-width:0.7;stroke-linecap:round;stroke-opacity:1"       d="m 34.687362,104.17264 c -0.114531,0.78657 -0.229029,1.96278 -0.343612,3.13986 -0.09375,0.89583 -0.187591,1.79254 -0.119805,4.24058 0.06779,2.44805 0.296949,6.44797 0.161437,10.1979 -0.135512,3.74993 -0.635502,7.24986 -1.30221,10.49981 -0.666708,3.24994 -1.500025,6.24988 -2.333375,8.9582 -0.83335,2.70832 -1.666665,5.12493 -2.291629,7.79175 -0.624964,2.66683 -1.041621,5.58343 -1.333258,8.41684 -0.291636,2.83341 -0.4583,5.58336 -0.541605,8.37508 -0.0833,2.79173 -0.0833,5.62501 -0.04162,8.54172 0.04168,2.91671 0.125013,5.91665 0.124973,8.20829 -4e-5,2.29164 -0.08337,3.87494 -0.345875,5.14449 -0.262503,1.26954 -0.703992,2.22574 -0.105291,2.74007 0.5987,0.51433 2.236271,0.58711 4.045234,0.66749 1.808963,0.0804 3.789096,0.16832 5.440918,0.0704 1.651822,-0.098 2.975452,-0.3816 4.605525,-0.73407 1.630072,-0.35248 3.566452,-0.77375 5.328609,-1.58498 1.762158,-0.81123 3.350497,-2.01238 4.407392,-2.57348 1.056894,-0.5611 1.581284,-0.48239 2.110475,-0.17072 0.529192,0.31166 1.063265,0.85541 2.122098,1.46038 1.058832,0.60497 2.642133,1.27162 4.100465,1.77152 1.458331,0.49989 2.791639,0.83322 4.999989,1.29152 2.20835,0.4583 5.291622,1.04162 7.749795,1.16644 2.458173,0.12482 4.291471,-0.20851 6.083353,-0.12493 1.791882,0.0836 3.541847,0.58357 4.833524,0.95858 1.291678,0.37501 2.124994,0.62501 2.79167,0.87513 0.666676,0.25013 1.166664,0.50012 1.207853,-0.33295 0.04119,-0.83307 -0.375469,-2.7497 -0.539531,-5.22289 -0.164063,-2.47319 -0.07524,-5.50253 -0.0161,-7.81381 0.05915,-2.31128 0.08861,-3.90422 0.210841,-6.01457 0.12223,-2.11035 0.337275,-4.73783 0.444837,-6.88489 0.107561,-2.14707 0.107561,-3.8137 -0.01736,-5.48032 -0.124918,-1.66663 -0.374913,-3.33326 -0.460449,-4.9045 -0.08554,-1.57124 -0.0064,-3.04676 -0.04799,-4.75506 -0.0416,-1.7083 -0.204073,-3.64934 -0.449837,-5.59524 -0.245764,-1.94589 -0.574898,-3.89657 -1.157986,-5.56326 -0.583088,-1.66668 -1.420589,-3.04923 -2.506137,-5.36554 -1.085547,-2.3163 -2.418855,-5.56624 -3.794132,-8.14458 -1.375276,-2.57834 -2.79276,-4.48483 -4.167831,-6.48484 -1.375072,-2.00002 -2.70751,-4.09342 -4.748636,-6.47359 -2.041125,-2.38018 -4.791068,-5.04679 -7.541027,-7.29691 -2.749959,-2.25013 -5.499906,-4.08343 -7.374922,-5.37506 C 52.001121,100.50084 51.00114,99.750855 49.959495,99.125701 48.91785,98.500546 47.834538,98.000556 46.834426,97.750278 45.834315,97.5 44.917667,97.5 44.125846,97.583247 c -0.79182,0.08325 -1.458473,0.24991 -2.005763,0.614663 -0.547291,0.364754 -0.974357,0.927231 -1.213922,1.552625 -0.239565,0.625395 -0.291647,1.312885 -0.338537,1.844115 -0.04689,0.53124 -0.08855,0.90623 0.286812,1.85432 0.375368,0.94809 1.167021,2.4689 1.729584,3.48972 0.562563,1.02081 0.895893,1.54164 1.437574,2.37498 0.541681,0.83335 1.291666,1.97916 2.104205,3.15624 0.812539,1.17708 1.687522,2.38539 2.666625,3.94794 0.979104,1.56255 2.062412,3.47917 2.885247,5.12503 0.822835,1.64586 1.385323,3.02083 1.770664,4.07291 0.385342,1.05208 0.59367,1.78123 0.854166,2.53125 0.260495,0.75002 0.572989,1.52084 0.822854,2.40623 0.249864,0.8854 0.43736,1.88538 0.531003,3.21865 0.09364,1.33328 0.09364,2.99991 -0.09396,4.30176 -0.187608,1.30186 -0.5626,2.23934 -0.828225,2.92687 -0.265625,0.68753 -0.421868,1.12501 -0.598392,1.22943 -0.176523,0.10442 -0.374436,-0.12474 -0.239528,-0.53668 0.134907,-0.41193 0.603642,-1.00566 0.853669,-1.55735 0.250026,-0.55168 0.281276,-1.0621 0.401005,-1.69245 0.119728,-0.63034 0.328058,-1.38033 0.406298,-2.37495 0.07824,-0.99462 0.02616,-2.23415 -0.114364,-3.37474 -0.140522,-1.14059 -0.369678,-2.18221 -0.895567,-3.55201 -0.525889,-1.3698 -1.348788,-3.06768 -2.031129,-4.5729 -0.682341,-1.50522 -1.223995,-2.81769 -1.869711,-4.05731 -0.645717,-1.23962 -1.3957,-2.40626 -2.05201,-3.51563 -0.65631,-1.10937 -1.218787,-2.16141 -2.010374,-3.37501 -0.791586,-1.21361 -1.812376,-2.58855 -2.677081,-3.95312 -0.864704,-1.36457 -1.573013,-2.7187 -2.1146,-3.66145 -0.541587,-0.94275 -0.91658,-1.47399 -1.374793,-1.97931 -0.458213,-0.50531 -0.999865,-0.98447 -1.583135,-1.32849 -0.583269,-0.34402 -1.208257,-0.55235 -1.849186,-0.54744 -0.64093,0.005 -1.29716,0.22366 -1.682978,0.53138 -0.385817,0.30773 -0.500399,0.70356 -0.61493,1.49012 z"       id="path473825" />    <path       style="display:inline;fill:none;stroke:#000000;stroke-width:0.7;stroke-linecap:round;stroke-opacity:1"       d="m 25.911612,190.22725 c -1.220629,1.5077 -2.44117,3.01528 -3.614005,4.9776 -1.172836,1.96231 -2.29781,4.37892 -3.360321,6.94151 -1.062512,2.56258 -2.062492,5.27086 -2.770791,7.95852 -0.708299,2.68766 -1.124957,5.35427 -1.333226,7.60438 -0.208269,2.25011 -0.208269,4.08341 -0.312487,5.93753 -0.104217,1.85413 -0.312546,3.72909 3.49e-4,5.39592 0.312895,1.66684 1.146214,3.12514 2.70895,4.75 1.562736,1.62486 3.854356,3.41649 6.000178,5.22905 2.145823,1.81256 4.145784,3.64586 6.208382,4.89558 2.062598,1.24972 4.187554,1.91637 5.666361,2.06191 1.478806,0.14554 2.312122,-0.22946 3.853804,-0.9378 1.541682,-0.70834 3.791635,-1.74999 5.499768,-2.83324 1.708133,-1.08325 2.874778,-2.20823 3.854051,-3.04163 0.979274,-0.83341 1.770922,-1.37506 2.479746,-1.56233 0.708825,-0.18726 1.333811,-0.0206 2.68797,0.83384 1.35416,0.85444 3.437449,2.39607 5.270804,3.72941 1.833355,1.33333 3.416659,2.45831 5.291716,3.45816 1.875057,0.99985 4.041679,1.87483 5.604107,2.33294 1.562428,0.45811 2.520739,0.49978 3.624928,0.56229 1.104189,0.0625 2.354166,0.14585 3.833026,-0.2293 1.47886,-0.37514 3.18716,-1.20846 4.687156,-1.95846 1.499997,-0.75001 2.791636,-1.41666 4.062407,-2.16665 1.270771,-0.74998 2.520747,-1.5833 3.666464,-2.54156 1.145717,-0.95825 2.187367,-2.04157 2.770688,-3.93696 0.583322,-1.8954 0.708319,-4.60368 0.520895,-8.29115 -0.187425,-3.68748 -0.687414,-8.35405 -1.166562,-12.2499 -0.479147,-3.89585 -0.937472,-7.02079 -1.6457,-10.04161 -0.708227,-3.02082 -1.666542,-5.93743 -2.406121,-8.15099 -0.739579,-2.21356 -1.260403,-3.72395 -1.781649,-5.23556"       id="path473883" />    <path       style="display:inline;fill:none;stroke:#4d4d4d;stroke-width:0.7;stroke-linecap:round;stroke-opacity:1"       d="m 51.331533,237.25642 c 0.0589,-2.30449 0.117826,-4.60995 0.03693,-6.29661 -0.08089,-1.68666 -0.30186,-2.75467 -0.335185,-3.81182 -0.03333,-1.05715 0.121351,-2.10306 0.441874,-2.82904 0.320524,-0.72598 0.806652,-1.13109 1.815889,-1.75723 1.009236,-0.62615 2.541272,-1.47319 4.072993,-2.32005"       id="path473887" />    <path       style="display:inline;fill:none;stroke:#4d4d4d;stroke-width:0.7;stroke-linecap:round;stroke-opacity:1"       d="m 51.309436,224.35172 c -0.639862,-0.6987 -1.280677,-1.39844 -2.105573,-2.15351 -0.824897,-0.75507 -1.833976,-1.56528 -2.666252,-2.10318 -0.832276,-0.53789 -1.48781,-0.80305 -2.144563,-1.0687"       id="path473891" />  </g></svg>