<?xml version="1.0" encoding="UTF-8" standalone="no"?><!-- Created with Inkscape (http://www.inkscape.org/) --><svg   width="39"   height="70"   viewBox="0 0 10.318754 18.520826"   version="1.1"   id="svg3956"   inkscape:version="1.2.2 (732a01da63, 2022-12-09)"   inkscape:export-filename="dente_12_cima_notplain.svg"   inkscape:export-xdpi="96"   inkscape:export-ydpi="96"   sodipodi:docname="dente_16_cima.svg"   xmlns:inkscape="http://www.inkscape.org/namespaces/inkscape"   xmlns:sodipodi="http://sodipodi.sourceforge.net/DTD/sodipodi-0.dtd"   xmlns="http://www.w3.org/2000/svg"   xmlns:svg="http://www.w3.org/2000/svg">  <sodipodi:namedview     id="namedview3958"     pagecolor="#ffffff"     bordercolor="#000000"     borderopacity="0.25"     inkscape:showpageshadow="2"     inkscape:pageopacity="0.0"     inkscape:pagecheckerboard="0"     inkscape:deskcolor="#d1d1d1"     inkscape:document-units="px"     showgrid="false"     inkscape:zoom="5.9081369"     inkscape:cx="5.0777428"     inkscape:cy="36.305861"     inkscape:window-width="958"     inkscape:window-height="1000"     inkscape:window-x="953"     inkscape:window-y="0"     inkscape:window-maximized="0"     inkscape:current-layer="layer18" />  <defs     id="defs3953">    <inkscape:path-effect       effect="bspline"       id="path-effect1401"       is_visible="true"       lpeversion="1"       weight="33.333333"       steps="2"       helper_size="0"       apply_no_weight="true"       apply_with_weight="true"       only_selected="false" />    <inkscape:path-effect       effect="bspline"       id="path-effect1405"       is_visible="true"       lpeversion="1"       weight="33.333333"       steps="2"       helper_size="0"       apply_no_weight="true"       apply_with_weight="true"       only_selected="false" />  </defs>  <g     inkscape:groupmode="layer"     id="layer18"     inkscape:label="Image 18"     transform="matrix(0.09499867,0,0,0.09499867,-55.783952,-9.1651003)">    <path       style="fill:none;stroke:#030303;stroke-width:0.7;stroke-linecap:round;stroke-linejoin:round;stroke-dasharray:none;stroke-opacity:1;paint-order:stroke fill markers"       d="m 629.53502,103.05515 c -0.28043,1.46657 -0.33952,3.93781 -0.26188,6.83911 0.0776,2.90131 0.29189,6.2323 0.55523,9.44321 0.26335,3.21091 0.57569,6.30133 0.62042,11.19625 0.0447,4.89492 -0.17805,11.59401 -0.69889,17.40273 -0.52085,5.80873 -1.33962,10.72692 -1.99281,15.33827 -0.65319,4.61136 -1.14079,8.91554 -1.82959,13.05385 -0.68881,4.13832 -1.5787,8.11066 -2.38884,12.22206 -0.81014,4.1114 -1.54051,8.36155 -2.09197,11.73972 -0.55146,3.37816 -0.924,5.88413 -1.25483,8.56145 -0.33083,2.67731 -0.61996,5.52574 -0.71604,8.66003 -0.0961,3.1343 7.7e-4,6.55411 0.4594,7.9494 0.45864,1.39529 1.27891,0.76715 2.49151,-0.7944 1.2126,-1.56155 2.81777,-4.05676 5.19738,-6.64529 2.37961,-2.58853 5.53326,-5.2699 8.27367,-7.20833 2.74041,-1.93843 5.06712,-3.13371 8.01017,-3.6901 2.94306,-0.55639 6.50164,-0.47408 9.34489,0.2343 2.84326,0.70837 4.97088,2.04206 6.96491,4.16595 1.99402,2.12389 3.85477,5.03741 5.12013,7.03113 1.26536,1.99373 1.93529,3.06755 2.23036,2.55004 0.29507,-0.5175 0.21597,-2.62612 -0.13799,-6.19021 -0.35395,-3.56409 -0.98283,-8.58348 -1.73115,-14.07759 -0.74831,-5.49412 -1.61604,-11.46263 -2.59853,-17.569 -0.98249,-6.10637 -2.07972,-12.35026 -3.20793,-18.54928 -1.12822,-6.19902 -2.28736,-12.35281 -4.09042,-18.67584 -1.80306,-6.32302 -4.25009,-12.81483 -6.61046,-18.3499 -2.36036,-5.53507 -4.63392,-10.11273 -7.09563,-14.58809 -2.46171,-4.47536 -5.11143,-8.84791 -7.02222,-10.90423 -1.91079,-2.05631 -3.08255,-1.79494 -3.91966,-1.43378 -0.83711,0.36116 -1.3388,0.82197 -1.61923,2.28854 z"       id="path1399"       inkscape:path-effect="#path-effect1401"       inkscape:original-d="m 629.31371,102.04944 c -0.0581,2.4723 -0.11718,4.94354 -0.17728,7.41388 0.21527,3.33219 0.42953,6.66318 0.64281,9.99337 0.31336,3.0916 0.62572,6.18202 0.93708,9.27163 -0.22177,6.70035 -0.44454,13.39944 -0.66832,20.09766 -0.81781,4.91939 -1.63659,9.83758 -2.45638,14.75487 -0.48662,4.30535 -0.97422,8.60953 -1.46283,12.9128 -0.88893,3.9735 -1.77883,7.94584 -2.66974,11.91726 -0.72939,4.25132 -1.45976,8.50147 -2.19114,12.7507 -0.37156,2.50707 -0.7441,5.01304 -1.11765,7.51805 -0.28814,2.84956 -0.57726,5.69799 -0.8674,8.54549 0.0978,3.42095 0.1947,6.84076 0.29055,10.25964 0.8213,-0.62716 1.64157,-1.2553 2.46086,-1.88445 1.60623,-2.49431 3.21139,-4.98952 4.81558,-7.48578 3.15478,-2.68047 6.30844,-5.36184 9.46115,-8.04426 2.3278,-1.19433 4.65451,-2.38961 6.98027,-3.58591 3.55972,0.0833 7.1183,0.16561 10.67595,0.24692 2.12871,1.33474 4.25633,2.66843 6.38299,4.00114 1.86182,2.91464 3.72256,5.82816 5.58235,8.74074 0.67095,1.07486 1.34088,2.14868 2.00982,3.22151 -0.0781,-2.10771 -0.15721,-4.21633 -0.23732,-6.32599 -0.6279,-5.01859 -1.25678,-10.03798 -1.88667,-15.05847 -0.86676,-5.96775 -1.7345,-11.93626 -2.60324,-17.90589 -1.09627,-6.24313 -2.1935,-12.48702 -3.29175,-18.73203 -1.15819,-6.15304 -2.31734,-12.30683 -3.47751,-18.46174 -2.44618,-6.4912 -4.89322,-12.983 -7.3414,-19.4762 -2.27269,-4.57694 -4.54624,-9.1546 -6.82094,-13.73355 -2.64884,-4.37174 -5.29856,-8.7443 -7.94935,-13.117961 -1.17082,0.262381 -2.34258,0.523741 -3.5154,0.784121 -0.50071,0.46182 -1.00239,0.92263 -1.50509,1.38245 z"       sodipodi:nodetypes="cccccccccccccccccccccccccccccc" />    <path       style="fill:none;stroke:#030303;stroke-width:0.7;stroke-linecap:round;stroke-linejoin:round;stroke-dasharray:none;stroke-opacity:1;paint-order:stroke fill markers"       d="m 620.27184,226.35134 c -1.49183,3.69753 -2.98346,7.39456 -4.56543,11.45624 -1.58197,4.06168 -3.25422,8.4878 -4.50615,12.80754 -1.25194,4.31973 -2.08354,8.53259 -2.47841,11.86342 -0.39488,3.33084 -0.35317,5.77922 -0.0142,8.57592 0.33898,2.79671 0.975,5.94142 2.76203,8.45845 1.78703,2.51704 4.724,4.40665 8.25291,5.65657 3.52891,1.24992 7.64957,1.86067 12.48506,2.09449 4.83548,0.23381 10.38563,0.0909 16.08842,-0.009 5.70278,-0.0998 11.55784,-0.15661 15.81628,-0.47159 4.25845,-0.31498 6.92029,-0.88799 8.52239,-2.16046 1.6021,-1.27247 2.14531,-3.24517 1.90641,-7.33327 -0.23891,-4.08811 -1.26026,-10.29181 -1.87606,-16.53759 -0.6158,-6.24579 -0.82587,-12.53318 -1.47029,-18.59414 -0.64442,-6.06096 -1.72332,-11.89525 -2.43559,-15.35036 -0.71226,-3.45511 -1.05803,-4.53092 -1.4042,-5.60797"       id="path1403"       inkscape:path-effect="#path-effect1405"       inkscape:original-d="m 620.27184,226.35134 c -1.49062,3.69802 -2.98225,7.39505 -4.47487,11.09107 -1.67132,4.42731 -3.34357,8.85343 -5.01686,13.27864 -0.83064,4.21403 -1.66224,8.42689 -2.49486,12.63883 0.0427,2.44948 0.0844,4.89786 0.12512,7.34529 0.63705,3.14584 1.27307,6.29055 1.9081,9.43433 2.9381,1.8907 5.87507,3.78031 8.81111,5.66897 4.12182,0.61177 8.24248,1.22251 12.36223,1.83227 5.55137,-0.14193 11.10152,-0.28486 16.65078,-0.42879 5.85629,-0.0558 11.71135,-0.11254 17.56552,-0.17031 2.66296,-0.57203 5.3248,-1.14504 7.98571,-1.71907 0.54422,-1.97176 1.08743,-3.94445 1.62965,-5.91817 -1.02039,-6.20295 -2.04175,-12.40665 -3.06412,-18.61147 -0.20908,-6.28665 -0.41915,-12.57404 -0.63022,-18.86256 -1.07794,-5.83352 -2.15684,-11.66781 -3.23676,-17.50321 -0.34479,-1.07487 -0.69056,-2.15068 -1.03734,-3.22753"       sodipodi:nodetypes="cccccccccccccccc" />  </g></svg>