<?xml version="1.0" encoding="UTF-8" standalone="no"?><!-- Created with Inkscape (http://www.inkscape.org/) --><svg   width="39"   height="70"   viewBox="0 0 10.318754 18.520826"   version="1.1"   id="svg3956"   inkscape:version="1.2.2 (732a01da63, 2022-12-09)"   inkscape:export-filename="dente_13_cima_notplain.svg"   inkscape:export-xdpi="96"   inkscape:export-ydpi="96"   sodipodi:docname="dente_16_cima.svg"   xmlns:inkscape="http://www.inkscape.org/namespaces/inkscape"   xmlns:sodipodi="http://sodipodi.sourceforge.net/DTD/sodipodi-0.dtd"   xmlns="http://www.w3.org/2000/svg"   xmlns:svg="http://www.w3.org/2000/svg">  <sodipodi:namedview     id="namedview3958"     pagecolor="#ffffff"     bordercolor="#000000"     borderopacity="0.25"     inkscape:showpageshadow="2"     inkscape:pageopacity="0.0"     inkscape:pagecheckerboard="0"     inkscape:deskcolor="#d1d1d1"     inkscape:document-units="px"     showgrid="false"     inkscape:zoom="4.1776837"     inkscape:cx="-30.519304"     inkscape:cy="47.634051"     inkscape:window-width="1920"     inkscape:window-height="1009"     inkscape:window-x="-8"     inkscape:window-y="-8"     inkscape:window-maximized="1"     inkscape:current-layer="layer9" />  <defs     id="defs3953">    <inkscape:path-effect       effect="bspline"       id="path-effect1389"       is_visible="true"       lpeversion="1"       weight="33.333333"       steps="2"       helper_size="0"       apply_no_weight="true"       apply_with_weight="true"       only_selected="false" />    <inkscape:path-effect       effect="bspline"       id="path-effect1393"       is_visible="true"       lpeversion="1"       weight="33.333333"       steps="2"       helper_size="0"       apply_no_weight="true"       apply_with_weight="true"       only_selected="false" />  </defs>  <g     inkscape:groupmode="layer"     id="layer17"     inkscape:label="Image 17"     transform="matrix(0.10320189,0,0,0.10320189,-53.422047,-11.541975)">    <path       style="fill:none;stroke:#030303;stroke-width:0.7;stroke-linecap:round;stroke-linejoin:round;stroke-dasharray:none;stroke-opacity:1;paint-order:stroke fill markers"       d="m 561.13367,115.62654 c -0.94143,1.73 -1.86084,4.54036 -2.27979,7.35902 -0.41895,2.81866 -0.33769,5.6451 -0.48553,9.8607 -0.14784,4.2156 -0.52468,9.82018 -0.71924,15.73073 -0.19457,5.91056 -0.2069,12.12664 -0.53791,17.67773 -0.33101,5.5511 -0.98056,10.43702 -1.78853,15.04227 -0.80797,4.60525 -1.77426,8.92965 -2.66327,12.6972 -0.88901,3.76754 -1.70069,6.97804 -2.1715,10.19386 -0.47081,3.21581 -0.60088,6.43648 -0.59117,9.53764 0.01,3.10116 0.15911,6.08254 0.91044,7.21402 0.75133,1.13148 2.10421,0.41427 3.81721,-0.91413 1.71299,-1.3284 3.78632,-3.26806 5.82288,-4.83119 2.03657,-1.56314 4.036,-2.74951 6.13203,-3.60612 2.09603,-0.8566 4.28811,-1.3834 6.98797,-0.94282 2.69985,0.44057 5.90682,1.84778 8.0833,3.62029 2.17648,1.77251 3.32292,3.90953 4.03119,5.47013 0.70827,1.5606 0.97866,2.54469 1.30515,2.02464 0.32649,-0.52005 0.70954,-2.54377 0.50368,-6.19814 -0.20587,-3.65437 -1.00095,-8.93948 -1.80712,-15.2186 -0.80618,-6.27913 -1.62335,-13.55184 -2.6502,-20.02451 -1.02684,-6.47266 -2.26342,-12.14496 -3.31612,-17.77046 -1.05271,-5.62551 -1.92141,-11.20387 -3.10412,-17.42565 -1.18272,-6.22179 -2.67945,-13.08665 -4.2496,-18.29491 -1.57015,-5.20827 -3.21392,-8.75971 -4.61956,-10.85523 -1.40563,-2.09552 -2.57368,-2.73448 -3.63972,-2.72991 -1.06604,0.005 -2.02905,0.65344 -2.97047,2.38344 z"       id="path1387"       inkscape:path-effect="#path-effect1389"       inkscape:original-d="m 561.11184,114.54558 c -0.9184,2.81135 -1.83781,5.62171 -2.75821,8.43106 0.0823,2.82755 0.16353,5.65399 0.2438,8.47948 -0.37586,5.60581 -0.7527,11.21039 -1.13055,16.81409 -0.0113,6.21734 -0.0237,12.43342 -0.037,18.64863 -0.64857,4.88713 -1.29812,9.77305 -1.94869,14.65808 -0.96533,4.32558 -1.93162,8.64998 -2.89892,12.97348 -0.81071,3.21163 -1.62238,6.42213 -2.43507,9.6317 -0.12907,3.2218 -0.25914,6.44247 -0.39021,9.6622 0.1504,2.9825 0.2998,5.96388 0.4482,8.94433 1.35394,-0.71624 2.70682,-1.43346 4.05874,-2.15168 2.07441,-1.93874 4.14773,-3.8784 6.2201,-5.8191 2.0005,-1.18542 3.99993,-2.3718 5.99839,-3.55919 2.19318,-0.52582 4.38526,-1.05262 6.57639,-1.58043 3.2081,1.40826 6.41507,2.81547 9.6211,4.22171 1.14749,2.13811 2.29393,4.27514 3.43939,6.41121 0.2714,0.98513 0.54178,1.96922 0.81117,2.95233 0.38407,-2.0228 0.76712,-4.04652 1.14918,-6.07128 -0.79411,-5.28432 -1.58919,-10.56943 -2.38528,-15.85565 -0.81621,-7.27201 -1.63339,-14.54472 -2.45158,-21.81858 -1.23563,-5.67153 -2.4722,-11.34383 -3.7098,-17.01724 -0.86774,-5.57757 -1.73644,-11.15593 -2.60615,-16.73539 -1.49579,-6.86414 -2.99253,-13.729 -4.49029,-20.595 -1.64284,-3.55057 -3.28661,-7.10201 -4.93141,-10.65451 -1.1671,-0.63799 -2.33515,-1.27695 -3.50422,-1.91692 -0.96205,0.6499 -1.92505,1.29878 -2.88908,1.94667 z" />    <path       style="fill:none;stroke:#030303;stroke-width:0.7;stroke-linecap:round;stroke-linejoin:round;stroke-dasharray:none;stroke-opacity:1;paint-order:stroke fill markers"       d="m 550.91994,221.19055 c -1.35984,3.79676 -2.71947,7.59293 -4.04115,11.24398 -1.32169,3.65105 -2.60537,7.15685 -3.57537,11.57887 -0.97001,4.42202 -1.62639,9.7597 -1.77174,14.74086 -0.14535,4.98115 0.22012,9.60529 1.11181,13.4707 0.89169,3.86541 2.30906,6.97173 5.18666,9.14648 2.87761,2.17476 7.21461,3.4187 11.23941,4.48262 4.02479,1.06393 7.73717,1.94784 11.76684,2.69117 4.02968,0.74333 8.37645,1.34616 12.13246,1.3514 3.75601,0.005 6.92136,-0.5868 8.6616,-1.75103 1.74025,-1.16424 2.05623,-2.90154 2.1301,-7.69503 0.0739,-4.79349 -0.0945,-12.64305 -0.5192,-19.72452 -0.42467,-7.08146 -1.10565,-13.39448 -1.94642,-19.27205 -0.84076,-5.87756 -1.84135,-11.31936 -2.81184,-14.85824 -0.9705,-3.53888 -1.91133,-5.17471 -2.85285,-6.81175"       id="path1391"       inkscape:path-effect="#path-effect1393"       inkscape:original-d="m 550.91994,221.19055 c -1.35864,3.79719 -2.71827,7.59336 -4.0789,11.38854 -1.28273,3.50693 -2.56642,7.01273 -3.85112,10.51759 -0.65541,5.33888 -1.31178,10.67656 -1.96917,16.01333 0.36649,4.62533 0.73196,9.24947 1.09645,13.87271 1.41843,3.10744 2.8358,6.21376 4.2522,9.31915 4.33817,1.24499 8.67517,2.48893 13.01126,3.73189 3.71352,0.88495 7.4259,1.76886 11.13735,2.65179 4.34795,0.60386 8.69472,1.20669 13.04059,1.80853 3.16648,-0.59106 6.33183,-1.1831 9.49625,-1.77615 0.317,-1.73636 0.63299,-3.47366 0.94798,-5.21198 -0.16741,-7.84889 -0.33582,-15.69845 -0.50524,-23.54918 -0.68001,-6.31228 -1.361,-12.6253 -2.043,-18.93946 -0.99963,-5.44101 -2.00021,-10.88281 -3.00181,-16.32572 -0.93986,-1.63489 -1.88069,-3.27072 -2.82253,-4.90758"       sodipodi:nodetypes="ccccccccccccccc" />  </g></svg>