<?xml version="1.0" encoding="UTF-8" standalone="no"?><!-- Created with Inkscape (http://www.inkscape.org/) --><svg   width="39"   height="70"   viewBox="0 0 10.318754 18.520826"   version="1.1"   id="svg3956"   inkscape:version="1.2.2 (732a01da63, 2022-12-09)"   inkscape:export-filename="dente_21_cima_notplain.svg"   inkscape:export-xdpi="96"   inkscape:export-ydpi="96"   sodipodi:docname="dente_16_cima.svg"   xmlns:inkscape="http://www.inkscape.org/namespaces/inkscape"   xmlns:sodipodi="http://sodipodi.sourceforge.net/DTD/sodipodi-0.dtd"   xmlns="http://www.w3.org/2000/svg"   xmlns:svg="http://www.w3.org/2000/svg">  <sodipodi:namedview     id="namedview3958"     pagecolor="#ffffff"     bordercolor="#000000"     borderopacity="0.25"     inkscape:showpageshadow="2"     inkscape:pageopacity="0.0"     inkscape:pagecheckerboard="0"     inkscape:deskcolor="#d1d1d1"     inkscape:document-units="px"     showgrid="false"     inkscape:zoom="5.9081369"     inkscape:cx="5.0777428"     inkscape:cy="36.305861"     inkscape:window-width="958"     inkscape:window-height="1000"     inkscape:window-x="953"     inkscape:window-y="0"     inkscape:window-maximized="0"     inkscape:current-layer="layer18" />  <defs     id="defs3953">    <inkscape:path-effect       effect="bspline"       id="path-effect1467"       is_visible="true"       lpeversion="1"       weight="33.333333"       steps="2"       helper_size="0"       apply_no_weight="true"       apply_with_weight="true"       only_selected="false" />    <inkscape:path-effect       effect="bspline"       id="path-effect1471"       is_visible="true"       lpeversion="1"       weight="33.333333"       steps="2"       helper_size="0"       apply_no_weight="true"       apply_with_weight="true"       only_selected="false" />  </defs>  <g     inkscape:groupmode="layer"     id="layer23"     inkscape:label="Image 23"     transform="matrix(0.10005063,0,0,0.10005063,-74.602308,-10.873281)">    <path       style="fill:none;stroke:#030303;stroke-width:0.7;stroke-linecap:round;stroke-linejoin:round;stroke-dasharray:none;stroke-opacity:1;paint-order:stroke fill markers"       d="m 777.37373,228.87768 c 1.48377,-4.18897 2.78079,-6.80601 4.1351,-9.13228 1.35431,-2.32627 2.76579,-4.3615 4.35021,-5.83913 1.58442,-1.47762 3.34115,-2.39715 6.00053,-2.9332 2.65938,-0.53604 6.22064,-0.68873 9.82015,1.03816 3.59951,1.72689 7.23701,5.33219 9.92087,8.89759 2.68385,3.56541 4.41432,7.09051 6.07693,11.52266 1.66262,4.43214 3.25751,9.77105 4.28742,14.87773 1.02991,5.10667 1.49504,9.98093 1.46331,14.25906 -0.0317,4.27814 -0.56005,7.96018 -1.70662,11.40089 -1.14656,3.44071 -2.91121,6.64041 -5.85577,8.83031 -2.94457,2.1899 -7.06971,3.37044 -11.09795,4.532 -4.02824,1.16156 -7.95933,2.30407 -12.60716,2.95669 -4.64783,0.65262 -10.01243,0.81516 -13.40842,0.70366 -3.396,-0.1115 -4.82344,-0.49739 -5.79755,-1.19649 -0.9741,-0.6991 -1.49427,-1.71226 -1.75466,-3.94551 -0.26039,-2.23324 -0.26039,-5.68622 -0.056,-9.85171 0.20442,-4.16549 0.61332,-9.04315 0.88157,-14.23021 0.26825,-5.18706 0.39579,-10.68329 1.29476,-16.312 0.89897,-5.62871 2.56947,-11.38925 4.05325,-15.57822 z"       id="path1465"       inkscape:path-effect="#path-effect1467"       inkscape:original-d="m 777.56068,227.30534 c 1.29802,-2.61603 2.59504,-5.23307 3.89106,-7.85111 1.41254,-2.03431 2.82403,-4.06954 4.23454,-6.10581 1.75781,-0.91857 3.51454,-1.8381 5.27031,-2.75866 3.5624,-0.15169 7.12366,-0.30438 10.68398,-0.45807 3.63865,3.60644 7.27616,7.21173 10.91274,10.8161 1.73154,3.52624 3.46201,7.05134 5.19151,10.57551 1.59596,5.34013 3.19085,10.67904 4.78478,16.01706 0.46614,4.87544 0.93127,9.74969 1.39541,14.62303 -0.52736,3.68318 -1.05569,7.36522 -1.58504,11.04632 -1.76371,3.20082 -3.52836,6.40051 -5.29403,9.59926 -4.12431,1.18159 -8.24945,2.36213 -12.37567,3.54169 -3.93025,1.14356 -7.86134,2.28607 -11.79351,3.4276 -5.36381,0.16355 -10.72841,0.3261 -16.09411,0.48764 -1.4265,-0.3849 -2.85394,-0.77079 -4.28241,-1.15768 -0.51918,-1.01219 -1.03934,-2.02535 -1.56051,-3.03952 10e-4,-3.45212 10e-4,-6.9051 0,-10.35915 0.40991,-4.87684 0.81882,-9.7545 1.22672,-14.63325 0.12854,-5.49544 0.25608,-10.99167 0.38262,-16.489 1.67157,-5.75977 3.34207,-11.52031 5.01161,-17.28196 z" />    <path       style="fill:none;stroke:#030303;stroke-width:0.7;stroke-linecap:round;stroke-linejoin:round;stroke-dasharray:none;stroke-opacity:1;paint-order:stroke fill markers"       d="m 779.61319,223.38733 c 0.52759,-7.69207 1.05524,-15.38507 1.36955,-22.17534 0.31432,-6.79026 0.41524,-12.67761 1.17813,-19.07966 0.76289,-6.40205 2.18783,-13.3182 3.59339,-19.67153 1.40556,-6.35334 2.79168,-12.14345 3.89059,-17.031 1.09892,-4.88755 1.91055,-8.87232 2.86165,-12.88209 0.9511,-4.00976 2.04165,-8.0442 3.23349,-11.17519 1.19184,-3.13099 2.4849,-5.358 3.81233,-6.95645 1.32742,-1.59845 2.68874,-2.5678 3.96899,-1.58656 1.28024,0.98123 2.47902,3.91162 2.85078,8.35923 0.37177,4.44761 -0.0829,10.41243 0.0814,17.51891 0.16432,7.10648 0.94745,15.35401 1.75709,23.72538 0.80965,8.37137 1.64575,16.86606 2.54234,23.93102 0.8966,7.06496 1.85353,12.69974 2.66017,16.8807 0.80664,4.18095 1.46286,6.90783 1.60726,10.32627 0.1444,3.41843 -0.22265,7.52847 -0.58962,11.63769"       id="path1469"       inkscape:path-effect="#path-effect1471"       inkscape:original-d="m 779.61319,223.38733 c 0.52865,-7.692 1.0563,-15.385 1.58295,-23.079 0.10193,-5.88658 0.20286,-11.77393 0.30279,-17.66239 1.42599,-6.91542 2.85093,-13.83157 4.27489,-20.74885 1.38717,-5.78935 2.77329,-11.57946 4.15844,-17.37068 0.81266,-3.98393 1.62429,-7.9687 2.43494,-11.95455 1.09159,-4.03359 2.18214,-8.06803 3.2717,-12.10354 1.29412,-2.2261 2.58718,-4.45311 3.87926,-6.68116 1.36239,-0.9684 2.72371,-1.93775 4.08407,-2.90813 1.19982,2.93151 2.3986,5.8619 3.59641,8.79135 -0.45372,5.96605 -0.90841,11.93087 -1.36411,17.89481 0.78416,8.24886 1.56729,16.49639 2.34944,24.74309 0.83714,8.49603 1.67325,16.99072 2.50837,25.48458 0.95797,5.63601 1.91491,11.27079 2.87086,16.90468 0.65724,2.72799 1.31345,5.45487 1.96868,8.1808 -0.36606,4.11121 -0.73311,8.22125 -1.10116,12.33037"       sodipodi:nodetypes="cccccccccccccccc" />  </g></svg>