<svg width="122" height="142" viewBox="0 0 122 142" fill="none" xmlns="http://www.w3.org/2000/svg">
<path d="M12.8232 142V78L67.8232 13H121.823L12.8232 142Z" fill="#FECEA2"/>
<path d="M34.1516 97.8213L32.1159 96.1751L34.025 93.8144L27.7469 88.7375L26.1007 90.7731L24.544 89.5143C24.9096 88.829 25.1785 88.2166 25.3508 87.6769C25.5232 87.1372 25.6521 86.5813 25.7376 86.0091L27.2316 84.1616L36.0585 91.2998L37.7047 89.2641L39.7404 90.9103L34.1516 97.8213ZM41.0037 89.3481L39.5668 88.1861C39.4356 86.5522 39.3024 85.0959 39.1672 83.817C39.0297 82.5175 38.8259 81.4284 38.5556 80.5497C38.274 79.6618 37.8766 79.0103 37.3634 78.5953C36.8274 78.1618 36.3072 77.977 35.803 78.0408C35.2965 78.0839 34.8542 78.3393 34.4761 78.8068C34.1626 79.1946 33.9907 79.6403 33.9606 80.1441C33.9282 80.6273 33.9497 81.1256 34.0248 81.6391L31.5667 81.9147C31.43 80.9176 31.445 80.0243 31.6118 79.235C31.7672 78.4364 32.1584 77.6493 32.7856 76.8738C33.3666 76.1554 34.0164 75.6434 34.7349 75.338C35.4535 75.0325 36.195 74.9437 36.9593 75.0714C37.7215 75.1785 38.4505 75.5133 39.1461 76.0759C39.7506 76.5647 40.2338 77.2384 40.5957 78.0969C40.9555 78.9349 41.2426 79.8744 41.457 80.9155C41.66 81.9473 41.8297 83.0087 41.9659 84.0998C42.153 83.7984 42.3735 83.4674 42.6274 83.1068C42.8699 82.737 43.0925 82.4267 43.2954 82.1758L45.0661 79.9862L47.1873 81.7016L41.0037 89.3481ZM46.1246 74.269C45.479 75.0673 44.6305 75.4751 43.579 75.4925C42.5275 75.5098 41.443 75.0666 40.3254 74.1628C39.2078 73.259 38.5531 72.2958 38.3615 71.2732C38.1699 70.2506 38.3969 69.3401 39.0425 68.5418C39.6973 67.7321 40.5447 67.314 41.5848 67.2874C42.6248 67.2608 43.7037 67.6994 44.8213 68.6032C45.9389 69.507 46.5992 70.4748 46.8022 71.5067C47.0052 72.5385 46.7794 73.4593 46.1246 74.269ZM44.7218 73.1346C44.9524 72.8495 44.9864 72.4809 44.8239 72.0288C44.6705 71.5653 44.1947 71.0108 43.3964 70.3652C42.5981 69.7196 41.962 69.375 41.4881 69.3312C41.0234 69.2761 40.6758 69.3911 40.4452 69.6762C40.2147 69.9613 40.1703 70.331 40.3123 70.7853C40.4634 71.2282 40.9381 71.7724 41.7364 72.418C42.5347 73.0635 43.1719 73.4185 43.648 73.4828C44.1333 73.5358 44.4913 73.4197 44.7218 73.1346ZM50.9108 77.517L44.2163 62.144L45.3921 60.69L52.0866 76.063L50.9108 77.517ZM57.2604 69.6652C56.6149 70.4635 55.7663 70.8713 54.7149 70.8887C53.6634 70.906 52.5789 70.4628 51.4612 69.559C50.3436 68.6552 49.689 67.692 49.4974 66.6694C49.3058 65.6468 49.5328 64.7364 50.1784 63.9381C50.8332 63.1284 51.6806 62.7102 52.7206 62.6836C53.7607 62.657 54.8396 63.0956 55.9572 63.9994C57.0748 64.9032 57.7351 65.8711 57.9381 66.9029C58.1411 67.9347 57.9152 68.8555 57.2604 69.6652ZM55.8577 68.5308C56.0883 68.2457 56.1223 67.8771 55.9597 67.425C55.8064 66.9615 55.3306 66.407 54.5323 65.7614C53.734 65.1158 53.0979 64.7712 52.624 64.7275C52.1593 64.6723 51.8117 64.7873 51.5811 65.0724C51.3505 65.3575 51.3062 65.7272 51.4481 66.1815C51.5993 66.6244 52.074 67.1686 52.8723 67.8142C53.6706 68.4597 54.3078 68.8147 54.7839 68.8791C55.2692 68.932 55.6271 68.8159 55.8577 68.5308ZM67.2292 57.338C66.473 58.2731 65.5602 58.912 64.491 59.2545C63.431 59.5856 62.2959 59.6014 61.0858 59.3019C59.8849 58.9909 58.6857 58.3512 57.4883 57.3829C56.2908 56.4145 55.4258 55.3849 54.8933 54.2941C54.3586 53.1826 54.1536 52.0832 54.2785 50.9958C54.4011 49.8878 54.8406 48.8663 55.5968 47.9311C56.3623 46.9846 57.2693 46.3411 58.3179 46.0008C59.3551 45.6512 60.473 45.6216 61.6718 45.9119C62.8591 46.193 64.0515 46.8178 65.2489 47.7861C66.4464 48.7545 67.3182 49.799 67.8643 50.9197C68.4104 52.0404 68.6325 53.1536 68.5304 54.2594C68.4284 55.3653 67.9947 56.3914 67.2292 57.338ZM65.9804 56.3281C66.5245 55.6553 66.8067 54.9215 66.8269 54.1268C66.845 53.3114 66.6225 52.4902 66.1596 51.6632C65.6853 50.8269 64.9806 50.0306 64.0454 49.2744C62.6541 48.1493 61.3092 47.5615 60.0107 47.5112C58.7122 47.4608 57.6572 47.9374 56.8456 48.941C56.034 49.9445 55.7887 51.0759 56.1096 52.3352C56.4305 53.5944 57.2866 54.7866 58.678 55.9117C59.6131 56.6679 60.5392 57.1905 61.4562 57.4794C62.3618 57.759 63.2113 57.8047 64.0049 57.6165C64.787 57.419 65.4455 56.9896 65.9804 56.3281ZM72.8626 49.952L61.6407 40.8771L66.8699 34.4109L68.0673 35.3793L63.9864 40.4257L67.784 43.4967L71.2424 39.2201L72.4399 40.1885L68.9815 44.4651L74.0108 48.5322L72.8626 49.952ZM79.6983 41.499L68.4765 32.4241L73.7056 25.9579L74.9031 26.9263L70.8222 31.9727L74.6198 35.0437L78.0782 30.7671L79.2756 31.7355L75.8172 36.0121L80.8465 40.0792L79.6983 41.499Z" fill="#344848"/>
</svg>
