<svg width="122" height="142" viewBox="0 0 122 142" fill="none" xmlns="http://www.w3.org/2000/svg">
<path d="M12.8232 142V78L67.8232 13H121.823L12.8232 142Z" fill="#FECEA2"/>
<path d="M34.1516 97.8213L32.1159 96.1751L34.025 93.8144L27.7469 88.7375L26.1007 90.7731L24.544 89.5143C24.9096 88.829 25.1785 88.2166 25.3508 87.6769C25.5232 87.1372 25.6521 86.5813 25.7376 86.0091L27.2316 84.1616L36.0585 91.2998L37.7047 89.2641L39.7404 90.9103L34.1516 97.8213ZM39.2839 81.2235C39.0534 81.5087 38.9037 81.8686 38.835 82.3035C38.7641 82.7177 38.8303 83.1956 39.0336 83.7373C39.9811 84.3149 40.7494 84.5778 41.3383 84.5259C41.9159 84.4648 42.3568 84.2461 42.6612 83.8698C42.9655 83.4934 43.0869 83.0635 43.0253 82.5798C42.9615 82.0756 42.6217 81.5744 42.0059 81.0764C41.4357 80.6153 40.9202 80.4247 40.4593 80.5048C40.0077 80.5734 39.6159 80.813 39.2839 81.2235ZM44.5844 85.3402C44.0218 86.0358 43.3044 86.5497 42.4323 86.8818C41.5487 87.2047 40.5521 87.2476 39.4424 87.0104C38.3305 86.7526 37.1417 86.1118 35.8758 85.0881C34.5187 83.9906 33.5728 82.8862 33.038 81.7747C32.5125 80.6519 32.312 79.5937 32.4363 78.6002C32.5585 77.5862 32.9285 76.6971 33.5464 75.933C34.1274 75.2145 34.7612 74.699 35.4477 74.3866C36.1229 74.0649 36.7755 73.8759 37.4057 73.8197L37.8459 76.3542C37.4931 76.3707 37.1134 76.4786 36.7069 76.6781C36.2983 76.8569 35.9648 77.1059 35.7066 77.4252C35.3838 77.8244 35.197 78.2769 35.1463 78.7829C35.0841 79.2796 35.2209 79.8335 35.5567 80.4446C35.8903 81.035 36.4652 81.6886 37.2814 82.4052C37.1471 81.825 37.149 81.2512 37.2871 80.6839C37.423 80.0959 37.6247 79.6366 37.8922 79.3059C38.6484 78.3707 39.5446 77.8223 40.5808 77.6605C41.6149 77.4781 42.7078 77.8527 43.8596 78.7841C44.6123 79.3928 45.1286 80.0839 45.4086 80.8573C45.6771 81.6214 45.7383 82.3971 45.5921 83.1843C45.4552 83.9601 45.1193 84.6787 44.5844 85.3402ZM46.1246 74.269C45.479 75.0673 44.6305 75.4751 43.579 75.4925C42.5275 75.5098 41.443 75.0666 40.3254 74.1628C39.2078 73.259 38.5531 72.2958 38.3615 71.2732C38.1699 70.2506 38.3969 69.3401 39.0425 68.5418C39.6973 67.7321 40.5447 67.314 41.5848 67.2874C42.6248 67.2608 43.7037 67.6994 44.8213 68.6032C45.9389 69.507 46.5992 70.4748 46.8022 71.5067C47.0052 72.5385 46.7794 73.4593 46.1246 74.269ZM44.7218 73.1346C44.9524 72.8495 44.9864 72.4809 44.8239 72.0288C44.6705 71.5653 44.1947 71.0108 43.3964 70.3652C42.5981 69.7196 41.962 69.375 41.4881 69.3312C41.0234 69.2761 40.6758 69.3911 40.4452 69.6762C40.2147 69.9613 40.1703 70.331 40.3123 70.7853C40.4634 71.2282 40.9381 71.7724 41.7364 72.418C42.5347 73.0635 43.1719 73.4185 43.648 73.4828C44.1333 73.5358 44.4913 73.4197 44.7218 73.1346ZM50.9108 77.517L44.2163 62.144L45.3921 60.69L52.0866 76.063L50.9108 77.517ZM57.2604 69.6652C56.6149 70.4635 55.7663 70.8713 54.7149 70.8887C53.6634 70.906 52.5789 70.4628 51.4612 69.559C50.3436 68.6552 49.689 67.692 49.4974 66.6694C49.3058 65.6468 49.5328 64.7364 50.1784 63.9381C50.8332 63.1284 51.6806 62.7102 52.7206 62.6836C53.7607 62.657 54.8396 63.0956 55.9572 63.9994C57.0748 64.9032 57.7351 65.8711 57.9381 66.9029C58.1411 67.9347 57.9152 68.8555 57.2604 69.6652ZM55.8577 68.5308C56.0883 68.2457 56.1223 67.8771 55.9597 67.425C55.8064 66.9615 55.3306 66.407 54.5323 65.7614C53.734 65.1158 53.0979 64.7712 52.624 64.7275C52.1593 64.6723 51.8117 64.7873 51.5811 65.0724C51.3505 65.3575 51.3062 65.7272 51.4481 66.1815C51.5993 66.6244 52.074 67.1686 52.8723 67.8142C53.6706 68.4597 54.3078 68.8147 54.7839 68.8791C55.2692 68.932 55.6271 68.8159 55.8577 68.5308ZM67.2292 57.338C66.473 58.2731 65.5602 58.912 64.491 59.2545C63.431 59.5856 62.2959 59.6014 61.0858 59.3019C59.8849 58.9909 58.6857 58.3512 57.4883 57.3829C56.2908 56.4145 55.4258 55.3849 54.8933 54.2941C54.3586 53.1826 54.1536 52.0832 54.2785 50.9958C54.4011 49.8878 54.8406 48.8663 55.5968 47.9311C56.3623 46.9846 57.2693 46.3411 58.3179 46.0008C59.3551 45.6512 60.473 45.6216 61.6718 45.9119C62.8591 46.193 64.0515 46.8178 65.2489 47.7861C66.4464 48.7545 67.3182 49.799 67.8643 50.9197C68.4104 52.0404 68.6325 53.1536 68.5304 54.2594C68.4284 55.3653 67.9947 56.3914 67.2292 57.338ZM65.9804 56.3281C66.5245 55.6553 66.8067 54.9215 66.8269 54.1268C66.845 53.3114 66.6225 52.4902 66.1596 51.6632C65.6853 50.8269 64.9806 50.0306 64.0454 49.2744C62.6541 48.1493 61.3092 47.5615 60.0107 47.5112C58.7122 47.4608 57.6572 47.9374 56.8456 48.941C56.034 49.9445 55.7887 51.0759 56.1096 52.3352C56.4305 53.5944 57.2866 54.7866 58.678 55.9117C59.6131 56.6679 60.5392 57.1905 61.4562 57.4794C62.3618 57.759 63.2113 57.8047 64.0049 57.6165C64.787 57.419 65.4455 56.9896 65.9804 56.3281ZM72.8626 49.952L61.6407 40.8771L66.8699 34.4109L68.0673 35.3793L63.9864 40.4257L67.784 43.4967L71.2424 39.2201L72.4399 40.1885L68.9815 44.4651L74.0108 48.5322L72.8626 49.952ZM79.6983 41.499L68.4765 32.4241L73.7056 25.9579L74.9031 26.9263L70.8222 31.9727L74.6198 35.0437L78.0782 30.7671L79.2756 31.7355L75.8172 36.0121L80.8465 40.0792L79.6983 41.499Z" fill="#344848"/>
</svg>
