<svg width="122" height="142" viewBox="0 0 122 142" fill="none" xmlns="http://www.w3.org/2000/svg">
<path d="M10 141.128V77.1279L67.8232 8.62793H121.823L10 141.128Z" fill="#FECEA2"/>
<path d="M40.6811 89.2949C40.1001 90.0133 39.4536 90.5562 38.7415 90.9235C38.0295 91.2909 37.3174 91.46 36.6052 91.4311C35.8816 91.3929 35.2289 91.1387 34.6473 90.6683C33.9859 90.1334 33.5871 89.5186 33.4511 88.8238C33.3242 88.1177 33.3314 87.3973 33.4728 86.6628L33.4043 86.6074C32.7438 86.7712 32.0976 86.8239 31.4657 86.7656C30.8338 86.7073 30.2327 86.4476 29.6625 85.9864C29.0467 85.4884 28.6363 84.9113 28.4313 84.2552C28.2149 83.5897 28.1991 82.8979 28.3838 82.1796C28.5685 81.4614 28.933 80.7658 29.4771 80.093C30.2795 79.1008 31.1987 78.5238 32.2349 78.3621C33.2597 78.1911 34.2226 78.4699 35.1235 79.1985C35.6481 79.6227 36.0004 80.1434 36.1804 80.7605C36.349 81.3684 36.4066 81.9619 36.3531 82.5412L36.4215 82.5965C37.1309 82.3025 37.8555 82.1528 38.5954 82.1476C39.3353 82.1423 40.0644 82.4302 40.7829 83.0112C41.3531 83.4723 41.7372 84.047 41.9352 84.7352C42.1331 85.4234 42.128 86.1644 41.92 86.9581C41.7212 87.7405 41.3082 88.5194 40.6811 89.2949ZM34.6998 83.3261C34.5462 82.4664 34.1958 81.8151 33.6484 81.3725C33.2264 81.0312 32.7932 80.8789 32.3486 80.9155C31.9018 80.9315 31.5125 81.1447 31.1805 81.5553C30.913 81.886 30.7851 82.2541 30.7967 82.6596C30.8083 83.0651 31.0251 83.4385 31.447 83.7797C31.8918 84.1394 32.378 84.2496 32.9055 84.1104C33.4331 83.9711 34.0312 83.7097 34.6998 83.3261ZM38.9777 87.8325C39.319 87.4105 39.4919 86.9751 39.4966 86.5262C39.4898 86.068 39.2583 85.6545 38.8022 85.2856C38.4829 85.0274 38.1422 84.9122 37.7801 84.9401C37.4066 84.9587 37.0017 85.0745 36.5654 85.2876C36.1177 85.4913 35.6124 85.7429 35.0497 86.0423C35.0727 86.457 35.1736 86.8687 35.3524 87.2774C35.5198 87.6768 35.7688 88.0103 36.0996 88.2777C36.5785 88.6651 37.0886 88.8041 37.6298 88.6947C38.1595 88.5761 38.6088 88.2887 38.9777 87.8325ZM42.4703 77.9157C41.8247 78.714 40.9762 79.1219 39.9247 79.1392C38.8732 79.1566 37.7887 78.7134 36.6711 77.8096C35.5535 76.9058 34.8988 75.9426 34.7072 74.92C34.5156 73.8974 34.7426 72.9869 35.3882 72.1886C36.043 71.3789 36.8904 70.9608 37.9305 70.9342C38.9705 70.9076 40.0494 71.3462 41.167 72.25C42.2846 73.1538 42.9449 74.1216 43.1479 75.1534C43.351 76.1853 43.1251 77.106 42.4703 77.9157ZM41.0675 76.7814C41.2981 76.4963 41.3321 76.1277 41.1696 75.6756C41.0163 75.2121 40.5404 74.6575 39.7421 74.012C38.9438 73.3664 38.3077 73.0217 37.8338 72.978C37.3691 72.9229 37.0215 73.0379 36.7909 73.323C36.5604 73.6081 36.516 73.9778 36.658 74.4321C36.8091 74.8749 37.2838 75.4192 38.0821 76.0647C38.8804 76.7103 39.5176 77.0653 39.9937 77.1296C40.479 77.1826 40.837 77.0665 41.0675 76.7814ZM47.2565 81.1638L40.562 65.7908L41.7378 64.3368L48.4324 79.7098L47.2565 81.1638ZM53.6061 73.312C52.9606 74.1103 52.112 74.5181 51.0606 74.5355C50.0091 74.5528 48.9246 74.1096 47.8069 73.2058C46.6893 72.302 46.0347 71.3388 45.8431 70.3162C45.6515 69.2936 45.8785 68.3831 46.5241 67.5848C47.1789 66.7751 48.0263 66.357 49.0664 66.3304C50.1064 66.3038 51.1853 66.7424 52.3029 67.6462C53.4205 68.55 54.0808 69.5178 54.2838 70.5497C54.4868 71.5815 54.2609 72.5023 53.6061 73.312ZM52.2034 72.1776C52.434 71.8925 52.468 71.5239 52.3054 71.0718C52.1521 70.6083 51.6763 70.0537 50.878 69.4082C50.0797 68.7626 49.4436 68.418 48.9697 68.3742C48.505 68.3191 48.1574 68.4341 47.9268 68.7192C47.6962 69.0043 47.6519 69.374 47.7938 69.8283C47.945 70.2712 48.4197 70.8154 49.218 71.4609C50.0163 72.1065 50.6535 72.4615 51.1296 72.5258C51.6149 72.5788 51.9728 72.4627 52.2034 72.1776ZM63.5749 60.9848C62.8187 61.9199 61.9059 62.5588 60.8367 62.9013C59.7767 63.2324 58.6417 63.2482 57.4315 62.9486C56.2306 62.6376 55.0314 61.998 53.834 61.0296C52.6365 60.0613 51.7715 59.0317 51.239 57.9408C50.7043 56.8294 50.4993 55.73 50.6242 54.6426C50.7468 53.5346 51.1863 52.513 51.9425 51.5779C52.708 50.6313 53.615 49.9879 54.6636 49.6475C55.7008 49.298 56.8187 49.2683 58.0175 49.5587C59.2048 49.8398 60.3972 50.4646 61.5946 51.4329C62.7921 52.4013 63.6639 53.4458 64.21 54.5665C64.7561 55.6871 64.9782 56.8004 64.8761 57.9062C64.7741 59.012 64.3404 60.0382 63.5749 60.9848ZM62.3261 59.9749C62.8702 59.3021 63.1524 58.5683 63.1726 57.7735C63.1907 56.9582 62.9682 56.137 62.5053 55.3099C62.031 54.4737 61.3263 53.6774 60.3911 52.9212C58.9998 51.796 57.6549 51.2083 56.3564 51.1579C55.0579 51.1076 54.0029 51.5842 53.1913 52.5877C52.3797 53.5913 52.1344 54.7227 52.4553 55.9819C52.7762 57.2412 53.6323 58.4333 55.0237 59.5585C55.9588 60.3147 56.8849 60.8373 57.8019 61.1261C58.7075 61.4058 59.557 61.4515 60.3506 61.2633C61.1327 61.0658 61.7912 60.6364 62.3261 59.9749ZM69.2083 53.5988L57.9865 44.5239L63.2156 38.0577L64.413 39.026L60.3321 44.0724L64.1297 47.1435L67.5881 42.8669L68.7856 43.8352L65.3272 48.1118L70.3565 52.1789L69.2083 53.5988ZM76.044 45.1458L64.8222 36.0709L70.0513 29.6047L71.2488 30.573L67.1679 35.6194L70.9655 38.6905L74.4239 34.4139L75.6214 35.3822L72.1629 39.6589L77.1922 43.7259L76.044 45.1458Z" fill="#344848"/>
</svg>
