<svg width="18" height="20" viewBox="0 0 18 20" fill="none" xmlns="http://www.w3.org/2000/svg">
<path d="M8.99998 11.9684C8.7183 11.9684 8.48203 11.8739 8.29115 11.685C8.10027 11.496 8.00517 11.2624 8.00583 10.9842C8.00583 10.7054 8.10127 10.4714 8.29214 10.2825C8.48302 10.0935 8.71897 9.99935 8.99998 10C9.28166 10 9.51793 10.0945 9.70881 10.2835C9.89969 10.4724 9.99479 10.706 9.99413 10.9842C9.99413 11.2631 9.89869 11.497 9.70782 11.686C9.51694 11.8749 9.28099 11.9691 8.99998 11.9684ZM5.02337 11.9684C4.7417 11.9684 4.50542 11.8739 4.31454 11.685C4.12367 11.496 4.02856 11.2624 4.02922 10.9842C4.02922 10.7054 4.12466 10.4714 4.31554 10.2825C4.50641 10.0935 4.74236 9.99935 5.02337 10C5.30505 10 5.54133 10.0945 5.7322 10.2835C5.92308 10.4724 6.01819 10.706 6.01753 10.9842C6.01753 11.2631 5.92209 11.497 5.73121 11.686C5.54033 11.8749 5.30439 11.9691 5.02337 11.9684ZM12.9766 11.9684C12.6949 11.9684 12.4586 11.8739 12.2678 11.685C12.0769 11.496 11.9818 11.2624 11.9824 10.9842C11.9824 10.7054 12.0779 10.4714 12.2688 10.2825C12.4596 10.0935 12.6956 9.99935 12.9766 10C13.2583 10 13.4945 10.0945 13.6854 10.2835C13.8763 10.4724 13.9714 10.706 13.9707 10.9842C13.9707 11.2631 13.8753 11.497 13.6844 11.686C13.4935 11.8749 13.2576 11.9691 12.9766 11.9684ZM8.99998 15.9053C8.7183 15.9053 8.48203 15.8108 8.29115 15.6218C8.10027 15.4328 8.00517 15.1993 8.00583 14.9211C8.00583 14.6422 8.10127 14.4083 8.29214 14.2193C8.48302 14.0303 8.71897 13.9362 8.99998 13.9368C9.28166 13.9368 9.51793 14.0313 9.70881 14.2203C9.89969 14.4093 9.99479 14.6428 9.99413 14.9211C9.99413 15.1999 9.89869 15.4338 9.70782 15.6228C9.51694 15.8118 9.28099 15.9059 8.99998 15.9053ZM5.02337 15.9053C4.7417 15.9053 4.50542 15.8108 4.31454 15.6218C4.12367 15.4328 4.02856 15.1993 4.02922 14.9211C4.02922 14.6422 4.12466 14.4083 4.31554 14.2193C4.50641 14.0303 4.74236 13.9362 5.02337 13.9368C5.30505 13.9368 5.54133 14.0313 5.7322 14.2203C5.92308 14.4093 6.01819 14.6428 6.01753 14.9211C6.01753 15.1999 5.92209 15.4338 5.73121 15.6228C5.54033 15.8118 5.30439 15.9059 5.02337 15.9053ZM12.9766 15.9053C12.6949 15.9053 12.4586 15.8108 12.2678 15.6218C12.0769 15.4328 11.9818 15.1993 11.9824 14.9211C11.9824 14.6422 12.0779 14.4083 12.2688 14.2193C12.4596 14.0303 12.6956 13.9362 12.9766 13.9368C13.2583 13.9368 13.4945 14.0313 13.6854 14.2203C13.8763 14.4093 13.9714 14.6428 13.9707 14.9211C13.9707 15.1999 13.8753 15.4338 13.6844 15.6228C13.4935 15.8118 13.2576 15.9059 12.9766 15.9053ZM2.04092 19.8421C1.49413 19.8421 1.02589 19.6492 0.636181 19.2634C0.246473 18.8776 0.0519512 18.4143 0.052614 17.8737V4.09474C0.052614 3.55342 0.247468 3.08986 0.637175 2.70405C1.02688 2.31824 1.4948 2.12566 2.04092 2.12632H3.03507V0.157898H5.02337V2.12632H12.9766V0.157898H14.9649V2.12632H15.959C16.5058 2.12632 16.9741 2.31922 17.3638 2.70503C17.7535 3.09084 17.948 3.55408 17.9473 4.09474V17.8737C17.9473 18.415 17.7525 18.8786 17.3628 19.2644C16.9731 19.6502 16.5052 19.8428 15.959 19.8421H2.04092ZM2.04092 17.8737H15.959V8.03158H2.04092V17.8737Z" fill="#9D7575"/>
</svg>
