<svg width="18" height="22" viewBox="0 0 18 22" fill="none" xmlns="http://www.w3.org/2000/svg">
<path d="M2.50004 0.166656C1.92541 0.166656 1.3743 0.39493 0.967976 0.801258C0.561647 1.20759 0.333374 1.75869 0.333374 2.33332V19.6667C0.333374 20.2413 0.561647 20.7924 0.967976 21.1987C1.3743 21.605 1.92541 21.8333 2.50004 21.8333H15.5C16.0747 21.8333 16.6258 21.605 17.0321 21.1987C17.4384 20.7924 17.6667 20.2413 17.6667 19.6667V6.66666L11.1667 0.166656H2.50004ZM2.50004 2.33332H10.0834V7.74999H15.5V19.6667H2.50004V2.33332ZM4.66671 11V13.1667H13.3334V11H4.66671ZM4.66671 15.3333V17.5H10.0834V15.3333H4.66671Z" fill="#9D7575"/>
</svg>
