<?xml version="1.0" encoding="UTF-8"?>
<svg width="32px" height="30px" viewBox="0 0 32 30" version="1.1" xmlns="http://www.w3.org/2000/svg" xmlns:xlink="http://www.w3.org/1999/xlink">
    <!-- Generator: Sketch 63.1 (92452) - https://sketch.com -->
    <title>logo id</title>
    <desc>Created with Sketch.</desc>
    <g id="Page-1" stroke="none" stroke-width="1" fill="none" fill-rule="evenodd">
        <g id="Desktop-HD" transform="translate(-22.000000, -15.000000)" fill="#D38E69">
            <g id="logo-id" transform="translate(22.000000, 15.000000)">
                <path d="M18.54965,1.50588235 C18.2084,6.74117647 18.6488167,12.0176471 18.3192333,17.2588235 C19.4975667,17.2558824 20.6817333,17.2823529 21.8600667,17.1617647 C23.8754833,16.8941176 25.9200667,15.8911765 26.9700667,14.0676471 C28.13965,12.1588235 28.2038167,9.82647059 27.98215,7.65882353 C27.6788167,5.49705882 26.5325667,3.31470588 24.5288167,2.31176471 C22.6942333,1.32941176 20.5534,1.51764706 18.54965,1.50588235 M13.4192333,0.276470588 C16.2338167,0.285294118 19.0484,0.244117647 21.8600667,0.297058824 C24.9225667,0.435294118 28.3263167,1.39705882 30.1025667,4.11764706 C32.0392333,7.25588235 31.67465,11.6058824 29.4929833,14.5294118 C28.4400667,15.9352941 26.9350667,16.9529412 25.3163167,17.5852941 C21.5940667,19.0441176 17.5288167,18.2794118 13.6438167,18.5882353 C13.6438167,18.3058824 13.64615,18.0264706 13.6525667,17.7441176 C14.4984,17.5058824 15.5539417,17.0470588 15.5017333,15.9823529 C15.5454833,11.8588235 15.4988167,7.73235294 15.52215,3.60588235 C15.4959,2.99705882 15.5863167,2.33235294 15.2800667,1.77941176 C14.8128167,1.25588235 14.0609,1.23235294 13.4367333,1.04117647 C13.4309,0.85 13.4250667,0.467647059 13.4192333,0.276470588" id="Fill-1"></path>
                <path d="M27.3854,22.0113824 C25.9889,23.4628529 24.3721917,24.6799118 22.5670667,25.5666765 C20.025775,26.8375588 17.173275,27.5090294 14.3169833,27.5090294 C10.0478583,27.5090294 5.98669167,26.0163824 2.8784,23.3049118 C2.413775,22.9043235 1.9754,22.4722647 1.55685833,22.0193235 L0.182233333,23.1478529 C-0.0403083333,23.3305 -0.0636416667,23.6699118 0.1379,23.8763824 C0.496066667,24.2434412 0.867941667,24.5960882 1.255275,24.9302059 C4.813025,28.0299118 9.447025,29.7363824 14.3082333,29.7363824 C17.542525,29.7363824 20.7733167,28.9757941 23.6546917,27.5366765 C25.540025,26.6090294 27.2661083,25.3675588 28.7886083,23.8696176 C28.99715,23.6643235 28.9773167,23.3178529 28.7509833,23.1322647 L27.3854,22.0113824 Z" id="Fill-4"></path>
                <path d="M1.0516625,0.133823529 C2.9801625,0.172352941 4.90487083,0.095 6.82987083,0 C6.3244125,1.05382353 5.92687083,2.19264706 5.94787083,3.37823529 C5.94582917,7.31823529 5.94582917,11.2561765 5.94787083,15.1958824 C5.9324125,15.8447059 6.03245417,16.5305882 5.71745417,17.1291176 C5.78074583,17.1911765 5.90937083,17.3188235 5.97499583,17.3829412 C6.7470375,17.3829412 7.51324583,17.4894118 8.27974583,17.5785294 C8.25670417,17.8497059 8.2336625,18.1208824 8.21062083,18.3920588 C5.8422875,18.4191176 3.47949583,18.5855882 1.10912083,18.5547059 C1.11320417,18.2544118 1.11699583,17.9541176 1.11845417,17.6541176 C1.99112083,17.5223529 2.94137083,16.9935294 3.01107917,16.0055882 C3.06299583,11.7305882 3.01282917,7.45382353 3.03587083,3.17676471 C3.0589125,2.63058824 2.95712083,2.09205882 2.85707917,1.55941176 C2.34812083,1.15470588 1.71812083,0.982058824 1.08812083,0.881470588 C1.07470417,0.633529412 1.0630375,0.383823529 1.0516625,0.133823529" id="Fill-6"></path>
            </g>
        </g>
    </g>
</svg>