<svg xmlns="http://www.w3.org/2000/svg" width="235" height="28" viewBox="0 0 235 28"><g fill="#344848" fill-rule="evenodd"><path d="M172.944427.681473327C176.087023 1.0162896 179.259605.775403685 182.415695.849133966 185.561789.78196871 188.720878 1.00972458 191.856977.681473327 191.608088 2.48685521 191.210266 4.26547198 190.921894 6.06428883 190.55106 6.06125882 190.182725 6.06125882 189.817888 6.06125882 189.784902 4.88510934 189.827883 3.38121361 188.710882 2.67118091 187.103101 1.95458318 185.289911 2.36312973 183.592669 2.2489993 183.559184 2.42322496 183.496212 2.76814128 183.463227 2.93933693 183.283807 8.72413397 183.609162 14.5291311 183.290804 20.3108981 184.308349 20.4048285 185.329393 20.5017888 186.350437 20.6123843 186.307456 20.9073054 186.267474 21.2052565 186.234489 21.5001776 183.47972 21.5668379 180.728449 21.6405682 177.980177 21.7077334L177.980177 20.7664098C178.931252 20.4512886 180.118222 19.9356817 180.085236 18.7297371 180.141211 13.2393562 180.091733 7.74594524 180.108226 2.25606933 178.732841 2.29949949 177.333466 2.12173881 175.977572 2.39999487 174.293824 2.80500642 173.690094 4.62705336 173.080366 6.04762377 172.804989 6.05115878 172.248238 6.06125882 171.973361 6.06428883 172.344195 4.27910703 172.576591 2.46665513 172.944427.681473327M202.641158 4.85859674C201.573635 7.66590243 200.512609 10.4727031 199.462079 13.2865738 201.524157 13.3032389 203.589235 13.3098039 205.654312 13.2764738 204.610278 10.4863382 203.566245 7.69216253 202.641158 4.85859674M202.70413.9630119C203.217901.852416479 203.735169.748386082 204.261934.661020749 206.566404 6.7109438 208.873374 12.7603618 211.200334 18.8001849 211.508696 19.7647385 212.221378 20.5353715 213.212935 20.7767624 213.196442 20.9807832 213.159958 21.3893297 213.143466 21.5938555 210.96194 21.6105206 208.780415 21.6504157 206.59939 21.7074809 206.602388 21.456495 206.605887 20.9540181 206.605887 20.7030321 207.013705 20.5621366 207.438015 20.4414411 207.812847 20.2136852 208.057738 19.8253388 207.815846 19.372857 207.716391 18.9845106 207.215614 17.5806052 206.668859 16.1938699 206.178078 14.7904696 203.901095 14.8106697 201.623113 14.7536044 199.352628 14.8106697 198.901829 14.7601695 198.752396 15.2828465 198.603462 15.5979677 198.013226 17.1619586 197.429987 18.7299896 196.829755 20.2874155 197.694868 20.4283111 198.566979 20.5520365 199.435091 20.679297 199.399107 20.9105879 199.322641 21.3726647 199.282659 21.6004205 197.343525 21.6039555 195.400893 21.6039555 193.46176 21.6004205 193.464758 21.3155994 193.471755 21.0343134 193.484749 20.7494923 194.283892 20.4747712 195.205481 20.14349 195.493852 19.2420615 197.903775 13.1522433 200.320195 7.06242514 202.70413.9630119M218.948072.862213516C221.166081.835448414 223.387089.878878579 225.601599.711722943 225.047847 1.7232418 224.663518 2.83172102 224.620538 3.99423545 224.447615 9.39068601 224.762974 14.8038016 224.451113 20.1936872 226.463714 20.1366219 228.492308 20.3108476 230.497912 20.0896568 232.437045 19.6412151 233.090253 17.4636468 233.875902 15.8723857 234.157776 15.8592556 234.718026 15.8324905 234.9999 15.8223905 234.625068 17.7585679 234.147781 19.6710102 233.743461 21.6006225 228.896627 21.6273876 224.046794 21.5369923 219.19996 21.7076829 219.203458 21.466292 219.209955 20.9840152 219.213454 20.7431293 220.171525 20.4951733 221.328509 19.9391662 221.252043 18.7498867 221.295024 14.0468037 221.245546 9.34069081 221.272034 4.6376079 221.252043 3.98413541 221.315015 3.30743283 221.116103 2.67769543 220.685296 1.63284645 218.759157 2.29944899 218.948072.862213516M104.076548 2.25243331C103.688721 8.21499103 104.188997 14.2245139 103.814665 20.1936367 105.154066 20.1906066 106.499965 20.2204018 107.838867 20.0830412 110.129843 19.7785251 112.453805 18.6357057 113.646772 16.5591378 114.976677 14.3851045 115.049645 11.7287944 114.797258 9.25984001 114.452412 6.79795563 113.149994 4.31233616 110.872511 3.17002181 108.786943 2.05144255 106.35403 2.26556336 104.076548 2.25243331M98.2451532.852567979C101.444224.862163016 104.643294.815197837 107.838867.875798068 111.319811 1.03285367 115.188583 2.12820284 117.207181 5.22689464 119.408697 8.80129826 118.994382 13.7553671 116.51449 17.0853498 115.318025 18.6862059 113.607289 19.8451853 111.767611 20.5653181 107.537501 22.2267744 102.916066 21.3561511 98.5005391 21.7076324 98.5005391 21.3859462 98.5040376 21.067795 98.5105347 20.7466138 99.472105 20.4749227 100.672069 19.9522457 100.612096 18.7397361 100.661574 14.0437232 100.609097 9.34367033 100.635585 4.64412242 100.605599 3.95075478 100.708553 3.1937569 100.360208 2.5640195 99.8299451 1.96761223 98.9748272 1.94084712 98.2651443 1.7231913 98.2586472 1.50553547 98.2516503 1.07022381 98.2451532.852567979M145.422324.869132042C146.904162.852466979 148.386.795401761 149.867838.718136467 150.858895 2.23920226 152.14532 3.52190715 153.322294 4.89197737 156.627318 8.66383674 160.031796 12.3518658 163.250858 16.2040205 163.264352 12.4558962 163.244361 8.71080192 163.260854 4.96570765 163.270849 4.1652796 163.184888 3.37141657 163.071938 2.58058356 162.382246 2.08820669 161.563612 1.87711588 160.741479 1.7766205L160.741479.848931965C162.840042.882262092 164.941603.768636659 167.033168.922662246 166.38046 1.65643004 165.3959 2.12860684 165.047555 3.09972554 164.799166 3.69966783 164.759184 4.35617033 164.759184 4.99600776 164.76918 10.5863791 164.759184 16.1807904 164.766181 21.7711617 164.523789 21.7746967 164.040006 21.7812617 163.801112 21.7847967 159.938838 17.4331951 156.163525 13.0053383 152.321242 8.63707163 151.36317 7.52859241 150.371613 6.44637329 149.536486 5.23689368 149.450524 10.2919629 149.711907 15.3601622 149.394049 20.4046265 150.305642 20.4682567 151.213736 20.535422 152.125829 20.6121823 152.082348 20.9071034 152.042866 21.2020245 152.005882 21.4999756 149.957298 21.5701709 147.908713 21.6338011 145.863127 21.7110664 145.860128 21.3893802 145.860128 21.068199 145.863127 20.7495428 146.808205 20.4581567 148.114121 19.9960799 148.018164 18.7532702 148.001672 13.8093013 148.084635 8.86129249 147.975183 3.92388868 147.942198 2.58714859 146.645777 2.05487656 145.601244 1.65946005 145.558263 1.4620043 145.468803 1.06658779 145.422324.869132042M138.563339 16.4151618C137.840662 17.7650319 137.313897 19.6673742 135.652639 20.0728907 133.600556 20.3208466 131.525483 20.1299559 129.466903 20.2001512 129.722289 17.4201156 129.526377 14.626445 129.609339 11.8393393 131.24261 11.6171385 132.895871 11.740359 134.542635 11.7241989L134.542635 10.3253436C132.890873 10.3516037 131.24161 10.3329186 129.592847 10.3384736 129.662316 7.71246361 129.45041 5.04958847 129.695301 2.44680855 131.482502 2.07512714 133.494603 2.19178258 135.334781 2.44024353 136.978547 2.74475969 137.03852 4.70467215 136.975548 6.04747227 137.349881 6.05403729 137.728212 6.05757231 138.109042 6.06413733 138.360929 4.27542052 138.759251 2.51397381 139.027631.731822019 133.965393.986342989 128.890161.785352223 123.824424.848982466 123.820926 1.13380355 123.824424 1.42165465 123.827923 1.70647573 124.454643 1.88423641 125.137338 1.94786665 125.704084 2.29581298 126.373785 2.74122467 126.254338 3.63558308 126.287824 4.32895072 126.254338 9.19666427 126.330804 14.0669028 126.25134 18.9341114 126.194865 20.0461256 125.050876 20.4647722 124.165772 20.7430283 124.155776 21.0611795 124.149279 21.3828657 124.142782 21.7045519 128.933142 21.5469913 133.723001 21.6207216 138.513361 21.6035515 138.921179 19.8921 139.249532 18.1634784 139.673843 16.4555619 139.29951 16.4419269 138.931174 16.4282918 138.563339 16.4151618M82.972927 21.5100757C81.8534272 22.6761251 80.5575062 23.6533038 79.1111525 24.3658616 77.0735629 25.3864704 74.7870845 25.9258125 72.4976075 25.9258125 69.0751366 25.9258125 65.820091 24.7269379 63.3282044 22.5493696 62.9558708 22.2271784 62.6045278 21.8802421 62.2691776 21.5166407L61.1676698 22.4231192C60.9887497 22.5695697 60.970258 22.8422707 61.1316858 23.0084164 61.4185577 23.3028325 61.7169244 23.5861386 62.0272857 23.8547996 64.8795113 26.3444591 68.5938517 27.7150343 72.4906106 27.7150343 75.0829523 27.7150343 77.6727951 27.103982 79.9822632 25.9480326 81.4940877 25.2026497 82.8774696 24.2057759 84.0974246 23.0028614 84.2648497 22.8377257 84.2488569 22.5594697 84.067438 22.4104941L82.972927 21.5100757Z"/><path d="M70.0734406 1.88403441C69.0523968 2.41984145 68.0743338 3.10108904 67.4131292 4.06917773 65.5469631 6.5810573 65.1891229 9.94386511 65.7918536 12.9541816 66.3875875 15.7832024 67.9848738 18.6061631 70.6801695 19.8434178 72.2424714 20.4474001 73.9976872 20.4539652 75.5554912 19.8277628 77.4146605 18.9480494 78.702585 17.2234678 79.4577476 15.3382957 79.6146775 14.8373338 79.76561 14.3348568 79.9225399 13.8359149 79.9685194 13.5233187 80.0164979 13.2122376 80.0709736 12.9011564 80.5292688 10.4579571 80.10146 7.87790224 79.04943 5.64175372 78.0083952 3.46267042 75.987798 1.76737896 73.5868708 1.40781759 72.9871387 1.39468754 72.3869069 1.39216253 71.7886742 1.40529258 71.2149306 1.55527816 70.6406871 1.70728374 70.0734406 1.88403441M69.416734.560929368C71.3108877-.0193178423 73.3209896-.122843237 75.276116.128647721 75.889342.243283158 76.4960709.388723712 77.1008007.541234293 79.8985506 1.39468754 82.3274654 3.52680567 83.3270188 6.32956634 84.0736852 8.19958847 84.1086695 10.2660563 83.8357915 12.2375839 83.5674114 13.3819182 83.2090715 14.5090825 82.6788084 15.5584765 81.1859754 18.4516325 78.4322058 20.665561 75.2631218 21.3584236 73.3429797 21.8412054 71.3193839 21.7684852 69.3967429 21.3341835 68.8030082 21.1397578 68.2117724 20.934727 67.6290328 20.7074761 65.3660439 19.635862 63.5458572 17.7022097 62.5747911 15.3776858 61.7451617 13.3400031 61.6951841 11.0952695 61.95057 8.93386127 62.1904628 8.03899786 62.4438496 7.14362945 62.8191819 6.29421621 63.8577178 4.06715773 65.6564142 2.23248574 67.8474352 1.15632664 68.3667032.951295855 68.8819729.728590007 69.416734.560929368M0 .419831831C2.19102103.463766998 4.37754408.375896663 6.5645669.267826252 5.99032347 1.46720582 5.53902512 2.76405076 5.56251462 4.1134159 5.56051551 8.59884299 5.56051551 13.0822501 5.56251462 17.5676772 5.54552221 18.30599 5.65897152 19.0867229 5.30063163 19.7679705 5.37259948 19.8391758 5.51903405 19.9846164 5.59350078 20.0573366 6.47060888 20.0573366 7.34121988 20.1785371 8.21233066 20.2800425 8.1858425 20.5885987 8.15985411 20.8971548 8.13336594 21.206216 5.44306799 21.2370211 2.75876736 21.4269019.0654707471 21.3910467.0699687374 21.0496654.0739669509 20.7077791.0764658344 20.3658928 1.06702324 20.2159072 2.14754046 19.613945 2.2260054 18.4893057 2.28497905 13.6226021 2.22800451 8.75337358 2.25449267 3.88414503 2.28048106 3.26198266 2.16503264 2.64941532 2.05108356 2.04290801 1.47284192 1.58184126.757161694 1.38590051.0414814657 1.27126507.0259883882.988463997.0129941941.704147914 0 .419831831M13.902988.424275848C15.3758299.496996125 16.8401757.227830099 18.3115183.274290276 18.7218349.8055523 19.075177 1.37923449 19.5204781 1.8817114 22.757032 5.52681529 26.00658 9.15878912 29.2386359 12.808438 30.1442313 13.7947068 31.0478276 14.7956206 31.8114864 15.9005648 31.8464707 11.4282678 31.8619638 6.95597073 31.8029902 2.48367369 31.4626422 1.88423641 30.8404202 1.61052537 30.218698 1.41205961 30.0092916 1.39892956 29.5899789 1.37216446 29.3825716 1.35903441 29.3760745 1.04593322 29.3715765.732832023 29.3670785.41973083 31.2487378.424275848 33.1273984.411145798 35.0065588.42225584 35.2749389.41973083 35.4823462.5429513 35.6307799.787877233 34.7646669 1.18480874 34.0050063 1.82666619 33.6141809 2.7220346 33.5532081 2.96443552 33.4897365 3.20481644 33.4222666 3.44772237 33.3652921 9.44361021 33.4137704 15.4440431 33.3982774 21.4399309L32.3377512 21.4399309C28.7298633 17.269625 25.0764956 13.1392143 21.4606112 8.97799843 20.3366134 7.64176334 19.0666808 6.42016369 18.1086089 4.95161809 18.0516344 5.17634395 17.9951596 5.40106981 17.9356862 5.62630066 17.9076987 8.43360636 18.090617 11.234347 18.007654 14.0411477 17.8052445 16.0545904 18.1171051 18.0791431 17.8422279 20.0880408 18.7868059 20.1279359 19.7323834 20.2072212 20.6749623 20.3062016 20.5785053 20.6061727 20.5065375 20.9127089 20.4390677 21.2217701 19.4789966 21.2480302 18.5119287 21.192985 17.5603539 21.3429705 16.4408541 21.3737757 15.3193552 21.3757957 14.1998554 21.3848857 14.2018545 21.0470394 14.2043534 20.7122231 14.2063525 20.3769019 15.0419791 20.2006562 16.087512 19.9052301 16.3623891 18.9810765 16.4648434 17.4837458 16.3753833 15.9753051 16.4058697 14.4759544 16.3623891 10.6364248 16.4933306 6.7903301 16.3339019 2.95585049 15.9280832 1.94584664 14.9330278 1.46508481 13.9334744 1.25550901 13.9224793.979777964 13.9114842.702026906 13.902988.424275848M54.27385.419831831C55.070494.430436871 55.856143.280956302 56.6502882.247626175 56.5918143 1.10562444 56.3624168 1.93685761 56.2444695 2.78829085 56.0570532 3.72102941 55.9236129 4.664878 55.7212033 5.59559655 55.3498692 5.59307154 54.9790349 5.59105153 54.6077008 5.58852652 54.6841666 4.28764157 54.5967057 2.65598035 53.2503073 2.02270794 51.3366623 1.62375642 49.3635439 1.83787723 47.4254099 1.8287872 47.1680249 2.93827642 47.3054635 4.08261078 47.2749771 5.20927008 47.2969673 6.85254634 47.2120053 8.49986261 47.3404479 10.1406139 49.097163 10.1315238 50.8563769 10.1360688 52.6155909 10.1380889 52.6610706 10.0148684 52.7485315 9.76741744 52.7920121 9.64217696 52.8204994 9.22100536 52.8529848 8.79730874 52.8859701 8.37613714 53.2982859 8.25897669 53.7220965 8.18423641 54.1474065 8.12262617 54.1494056 10.0365835 54.1623998 11.9505408 54.1409094 13.8650031 53.6386338 13.8670231 53.1388571 13.8670231 52.6415793 13.8695481 52.6195891 13.0867951 52.6260862 12.3035371 52.6195891 11.5207841 51.0462921 11.5207841 49.472995 11.5096741 47.8991982 11.5207841 47.4713894 11.4389738 47.257485 11.8848905 47.2839731 12.2484919 47.2160035 14.8396568 47.3799302 17.4373867 47.1725229 20.0240065 48.2920227 20.0729917 49.4095234 20.158337 50.5225261 20.2840825 50.5030348 20.5158784 50.4655516 20.9769451 50.4480594 21.206216 49.3155654 21.2703513 48.1740754 21.1617758 47.0500776 21.3405465 46.9541205 21.3228715 46.7667042 21.2855013 46.6707471 21.2678263 45.0489717 21.457707 43.4077051 21.3294365 41.7774335 21.3890267 41.7774335 21.0516854 41.7774335 20.7123241 41.7794326 20.3724578 42.4146488 20.1982322 43.1308288 20.0416816 43.5431446 19.4730494 43.9989409 18.9458274 43.9294719 18.2095346 43.9339699 17.5606071 43.9074818 12.6585535 43.9664554 7.75397477 43.9034835 2.85444611 43.8704983 1.62375642 42.4256439 1.43842071 41.4960592 1.26874006 41.4850641.986443989 41.4765679.704147914 41.4675719.421851838 45.7361647.415286813 50.0052572.419831831 54.27385.419831831"/></g></svg>