<svg width="30" height="28" viewBox="0 0 30 28" xmlns="http://www.w3.org/2000/svg"><path d="M17.4664657 1.41795008C17.1451422 6.34754217 17.5598419 11.3159064 17.2495037 16.2510372 18.3590312 16.2482679 19.4740513 16.2731927 20.5835789 16.159646 22.4813102 15.9076274 24.4065052 14.9632506 25.3951931 13.2462017 26.4964815 11.4488391 26.5569013 9.25267818 26.3481783 7.2116055 26.0625574 5.17607169 24.9832398 3.12115184 23.0964938 2.17677494 21.3690364 1.25178405 19.3532117 1.42902782 17.4664657 1.41795008M12.635627.260326773C15.2858598.268635075 17.9360925.229863002 20.5835789.27971281 23.4672518.409876196 26.6722482 1.31548103 28.3447785 3.87720726 30.1683582 6.83219307 29.8250639 10.9281856 27.7707902 13.6810028 26.7793561 15.0047921 25.3622368 15.9630162 23.8380097 16.5584444 20.3331113 17.9320835 16.5052415 17.2120308 12.8470964 17.5028213 12.8470964 17.2369557 12.8492935 16.9738595 12.8553355 16.7079938 13.6517785 16.4836698 14.6456844 16.051638 14.5965246 15.049103 14.6377199 11.1663569 14.5937783 7.28084134 14.6157491 3.39532578 14.5910319 2.82205299 14.676169 2.19616097 14.3878017 1.67550742 13.9478356 1.18254821 13.2398252 1.16039274 12.6521052.980379549 12.6466125.800366355 12.6411198.440339967 12.635627.260326773M25.786274 20.7260822C24.4713192 22.0927977 22.9490145 23.2387895 21.2492954 24.0737737 18.8563961 25.270446 16.1704608 25.9027078 13.4809551 25.9027078 9.46111512 25.9027078 5.63709026 24.4972202 2.71029958 21.9440792 2.27280521 21.5668823 1.86002803 21.1600525 1.46592606 20.7335596L.171568887 21.7961914C-.0379780102 21.9681732-.0599488514 22.2877659.129824289 22.4821802.4670767 22.8278055.817236981 23.1598605 1.18195294 23.4744683 4.53195694 26.3931745 8.89536599 28 13.4727161 28 16.5181493 28 19.5602869 27.2838244 22.2734112 25.9287405 24.0486551 25.055261 25.6739481 23.886283 27.1075454 22.4758104 27.3039099 22.2825039 27.2852347 21.9562646 27.0721175 21.7815134L25.786274 20.7260822ZM.990229891.126009235C2.80611991.162288818 4.61843966.0894527103 6.43103406 0 5.95509071.992288115 5.58076251 2.06461287 5.60053626 3.18097161 5.59861382 6.89090507 5.59861382 10.5989 5.60053626 14.3085565 5.58598058 14.9194935 5.68018057 15.5653254 5.38357421 16.1289052 5.44317011 16.1873403 5.56428437 16.3075337 5.62607737 16.3679074 6.35303757 16.3679074 7.07450507 16.4681609 7.7962472 16.5520747 7.774551 16.8074165 7.75285479 17.0627584 7.73115858 17.3181001 5.50111821 17.3435788 3.27629591 17.5003288 1.04433308 17.4712498 1.04817799 17.1884906 1.05174824 16.9057314 1.05312143 16.6232491 1.87483088 16.4991785 2.76959338 16.0012343 2.83523128 15.0709815 2.88411639 11.0456096 2.83687909 7.01857597 2.85857529 2.9912654 2.8802715 2.47698156 2.7844237 1.96989823 2.69022373 1.46835377 2.21098475 1.08727969 1.61777204.924713931 1.02455933.829999296 1.0119261.596536031 1.00094068.361411105.990229891.126009235" fill="#344848"/></svg>