<?xml version="1.0" encoding="UTF-8"?>
<svg width="28px" height="28px" viewBox="0 0 28 28" version="1.1" xmlns="http://www.w3.org/2000/svg" xmlns:xlink="http://www.w3.org/1999/xlink">
    <!-- Generator: Sketch 63.1 (92452) - https://sketch.com -->
    <title>nav-unidades</title>
    <desc>Created with Sketch.</desc>
    <g id="Page-1" stroke="none" stroke-width="1" fill="none" fill-rule="evenodd">
        <g id="nav-unidades" transform="translate(0.000000, 0.000000)" fill="#FFFFFF" fill-rule="nonzero">
            <path d="M25.5631372,14.9969101 C25.3513602,14.9969101 25.1594447,15.0834863 25.0205885,15.2239897 C24.8830672,15.3631424 24.7976987,15.5552914 24.7976987,15.7676966 L24.7976987,25.4044944 C24.7976987,25.6954934 24.6808597,25.9594455 24.4919528,26.1505933 C24.3043748,26.3403964 24.0455299,26.458427 23.7598102,26.458427 L14.6069504,26.458427 L14.6069504,19.5882022 C14.6069504,19.3757971 14.5215819,19.183648 14.3840606,19.0444954 C14.2452044,18.903992 14.0532889,18.8174157 13.8415119,18.8174157 C13.6297349,18.8174157 13.4378194,18.903992 13.2989632,19.0444954 C13.161442,19.183648 13.0760734,19.3757971 13.0760734,19.5882022 L13.0760734,26.458427 L10.042279,26.458427 L10.042279,19.075 C10.042279,18.7840171 10.159126,18.5200622 10.3480387,18.3289085 C10.5356151,18.139107 10.7944536,18.0210674 11.0801675,18.0210674 L16.6028563,18.0210674 C16.8885702,18.0210674 17.1474087,18.139107 17.3349851,18.3289085 C17.5238978,18.5200622 17.6407448,18.7840171 17.6407448,19.075 L17.6407448,24.9483146 C17.6407448,25.1607198 17.7261133,25.3528689 17.8636346,25.4920215 C18.0024908,25.6325249 18.1944063,25.7191011 18.4061833,25.7191011 C18.6179603,25.7191011 18.8098758,25.6325249 18.948732,25.4920215 C19.0862532,25.3528689 19.1716218,25.1607198 19.1716218,24.9483146 L19.1716218,19.075 C19.1716218,18.359846 18.8839724,17.7114436 18.4198077,17.2417727 C17.9543067,16.7707496 17.311484,16.4794944 16.6028563,16.4794944 L11.0801675,16.4794944 C10.3715399,16.4794944 9.7287171,16.7707496 9.2632161,17.2417727 C8.79905142,17.7114436 8.51140204,18.359846 8.51140204,19.075 L8.51140204,26.458427 L3.9232136,26.458427 C3.63747812,26.458427 3.37863591,26.3404046 3.19106371,26.1506073 C3.00215521,25.9594579 2.88532512,25.6954993 2.88532512,25.4044944 L2.88532512,15.7676966 C2.88532512,15.5552914 2.79995658,15.3631424 2.66243531,15.2239897 C2.52357911,15.0834863 2.33166364,14.9969101 2.11988664,14.9969101 C1.90810963,14.9969101 1.71619417,15.0834863 1.57733796,15.2239897 C1.43981669,15.3631424 1.35444815,15.5552914 1.35444815,15.7676966 L1.35444815,25.4044944 C1.35444815,26.1196483 1.64209753,26.7680508 2.10626221,27.2377217 C2.57176322,27.7087448 3.21458596,28 3.9232136,28 L23.7598102,28 C24.4684378,28 25.1112606,27.7087448 25.5767616,27.2377217 C26.0409263,26.7680508 26.3285757,26.1196483 26.3285757,25.4044944 L26.3285757,15.7676966 C26.3285757,15.5552542 26.243206,15.3631198 26.1056997,15.2239824 C25.9668441,15.0834796 25.7749249,14.9969101 25.5631372,14.9969101 Z M3.69774138,0 C3.54472854,0 3.39894374,0.0458881685 3.27623545,0.127406691 C3.15438647,0.208354355 3.05529054,0.324476163 2.99488303,0.465587426 L0.0590721924,7.32016683 C0.0152500636,7.41427111 0.00189657598,7.40852233 0.00189657598,10.4436225 C0.00366691785,11.567629 0.456446762,12.5863312 1.18581689,13.3242081 C1.91667187,14.0635873 2.92499201,14.5209711 4.03586518,14.5209711 C4.78677159,14.5209711 5.49071767,14.3119079 6.09388527,13.9481752 C6.56768789,13.6624544 6.97923893,13.281157 7.30225596,12.8306978 C7.63549106,13.3009297 8.04579409,13.6727182 8.50044957,13.9464738 C9.13323976,14.3274873 9.8525757,14.5184674 10.5720869,14.5186619 C11.2914311,14.5188564 12.0107265,14.3283553 12.6436689,13.9476564 C13.0979562,13.6744141 13.5080863,13.3032584 13.8414405,12.8335713 C14.1746711,13.3029679 14.584697,13.6740486 15.0389094,13.947294 C15.6716683,14.3279496 16.3908107,14.5186046 17.1100679,14.5186046 C17.8292752,14.5186046 18.5483739,14.3279765 19.1811149,13.9473125 C19.6357113,13.6738223 20.0460583,13.302307 20.3794643,12.8321868 C20.7024554,13.2822104 21.1140612,13.6632561 21.5880875,13.9487716 C22.1913261,14.3121142 22.8955503,14.5209711 23.6470459,14.5209711 C24.7596484,14.5209711 25.7687711,14.0634519 26.4995789,13.3239748 C27.2290504,12.5858499 27.6810145,11.5668021 27.6810145,10.4428812 C27.6810145,10.230476 27.595646,10.0383269 27.4581247,9.8991743 C27.3192685,9.75867089 27.127353,9.67209466 26.915576,9.67209466 C26.703799,9.67209466 26.5118836,9.75867089 26.3730274,9.8991743 C26.2355061,10.0383269 26.1501376,10.230476 26.1501376,10.4428812 C26.1501376,11.1426258 25.8689782,11.777229 25.4147563,12.236839 C24.9618708,12.695097 24.3367293,12.979398 23.6470459,12.979398 C22.9573626,12.979398 22.332221,12.695097 21.8793355,12.236839 C21.4251137,11.777229 21.1439543,11.1426258 21.1439543,10.4428812 C21.1439543,10.230476 21.0585857,10.0383269 20.9210645,9.8991743 C20.7822083,9.75867089 20.5902928,9.67209466 20.3785158,9.67209466 C20.1667388,9.67209466 19.9748233,9.75867089 19.8359671,9.8991743 C19.6984458,10.0383269 19.6130773,10.230476 19.6130773,10.4428812 C19.6130773,11.1426258 19.3319179,11.777229 18.8776961,12.236839 C18.4248106,12.695097 17.799669,12.979398 17.1099857,12.979398 C16.4203023,12.979398 15.7951608,12.695097 15.3422753,12.236839 C14.8880534,11.777229 14.606894,11.1426258 14.606894,10.4428812 C14.606894,10.230476 14.5215255,10.0383269 14.3840042,9.8991743 C14.245148,9.75867089 14.0532326,9.67209466 13.8414555,9.67209466 C13.6296785,9.67209466 13.4377631,9.75867089 13.2989069,9.8991743 C13.1613856,10.0383269 13.0760171,10.230476 13.0760171,10.4428812 C13.0760171,11.1426258 12.7948577,11.777229 12.3406358,12.236839 C11.8877503,12.695097 11.2626088,12.979398 10.5729254,12.979398 C9.88912813,12.979398 9.2559113,12.6970758 8.79759138,12.229609 C8.34998773,11.7730723 8.06983379,11.1399195 8.06983379,10.4200722 C8.06983379,10.207667 7.98446525,10.0155179 7.84694398,9.87636531 C7.70808777,9.73586191 7.51617231,9.64928567 7.3043953,9.64928567 C7.0926183,9.64928567 6.90070283,9.73586191 6.76184663,9.87636531 C6.62432536,10.0155179 6.53895682,10.207667 6.53895682,10.4200722 C6.53895682,11.1364005 6.25835963,11.7713307 5.80893569,12.229724 C5.35198374,12.6957956 4.72090534,12.979398 4.03586518,12.979398 C3.34737053,12.979398 2.72289467,12.6949847 2.27006284,12.2367811 C1.8156773,11.7770053 1.53385208,11.1422106 1.53277317,10.4423961 L1.53277353,7.77255924 L4.20127796,1.54157303 L23.4817426,1.54157303 L25.7519319,6.84269663 L3.69779773,6.84269663 C3.48597269,6.84269663 3.29406834,6.92926745 3.15522792,7.06975488 C3.01772223,7.20889174 2.93235925,7.40102998 2.93235925,7.61348315 C2.93235925,7.82588833 3.01772778,8.0180374 3.15524905,8.15719003 C3.29410526,8.29769343 3.48602072,8.38426966 3.69779773,8.38426966 C9.69948273,8.38426966 14.1598684,8.38692559 17.4765192,8.38890048 C27.9706164,8.39514916 27.2447462,8.33062452 27.3827939,8.22348853 C27.5332759,8.10631118 27.6387338,7.94158965 27.6755644,7.70984572 C27.7039932,7.58118043 27.6985171,7.49513842 24.6880667,0.46554595 C24.6562986,0.391427645 24.6793391,0.269612763 24.291906,0.196170158 C24.18123,0.175190189 23.9967907,0.154487286 23.6838183,0.136318213 C23.1616256,0.106003217 22.2583715,0.0799245004 20.6864428,0.0590583711 C17.827401,0.021106816 12.7464739,0 3.69774138,0 L3.69774138,0 Z" id="Shape"></path>
        </g>
    </g>
</svg>