<?xml version="1.0" encoding="UTF-8"?>
<svg width="30px" height="28px" viewBox="0 0 30 28" version="1.1" xmlns="http://www.w3.org/2000/svg" xmlns:xlink="http://www.w3.org/1999/xlink">
    <!-- Generator: Sketch 63.1 (92452) - https://sketch.com -->
    <title>nav-compras</title>
    <desc>Created with Sketch.</desc>
    <g id="Page-1" stroke="none" stroke-width="1" fill="none" fill-rule="evenodd">
        <g id="nav-compras" fill="#FFFFFF" fill-rule="nonzero">
            <path d="M12.505618,4.28250401 L5.67865169,4.28250401 C5.05349961,4.28250401 4.48628193,4.54085044 4.07557974,4.95903305 C3.66691647,5.3751396 3.41348315,5.94954724 3.41348315,6.58319957 L3.41348315,8.75120385 L2.26516854,8.75120385 C1.64001647,8.75120385 1.07279878,9.00955028 0.662096597,9.42773288 C0.253433329,9.84383944 0,10.4182471 0,11.0518994 L0,13.1621188 C0,13.7872182 0.24845327,14.3832805 0.688472791,14.8121622 C1.04100935,15.1557753 1.51703682,15.3943074 2.0905099,15.4502337 L4.09263955,25.7450885 C4.21955951,26.3978883 4.56643942,26.9611002 5.04481716,27.3611955 C5.52494733,27.7627563 6.13735471,28 6.79321489,28 L23.0944256,28 C23.7502857,28 24.3626931,27.7627563 24.8428233,27.3611955 C25.321201,26.9611002 25.6680809,26.3978883 25.7950041,25.7450722 L27.4397512,17.2878255 C27.4822544,17.0691693 27.4334628,16.8538066 27.3206699,16.6822473 C27.2063929,16.5084307 27.0266931,16.3796172 26.8094457,16.3358255 C26.5914283,16.291715 26.3758852,16.3416673 26.2041647,16.4587102 C26.0347949,16.5741507 25.9080761,16.7550976 25.8654039,16.9748291 L24.2206695,25.4320722 C24.1672897,25.7065265 24.0216701,25.9434786 23.8205063,26.1117222 C23.6211204,26.2784789 23.3669846,26.3777421 23.0944256,26.3777421 L6.79321489,26.3777421 C6.52064764,26.3777421 6.26650333,26.2784881 6.06711378,26.1117284 C5.86595959,25.9434929 5.72034985,25.7065465 5.66697095,25.4320721 C5.12877033,22.6646406 4.72734769,20.5906955 4.4261667,19.0346478 C3.43903982,13.9346692 3.45204258,14.2244317 3.34644324,14.1069261 C3.13728368,13.8737049 2.96374716,13.8323653 2.46908012,13.8388607 C2.40803223,13.8396623 2.34047488,13.8405564 2.26516854,13.8405564 C2.08366689,13.8405564 1.91942669,13.7647877 1.80033258,13.6435245 C1.67919948,13.5201851 1.60449438,13.3498121 1.60449438,13.1621188 L1.60449438,11.0518994 C1.60449438,10.8642061 1.67919948,10.6938331 1.80033258,10.5704937 C1.91942669,10.4492304 2.08366689,10.3734617 2.26516854,10.3734617 L27.6224719,10.3734617 C27.8039736,10.3734617 27.9682138,10.4492304 28.0873079,10.5704937 C28.208441,10.6938331 28.2831461,10.8642061 28.2831461,11.0518994 L28.2831461,13.1621188 C28.2831461,13.3498121 28.208441,13.5201851 28.0873079,13.6435245 C27.9682138,13.7647877 27.8039736,13.8405564 27.6224719,13.8405564 L5.29262331,13.8405564 C5.0704628,13.8405564 4.86905095,13.9318059 4.72335674,14.0801537 C4.57969936,14.2264276 4.49037612,14.428371 4.49037612,14.6516854 C4.49037612,14.8749998 4.57969936,15.0769432 4.72335674,15.2232171 C4.86905095,15.3715649 5.0704628,15.4628143 5.29262331,15.4628143 L27.6224719,15.4628143 C28.247624,15.4628143 28.8148417,15.2044679 29.2255439,14.7862853 C29.6342071,14.3701788 29.8876404,13.7957711 29.8876404,13.1621188 L29.8876404,11.0518994 C29.8876404,10.4182471 29.6342071,9.84383944 29.2255439,9.42773288 C28.8148417,9.00955028 28.247624,8.75120385 27.6224719,8.75120385 L5.01797753,8.75120385 L5.01797753,6.58319957 C5.01797753,6.39550624 5.09268262,6.22513326 5.21381573,6.10179387 C5.33290984,5.98053061 5.49715003,5.9047619 5.67865169,5.9047619 L12.505618,5.9047619 C12.6871196,5.9047619 12.8513598,5.98053061 12.9704539,6.10179387 C13.091587,6.22513326 13.1662921,6.39550624 13.1662921,6.58319957 L13.1662921,7.51417871 C13.1662921,7.73749308 13.2556154,7.93943648 13.3992728,8.0857104 C13.544967,8.23405824 13.7463788,8.32530765 13.9685393,8.32530765 C14.1906998,8.32530765 14.3921117,8.23405824 14.5378059,8.0857104 C14.6814633,7.93943648 14.7707865,7.73749308 14.7707865,7.51417871 L14.7707865,6.58319957 C14.7707865,5.94954724 14.5173532,5.3751396 14.1086899,4.95903305 C13.6979877,4.54085044 13.1307701,4.28250401 12.505618,4.28250401 Z M14.9438202,17.1300161 C14.7216597,17.1300161 14.5202479,17.2212655 14.3745537,17.3696133 C14.2308963,17.5158872 14.141573,17.7178306 14.141573,17.941145 L14.141573,23.8994114 C14.141573,24.1227258 14.2308963,24.3246692 14.3745537,24.4709431 C14.5202479,24.619291 14.7216597,24.7105404 14.9438202,24.7105404 C15.1659807,24.7105404 15.3673926,24.619291 15.5130868,24.4709431 C15.6567442,24.3246692 15.7460674,24.1227258 15.7460674,23.8994114 L15.7460674,17.941145 C15.7460674,17.7178306 15.6567442,17.5158872 15.5130868,17.3696133 C15.3673926,17.2212655 15.1659807,17.1300161 14.9438202,17.1300161 L14.9438202,17.1300161 Z M10.0674157,18.0609952 C9.84525521,18.0609952 9.64384336,18.1522446 9.49814916,18.3005924 C9.35449178,18.4468664 9.26516854,18.6488098 9.26516854,18.8721241 L9.26516854,22.9684323 C9.26516854,23.1917467 9.35449178,23.3936901 9.49814916,23.539964 C9.64384336,23.6883118 9.84525521,23.7795613 10.0674157,23.7795613 C10.2895762,23.7795613 10.4909881,23.6883118 10.6366823,23.539964 C10.7803397,23.3936901 10.8696629,23.1917467 10.8696629,22.9684323 L10.8696629,18.8721241 C10.8696629,18.6488098 10.7803397,18.4468664 10.6366823,18.3005924 C10.4909881,18.1522446 10.2895762,18.0609952 10.0674157,18.0609952 L10.0674157,18.0609952 Z M19.8202247,18.0609952 C19.5980642,18.0609952 19.3966524,18.1522446 19.2509581,18.3005924 C19.1073008,18.4468664 19.0179775,18.6488098 19.0179775,18.8721241 L19.0179775,22.9684323 C19.0179775,23.1917467 19.1073008,23.3936901 19.2509581,23.539964 C19.3966524,23.6883118 19.5980642,23.7795613 19.8202247,23.7795613 C20.0423852,23.7795613 20.2437971,23.6883118 20.3894913,23.539964 C20.5331487,23.3936901 20.6224719,23.1917467 20.6224719,22.9684323 L20.6224719,18.8721241 C20.6224719,18.6488098 20.5331487,18.4468664 20.3894913,18.3005924 C20.2437971,18.1522446 20.0423852,18.0609952 19.8202247,18.0609952 L19.8202247,18.0609952 Z M13.2370787,-8.94166139e-15 C12.6119266,-8.94166139e-15 12.0447089,0.258346426 11.6340067,0.676529032 C11.2253434,1.09263559 10.9719101,1.66704323 10.9719101,2.30069556 L10.9719101,2.79721776 C10.9719101,3.02053214 11.0612333,3.22247554 11.2048907,3.36874946 C11.3505849,3.5170973 11.5519968,3.60834671 11.7741573,3.60834671 C11.9963178,3.60834671 12.1977297,3.5170973 12.3434239,3.36874946 C12.4870813,3.22247554 12.5764045,3.02053214 12.5764045,2.79721776 L12.5764045,2.30069556 C12.5764045,2.11300223 12.6511096,1.94262925 12.7722427,1.81928985 C12.8913368,1.69802659 13.055577,1.62225789 13.2370787,1.62225789 L23.7213483,1.62225789 C23.90285,1.62225789 24.0670902,1.69802659 24.1861843,1.81928985 C24.3073174,1.94262925 24.3820225,2.11300223 24.3820225,2.30069556 L24.3820225,7.35901552 C24.3820225,7.58232989 24.4713457,7.78427329 24.6150031,7.93054721 C24.7606973,8.07889505 24.9621091,8.17014446 25.1842697,8.17014446 C25.4064302,8.17014446 25.607842,8.07889505 25.7535362,7.93054721 C25.8971936,7.78427329 25.9865169,7.58232989 25.9865169,7.35901552 L25.9865169,2.30069556 C25.9865169,1.86228028 25.882163,1.44610744 25.2768411,1.08428321 C24.8816921,0.848087435 24.2324033,0.631693028 23.1634421,0.460958751 C21.3681361,0.174212839 18.3375336,-8.94166139e-15 13.2370787,-8.94166139e-15 L13.2370787,-8.94166139e-15 Z" id="Shape"></path>
        </g>
    </g>
</svg>