<?xml version="1.0" encoding="UTF-8"?>
<svg width="28px" height="28px" viewBox="0 0 28 28" version="1.1" xmlns="http://www.w3.org/2000/svg" xmlns:xlink="http://www.w3.org/1999/xlink">
    <!-- Generator: Sketch 63.1 (92452) - https://sketch.com -->
    <title>nav-aplicativos</title>
    <desc>Created with Sketch.</desc>
    <g id="Page-1" stroke="none" stroke-width="1" fill="none" fill-rule="evenodd">
        <g id="nav-aplicativos" fill="#FFFFFF" fill-rule="nonzero">
            <polygon id="Path" points="7.58781225 1.8317757 8.37285898 1.8317757 8.37285898 2.61682243 7.58781225 2.61682243"></polygon>
            <polygon id="Path" points="9.15790571 1.8317757 13.0831394 1.8317757 13.0831394 2.61682243 9.15790571 2.61682243"></polygon>
            <path d="M6.49143885,0 C11.0700013,0.00128212882 13.797593,0.127579229 15.4646061,0.356428556 C17.6802637,0.660596377 18.0940836,1.16044441 18.4232303,1.75968782 L18.4232303,1.75968782 L18.4805614,1.86499983 L17.3767609,2.51681904 C17.1916018,2.11213407 16.8934712,1.78819023 16.5325766,1.57519686 C16.2355178,1.39987818 15.8959531,1.29976188 15.542413,1.29173914 L15.542413,1.29173914 L15.5008301,1.29122221 L6.49161408,1.29122207 C5.92148536,1.29192015 5.40561943,1.52873979 5.03198123,1.9106708 C4.66532709,2.28546275 4.43550205,2.79988327 4.42463141,3.36897193 L4.42463141,3.36897193 L4.42423626,19.5869574 L5.62621639,17.4577658 C5.88783515,16.9936281 6.30382627,16.6740919 6.77133415,16.5299217 C7.23994783,16.3854106 7.76055541,16.4169266 8.2306581,16.6562513 C8.6991719,16.8947671 9.0367668,17.2988233 9.20575337,17.7667385 C9.30487525,18.0412019 9.34592381,18.3375728 9.32148645,18.6350239 C9.54312127,18.502374 9.79667989,18.4269806 10.0599616,18.4203259 L10.0599616,18.4203259 L11.8973567,18.4198467 C12.3222192,18.4198467 12.7070642,18.5955389 12.9855596,18.8802154 C13.2625226,19.1633256 13.4341789,19.5543428 13.4341789,19.9864502 C13.4341789,20.4185576 13.2625226,20.8095748 12.9855596,21.092685 C12.7150326,21.3692163 12.3441499,21.5428983 11.933728,21.5526231 L11.933728,21.5526231 L10.0953668,21.5530536 C9.67050431,21.5530536 9.28565929,21.3773615 9.00716389,21.092685 C8.81050684,20.8916632 8.66695971,20.6362418 8.60023559,20.3503426 L8.60023559,20.3503426 L7.5903613,22.1038161 L15.5011094,22.1038162 C16.0712381,22.1031182 16.587104,21.8662985 16.9607422,21.4843675 C17.3273976,21.1095743 17.5572229,20.5951516 17.5680922,20.0260607 L17.5680922,20.0260607 L17.5685077,17.4988544 L18.8401487,17.4988544 L18.8401487,19.9866566 C18.8390991,20.9269123 18.4655545,21.7778382 17.8626852,22.3940879 C17.2687062,23.0012502 16.4522343,23.3807139 15.5484568,23.3946505 L15.5484568,23.3946505 L15.5013366,23.3950383 L7.61226134,23.3950383 L8.00273794,24.0584396 C8.30490069,24.5729822 8.46882477,25.1596052 8.47828113,25.7596777 L8.47828113,25.7596777 L8.47870655,25.8135687 L8.47870655,27.995395 L7.20705213,27.995395 L7.20705218,25.8136976 C7.20679365,25.4426889 7.11175596,25.0784211 6.93201487,24.7577252 L6.93201487,24.7577252 L6.91051346,24.7202316 L5.94555571,23.0808786 C5.83187189,22.8877797 5.82573729,22.6485142 5.92795012,22.450237 L5.92795012,22.450237 L7.96648821,18.8401707 C8.06475011,18.6635078 8.08392871,18.4628718 8.03563063,18.2810257 C7.98761012,18.1002246 7.8727429,17.9377224 7.70147441,17.8366429 C7.53197375,17.7366067 7.33886601,17.7157245 7.16335246,17.7631574 C6.99466934,17.8087443 6.84247327,17.9172464 6.74271549,18.0777411 L6.74271549,18.0777411 L4.70248455,21.6885446 C4.64321071,21.7944065 4.55724781,21.8786253 4.45645262,21.9349811 C4.35477038,21.9918328 4.23797303,22.0203754 4.117796,22.0142367 C3.99774565,22.0081044 3.88441995,21.967873 3.78888512,21.9010096 C3.69627386,21.8361923 3.62037666,21.7463072 3.57156848,21.6382865 C3.30543318,21.1494886 3.16171544,20.6012362 3.15298858,20.0417773 L3.15298858,20.0417773 L3.15257478,19.9864502 L3.15257478,14.5749421 L1.62712377,17.9581744 C1.3986408,18.459852 1.27735285,19.0052856 1.27099286,19.557868 L1.27099286,19.557868 L1.2707468,19.6180533 L1.2707468,28 L-0.000972796442,28 L-0.000972796442,19.6185881 C-0.00307328069,18.8807127 0.149001816,18.1511482 0.444849411,17.4784478 L0.444849411,17.4784478 L0.471796603,17.418221 L2.5172461,12.8823085 C2.64848401,12.5976512 2.86004333,12.3612506 3.12283435,12.2020173 L3.12283435,12.2020173 L3.15257489,3.40838174 C3.15362434,2.46812601 3.52716902,1.61720012 4.13003823,1.00095037 C4.73443525,0.383138911 5.56919533,0.00107534618 6.49143885,0 Z M11.8973567,19.711069 L10.0953668,19.711069 C10.0226235,19.711069 9.95697098,19.741548 9.90937034,19.7902051 C9.86023735,19.8404286 9.83019901,19.9099077 9.83019901,19.9864502 C9.83019901,20.0629927 9.86023735,20.1324718 9.90937034,20.1826953 C9.95697098,20.2313524 10.0226235,20.2618314 10.0953668,20.2618314 L11.8973567,20.2618314 C11.9700999,20.2618314 12.0357525,20.2313524 12.0833531,20.1826953 C12.1324861,20.1324718 12.1625245,20.0629927 12.1625245,19.9864502 C12.1625245,19.9099077 12.1324861,19.8404286 12.0833531,19.7902051 C12.0357525,19.741548 11.9700999,19.711069 11.8973567,19.711069 Z" id="Shape"></path>
            <path d="M16.5760019,3.25119629 C18.2658538,2.35167944 20.1636803,2.14789397 21.9140532,2.55689988 C23.6648677,2.96600897 25.268043,3.9881663 26.368149,5.53974692 C27.1775101,6.67818213 27.6317823,7.99121094 27.721007,9.3278769 C27.8102372,10.6646244 27.5343802,12.0250469 26.8832842,13.2582032 C26.2324341,14.4908937 25.2606483,15.4940486 24.0989495,16.189067 C22.9377151,16.8838075 21.5867253,17.2706386 20.1767603,17.271028 C19.7353016,17.270435 19.2946832,17.2330876 18.8589297,17.1592688 C17.5124804,16.9260742 16.2566174,16.3363424 15.2250203,15.4541436 L15.2250203,15.4541436 L12.2790149,15.9733431 C12.1548206,15.9954504 12.029726,15.981284 11.9173254,15.9363247 C11.8045071,15.8911983 11.7044986,15.8150716 11.6308238,15.7135644 C11.5567225,15.6086554 11.5180095,15.4896896 11.5134927,15.3695222 C11.5092962,15.2578777 11.5346508,15.1451425 11.5900232,15.0433146 L11.5900232,15.0433146 L13.1149719,12.4949559 C12.4353056,10.7612394 12.4561673,8.91265706 13.0590658,7.27169882 C13.6716887,5.60427319 14.8853517,4.15113805 16.5760019,3.25119629 Z M16.5740366,4.75837597 C15.2600102,5.66519414 14.2968325,7.06583804 13.9964207,8.74566177 C13.7802308,9.9437415 13.9313754,11.1778276 14.4325421,12.29552 C14.5104062,12.4837203 14.495977,12.696819 14.3932529,12.8731461 L13.4411917,14.4589979 L15.2874846,14.1190583 C15.3255855,14.1135692 15.3640843,14.1112598 15.402571,14.1121531 C15.566159,14.1124713 15.7235942,14.1736913 15.8435261,14.2833788 C16.6817702,15.0711467 17.7037588,15.5985545 18.7911494,15.8406763 C19.8787826,16.0828521 21.0318708,16.0396291 22.130283,15.6842418 C23.2283481,15.3289668 24.1827448,14.6905135 24.9127512,13.8604264 C25.6423633,13.0307877 26.1478123,12.0097158 26.3483801,10.8887821 C26.6487135,9.20939733 26.2296662,7.56907723 25.3095736,6.27460516 C24.3888508,4.97924644 22.9665078,4.03021309 21.2610625,3.7340926 C19.5552016,3.43789995 17.8889526,3.85094387 16.5740366,4.75837597 Z" id="Shape"></path>
            <path d="M20.1485601,4.44859813 C20.6808589,4.44859813 21.1633481,4.67988803 21.51238,5.05560426 C21.8492313,5.4182085 22.0614524,5.91560692 22.0714142,6.46656826 L22.0714142,6.46656826 L22.0717071,6.79032672 L23.1941389,6.79032672 C23.3660034,6.79032672 23.5221806,6.86435248 23.6350091,6.98580699 C23.73826,7.09695157 23.8049126,7.24807678 23.8115636,7.41610647 L23.8115636,7.41610647 L23.8121113,13.0645152 C23.8108982,13.501597 23.6451054,13.8966999 23.3790025,14.1831469 C23.1166927,14.4655109 22.7572146,14.6425707 22.3593401,14.6536603 L22.3593401,14.6536603 L17.9725658,14.6542056 C17.5610823,14.6528822 17.1881278,14.4737999 16.9181176,14.1831469 C16.6598413,13.9051248 16.4960673,13.5247533 16.4855416,13.1027044 L16.4855416,13.1027044 L16.4850085,7.44384635 C16.4850085,7.26473926 16.5532139,7.10302948 16.662111,6.98580699 C16.7694008,6.87031465 16.9159071,6.79772951 17.0777949,6.7908601 L17.0777949,6.7908601 L18.2253393,6.79036168 L18.2253393,6.50715491 C18.2253393,5.94005748 18.4396396,5.42708847 18.7847401,5.05560426 C19.1337721,4.67988803 19.6162612,4.44859813 20.1485601,4.44859813 Z M22.5761662,12.7808232 L17.7209539,12.7808232 L17.7209539,13.063995 C17.7209539,13.1435479 17.7501451,13.2160111 17.798717,13.2682965 C17.8433574,13.3163498 17.9047218,13.3471668 17.9731466,13.3471668 L22.3239735,13.3471668 C22.3923984,13.3471668 22.4537627,13.3163498 22.4984032,13.2682965 C22.5469751,13.2160111 22.5761662,13.1435479 22.5761662,13.063995 L22.5761662,12.7808232 Z M18.2253393,8.09736598 L17.7209539,8.09736598 L17.7209539,11.4737839 L22.5761662,11.4737839 L22.5761662,8.09736598 L22.0717809,8.09736598 L22.0717809,9.03405742 L20.8358354,9.03405742 L20.8358354,8.09736598 L19.4612847,8.09736598 L19.4612847,9.03405742 L18.2253393,9.03405742 L18.2253393,8.09736598 Z M20.1485601,5.7556374 C19.9599904,5.7556374 19.7898554,5.83887577 19.6664805,5.97168298 C19.5391741,6.1087222 19.4612847,6.29827182 19.4612847,6.50715491 L19.4612847,6.79032672 L20.8358354,6.79032672 L20.8358354,6.50715491 C20.8358354,6.29827182 20.757946,6.1087222 20.6306396,5.97168298 C20.5072647,5.83887577 20.3371298,5.7556374 20.1485601,5.7556374 Z" id="Shape"></path>
        </g>
    </g>
</svg>