<?xml version="1.0" encoding="UTF-8"?>
<svg width="28px" height="28px" viewBox="0 0 28 28" version="1.1" xmlns="http://www.w3.org/2000/svg" xmlns:xlink="http://www.w3.org/1999/xlink">
    <!-- Generator: Sketch 63.1 (92452) - https://sketch.com -->
    <title>nav-marketing</title>
    <desc>Created with Sketch.</desc>
    <g id="Page-1" stroke="none" stroke-width="1" fill="none" fill-rule="evenodd">
        <g id="nav-marketing" fill="#FFFFFF" fill-rule="nonzero">
            <path d="M13.2799527,6.03076956 C15.4896123,6.03136656 17.5739646,6.84674478 19.0798106,8.35764344 C20.586101,9.868988 21.5123543,11.9618051 21.5123543,14.1705071 C21.5123543,16.6145348 20.4668946,18.9411081 18.4965472,20.4528928 C17.5377349,21.2011379 16.9957595,22.368779 16.9764049,23.4418042 L16.9764049,23.4418042 L16.9758652,26.1187478 C16.9758652,26.6203952 16.7586722,27.0915938 16.4146232,27.4367972 C16.0823573,27.7701779 15.6330208,27.9848069 15.1523206,27.9992259 L15.1523206,27.9992259 L11.6983504,28 C11.2210635,28 10.7051774,27.7795558 10.3342637,27.3329659 C10.0412872,26.9802144 9.83718222,26.4850391 9.82389444,25.8444242 L9.82389444,25.8444242 L9.82320244,23.3877214 C9.82320244,22.2999183 9.27664087,21.323961 8.411131,20.5632344 C6.32724319,18.9313535 5.28722117,16.6111089 5.28671712,14.0584562 C5.34486785,11.857291 6.25926509,9.89350855 7.6902032,8.45776912 C9.140874,7.00223078 11.1223482,6.08968487 13.2799527,6.03076956 Z M13.3995338,7.51730165 C11.6380307,7.51730165 10.0142556,8.26129232 8.81413024,9.44537533 C7.60547135,10.6378778 6.82569415,12.2773402 6.76877148,14.06161 C6.77015503,16.1622934 7.64774298,18.1546078 9.31338703,19.3840275 C10.6045424,20.4437187 11.3052537,21.8578532 11.3052537,23.3877214 L11.3055788,25.8476935 C11.306603,25.9861134 11.3159514,26.2142606 11.4219416,26.3745214 C11.476698,26.4573148 11.5642529,26.513351 11.6983504,26.513351 L15.1007172,26.513351 C15.2186234,26.513351 15.3192317,26.477782 15.388759,26.4080214 C15.4583501,26.3381967 15.4938139,26.2371517 15.4938139,26.1187478 L15.4938139,23.5015142 C15.4938139,21.9753332 16.3094486,20.3298792 17.6014886,19.268096 C19.1478489,18.0489794 20.030303,16.1648121 20.030303,14.1705071 C20.030303,12.3955366 19.3664432,10.7317681 18.0397699,9.40064333 C16.8244699,8.18126563 15.1669312,7.51730165 13.3995338,7.51730165 Z" id="Shape"></path>
            <path d="M16.3311577,24.6974359 L10.4679099,24.6974359 C10.116115,24.6974359 9.88158508,24.4964103 9.88158508,24.1948718 C9.88158508,23.8933333 10.116115,23.6923077 10.4679099,23.6923077 L16.3311577,23.6923077 C16.6829526,23.6923077 16.9174825,23.8933333 16.9174825,24.1948718 C16.9174825,24.4964103 16.6829526,24.6974359 16.3311577,24.6974359 Z" id="Path"></path>
            <path d="M13.3995338,3.15897436 C13.0979953,3.15897436 12.8969697,2.94837607 12.8969697,2.63247863 L12.8969697,0.526495726 C12.8969697,0.210598291 13.0979953,0 13.3995338,0 C13.7010723,0 13.9020979,0.210598291 13.9020979,0.526495726 L13.9020979,2.63247863 C13.9020979,2.94837607 13.7010723,3.15897436 13.3995338,3.15897436 Z" id="Path"></path>
            <path d="M21.4525253,6.60512821 C21.3328671,6.60512821 21.0935509,6.60512821 20.9738928,6.48292417 C20.7345765,6.23851609 20.7345765,5.87190398 20.9738928,5.62749591 L22.6491064,3.91663939 C22.8884227,3.67223131 23.247397,3.67223131 23.4867133,3.91663939 C23.7260295,4.16104746 23.7260295,4.52765957 23.4867133,4.77206765 L21.8114996,6.48292417 C21.8114996,6.48292417 21.5721834,6.60512821 21.4525253,6.60512821 L21.4525253,6.60512821 Z" id="Path"></path>
            <path d="M26.8730381,14.6461538 L24.7670552,14.6461538 C24.4511577,14.6461538 24.2405594,14.4451282 24.2405594,14.1435897 C24.2405594,13.8420513 24.4511577,13.6410256 24.7670552,13.6410256 L26.8730381,13.6410256 C27.1889355,13.6410256 27.3995338,13.8420513 27.3995338,14.1435897 C27.3995338,14.4451282 27.1889355,14.6461538 26.8730381,14.6461538 Z" id="Path"></path>
            <path d="M23.1277389,23.9794872 C23.0080808,23.9794872 22.7687646,23.9794872 22.6491064,23.8572831 L20.9738928,22.1464266 C20.7345765,21.9020185 20.7345765,21.5354064 20.9738928,21.2909984 C21.213209,21.0465903 21.5721834,21.0465903 21.8114996,21.2909984 L23.4867133,23.0018549 C23.7260295,23.246263 23.7260295,23.6128751 23.4867133,23.8572831 C23.4867133,23.9794872 23.3670552,23.9794872 23.1277389,23.9794872 Z" id="Path"></path>
            <path d="M4.50893551,23.9794872 C4.38927739,23.9794872 4.14996115,23.9794872 4.03030303,23.8572831 C3.79098679,23.6128751 3.79098679,23.246263 4.03030303,23.0018549 L5.70551671,21.2909984 C5.94483294,21.0465903 6.3038073,21.0465903 6.54312354,21.2909984 C6.78243978,21.5354064 6.78243978,21.9020185 6.54312354,22.1464266 L4.86790987,23.8572831 C4.74825175,23.9794872 4.62859363,23.9794872 4.50893551,23.9794872 L4.50893551,23.9794872 Z" id="Path"></path>
            <path d="M2.74996115,14.6461538 L0.643978244,14.6461538 C0.328080808,14.6461538 0.117482517,14.4451282 0.117482517,14.1435897 C0.117482517,13.8420513 0.328080808,13.6410256 0.643978244,13.6410256 L2.74996115,13.6410256 C3.06585859,13.6410256 3.27645688,13.8420513 3.27645688,14.1435897 C3.27645688,14.4451282 3.06585859,14.6461538 2.74996115,14.6461538 Z" id="Path"></path>
            <path d="M6.18414918,6.60512821 C6.06449106,6.60512821 5.82517483,6.60512821 5.70551671,6.48791209 L4.03030303,4.72967033 C3.79098679,4.4952381 3.79098679,4.14358974 4.03030303,3.90915751 C4.26961927,3.67472527 4.62859363,3.67472527 4.86790987,3.90915751 L6.54312354,5.55018315 C6.78243978,5.78461538 6.78243978,6.13626374 6.54312354,6.37069597 C6.42346542,6.48791209 6.3038073,6.60512821 6.18414918,6.60512821 L6.18414918,6.60512821 Z" id="Path"></path>
            <path d="M17.8077389,14.6461538 C17.4803543,14.6461538 17.2620979,14.4049231 17.2620979,14.0430769 C17.2620979,11.7513846 15.5160466,9.82153846 13.4426107,9.82153846 C13.1152261,9.82153846 12.8969697,9.58030769 12.8969697,9.21846154 C12.8969697,8.85661538 13.1152261,8.61538462 13.4426107,8.61538462 C16.1708159,8.61538462 18.35338,11.0276923 18.35338,14.0430769 C18.35338,14.4049231 18.1351235,14.6461538 17.8077389,14.6461538 Z" id="Path"></path>
        </g>
    </g>
</svg>