<svg width="14" height="14" viewBox="0 0 14 14" fill="none" xmlns="http://www.w3.org/2000/svg">
<path d="M9.9339 0.664659L10.0109 0.817659L10.5869 2.35066C10.6319 2.47066 10.7269 2.56666 10.8479 2.61166L12.3279 3.16766C12.9779 3.41066 13.3269 4.10466 13.1539 4.76166L13.1119 4.89166L12.4239 6.41466C12.3974 6.47274 12.3837 6.53583 12.3837 6.59966C12.3837 6.66349 12.3974 6.72658 12.4239 6.78466L13.0779 8.22466C13.2147 8.5265 13.2349 8.86835 13.1344 9.18416C13.0339 9.49998 12.82 9.76736 12.5339 9.93466L12.3809 10.0117L10.8479 10.5877C10.7885 10.6102 10.7346 10.6451 10.6898 10.6901C10.6449 10.7351 10.6102 10.7892 10.5879 10.8487L10.0319 12.3287C9.91549 12.6394 9.68793 12.8959 9.39328 13.0485C9.09863 13.2011 8.75785 13.2389 8.4369 13.1547L8.3069 13.1127L6.7839 12.4247C6.72582 12.3982 6.66273 12.3845 6.5989 12.3845C6.53507 12.3845 6.47198 12.3982 6.4139 12.4247L4.9749 13.0787C4.67305 13.2155 4.33121 13.2356 4.01539 13.1352C3.69958 13.0347 3.4322 12.8207 3.2649 12.5347L3.1879 12.3817L2.6109 10.8487C2.58837 10.7893 2.55343 10.7354 2.50843 10.6905C2.46342 10.6457 2.40938 10.611 2.3499 10.5887L0.869898 10.0327C0.559171 9.91625 0.302685 9.68869 0.150095 9.39404C-0.00249523 9.09939 -0.0403361 8.75861 0.043898 8.43766L0.0858979 8.30766L0.774898 6.78466C0.801311 6.72656 0.814978 6.66348 0.814978 6.59966C0.814978 6.53584 0.801311 6.47276 0.774898 6.41466L0.119898 4.97566C-0.0170239 4.67393 -0.0373018 4.33217 0.0629792 4.01637C0.16326 3.70057 0.376988 3.43312 0.662898 3.26566L0.815898 3.18866L2.3499 2.61066C2.40948 2.58825 2.46358 2.55337 2.5086 2.50836C2.55361 2.46335 2.58849 2.40924 2.6109 2.34966L3.1669 0.869659C3.28329 0.559147 3.51069 0.302824 3.80512 0.150253C4.09955 -0.00231788 4.44009 -0.0402971 4.7609 0.0436593L4.8909 0.0856594L6.4139 0.774659C6.472 0.801073 6.53508 0.814739 6.5989 0.814739C6.66272 0.814739 6.7258 0.801073 6.7839 0.774659L8.2239 0.120659C8.52563 -0.0162625 8.86738 -0.0365404 9.18319 0.0637406C9.49899 0.164022 9.76644 0.37875 9.9339 0.664659ZM8.7639 4.30566L5.5769 7.94566L4.4149 6.78366C4.33047 6.70288 4.21778 6.65836 4.10094 6.65965C3.9841 6.66094 3.87241 6.70792 3.78979 6.79055C3.70716 6.87317 3.66018 6.98486 3.65889 7.1017C3.6576 7.21854 3.70212 7.33124 3.7829 7.41566L5.2829 8.91566C5.32619 8.95884 5.37788 8.99269 5.43477 9.0151C5.49167 9.03751 5.55255 9.04801 5.61367 9.04595C5.67478 9.04388 5.73482 9.0293 5.79007 9.00311C5.84533 8.97692 5.89462 8.93966 5.9349 8.89366L9.4349 4.89366C9.50616 4.8037 9.5401 4.68977 9.52967 4.57547C9.51924 4.46118 9.46524 4.35527 9.37887 4.27969C9.29249 4.20412 9.18036 4.16466 9.06569 4.16949C8.95102 4.17433 8.84361 4.22308 8.7639 4.30566Z" fill="black"/>
</svg>
