<?xml version="1.0" encoding="UTF-8" standalone="no"?>
<svg
   width="81.545364"
   height="76.37751"
   viewBox="0 0 21.575548 20.208458"
   version="1.1"
   id="svg10"
   xmlns="http://www.w3.org/2000/svg"
   xmlns:svg="http://www.w3.org/2000/svg">
  <defs
     id="defs14" />
  <g
     id="layer43"
     transform="matrix(0.2645865,0,0,0.2645865,-5.6041053,-194.26379)">
    <path
       style="fill:none;stroke:#030303;stroke-width:0.7;stroke-linecap:round;stroke-linejoin:round;paint-order:stroke fill markers"
       d="m 34.635501,739.25363 c -2.132219,1.09822 -4.118467,2.19972 -5.973696,3.83764 -1.855228,1.63792 -3.578925,3.81185 -4.833735,6.36313 -1.25481,2.55129 -2.040585,5.47922 -2.240462,9.29248 -0.199877,3.81325 0.185874,8.51119 0.240536,13.42074 0.05466,4.90955 -0.221621,10.03054 0.588425,14.2437 0.810047,4.21316 2.705623,7.51802 5.092468,10.3538 2.386844,2.83579 5.264405,5.20263 8.855034,7.03664 3.590629,1.83402 7.893997,3.13564 12.04389,4.11402 4.149892,0.97838 8.146121,1.63364 13.467079,2.02534 5.320958,0.3917 11.966414,0.51999 17.170844,-0.34748 5.20443,-0.86747 8.968167,-2.73041 11.792207,-4.35012 2.82404,-1.61971 4.708459,-2.99616 6.382237,-5.5594 1.673778,-2.56324 3.137192,-6.31374 4.111032,-10.24785 0.97383,-3.93412 1.45792,-8.05194 0.60282,-13.53213 -0.85511,-5.48019 -3.049825,-12.32273 -5.076639,-17.96725 -2.026813,-5.64451 -3.885729,-10.09071 -6.942903,-13.66404 -3.057174,-3.57333 -7.313057,-6.27312 -12.496788,-7.83004 -5.183731,-1.55692 -11.294879,-1.97023 -17.465186,-1.8592 -6.170307,0.11103 -12.399228,0.74655 -16.653059,1.61173 -4.253831,0.86518 -6.531885,1.96007 -8.664104,3.05829 z"
       id="path2555" />
    <path
       style="fill:none;stroke:#808080;stroke-width:0.3;stroke-linecap:round;stroke-linejoin:round;paint-order:stroke fill markers"
       d="m 31.308673,755.08099 c -0.676851,2.37681 -1.507385,5.55941 -1.451242,9.9199 0.05614,4.36049 0.998548,9.8982 2.855458,14.18954 1.856909,4.29135 4.627437,7.33617 8.977156,9.98063 4.349718,2.64445 10.278082,4.88897 15.222139,6.3909 4.944056,1.50192 8.90359,2.26141 13.040249,2.0024 4.13666,-0.25902 8.450702,-1.53609 11.843684,-3.25795 3.392982,-1.72185 5.865301,-3.88851 7.458612,-6.25808 1.593312,-2.36957 2.307795,-4.94263 2.460823,-9.27072 0.153029,-4.3281 -0.255654,-10.41131 -1.229891,-15.72895 -0.974237,-5.31764 -2.514292,-9.86954 -5.10105,-12.83291 -2.586757,-2.96337 -6.22084,-4.33733 -10.554502,-5.02456 -4.333662,-0.68722 -9.366423,-0.68722 -12.538702,-0.0827 -3.17228,0.60448 -4.482971,1.81344 -5.575976,2.16203 -1.093006,0.34859 -1.969405,-0.16392 -2.783981,-0.87273 -0.814575,-0.70881 -1.567002,-1.61427 -3.107202,-2.06754 -1.5402,-0.45328 -3.868171,-0.45328 -6.354598,0.0354 -2.486427,0.48871 -5.130708,1.46631 -7.063411,2.41382 -1.932703,0.94751 -3.153329,1.8648 -4.025431,3.10929 -0.872102,1.2445 -1.395285,2.81542 -2.072135,5.19223 z"
       id="path2559" />
    <path
       style="fill:none;stroke:#4d4d4d;stroke-width:0.7;stroke-linecap:round;stroke-linejoin:round;paint-order:stroke fill markers"
       d="m 56.047618,749.64866 c -0.360295,1.76142 -0.720433,3.52208 -0.931342,5.64821 -0.210909,2.12612 -0.272718,4.61739 0.08778,6.9796 0.3605,2.36221 1.142838,4.59499 1.684796,6.29676 0.541959,1.70177 0.84363,2.87246 0.973878,4.38468 0.130249,1.51222 0.08939,3.36608 0.25546,5.01475 0.166066,1.64868 0.538712,3.09189 0.723936,4.8346 0.185224,1.74272 0.183324,3.78501 0.326666,5.32029 0.143342,1.53529 0.431581,2.5633 0.719495,3.59015"
       id="path2563" />
    <path
       style="fill:none;stroke:#4d4d4d;stroke-width:0.7;stroke-linecap:round;stroke-linejoin:round;paint-order:stroke fill markers"
       d="m 32.674729,771.02234 c 1.841737,0.17302 3.682392,0.34593 5.27861,0.1548 1.596217,-0.19113 2.948526,-0.74597 4.454644,-1.36507 1.506119,-0.61911 3.165959,-1.30244 4.581087,-1.80292 1.415127,-0.50049 2.58529,-0.81812 3.893042,-0.56976 1.307751,0.24835 2.752508,1.06182 4.08328,1.90931 1.330772,0.84749 2.547543,1.72881 3.805369,1.84573 1.257826,0.11691 2.557356,-0.52955 3.825811,-1.03672 1.268454,-0.50717 2.505516,-0.87503 3.603384,-1.18823 1.097868,-0.31319 2.056446,-0.57171 3.508515,-0.20053 1.452069,0.37118 3.397016,1.37122 4.797217,2.18842 1.400202,0.8172 2.255657,1.4513 3.161474,1.68427 0.905816,0.23297 1.862264,0.0658 2.822359,-0.18388 0.960095,-0.24965 1.923992,-0.58168 3.096495,-0.93446 1.172503,-0.35279 2.553439,-0.72633 3.933723,-1.0997"
       id="path2567" />
    <path
       style="fill:none;stroke:#4d4d4d;stroke-width:0.7;stroke-linecap:round;stroke-linejoin:round;paint-order:stroke fill markers"
       d="m 88.534635,783.25022 c -1.575259,-1.95496 -3.1514,-3.91102 -4.532301,-5.54333 -1.3809,-1.6323 -2.566579,-2.94075 -3.238034,-3.71265 -0.671455,-0.7719 -0.828474,-1.00731 -0.986269,-1.24388"
       id="path2571" />
    <path
       style="fill:none;stroke:#4d4d4d;stroke-width:0.7;stroke-linecap:round;stroke-linejoin:round;paint-order:stroke fill markers"
       d="m 82.585077,771.81051 c 1.007316,-1.57264 2.014795,-3.14553 2.990336,-4.90479 0.97554,-1.75926 1.919143,-3.70498 2.862966,-5.65116"
       id="path2575" />
    <path
       style="fill:none;stroke:#4d4d4d;stroke-width:0.7;stroke-linecap:round;stroke-linejoin:round;paint-order:stroke fill markers"
       d="m 33.113664,762.03614 c 0.703717,1.05526 1.406664,2.10937 2.173112,3.36107 0.766447,1.25169 1.596452,2.70088 2.121849,3.7309 0.525397,1.03002 0.746406,1.6408 0.966982,2.25039"
       id="path2579" />
    <path
       style="fill:none;stroke:#4d4d4d;stroke-width:0.7;stroke-linecap:round;stroke-linejoin:round;paint-order:stroke fill markers"
       d="m 35.220479,779.73069 c 0.423299,-1.7438 0.846772,-3.48832 1.370076,-4.85784 0.523303,-1.36951 1.146401,-2.36352 1.769684,-3.35783"
       id="path2583" />
    <path
       id="path12435"
       style="stroke:#18170b;stroke-width:0.0603059;stroke-linecap:square"
       class="centro"
       d="M 15.74457,10.104229 A 4.9567978,4.96524 0 0 1 10.787774,15.069471 4.9567978,4.96524 0 0 1 5.8309774,10.104229 4.9567978,4.96524 0 0 1 10.787774,5.1389877 4.9567978,4.96524 0 0 1 15.74457,10.104229 Z"
       transform="matrix(3.7794823,0,0,3.7794823,21.180617,734.21656)" />
    <path
       style="stroke:#18170b;stroke-width:0.0264587"
       d="M 9.7664649,5.2455265 C 9.2976471,5.3548495 8.8393948,5.5250581 8.4119523,5.7464955 8.1157631,5.8999367 7.8407333,6.0964319 7.5869912,6.3129664 7.3149699,6.5450996 7.0698441,6.8102266 6.8481952,7.0908565 6.696623,7.2827623 6.5667675,7.4919333 6.4477524,7.7055624 6.3442038,7.8914296 6.2531103,8.084847 6.1763474,8.2832819 6.0857028,8.5176012 6.009697,8.7584972 5.9543003,9.0035548 c -0.033233,0.1470112 -0.04803,0.297685 -0.065603,0.4473777 -0.02549,0.2171234 -0.05125,0.5620535 -0.05772,0.6532985 l -5.65901762,-2e-6 C 0.13832978,9.3563224 0.12155568,8.6528609 0.10671572,7.9269157 0.09942833,7.570429 0.08842732,7.2137959 0.09503246,6.8572959 0.09890567,6.6482463 0.10556595,6.438931 0.12511268,6.2307612 0.15192396,5.945225 0.18472976,5.6591988 0.24455323,5.3787154 0.30899985,5.0765563 0.39147183,4.7768671 0.50159154,4.4882026 0.60842799,4.2081448 0.73408607,3.9330503 0.89100564,3.6776631 1.1311339,3.2868532 1.4015349,2.9075723 1.7282198,2.5855925 2.1144128,2.2049617 2.5733868,1.9017164 3.0334405,1.6147051 3.3500158,1.417205 3.6894754,1.2578485 4.0283881,1.1017574 4.2302653,1.00878 4.4361024,0.92363334 4.6458051,0.8499859 4.899664,0.76083087 5.1584262,0.68486417 5.4196725,0.62049561 5.7737734,0.53324858 6.1332161,0.46803688 6.493038,0.40864227 6.8386402,0.35159485 7.1865336,0.30851365 7.5346895,0.27000637 7.9475975,0.22433726 8.361488,0.18574112 8.7761452,0.16047926 c 0.6697538,-0.0408029 1.6445158,0.006286 2.0118438,-0.0678193 0.0011,2.92966604 -0.0021,2.11666464 -2.14e-4,5.04632774 0,0 -0.687969,0.028807 -1.0213101,0.1065388 z"
       id="path1255"
       class="superior_esquerdo"
       transform="matrix(3.7794823,0,0,3.7794823,21.180617,734.21656)" />
    <path
       style="stroke:#18170b;stroke-width:0.0264587;stroke-linecap:square"
       d="m 11.624862,0.0764964 c 0.357346,0.0083706 0.71541,0.02570025 1.069987,0.070885 0.207482,0.0264401 0.410182,0.0825084 0.616501,0.1168705 0.176849,0.0294541 0.355786,0.0455979 0.532387,0.0765028 0.142924,0.0250114 0.284611,0.0567475 0.426282,0.0880847 0.04853,0.0107351 0.09705,0.0216297 0.145134,0.0342294 0.246035,0.064473 0.492109,0.130275 0.73311,0.21156797 0.225587,0.0760935 0.447421,0.16364697 0.665969,0.25807551 0.141165,0.0609939 0.27932,0.12893552 0.41621,0.19899952 0.09763,0.049967 0.193717,0.1029672 0.28871,0.1577725 0.09288,0.053584 0.184855,0.1088357 0.274829,0.1671594 0.127367,0.082563 0.252827,0.1682577 0.374841,0.2585424 0.110656,0.08188 0.218884,0.1672098 0.323623,0.2565333 0.124252,0.1059644 0.24527,0.2159612 0.361119,0.3310524 0.115541,0.1147858 0.33253,0.3579863 0.33253,0.3579863 v 0 c 0,0 0.143381,0.1679513 0.208129,0.2572465 0.06108,0.084231 0.110005,0.1767502 0.169618,0.2620226 0.06808,0.097388 0.150185,0.1848033 0.214522,0.2847056 0.139335,0.2163618 0.253749,0.4480419 0.369153,0.6780612 0.0909,0.1811875 0.168779,0.3686264 0.254332,0.5524011 0.06483,0.13926 0.134034,0.2765086 0.196249,0.4169566 0.03072,0.069359 0.06163,0.1387799 0.08738,0.2101346 0.02798,0.077526 0.04602,0.1583491 0.07275,0.2363174 0.02048,0.059764 0.04491,0.1181045 0.06707,0.1772658 0.02695,0.071941 0.05619,0.1514256 0.08016,0.216087 0.02512,0.068482 0.05057,0.1368497 0.07493,0.2056055 0.04093,0.1155217 0.07916,0.2319881 0.119699,0.3476493 0.02637,0.075233 0.05373,0.1501152 0.08035,0.2252586 0.02571,0.072577 0.05136,0.145178 0.07667,0.2178965 0.05084,0.1460544 0.102158,0.291952 0.151021,0.4386785 0.136311,0.4093147 0.274964,0.8180719 0.396527,1.2320061 0.09991,0.340205 0.186629,0.6841911 0.273368,1.0279904 0.03833,0.1519187 0.124555,0.4156636 0.109155,0.4571876 H 15.744566 C 15.74327,10.011878 15.693425,9.283897 15.593484,8.887673 15.493663,8.4919252 15.331607,8.1118965 15.150025,7.7463714 15.065492,7.5762057 14.96078,7.4161975 14.851346,7.2608705 14.723593,7.079542 14.585089,6.9050928 14.434991,6.7417797 14.284243,6.5777608 14.124789,6.4202279 13.950706,6.2812247 13.678719,6.0640468 13.390061,5.8636792 13.081524,5.7025948 12.769513,5.5396963 12.439604,5.4044797 12.098967,5.3158549 11.672154,5.204809 10.787775,5.1389877 10.787775,5.1389877 c 0,0 8.02e-4,-2.1152596 2.14e-4,-5.04632774 0,0 0.55794,-0.02269736 0.836873,-0.01616356 z"
       id="path3383"
       class="superior_direito"
       transform="matrix(3.7794823,0,0,3.7794823,21.180617,734.21656)" />
    <path
       style="stroke:#18170b;stroke-width:0.0264587;stroke-linecap:square"
       d="m 10.787989,20.037221 c 0.201933,0.0149 1.403955,0.07554 2.106652,0.07834 0.373576,0.0015 0.747545,-0.0073 1.120259,-0.03272 0.433298,-0.02954 0.867149,-0.06723 1.295468,-0.139083 0.350306,-0.05877 0.697343,-0.139801 1.03863,-0.238243 0.270555,-0.07804 0.538491,-0.168117 0.797472,-0.278656 0.263864,-0.112623 0.50948,-0.264043 0.767099,-0.390301 0.17105,-0.08383 0.348926,-0.153868 0.516858,-0.243782 0.150934,-0.08081 0.297803,-0.169632 0.439892,-0.265144 0.209227,-0.140643 0.422899,-0.279199 0.606088,-0.4524 0.256837,-0.242833 0.48647,-0.517706 0.680877,-0.812898 0.2164,-0.328587 0.381757,-0.690019 0.531942,-1.05367 0.205855,-0.498448 0.373765,-1.014145 0.502461,-1.537847 0.130292,-0.530195 0.216994,-1.07205 0.270873,-1.615354 0.02142,-0.215972 0.02222,-0.433745 0.02054,-0.65077 -0.0011,-0.145592 -0.01124,-0.291006 -0.02054,-0.436305 -0.01258,-0.196617 -0.02454,-0.393473 -0.04766,-0.589131 -0.02799,-0.236891 -0.06822,-0.472262 -0.110101,-0.707094 -0.03442,-0.192986 -0.124571,-0.462802 -0.115991,-0.576543 l -5.444238,0.0086 c 2.73e-4,0.09862 -0.02361,0.847205 -0.234647,1.509597 -0.198114,0.621831 -0.497317,1.111755 -0.856171,1.597953 -0.204684,0.27732 -0.462551,0.514265 -0.727056,0.735261 -0.216726,0.181074 -0.452829,0.340287 -0.69877,0.479107 -0.254842,0.143845 -0.519439,0.277464 -0.799189,0.363344 -0.530414,0.162832 -1.64082,0.279981 -1.64082,0.279981 z"
       id="path3385"
       class="inferior_direito"
       transform="matrix(3.7794823,0,0,3.7794823,21.180617,734.21656)" />
    <path
       style="stroke:#18170b;stroke-width:0.0264587;stroke-linecap:square"
       d="m 5.8309774,10.104231 c 0,0.153682 0.04712,0.683004 0.04712,0.683004 0,0 0.030564,0.197598 0.050108,0.29561 0.017939,0.08996 0.038817,0.179362 0.061599,0.268224 0.018743,0.07311 0.039514,0.145715 0.061743,0.217842 0.022228,0.07212 0.045348,0.14403 0.071593,0.214788 0.050801,0.136966 0.1063466,0.272249 0.166055,0.405573 0.028147,0.06285 0.05917,0.124392 0.090513,0.185711 0.026,0.05087 0.053061,0.101197 0.080889,0.151087 0.027825,0.04988 0.055658,0.09982 0.086043,0.148193 0.092333,0.14698 0.1838879,0.295382 0.2921958,0.431022 0.213677,0.267599 0.4431411,0.525814 0.7016933,0.750353 0.2586872,0.224656 0.5452275,0.418221 0.8417112,0.589939 0.1964602,0.113786 0.4056476,0.205394 0.6166232,0.289258 0.1585773,0.06303 0.3213408,0.116263 0.4862586,0.160108 0.206337,0.05486 0.4159785,0.09952 0.6275405,0.128259 0.223584,0.03037 0.675328,0.04627 0.675328,0.04627 l -2e-6,4.96775 C 10.48921,20.020811 9.7524072,19.969016 9.2388453,19.897873 8.6931125,19.822273 8.1507041,19.719026 7.6143972,19.592874 6.867037,19.417076 6.1092846,19.254636 5.3985813,18.964201 4.3712798,18.544384 3.3055728,18.106763 2.4759423,17.369668 1.6543235,16.639692 0.99206606,15.694824 0.56706759,14.681267 0.29227542,14.025929 0.25845293,13.290133 0.19241888,12.582589 c -0.0669741,-0.717616 -0.0170492,-1.44138 -0.0204591,-2.162107 -4.9874e-4,-0.105416 0.003651,-0.254123 0,-0.316253 z"
       id="path8594"
       class="inferior_esquerdo"
       transform="matrix(3.7794823,0,0,3.7794823,21.180617,734.21656)" />
  </g>
</svg>
