<?xml version="1.0" encoding="UTF-8" standalone="no"?>
<svg
   width="56.890766"
   height="68.566544"
   viewBox="0 0 15.052351 18.141782"
   version="1.1"
   id="svg10"
   xmlns="http://www.w3.org/2000/svg"
   xmlns:svg="http://www.w3.org/2000/svg">
  <defs
     id="defs14" />
  <g
     id="layer13"
     transform="matrix(0.2645865,0,0,0.2645865,-102.02576,-68.631934)"
     style="fill:none">
    <path
       style="fill:none;stroke:#030303;stroke-width:0.7;stroke-linecap:round;stroke-linejoin:round;stroke-dasharray:none;stroke-opacity:1;paint-order:stroke fill markers"
       d="m 411.90507,260.91151 c -2.09211,0.70142 -4.5576,1.44111 -7.68371,2.28624 -3.1261,0.84513 -6.91274,1.79564 -9.75689,3.53916 -2.84414,1.74351 -4.74482,4.27958 -6.17181,7.23846 -1.42698,2.95887 -2.38014,6.33987 -2.33702,10.34378 0.0431,4.00391 1.08205,8.62997 2.00359,13.09351 0.92154,4.46354 1.7257,8.76431 3.04289,12.25729 1.31719,3.49298 3.14675,6.17796 5.0873,8.6198 1.94056,2.44183 3.99181,4.6405 6.53959,6.07777 2.54778,1.43726 5.59173,2.11382 8.82524,2.62532 3.2335,0.51151 6.65644,0.85808 9.90637,0.40922 3.24993,-0.44886 6.32725,-1.69279 8.49355,-3.21625 2.16631,-1.52346 3.42215,-3.32676 4.23194,-6.16604 0.80979,-2.83927 1.17342,-6.71502 1.87482,-10.50945 0.7014,-3.79442 1.74062,-7.50707 2.81856,-10.7314 1.07793,-3.22432 2.19453,-5.95998 2.81039,-9.00034 0.61587,-3.04037 0.7308,-6.3857 0.2824,-9.02614 -0.4484,-2.64044 -1.46075,-4.57606 -2.99128,-6.10219 -1.53054,-1.52612 -3.57974,-2.64211 -6.118,-4.28621 -2.53827,-1.64411 -5.5654,-3.8164 -8.20148,-5.48443 -2.63608,-1.66802 -4.88101,-2.8315 -6.86327,-3.08208 -1.98226,-0.25058 -3.70108,0.41255 -5.79318,1.11398 z"
       id="path1339" />
    <path
       style="fill:none;stroke:#808080;stroke-width:0.3;stroke-linecap:round;stroke-linejoin:round;stroke-dasharray:none;stroke-opacity:1;paint-order:stroke fill markers"
       d="m 397.98898,274.97787 c -1.53796,1.38561 -3.31375,3.75146 -4.34759,6.44523 -1.03384,2.69377 -1.32575,5.71457 -0.991,9.07265 0.33475,3.35807 1.29575,7.05291 2.44031,10.57649 1.14455,3.52358 2.47242,6.87567 4.8043,10.04811 2.33188,3.17245 5.66704,6.16535 8.48019,7.72058 2.81315,1.55523 5.10412,1.67363 7.56157,1.13141 2.45746,-0.54222 5.08185,-1.74475 7.17245,-2.50842 2.0906,-0.76366 3.64699,-1.08847 4.83926,-2.69089 1.19226,-1.60241 2.02129,-4.48312 3.15,-7.9252 1.12871,-3.44208 2.55704,-7.44523 3.72521,-11.41528 1.16816,-3.97006 2.07606,-7.90695 1.68744,-11.23983 -0.38861,-3.33287 -2.07459,-6.06198 -4.73425,-7.85488 -2.65967,-1.7929 -6.2933,-2.64861 -9.47345,-3.25478 -3.18015,-0.60617 -5.90659,-0.96264 -7.82138,-1.39981 -1.91479,-0.43718 -3.01795,-0.95545 -4.94229,-0.78605 -1.92434,0.16941 -4.66915,1.02723 -6.69129,1.65865 -2.02214,0.63142 -3.32151,1.03641 -4.85948,2.42202 z"
       id="path1343" />
    <path
       style="fill:none;stroke:#4d4d4d;stroke-width:0.7;stroke-linecap:round;stroke-linejoin:round;stroke-dasharray:none;stroke-opacity:1;paint-order:stroke fill markers"
       d="m 396.30859,284.5832 c 1.26206,3.37562 2.52366,6.75004 2.7061,9.43871 0.18243,2.68867 -0.7136,4.69226 -1.60944,6.69543"
       id="path1347" />
    <path
       style="fill:none;stroke:#4d4d4d;stroke-width:0.7;stroke-linecap:round;stroke-linejoin:round;stroke-dasharray:none;stroke-opacity:1;paint-order:stroke fill markers"
       d="m 399.53316,293.57667 c 3.12468,1.01982 6.24816,2.03924 9.26171,2.87603 3.01354,0.8368 5.91708,1.49107 9.02367,1.37628 3.10659,-0.1148 6.4165,-0.99818 8.90876,-2.74342 2.49225,-1.74523 4.16754,-4.35262 5.51561,-6.06495 1.34807,-1.71233 2.36856,-2.52915 3.38895,-3.34588"
       id="path1351" />
    <path
       style="fill:none;stroke:#4d4d4d;stroke-width:0.7;stroke-linecap:round;stroke-linejoin:round;stroke-dasharray:none;stroke-opacity:1;paint-order:stroke fill markers"
       d="m 428.68931,301.94823 c -0.19879,-1.93326 -0.39769,-3.8676 -0.70391,-5.00067 -0.30622,-1.13307 -0.72074,-1.46465 -1.13636,-1.7971"
       id="path1355" />
    <path
       style="stroke:#fff933;stroke-width:0.0264587;stroke-linecap:round;stroke-linejoin:round;stroke-dasharray:none;stroke-opacity:0;paint-order:stroke fill markers"
       d="m 14.590023,8.3478064 c 0.0331,-0.1157461 0.09936,-0.3474143 0.162476,-0.6519433 0.06311,-0.3045291 0.123072,-0.6819631 0.156516,-1.003445 0.03344,-0.321482 0.04035,-0.587051 0.02453,-0.878545 C 14.917734,5.5223792 14.87916,5.2049264 14.822044,4.9324724 14.764929,4.6600184 14.689202,4.4325382 14.594763,4.2350525 14.500324,4.0375667 14.387073,3.8700885 14.215421,3.6696658 14.043769,3.4692431 13.81366,3.2359142 13.375409,2.9213762 12.937159,2.6068383 12.290986,2.2113313 11.679451,1.8246231 11.067917,1.4379149 10.492036,1.0606342 10.06449,0.80212325 9.6369447,0.54361232 9.3579613,0.40406896 9.0883493,0.30569132 8.8187373,0.20731369 8.5585063,0.150193 8.2975082,0.14273225 8.03651,0.13527151 7.7746199,0.17760817 7.5129461,0.21990988 c 0,0 0.013229,6.67253282 0.013229,6.67253282 0.093249,0.00197 0.1867685,0.00394 0.3349847,0.035716 0.1482163,0.031777 0.3513523,0.093274 0.5628519,0.2005333 0.2114997,0.1072593 0.4313578,0.2601565 0.5406585,0.3360153 0.1093007,0.075859 0.1080808,0.074622 0.1696306,0.1579172 0.06155,0.083295 0.1859191,0.2510978 0.2604262,0.3620373 0.074507,0.1109395 0.099226,0.1649933 0.1227869,0.2198898 0.023561,0.054897 0.045981,0.1106363 0.07567,0.2329376 0.029689,0.1223012 0.073873,0.3476858 0.089183,0.4323752 0.01531,0.084689 0.016423,0.1085157 0.017139,0.1345843 7.161e-4,0.026069 0.00106,0.051827 0.00142,0.079665 0,0 4.6482258,8e-7 4.6482258,8e-7 0.06926,-0.2068542 0.170312,-0.50869 0.207768,-0.6205627 -10e-7,10e-8 -2e-6,3e-7 0.0331,-0.1157458 z"
       id="path12788"
       class="superior_direito"
       transform="matrix(3.7794823,0,0,3.7794823,385.60456,259.39318)" />
    <path
       style="stroke:#777536;stroke-width:0.0264587;stroke-linecap:round;stroke-linejoin:round;stroke-dasharray:none;stroke-opacity:0;paint-order:stroke fill markers"
       d="m 7.5129461,11.279211 c 0,0 0,6.700257 0,6.700257 C 7.1081086,17.924969 6.7032021,17.870461 6.4608927,17.836333 6.2185834,17.802204 6.139008,17.788484 5.9400559,17.740131 5.7411038,17.691778 5.4230618,17.608814 5.1109331,17.4924 4.7988044,17.375987 4.4925871,17.226051 4.2265098,17.062956 3.9604326,16.899862 3.7345206,16.723536 3.4722639,16.440305 3.2100073,16.157074 2.9114739,15.766873 2.6362858,15.381321 2.3610977,14.995769 2.1092785,14.614856 1.9204433,14.291423 1.731608,13.96799 1.6050712,13.700466 1.4003237,13.008012 1.1955763,12.315558 0.90870855,11.185186 0.73236181,10.459913 0.55601507,9.7346393 0.4888892,9.4092267 0.42182643,9.0841201 c 0,0 4.92959927,1.2e-6 4.92959927,1.2e-6 0.0085,0.1065461 0.017052,0.2137474 0.053301,0.3696677 0.036249,0.1559203 0.1012321,0.3648687 0.1894963,0.550747 0.088264,0.185877 0.2049853,0.35894 0.3485734,0.513172 0.1435882,0.154233 0.3228779,0.299296 0.4616934,0.394524 0.1388156,0.09523 0.2424975,0.14462 0.3769253,0.189951 0.1344277,0.04533 0.3031495,0.08777 0.4301096,0.111626 0.1269601,0.02386 0.2141443,0.02967 0.3014211,0.03549"
       id="path12774"
       class="inferior_esquerdo"
       transform="matrix(3.7794823,0,0,3.7794823,385.60456,259.39318)" />
    <ellipse
       style="stroke:#777536;stroke-width:0.0264587;stroke-linecap:square;stroke-dasharray:none;stroke-opacity:0"
       id="path12435"
       cx="7.5261755"
       cy="9.0708904"
       rx="2.1747899"
       ry="2.1784477"
       class="centro"
       transform="matrix(3.7794823,0,0,3.7794823,385.60456,259.39318)" />
    <path
       style="stroke:#777536;stroke-width:0.0264587;stroke-linecap:square;stroke-dasharray:none;stroke-opacity:0"
       d="M 7.5309169,6.8925577 7.5129461,0.21990998 C 6.9159151,0.37968438 7.1438353,0.34218819 6.9587606,0.40172875 6.6550007,0.49945161 6.3513405,0.59761488 6.0458063,0.68964025 5.7885048,0.76713816 5.5297701,0.8398329 5.2709586,0.91212806 5.0351018,0.97801117 4.7977806,1.0385809 4.561979,1.1046617 4.2916741,1.1804116 4.0194444,1.2502996 3.7529223,1.3384405 3.4547818,1.4370377 3.1572077,1.540179 2.8704151,1.6680821 2.6896709,1.7486899 2.5138587,1.8411342 2.3442145,1.9430504 2.2360019,2.0080607 2.132149,2.0805142 2.0317387,2.1570262 1.7656422,2.3597902 1.4749802,2.5443089 1.2653009,2.8049911 0.96694263,3.1759227 0.78940968,3.6317877 0.59848686,4.0678569 0.50531174,4.2806696 0.43322754,4.5025281 0.36635209,4.7250107 0.2976715,4.9534987 0.22414585,5.182933 0.19313531,5.4194962 c -0.0913015,0.6964912 -0.087242,1.4066221 -0.0342615,2.1070712 0.0397123,0.5250313 0.26295262,1.5575527 0.26295262,1.5575527 l 4.92959927,1.2e-6 c 0,0 0.00481,-0.096283 0.013954,-0.2054596 0.00679,-0.081078 0.015964,-0.1692666 0.027328,-0.230413 0.01222,-0.065754 0.027864,-0.1265708 0.046714,-0.1908982 0.01315,-0.044876 0.027369,-0.093954 0.045148,-0.1370905 C 5.5440979,8.1758231 5.6013098,8.0461508 5.6796014,7.9200999 5.757844,7.7941279 5.8495278,7.675614 5.951693,7.5681285 6.0530125,7.4615327 6.1658422,7.3648497 6.2866151,7.2809319 6.4073115,7.1970673 6.5374388,7.1256597 6.6723505,7.0673528 6.7761394,7.0224967 6.8850508,6.9886203 6.9953622,6.9638092 7.171065,6.9242904 7.3971585,6.8914496 7.5309199,6.8925575 Z"
       id="path12637"
       class="superior_esquerdo"
       transform="matrix(3.7794823,0,0,3.7794823,385.60456,259.39318)" />
    <path
       style="stroke:#777536;stroke-width:0.0264587;stroke-linecap:round;stroke-linejoin:round;stroke-dasharray:none;stroke-opacity:0;paint-order:stroke fill markers"
       d="m 9.6457462,9.5441107 c -0.00963,0.029527 -0.028922,0.088652 -0.054605,0.1617875 -0.025683,0.073136 -0.057834,0.1605183 -0.086636,0.230881 -0.028802,0.070363 -0.054141,0.1234788 -0.077734,0.1684318 -0.023594,0.04495 -0.045256,0.08141 -0.091647,0.149788 -0.046391,0.06837 -0.1177799,0.169029 -0.1733383,0.237978 -0.055559,0.06895 -0.09568,0.106778 -0.1306663,0.141592 -0.034987,0.03481 -0.064232,0.06602 -0.133534,0.121101 -0.069302,0.05508 -0.1759289,0.132165 -0.3066157,0.205945 -0.1306869,0.07378 -0.2887479,0.143238 -0.4100461,0.179603 -0.1212982,0.03636 -0.2860259,0.06462 -0.4087556,0.08166 -0.1227297,0.01704 -0.187733,0.02151 -0.2592214,0.02642 0,0 7e-7,6.73017 7e-7,6.73017 0.5658032,0.01447 1.1325193,0.02897 1.6438661,-0.01503 0.5113469,-0.044 0.9718014,-0.147037 1.3348984,-0.256323 0.363097,-0.109286 0.63866,-0.228159 0.924484,-0.416663 0.285825,-0.188505 0.60284,-0.461473 0.835999,-0.7637 0.233158,-0.302227 0.407608,-0.666064 0.573409,-1.300217 0.165801,-0.634153 0.332625,-1.569297 0.480729,-2.313711 0.148103,-0.744414 0.278964,-1.306327 0.389232,-1.73683 0.110267,-0.430503 0.19953,-0.728174 0.276504,-0.973672 0.07697,-0.2454975 0.139094,-0.4308587 0.200857,-0.6114595 0.06176,-0.1806009 0.118494,-0.3427416 0.176227,-0.5077474 0,0 -4.6482267,4.2e-6 -4.6482267,4.2e-6 -0.0012,0.037657 -0.00241,0.075563 -0.008,0.1368213 -0.00558,0.061258 -0.015544,0.1462612 -0.022527,0.1990692 -0.00698,0.052808 -0.011031,0.073844 -0.013025,0.084207 -0.00199,0.010362 -0.002,0.010366 -0.011629,0.039892 z"
       id="path12703"
       class="inferior_direito"
       transform="matrix(3.7794823,0,0,3.7794823,385.60456,259.39318)" />
  </g>
</svg>
