<?xml version="1.0" encoding="UTF-8" standalone="no"?>
<svg
   width="92.389145"
   height="83.244827"
   viewBox="0 0 24.444632 22.025458"
   version="1.1"
   id="svg10"
   xmlns="http://www.w3.org/2000/svg"
   xmlns:svg="http://www.w3.org/2000/svg">
  <defs
     id="defs14" />
  <g
     id="layer49"
     transform="matrix(0.2645865,0,0,0.2645865,-58.459411,-194.04633)">
    <path
       style="fill:none;stroke:#030303;stroke-width:0.7;stroke-linecap:round;stroke-linejoin:round;stroke-dasharray:none;stroke-opacity:1;paint-order:stroke fill markers"
       d="m 234.67336,740.15339 c -1.62277,1.66779 -3.26431,3.76414 -4.71367,6.05043 -1.44936,2.28628 -2.70639,4.76216 -3.9131,7.63486 -1.20671,2.87269 -2.36302,6.14184 -3.29555,9.93546 -0.93253,3.79361 -1.6413,8.11122 -1.41162,12.33246 0.22968,4.22124 1.3973,8.34548 2.76734,11.324 1.37004,2.97852 2.94182,4.81127 4.47293,6.64885 1.53111,1.83757 3.0215,3.67984 4.61215,5.75891 1.59066,2.07908 3.28154,4.39479 5.25295,5.99705 1.97142,1.60226 4.22287,2.49164 7.80898,3.7675 3.58612,1.27587 8.50668,2.93822 13.30359,4.12278 4.79691,1.18456 9.46996,1.89151 13.24621,2.1968 3.77625,0.30529 6.65565,0.2091 9.89454,0.25063 3.2389,0.0415 6.83702,0.22071 9.72338,0.0293 2.88637,-0.19142 5.06118,-0.75316 7.27569,-1.75929 2.2145,-1.00612 4.46901,-2.45658 6.15446,-4.19441 1.68544,-1.73784 2.80217,-3.76344 3.86313,-6.91509 1.06096,-3.15166 2.06606,-7.42952 2.67978,-11.2304 0.61373,-3.80087 0.83593,-7.12475 0.24546,-11.16123 -0.59046,-4.03648 -1.99394,-8.78558 -3.04345,-12.68594 -1.04952,-3.90036 -1.74492,-6.95174 -2.26623,-10.15359 -0.52131,-3.20185 -0.86835,-6.55388 -2.29488,-10.03307 -1.42653,-3.4792 -3.93313,-7.08539 -8.37273,-9.24879 -4.4396,-2.16341 -10.81221,-2.88291 -16.00258,-3.15655 -5.19036,-0.27364 -9.19805,-0.10125 -13.14855,-0.52354 -3.9505,-0.42229 -7.84372,-1.43956 -12.50234,-1.39438 -4.65863,0.0452 -10.08168,1.15328 -13.59555,2.32689 -3.51388,1.17361 -5.11758,2.41257 -6.74034,4.08036 z"
       id="path2679" />
    <path
       style="fill:none;stroke:#808080;stroke-width:0.3;stroke-linecap:round;stroke-linejoin:round;stroke-dasharray:none;stroke-opacity:1;paint-order:stroke fill markers"
       d="m 301.02858,774.21165 c -0.0722,-1.73604 -0.21666,-5.20916 -0.51985,-8.30012 -0.3032,-3.09095 -0.76527,-5.79972 -1.5604,-8.45655 -0.79514,-2.65682 -1.9236,-5.2616 -3.45467,-6.71706 -1.53107,-1.45545 -3.46525,-1.76048 -5.25557,-2.01802 -1.79032,-0.25755 -3.43664,-0.46756 -4.95161,-0.93644 -1.51497,-0.46889 -2.89859,-1.19711 -4.59194,-1.54255 -1.69334,-0.34544 -3.6961,-0.30743 -5.602,-0.25216 -1.9059,0.0553 -3.7148,0.12779 -5.37855,-0.26055 -1.66374,-0.38834 -3.18246,-1.23822 -5.11628,-1.98792 -1.93382,-0.7497 -4.28261,-1.39882 -6.7716,-1.66263 -2.48898,-0.2638 -5.11778,-0.1419 -7.63333,0.19345 -2.51555,0.33534 -4.91748,0.88423 -7.37387,1.98542 -2.45639,1.10118 -4.96658,2.75456 -6.82473,4.54421 -1.85815,1.78964 -3.06374,3.715 -3.9688,5.80596 -0.90505,2.09096 -1.5095,4.34697 -2.02622,6.60934 -0.51672,2.26237 -0.9457,4.53086 -1.16733,6.68322 -0.22163,2.15235 -0.23603,4.18825 0.25003,6.75033 0.48606,2.56207 1.47215,5.64995 2.88155,7.93539 1.4094,2.28543 3.24131,3.76861 4.80789,4.75433 1.56658,0.98573 2.86764,1.47438 4.54318,2.07888 1.67555,0.60449 3.72548,1.32482 5.83001,1.55895 2.10453,0.23412 4.26385,-0.0174 6.48983,0.0361 2.22598,0.0535 4.51822,0.41176 6.20655,1.04914 1.68833,0.63738 2.7727,1.55309 4.7955,2.07223 2.0228,0.51914 4.98393,0.64254 6.79329,0.78601 1.80937,0.14347 2.46674,0.30675 3.58247,0.43674 1.11573,0.12999 2.68986,0.22692 4.29547,-0.0896 1.60561,-0.31653 3.2432,-1.04622 4.61734,-1.17777 1.37414,-0.13154 2.48401,0.33434 3.80034,0.84594 1.31632,0.51161 2.83903,1.06898 4.56966,1.32398 1.73062,0.255 3.66928,0.20809 5.09124,-0.16081 1.42196,-0.3689 2.32795,-1.05966 3.15268,-2.5148 0.82473,-1.45514 1.5685,-3.67527 1.64881,-6.74189 0.0803,-3.06662 -0.50318,-6.98004 -0.79502,-8.93735 -0.29184,-1.95732 -0.29187,-1.95732 -0.36407,-3.69336 z"
       id="path2683" />
    <path
       style="fill:none;stroke:#4d4d4d;stroke-width:0.7;stroke-linecap:round;stroke-linejoin:round;stroke-dasharray:none;stroke-opacity:1;paint-order:stroke fill markers"
       d="m 230.30554,771.7258 c 0.75054,-1.20976 1.50125,-2.4198 2.32436,-3.42866 0.82311,-1.00886 1.71836,-1.81618 2.39114,-2.38586 0.67277,-0.56968 1.12291,-0.90159 1.89939,-1.0675 0.77647,-0.1659 1.87838,-0.1659 3.2919,-0.0874 1.41351,0.0785 3.13846,0.23532 4.79514,0.81679 1.65668,0.58147 3.24493,1.58689 4.37796,2.31554 1.13304,0.72864 1.81083,1.18045 2.81499,1.22488 1.00416,0.0444 2.3351,-0.31757 3.96385,-0.68138 1.62874,-0.36381 3.55508,-0.72944 4.98447,-1.16706 1.42938,-0.43762 2.36216,-0.94715 3.28301,-0.76477 0.92086,0.18238 1.82906,1.05549 2.91595,1.88061 1.08689,0.82513 2.35225,1.60249 3.51934,2.13055 1.16708,0.52806 2.23581,0.80721 3.60254,0.88774 1.36673,0.0805 3.03165,-0.0372 4.12159,-0.35602 1.08994,-0.31883 1.60579,-0.83879 2.42017,-1.11395 0.81438,-0.27516 1.92627,-0.30546 3.48989,-0.21241 1.56363,0.0931 3.57876,0.3093 4.64391,1.0847 1.06515,0.7754 1.18125,2.10894 1.60257,3.48464 0.42131,1.3757 1.14728,2.79338 2.00147,4.48487 0.8542,1.69149 1.83657,3.65669 2.97892,5.05676 1.14235,1.40007 2.44405,2.23538 3.7446,3.06996"
       id="path2687" />
    <path
       style="fill:none;stroke:#4d4d4d;stroke-width:0.7;stroke-linecap:round;stroke-linejoin:round;stroke-dasharray:none;stroke-opacity:1;paint-order:stroke fill markers"
       d="m 240.70479,787.72716 c 1.21161,-1.40317 2.42328,-2.80641 3.69353,-4.90407 1.27024,-2.09765 2.59915,-4.88995 3.67539,-7.39487 1.07624,-2.50491 1.89977,-4.72242 2.72351,-6.94052"
       id="path2691" />
    <path
       style="fill:none;stroke:#4d4d4d;stroke-width:0.7;stroke-linecap:round;stroke-linejoin:round;stroke-dasharray:none;stroke-opacity:1;paint-order:stroke fill markers"
       d="m 269.36772,793.13313 c 0.1706,-1.38055 0.3413,-2.76196 0.32543,-4.31319 -0.0159,-1.55124 -0.21852,-3.27246 -0.63913,-5.27052 -0.42062,-1.99806 -1.05935,-4.27292 -1.4204,-6.3328 -0.36105,-2.05987 -0.4441,-3.90451 -0.39157,-5.39997 0.0525,-1.49546 0.2408,-2.64144 0.42922,-3.78824"
       id="path2695" />
    <path
       style="fill:none;stroke:#4d4d4d;stroke-width:0.7;stroke-linecap:round;stroke-linejoin:round;stroke-dasharray:none;stroke-opacity:1;paint-order:stroke fill markers"
       d="m 268.62686,748.45871 c 0.0813,1.32468 0.1626,2.6483 -0.0994,4.40153 -0.26199,1.75323 -0.86698,3.93637 -1.332,5.81786 -0.46503,1.88149 -0.79009,3.46113 -1.25086,4.70232 -0.46077,1.2412 -1.05721,2.1444 -1.6535,3.04738"
       id="path2699" />
    <path
       style="fill:none;stroke:#4d4d4d;stroke-width:0.7;stroke-linecap:round;stroke-linejoin:round;stroke-dasharray:none;stroke-opacity:1;paint-order:stroke fill markers"
       d="m 295.41976,763.04185 c -0.82511,1.38498 -1.65004,2.76966 -2.61837,3.97294 -0.96833,1.20329 -2.08024,2.22548 -2.76104,2.80687 -0.68081,0.5814 -0.93078,0.72214 -1.18108,0.86307"
       id="path2703" />
    <path
       style="fill:none;stroke:#4d4d4d;stroke-width:0.7;stroke-linecap:round;stroke-linejoin:round;stroke-dasharray:none;stroke-opacity:1;paint-order:stroke fill markers"
       d="m 235.46178,756.77398 c 0.34712,1.31526 0.69393,2.62932 0.93048,4.01184 0.23654,1.38252 0.36302,2.83355 0.37818,3.58564 0.0152,0.75209 -0.0812,0.80648 -0.51686,0.35335 -0.43567,-0.45314 -1.21115,-1.41504 -2.03263,-2.19677 -0.82148,-0.78174 -1.68917,-1.38296 -2.55801,-1.98498"
       id="path2707" />
    <path
       id="path12435"
       style="display:inline;stroke:#44150b;stroke-width:0.0603059;stroke-linecap:square;stroke-opacity:0"
       class="centro"
       d="M 16.460818,10.821071 A 4.9567978,4.96524 0 0 1 11.504023,15.786313 4.9567978,4.96524 0 0 1 6.5472258,10.821071 4.9567978,4.96524 0 0 1 11.504023,5.8558291 4.9567978,4.96524 0 0 1 16.460818,10.821071 Z"
       transform="matrix(-3.7794823,0,0,3.7794823,310.61956,734.11905)" />
    <path
       style="display:inline;stroke:#44150b;stroke-width:0.1;stroke-linecap:butt;stroke-dasharray:none;stroke-opacity:0"
       d="m 163.68435,757.56662 c 1.16891,0.2827 2.3398,0.5991 3.44322,1.07734 1.31328,0.56919 2.58363,1.26708 3.73761,2.11385 1.22369,0.89792 2.32761,1.96633 3.32738,3.10831 0.64975,0.74217 1.20942,1.56443 1.71644,2.41055 0.50725,0.84652 0.95586,1.73315 1.31682,2.65163 0.43027,1.09485 0.74953,2.23489 1.0023,3.38377 0.13126,0.59665 0.20632,1.20539 0.26513,1.81347 0.0588,0.60812 0.0628,1.48593 0.0872,1.83079 l 25.5696,-0.0216 c 0,0 -0.5049,-1.94708 -0.76466,-2.91869 -0.34288,-1.28254 -0.70697,-2.55935 -1.04789,-3.8424 -0.27807,-1.04647 -0.55724,-2.09282 -0.81367,-3.1448 -0.28052,-1.15077 -0.55551,-2.30338 -0.79285,-3.46383 -0.30242,-1.47863 -0.55,-2.96804 -0.80375,-4.45579 -0.18521,-1.0859 -0.31465,-2.18146 -0.52456,-3.26285 -0.22116,-1.13937 -0.41326,-2.2916 -0.77362,-3.39488 -0.60594,-1.85513 -1.30681,-3.70742 -2.31956,-5.37567 -0.81994,-1.35066 -1.8332,-2.60317 -2.99476,-3.67433 -1.11905,-1.03195 -2.4143,-1.88087 -3.76152,-2.58952 -1.16162,-0.61102 -2.42384,-1.01852 -3.67737,-1.40758 -1.04547,-0.32448 -2.11592,-0.57193 -3.19272,-0.76887 -2.46587,-0.451 -4.9635,-0.72805 -7.4612,-0.94113 -1.89664,-0.1618 -3.80236,-0.19295 -5.70486,-0.25536 -1.43087,-0.0469 -2.86358,-0.03 -4.29398,-0.0895 -1.78253,-0.0741 -5.34183,-0.33287 -5.34183,-0.33287 0,0 -0.0279,10.07939 -0.0349,21.152 0,0 1.69491,0.0716 2.53622,0.17276 0.43722,0.0526 0.87374,0.12175 1.30177,0.22527 z"
       id="path1255"
       class="superior_esquerdo"
       transform="translate(107.25906,-0.91755203)" />
    <path
       style="display:inline;stroke:#44150b;stroke-width:0.1;stroke-linecap:square;stroke-dasharray:none;stroke-opacity:0"
       d="m 154.99329,735.29507 c -1.82414,-0.24123 -3.65105,-0.48325 -5.48737,-0.59986 -0.58416,-0.0371 -1.17041,-0.0359 -1.75574,-0.0315 -0.51208,0.004 -1.02413,0.0226 -1.53545,0.0507 -0.57477,0.0316 -1.14705,0.10073 -1.72181,0.13248 -0.33521,0.0185 -0.67275,-0.002 -1.0066,0.0338 -1.30475,0.13837 -2.5901,0.42645 -3.87419,0.69599 -1.61711,0.33944 -3.23979,0.67507 -4.81961,1.15928 -0.68456,0.20981 -1.3476,0.48537 -2.01122,0.75417 -0.40143,0.1626 -0.80052,0.33201 -1.19116,0.51908 -0.33267,0.15931 -0.66145,0.32785 -0.98035,0.5132 -0.38015,0.22094 -0.7623,0.4435 -1.11002,0.7126 -0.99269,0.76824 -1.89159,1.65499 -2.76423,2.55728 -0.39954,0.41311 -0.76017,0.86237 -1.12793,1.304 -0.20607,0.24746 -0.40599,0.50001 -0.60417,0.75382 -0.20446,0.26184 -0.40549,0.52639 -0.60334,0.79325 -0.24012,0.32387 -0.47738,0.64994 -0.70839,0.98037 -0.13952,0.19956 -0.2749,0.40201 -0.40919,0.60513 -0.25758,0.38962 -0.5299,0.77069 -0.76055,1.17683 -0.29988,0.52806 -0.52043,1.09794 -0.8075,1.63307 -0.40511,0.75517 -0.88195,1.47026 -1.28978,2.22396 -0.29236,0.5403 -0.56516,1.09122 -0.82879,1.6461 -0.13403,0.28209 -0.257,0.56932 -0.38261,0.85526 -0.11115,0.25302 -0.22036,0.50689 -0.32831,0.76129 -0.10677,0.25159 -0.20725,0.50584 -0.31588,0.75663 -0.1024,0.23643 -0.21966,0.46643 -0.3166,0.70515 -0.10373,0.25543 -0.19112,0.51722 -0.2832,0.77708 -0.15471,0.43661 -0.29918,0.8768 -0.4524,1.31394 -0.0997,0.28434 -0.20558,0.56647 -0.30368,0.85135 -0.28678,0.83284 -0.58039,1.66394 -0.83279,2.50784 -0.17683,0.59127 -0.32241,1.19147 -0.47705,1.78894 -0.29645,1.14538 -0.62529,2.28381 -0.8641,3.44258 -0.33059,1.6041 -0.61503,3.22131 -0.78554,4.85022 -0.15341,1.46553 -0.21225,4.41552 -0.21225,4.41552 l 27.07074,-10e-6 c 0.005,-0.34904 0.19329,-3.10043 0.57102,-4.59795 0.37726,-1.49572 0.98976,-2.93203 1.67604,-4.31353 0.31948,-0.64313 0.71525,-1.24788 1.12885,-1.83494 0.48284,-0.68533 1.00632,-1.34465 1.57361,-1.96189 0.56975,-0.61991 1.1724,-1.2153 1.83035,-1.74066 1.02797,-0.82082 2.11894,-1.57811 3.28505,-2.18692 1.17924,-0.61567 2.42613,-1.12672 3.71356,-1.46168 1.61313,-0.4197 4.95563,-0.66847 4.95563,-0.66847 l 0.0349,-21.14822 c 0,0 -1.08644,-0.14051 -1.6285,-0.21905 -1.08815,-0.15767 -2.16944,-0.36209 -3.25947,-0.50624 z"
       id="path3383"
       class="superior_direito"
       transform="translate(107.25906,-0.91755203)" />
    <path
       style="display:inline;stroke:#44150b;stroke-width:0.1;stroke-linecap:square;stroke-dasharray:none;stroke-opacity:0"
       d="m 178.58046,775.93463 c 0,0.58084 -0.0759,1.71998 -0.17706,2.57405 -0.0439,0.3708 -0.11365,0.73836 -0.18641,1.10461 -0.0687,0.34556 -0.14861,0.68897 -0.23591,1.03029 -0.07,0.27364 -0.1496,0.5448 -0.23074,0.81536 -0.031,0.10352 -0.0619,0.20715 -0.098,0.30905 -0.23988,0.67811 -0.49893,1.35013 -0.78644,2.00946 -0.0943,0.21619 -0.20092,0.42683 -0.30735,0.63729 -0.10639,0.21037 -0.21501,0.41976 -0.33096,0.62501 -0.21978,0.38898 -0.44338,0.77658 -0.69091,1.14852 -0.38492,0.57838 -0.79132,1.14412 -1.2327,1.68065 -0.43175,0.52483 -0.90846,1.0114 -1.38071,1.50011 -0.0526,0.0545 -0.10677,0.10745 -0.1618,0.15949 -0.22541,0.21317 -0.44706,0.43157 -0.68938,0.62528 -0.972,0.777 -1.98368,1.51261 -3.05547,2.14489 -0.62672,0.36971 -1.29044,0.6768 -1.9619,0.95719 -0.67119,0.28028 -1.36195,0.51482 -2.05919,0.722 -0.45927,0.13648 -0.92664,0.24616 -1.39602,0.34231 -0.46934,0.0962 -0.94203,0.18002 -1.41805,0.2341 -0.77499,0.088 -2.33532,0.14635 -2.33532,0.14635 l 0.0351,21.46227 c 0,0 3.7674,0.53461 5.66325,0.67713 2.53769,0.19077 5.08671,0.17741 7.63086,0.23712 2.2957,0.0539 4.5918,0.10605 6.88813,0.10929 1.69979,0.002 3.4067,0.0936 5.09894,-0.0665 1.07774,-0.10195 2.14367,-0.3206 3.19772,-0.56738 1.37891,-0.32284 2.79744,-0.58704 4.07796,-1.1919 2.24479,-1.06034 4.44816,-2.3911 6.15446,-4.19442 1.51347,-1.59951 2.51686,-3.64473 3.41316,-5.65611 0.79696,-1.78847 1.22669,-3.72218 1.71035,-5.61951 0.5776,-2.26586 1.04124,-4.56232 1.41941,-6.86986 0.22404,-1.36708 0.40933,-2.74329 0.50219,-4.12549 0.0876,-1.30372 0.11561,-2.61458 0.0511,-3.91964 -0.0816,-1.65017 -0.26813,-3.29818 -0.55326,-4.92558 -0.24343,-1.38943 -0.99944,-3.88062 -0.98546,-4.11544 z"
       id="path8594"
       class="inferior_esquerdo"
       transform="translate(107.25906,-0.91755203)" />
    <path
       style="display:inline;stroke:#44150b;stroke-width:0.0264587;stroke-linecap:square;stroke-dasharray:none;stroke-opacity:0"
       d="m 11.523485,21.465084 c -0.116516,0.0086 -0.697478,-0.116628 -1.04405,-0.186358 -0.322601,-0.06491 -0.643794,-0.137151 -0.9633021,-0.215882 -0.333967,-0.08229 -0.6659086,-0.172909 -0.9964597,-0.268 C 8.160457,20.691508 7.803419,20.580565 7.4475729,20.466161 7.0809231,20.348283 6.7163477,20.223964 6.3525271,20.097624 6.0804871,20.003156 5.8076011,19.910669 5.539162,19.806408 5.2438359,19.691704 4.9455765,19.581418 4.6626666,19.438812 4.465454,19.339403 4.2725061,19.22908 4.0932639,19.100056 4.0163003,19.044655 3.94718,18.978941 3.8777299,18.914371 3.6476063,18.700416 3.4201013,18.482397 3.2121526,18.246832 2.8939456,17.886366 2.6227595,17.486963 2.3249072,17.109504 2.107213,16.833627 1.8877412,16.55915 1.6672318,16.285518 1.382069,15.931657 1.0550698,15.602238 0.80677961,15.227955 0.6336837,14.967023 0.43091806,14.679505 0.27444107,14.386947 0.14519131,14.145294 0.03975053,13.891113 -0.05927153,13.635582 c -0.07732048,-0.199529 -0.14285835,-0.403665 -0.20280595,-0.609083 -0.0622028,-0.213146 -0.1178018,-0.428493 -0.16251934,-0.645981 -0.0582484,-0.283295 -0.10222007,-0.56964 -0.13746164,-0.856707 -0.0144097,-0.117377 -0.0228164,-0.235459 -0.0301933,-0.353486 -0.007268,-0.116283 -0.0138489,-0.349256 -0.0138489,-0.349256 l 7.17537296,1e-6 c 0.012684,1.316858 0.534262,2.579783 1.462676,3.510943 0.9284142,0.93116 2.0999327,1.413454 3.4812927,1.454295 z"
       transform="matrix(3.7794823,0,0,3.7794823,223.5913,734.11904)"
       id="path24007" />
  </g>
</svg>
