<?xml version="1.0" encoding="UTF-8" standalone="no"?>
<svg
   width="87.136169"
   height="96.788048"
   viewBox="0 0 23.054782 25.60881"
   version="1.1"
   id="svg10"
   sodipodi:docname="dente_16_cima_quadrantes_notplain.svg"
   inkscape:version="1.2.2 (732a01da63, 2022-12-09)"
   inkscape:export-filename="dente_16_quadrantes_notplain.svg"
   inkscape:export-xdpi="96"
   inkscape:export-ydpi="96"
   xmlns:inkscape="http://www.inkscape.org/namespaces/inkscape"
   xmlns:sodipodi="http://sodipodi.sourceforge.net/DTD/sodipodi-0.dtd"
   xmlns="http://www.w3.org/2000/svg"
   xmlns:svg="http://www.w3.org/2000/svg">
  <defs
     id="defs14">
    <inkscape:path-effect
       effect="bspline"
       id="path-effect12792"
       is_visible="true"
       lpeversion="1"
       weight="33.333333"
       steps="2"
       helper_size="0"
       apply_no_weight="true"
       apply_with_weight="true"
       only_selected="false" />
    <inkscape:path-effect
       effect="bspline"
       id="path-effect12778"
       is_visible="true"
       lpeversion="1"
       weight="33.333333"
       steps="2"
       helper_size="0"
       apply_no_weight="true"
       apply_with_weight="true"
       only_selected="false" />
    <inkscape:path-effect
       effect="bspline"
       id="path-effect12707"
       is_visible="true"
       lpeversion="1"
       weight="33.333333"
       steps="2"
       helper_size="0"
       apply_no_weight="true"
       apply_with_weight="true"
       only_selected="false" />
    <inkscape:path-effect
       effect="bspline"
       id="path-effect1155"
       is_visible="true"
       lpeversion="1"
       weight="33.333333"
       steps="2"
       helper_size="0"
       apply_no_weight="true"
       apply_with_weight="true"
       only_selected="false" />
    <inkscape:path-effect
       effect="bspline"
       id="path-effect1159"
       is_visible="true"
       lpeversion="1"
       weight="33.333333"
       steps="2"
       helper_size="0"
       apply_no_weight="true"
       apply_with_weight="true"
       only_selected="false" />
    <inkscape:path-effect
       effect="bspline"
       id="path-effect1163"
       is_visible="true"
       lpeversion="1"
       weight="33.333333"
       steps="2"
       helper_size="0"
       apply_no_weight="true"
       apply_with_weight="true"
       only_selected="false" />
    <inkscape:path-effect
       effect="bspline"
       id="path-effect1167"
       is_visible="true"
       lpeversion="1"
       weight="33.333333"
       steps="2"
       helper_size="0"
       apply_no_weight="true"
       apply_with_weight="true"
       only_selected="false" />
    <inkscape:path-effect
       effect="bspline"
       id="path-effect1171"
       is_visible="true"
       lpeversion="1"
       weight="33.333333"
       steps="2"
       helper_size="0"
       apply_no_weight="true"
       apply_with_weight="true"
       only_selected="false" />
    <inkscape:path-effect
       effect="bspline"
       id="path-effect1175"
       is_visible="true"
       lpeversion="1"
       weight="33.333333"
       steps="2"
       helper_size="0"
       apply_no_weight="true"
       apply_with_weight="true"
       only_selected="false" />
    <inkscape:path-effect
       effect="bspline"
       id="path-effect1179"
       is_visible="true"
       lpeversion="1"
       weight="33.333333"
       steps="2"
       helper_size="0"
       apply_no_weight="true"
       apply_with_weight="true"
       only_selected="false" />
  </defs>
  <sodipodi:namedview
     id="namedview12"
     pagecolor="#ffffff"
     bordercolor="#000000"
     borderopacity="0.25"
     inkscape:showpageshadow="2"
     inkscape:pageopacity="0.0"
     inkscape:pagecheckerboard="0"
     inkscape:deskcolor="#d1d1d1"
     showgrid="false"
     showguides="true"
     inkscape:zoom="4"
     inkscape:cx="69.875"
     inkscape:cy="45"
     inkscape:window-width="1920"
     inkscape:window-height="1009"
     inkscape:window-x="-8"
     inkscape:window-y="-8"
     inkscape:window-maximized="1"
     inkscape:current-layer="layer6">
    <inkscape:grid
       type="xygrid"
       id="grid12545" />
    <sodipodi:guide
       position="-2.2416097e-06,12.804405"
       orientation="1,0"
       id="guide12547"
       inkscape:locked="false" />
    <sodipodi:guide
       position="11.527375,12.804405"
       orientation="1,0"
       id="guide12551"
       inkscape:locked="false" />
    <sodipodi:guide
       position="11.527431,12.804415"
       orientation="0,-1"
       id="guide12553"
       inkscape:locked="false" />
  </sodipodi:namedview>
  <g
     inkscape:groupmode="layer"
     id="layer6"
     inkscape:label="Image 6"
     transform="matrix(-0.26458649,0,0,0.26458649,79.248977,-63.167732)"
     inkscape:export-filename="dente_26_quadrantes.svg"
     inkscape:export-xdpi="96"
     inkscape:export-ydpi="96">
    <path
       style="fill:none;stroke:#030303;stroke-width:0.7;stroke-linecap:round;stroke-linejoin:round;stroke-dasharray:none;stroke-opacity:1;paint-order:stroke fill markers"
       d="m 246.98321,244.51253 c -1.93713,0.0407 -5.62952,0.001 -8.65252,0.46983 -3.02301,0.46872 -5.37602,1.44592 -7.68929,2.9457 -2.31328,1.49977 -4.58625,3.52189 -6.96259,6.36086 -2.37634,2.83897 -4.85569,6.49434 -6.72787,10.24841 -1.87218,3.75406 -3.13702,7.6062 -3.74757,12.4957 -0.61055,4.8895 -0.56699,10.81564 -0.19775,16.86734 0.36924,6.05171 1.06401,12.22852 2.01249,17.23947 0.94847,5.01095 2.15033,8.85567 3.89941,11.9415 1.74908,3.08584 4.04466,5.41282 6.74215,7.18537 2.69749,1.77254 5.79652,2.99109 8.93891,3.37201 3.14239,0.38093 6.32833,-0.0752 8.56608,-0.49217 2.23774,-0.41698 3.52737,-0.79474 4.64659,-1.31712 1.11922,-0.52238 2.06842,-1.18939 3.62767,-0.87701 1.55926,0.31238 3.72749,1.60326 6.11545,2.53695 2.38796,0.9337 4.99553,1.51059 7.65673,1.65396 2.6612,0.14336 5.37617,-0.14645 8.04136,-0.77167 2.66518,-0.62521 5.28075,-1.58568 7.70652,-3.05079 2.42576,-1.4651 4.66208,-3.43489 6.67882,-6.12916 2.01675,-2.69427 3.81408,-6.11328 5.13202,-9.69741 1.31795,-3.58413 2.15641,-7.33354 2.78204,-10.75144 0.62563,-3.41789 1.03836,-6.5042 1.34038,-9.45505 0.30203,-2.95085 0.4933,-5.76616 0.61962,-8.76487 0.12633,-2.99871 0.18767,-6.1807 0.56323,-9.71135 0.37556,-3.53065 1.06543,-7.40956 1.09458,-10.34035 0.0292,-2.93079 -0.60292,-4.91371 -1.36046,-7.74275 -0.75754,-2.82904 -1.64039,-6.50397 -3.11093,-9.24446 -1.47054,-2.7405 -3.52945,-4.54617 -5.54929,-5.77426 -2.01984,-1.2281 -4.00064,-1.87802 -6.04829,-2.49778 -2.04765,-0.61976 -4.16203,-1.20927 -6.69263,-1.63884 -2.53059,-0.42957 -5.47712,-0.69896 -8.76446,-0.25089 -3.28733,0.44807 -6.91479,1.61385 -10.03111,2.55149 -3.11631,0.93763 -5.72136,1.64705 -7.11545,2.06218 -1.39409,0.41513 -1.57672,0.53591 -3.51384,0.5766 z"
       id="path1153"
       inkscape:path-effect="#path-effect1155"
       inkscape:original-d="m 248.73746,244.59279 c -3.69139,-0.0386 -7.38378,-0.0782 -11.07717,-0.11874 -2.35211,0.97823 -4.70512,1.95543 -7.05918,2.93165 -2.27205,2.02319 -4.54502,4.04531 -6.81903,6.06646 -2.47846,3.65651 -4.95782,7.31188 -7.43822,10.96632 -1.2639,3.8533 -2.52874,7.70544 -3.79461,11.55666 0.0446,5.92738 0.0881,11.85352 0.13068,17.77878 0.6958,6.17806 1.39058,12.35487 2.08437,18.5308 1.20291,3.84587 2.40477,7.69059 3.60565,11.53438 2.29666,2.32807 4.59224,4.65505 6.88685,6.98108 3.10015,1.2196 6.19918,2.43815 9.29727,3.65572 3.18706,-0.45513 6.373,-0.91125 9.558,-1.36837 1.29068,-0.37678 2.58031,-0.75453 3.86897,-1.1333 0.95023,-0.66604 1.89943,-1.33305 2.84764,-2.00107 2.16932,1.29194 4.33755,2.58282 6.50482,3.87273 2.60867,0.57792 5.21623,1.15482 7.82285,1.73072 2.71607,-0.28882 5.43104,-0.57864 8.14505,-0.86945 2.61668,-0.95951 5.23225,-1.91998 7.84688,-2.88147 2.2374,-1.96886 4.47371,-3.93865 6.70906,-5.90947 1.79841,-3.41815 3.59573,-6.83716 5.3921,-10.25724 0.83949,-3.74855 1.67796,-7.49796 2.51543,-11.24844 0.41374,-3.08542 0.82646,-6.17173 1.23819,-9.25909 0.19227,-2.81442 0.38354,-5.62973 0.57381,-8.44609 0.0623,-3.18111 0.12368,-6.3631 0.18402,-9.54615 0.6909,-3.87807 1.38077,-7.75698 2.06965,-11.63696 -0.6311,-1.982 -1.26317,-3.96492 -1.89626,-5.94888 -0.88189,-3.67409 -1.76474,-7.34902 -2.64861,-11.02503 -2.05799,-1.80474 -4.1169,-3.61041 -6.17685,-5.41711 -1.97987,-0.64895 -3.96067,-1.29887 -5.9425,-1.94981 -2.11346,-0.58852 -4.22784,-1.17803 -6.34326,-1.76854 -2.94566,-0.2684 -5.89219,-0.53778 -8.83979,-0.80818 -3.62661,1.16683 -7.25407,2.33261 -10.88261,3.49742 -2.60415,0.71045 -5.2092,1.41987 -7.8153,2.1283 -0.18163,0.1218 -0.36426,0.24258 -0.5479,0.36237 z"
       transform="translate(-3.1722948e-6)" />
    <path
       style="fill:none;stroke:#808080;stroke-width:0.3;stroke-linecap:round;stroke-linejoin:round;stroke-dasharray:none;stroke-opacity:1;paint-order:stroke fill markers"
       d="m 243.49592,258.79074 c -2.08696,1.05691 -6.26128,3.17091 -9.78664,5.11952 -3.52536,1.9486 -6.40153,3.7317 -8.32474,5.98158 -1.92322,2.24988 -2.89292,4.96565 -3.57094,8.3185 -0.67803,3.35285 -1.06447,7.34221 -1.34144,11.15505 -0.27697,3.81284 -0.44449,7.44885 -0.38924,10.61651 0.0553,3.16765 0.33312,5.86664 1.05148,8.52574 0.71836,2.6591 1.87674,5.27803 3.3179,7.09558 1.44116,1.81756 3.16436,2.83413 5.80317,3.90984 2.63882,1.07571 6.19305,2.2108 8.47914,2.40626 2.28608,0.19547 3.30495,-0.54816 3.9261,-1.54517 0.62116,-0.99701 0.8449,-2.24826 0.97125,-3.15477 0.12636,-0.90651 0.15522,-1.46837 0.42812,-1.76877 0.27289,-0.30041 0.78881,-0.33833 1.52073,0.16018 0.73193,0.49851 1.67978,1.53232 3.10836,2.6562 1.42857,1.12387 3.33759,2.33805 6.05926,3.24573 2.72167,0.90767 6.25584,1.50934 9.20401,1.85306 2.94816,0.34373 5.31028,0.42966 7.35661,-0.0715 2.04633,-0.50114 3.77753,-1.5891 5.86881,-3.64256 2.09129,-2.05346 4.54288,-5.07254 5.95781,-7.35165 1.41493,-2.27911 1.79321,-3.81871 2.10662,-5.78928 0.31341,-1.97056 0.56183,-4.37213 1.2095,-7.41563 0.64767,-3.0435 1.69464,-6.7285 2.49566,-9.94381 0.80102,-3.2153 1.35602,-5.96083 1.80833,-8.29284 0.45232,-2.332 0.8019,-4.25037 0.95646,-6.47472 0.15456,-2.22435 0.11393,-4.75477 -0.139,-6.99799 -0.25293,-2.24322 -0.71839,-4.19927 -1.99249,-6.13364 -1.27409,-1.93438 -3.35748,-3.84675 -5.65902,-5.17857 -2.30154,-1.33182 -4.82124,-2.08243 -7.23575,-2.59056 -2.41452,-0.50813 -4.72362,-0.77352 -7.12859,-0.64704 -2.40498,0.12647 -4.90533,0.64507 -7.10397,1.36943 -2.19864,0.72437 -4.09509,1.6545 -5.7885,2.11967 -1.69342,0.46517 -3.1843,0.46517 -4.65376,0.30591 -1.46946,-0.15926 -2.91759,-0.47802 -3.9858,-0.3209 -1.06821,0.15712 -1.75532,0.79039 -2.09891,1.10705 -0.34359,0.31666 -0.34357,0.31666 -2.43053,1.37356 z"
       id="path1157"
       inkscape:path-effect="#path-effect1159"
       inkscape:original-d="m 245.58288,257.73384 c -4.17331,2.11501 -8.34763,4.22901 -12.52295,6.34202 -2.87528,1.78417 -5.75145,3.56727 -8.62867,5.3494 -0.96874,2.71689 -1.93843,5.43266 -2.90915,8.14749 -0.38546,3.99054 -0.77189,7.97991 -1.15934,11.96837 -0.16654,3.63716 -0.33406,7.27317 -0.50259,10.90825 0.27888,2.70009 0.55674,5.39908 0.83362,8.09712 1.15943,2.62004 2.3178,5.23898 3.47521,7.85697 1.72427,1.01762 3.44747,2.0342 5.16971,3.0498 3.55537,1.13613 7.1096,2.27121 10.66289,3.40532 1.01991,-0.74266 2.03877,-1.48629 3.05665,-2.23093 0.22475,-1.25031 0.44849,-2.50156 0.67124,-3.75384 0.0299,-0.56088 0.0588,-1.12274 0.0866,-1.68561 0.51695,-0.0369 1.03287,-0.0748 1.54781,-0.11378 0.94888,1.03484 1.89672,2.06865 2.84358,3.10147 1.91009,1.21523 3.8191,2.42941 5.72716,3.64262 3.53531,0.60269 7.06948,1.20435 10.60272,1.80503 2.3632,0.0869 4.72531,0.17287 7.08647,0.2578 1.73227,-1.08701 3.46347,-2.17497 5.19371,-3.26395 2.45269,-3.01821 4.90428,-6.03729 7.35492,-9.05744 0.3793,-1.53867 0.75759,-3.07827 1.13488,-4.6189 0.24944,-2.40068 0.49787,-4.80225 0.7453,-7.20488 1.048,-3.68414 2.09497,-7.36914 3.14095,-11.05521 0.55602,-2.74465 1.11102,-5.49018 1.66504,-8.23677 0.3506,-1.91744 0.70019,-3.83581 1.04878,-5.75522 -0.0396,-2.52952 -0.0803,-5.05994 -0.1219,-7.59141 -0.46448,-1.95512 -0.92995,-3.91117 -1.39643,-5.86826 -2.08247,-1.91145 -4.16586,-3.82382 -6.25029,-5.73722 -2.5188,-0.74964 -5.0385,-1.50025 -7.55925,-2.25187 -2.30819,-0.2644 -4.61729,-0.52979 -6.92744,-0.79619 -2.49946,0.51962 -4.99981,1.03822 -7.50122,1.55584 -1.89552,0.93116 -3.79197,1.86129 -5.68945,2.79043 -1.48994,10e-4 -2.98082,10e-4 -4.47272,0 -1.44718,-0.31777 -2.89531,-0.63653 -4.34446,-0.9563 -0.68615,0.6343 -1.37326,1.26757 -2.0614,1.89985 z" />
    <path
       style="fill:none;stroke:#4d4d4d;stroke-width:0.7;stroke-linecap:round;stroke-linejoin:round;stroke-dasharray:none;stroke-opacity:1;paint-order:stroke fill markers"
       d="m 222.69448,283.14228 c 1.35137,1.78772 2.70189,3.57432 3.43834,4.96602 0.73645,1.3917 0.85954,2.38847 0.80207,3.36442 -0.0575,0.97595 -0.29516,1.93142 -0.89339,3.49943 -0.59823,1.56802 -1.55693,3.74872 -2.51544,5.92898"
       id="path1161"
       inkscape:path-effect="#path-effect1163"
       inkscape:original-d="m 222.69448,283.14228 c 1.35152,1.7876 2.70204,3.57421 4.05157,5.35981 0.12409,0.9978 0.24717,1.99457 0.36926,2.99036 -0.23671,0.95651 -0.4744,1.91198 -0.7131,2.86647 -0.95773,2.18178 -1.91643,4.36248 -2.87615,6.54221" />
    <path
       style="fill:none;stroke:#4d4d4d;stroke-width:0.7;stroke-linecap:round;stroke-linejoin:round;stroke-dasharray:none;stroke-opacity:1;paint-order:stroke fill markers"
       d="m 226.92361,291.61152 c 1.31861,-0.36148 2.63657,-0.72277 4.11063,-0.4334 1.47407,0.28938 3.10368,1.22851 4.33805,1.71809 1.23437,0.48959 2.07357,0.53022 3.08707,0.41585 1.01351,-0.11436 2.20158,-0.38351 3.61683,-0.61938 1.41525,-0.23587 3.05746,-0.43851 4.53829,-1.01703 1.48083,-0.57851 2.80086,-1.53285 4.34345,-2.36848 1.54258,-0.83564 3.3073,-1.55245 4.96656,-1.8701 1.65926,-0.31764 3.21242,-0.23638 5.00749,0.1062 1.79507,0.34257 3.83178,0.94612 5.73855,1.43182 1.90677,0.4857 3.68351,0.85364 5.77002,0.99684 2.08651,0.1432 4.48284,0.0619 6.17087,0.0213 1.68802,-0.0406 2.6676,-0.0406 3.85348,0.42999 1.18588,0.4706 2.57784,1.41101 3.96867,2.35065"
       id="path1165"
       inkscape:path-effect="#path-effect1167"
       inkscape:original-d="m 226.92361,291.61152 c 1.31894,-0.36029 2.63689,-0.72159 3.95383,-1.08388 1.63068,0.94018 3.2603,1.87931 4.88896,2.81747 0.84022,0.0416 1.67941,0.0823 2.51762,0.12191 1.18911,-0.26816 2.37718,-0.53731 3.56427,-0.80746 1.64329,-0.20164 3.2855,-0.40428 4.92675,-0.60792 1.32109,-0.95337 2.64112,-1.90771 3.96018,-2.86306 1.76578,-0.71584 3.5305,-1.43265 5.29425,-2.15048 1.55423,0.0823 3.10739,0.16354 4.65959,0.24381 2.0378,0.60458 4.07451,1.20813 6.11027,1.81069 1.77781,0.36895 3.55455,0.73689 5.33032,1.10383 2.39744,-0.0803 4.79378,-0.16154 7.18917,-0.24381 0.98062,10e-4 1.9602,10e-4 2.93881,0 1.393,0.94144 2.78496,1.88184 4.17594,2.82126" />
    <path
       style="fill:none;stroke:#4d4d4d;stroke-width:0.7;stroke-linecap:round;stroke-linejoin:round;stroke-dasharray:none;stroke-opacity:1;paint-order:stroke fill markers"
       d="m 289.74934,276.40348 c -1.53763,1.85397 -3.07517,3.70784 -4.62511,5.77482 -1.54995,2.06697 -3.11217,4.34686 -4.05003,5.74534 -0.93787,1.39848 -1.25132,1.91543 -1.56459,2.43209"
       id="path1169"
       inkscape:path-effect="#path-effect1171"
       inkscape:original-d="m 289.74934,276.40348 c -1.53654,1.85487 -3.07408,3.70874 -4.61263,5.56161 -1.56128,2.28097 -3.1235,4.56085 -4.68675,6.83978 -0.31245,0.51796 -0.6259,1.03491 -0.94035,1.55086" />
    <path
       style="fill:none;stroke:#4d4d4d;stroke-width:0.7;stroke-linecap:round;stroke-linejoin:round;stroke-dasharray:none;stroke-opacity:1;paint-order:stroke fill markers"
       d="m 256.69434,259.79212 c 0.13464,2.56663 0.26922,5.13221 0.17807,7.70671 -0.0911,2.57449 -0.40785,5.158 -0.64749,7.84795 -0.23963,2.68995 -0.40225,5.48612 -0.30922,7.61465 0.093,2.12853 0.44135,3.58908 0.61129,5.29988 0.16994,1.7108 0.16177,3.6719 0.41849,5.3861 0.25671,1.71421 0.77785,3.18121 1.27422,4.13266 0.49637,0.95144 0.96732,1.38752 1.43725,1.82265"
       id="path1173"
       inkscape:path-effect="#path-effect1175"
       inkscape:original-d="m 256.69434,259.79212 c 0.13558,2.56658 0.27016,5.13216 0.40375,7.69674 -0.31572,2.5846 -0.63242,5.16811 -0.95013,7.75066 -0.16162,2.79727 -0.32423,5.59344 -0.48785,8.38866 0.34934,1.46161 0.69766,2.92216 1.04499,4.38174 -0.007,1.96219 -0.0153,3.92329 -0.0245,5.88344 0.52216,1.46806 1.0433,2.93506 1.56345,4.40109 0.47198,0.4371 0.94293,0.87318 1.4129,1.30827" />
    <path
       style="fill:none;stroke:#4d4d4d;stroke-width:0.7;stroke-linecap:round;stroke-linejoin:round;stroke-dasharray:none;stroke-opacity:1;paint-order:stroke fill markers"
       d="m 236.72003,293.50197 c -0.0275,1.47603 -0.055,2.95109 0.10387,4.56053 0.15889,1.60943 0.5039,3.35301 1.13958,4.98547 0.63567,1.63246 1.56148,3.15369 2.55169,4.74983 0.9902,1.59615 2.04474,3.26714 2.67103,4.18139 0.6263,0.91426 0.82397,1.07205 1.02054,1.22896"
       id="path1177"
       inkscape:path-effect="#path-effect1179"
       inkscape:original-d="m 236.72003,293.50197 c -0.0265,1.47605 -0.054,2.95111 -0.0825,4.42516 0.34603,1.74465 0.69105,3.48823 1.03507,5.23085 0.92684,1.52228 1.85265,3.0435 2.77747,4.56376 1.05557,1.67204 2.1101,3.34303 3.16365,5.01304 0.19868,0.15879 0.39635,0.31658 0.59302,0.47337" />
    <path
       style="stroke:#a3c64d;stroke-width:0.0264587;stroke-linecap:round;stroke-linejoin:round;stroke-dasharray:none;stroke-opacity:0;paint-order:stroke fill markers"
       d="m 11.533991,24.88864 c -0.453906,-0.237183 -0.907496,-0.474201 -1.260138,-0.521193 -0.3526411,-0.04699 -0.6037866,0.09642 -0.8999288,0.2181 -0.2961423,0.121682 -0.6417505,0.222917 -1.0680086,0.309327 -0.426258,0.08641 -0.9566621,0.162653 -1.4113469,0.191538 -0.4546848,0.02889 -0.8352816,0.01204 -1.2060991,-0.04877 C 5.3176521,24.976826 4.9300819,24.867281 4.5612767,24.720712 4.1924716,24.574142 3.8490603,24.393506 3.5264241,24.178058 3.2037879,23.96261 2.8809351,23.697061 2.5857773,23.3825 2.2906194,23.067939 2.0087331,22.690519 1.7640916,22.254741 1.5194502,21.818963 1.3103314,21.322381 1.1383467,20.795783 0.96636189,20.269186 0.8315701,19.712581 0.68137716,18.763321 0.53118422,17.814061 0.36562937,16.472165 0.26424097,15.413612 0.16285258,14.355058 0.12564041,13.579588 0.08844151,12.804395 c 0,0 6.06437109,0 6.06437109,0 0.00476,0.130756 0.00953,0.261707 0.03075,0.455708 0.02122,0.194001 0.059125,0.452941 0.1043479,0.667962 0.045223,0.21502 0.098036,0.387975 0.1555837,0.561664 0.057547,0.173688 0.1200868,0.348843 0.221989,0.56427 0.1019021,0.215427 0.2446838,0.474293 0.3760201,0.683681 0.1313363,0.209387 0.2518132,0.370464 0.3857292,0.528794 0.1339159,0.158329 0.2812355,0.313936 0.405589,0.435774 0.1243536,0.121839 0.2255992,0.209834 0.3875931,0.330458 0.1619939,0.120624 0.3839474,0.273342 0.6249815,0.412002 0.2410341,0.138661 0.5008695,0.263138 0.7446948,0.360525 0.2438254,0.09739 0.4716417,0.167739 0.7273097,0.224688 0.255669,0.05695 0.539209,0.100547 0.745556,0.124664 0.206347,0.02412 0.335253,0.02878 0.464431,0.03345 0,0 0.0066,6.700609 0.0066,6.700609 z"
       id="path12774"
       sodipodi:nodetypes="caascscsaaaaaccaaaaaaaaaaaacc"
       inkscape:original-d="m 11.533991,24.88864 c 0,0 -0.907548,-0.474101 -1.361719,-0.711549 C 9.9213911,24.320768 9.6702456,24.46418 9.4188355,24.607327 9.0778743,24.707544 8.7322659,24.808779 8.395158,24.907183 7.8797002,24.98158 7.3492669,25.05762 6.8278616,25.132474 6.4398727,25.11555 6.0592759,25.098701 5.6901287,25.082105 5.3176024,24.977002 4.9300322,24.867457 4.5403415,24.757123 4.19242,24.57424 3.8490087,24.393604 3.5123161,24.216377 3.2037649,23.962638 2.8809122,23.697089 2.5686657,23.440217 2.2455447,23.101604 2.008776,22.690487 1.7284343,22.315225 1.5195802,21.818908 1.3104616,21.322326 1.1010784,20.82548 0.96655118,20.26914 0.8317594,19.712535 0.69670303,19.155665 0.53141268,17.814033 0.36585774,16.472137 0.20003822,15.129975 0.1631039,14.355046 0.08844151,12.804395 0.08844151,12.804395 H 6.1528126 c 0,0 0.00241,0.261966 0.014285,0.392269 0.037906,0.257408 0.075811,0.516348 0.113224,0.773469 0.052981,0.172901 0.1057937,0.345856 0.1584169,0.51879 0.058239,0.175945 0.1249937,0.349595 0.1869611,0.523624 0.1209496,0.268317 0.2845589,0.515695 0.4264415,0.773146 0.1207417,0.161342 0.2412187,0.322419 0.3614312,0.483232 0.1475841,0.155871 0.2949035,0.311478 0.4419584,0.46682 0.1016291,0.08836 0.202873,0.176357 0.3040934,0.264295 0.2227463,0.153346 0.4446997,0.306064 0.6666526,0.458699 0.2601,0.124742 0.5199354,0.249219 0.7795062,0.373431 0.2280813,0.07062 0.4558981,0.140969 0.6834501,0.211056 0.283804,0.04386 0.567344,0.08746 0.85062,0.130795 0.129443,0.0049 0.387535,0.01401 0.387535,0.01401 z"
       inkscape:path-effect="#path-effect12778"
       transform="matrix(3.7794824,0,0,3.7794824,212.38493,238.74134)"
       class="inferior_esquerdo" />
    <path
       style="stroke:#a3c64d;stroke-width:0.1;stroke-linecap:round;stroke-linejoin:round;stroke-dasharray:none;stroke-opacity:0;paint-order:stroke fill markers"
       d="m 275.49549,292.56542 c -0.16158,0.48643 -0.48701,1.46619 -0.96754,2.54189 -0.48052,1.07571 -1.12424,2.26584 -1.79533,3.29385 -0.67109,1.028 -1.3723,1.899 -1.9872,2.58405 -0.6149,0.68505 -1.14364,1.18431 -1.49801,1.50761 -0.35438,0.32329 -0.53448,0.47069 -1.11873,0.86905 -0.58425,0.39835 -1.57278,1.04775 -2.36186,1.51322 -0.78908,0.46548 -1.37891,0.74708 -2.02194,1.01201 -0.64304,0.26493 -1.33944,0.51318 -2.06184,0.7253 -0.72241,0.21212 -1.47097,0.38807 -2.18649,0.51829 -0.71552,0.13023 -1.39967,0.21485 -1.9828,0.26557 -0.58314,0.0507 -1.0684,0.0678 -1.55318,0.0849 0,0 -0.008,25.31328 -0.008,25.31328 0.53396,0.23163 1.06913,0.46378 1.9192,0.75833 0.85008,0.29454 2.01838,0.65279 3.22033,0.92335 1.20196,0.27056 2.44626,0.45557 3.65416,0.54883 1.20789,0.0933 2.38171,0.0953 3.72327,-0.0128 1.34156,-0.10805 2.85102,-0.32604 4.28825,-0.63561 1.43723,-0.30957 2.80242,-0.71066 4.08809,-1.19439 1.28568,-0.48373 2.49204,-1.05009 3.68837,-1.75631 1.19634,-0.70622 2.3829,-1.55237 3.56513,-2.61462 1.18223,-1.06225 2.36035,-2.34078 3.36598,-3.63103 1.00564,-1.29025 1.83891,-2.59244 2.66682,-4.13527 0.8279,-1.54284 1.65065,-3.32683 2.39245,-5.31309 0.74181,-1.98625 1.40246,-4.17392 1.89414,-6.04127 0.49167,-1.86735 0.8126,-3.40826 1.15802,-5.40758 0.34541,-1.99931 0.71616,-4.46197 0.93996,-6.04056 0.22381,-1.5786 0.29972,-2.26671 0.42804,-3.79739 0.12832,-1.53067 0.30992,-3.91503 0.40879,-5.27519 0.0989,-1.36015 0.11543,-1.70184 0.132,-2.04351 0,0 -21.21972,0.009 -21.21972,0.009 -0.001,0.13448 -0.003,0.26908 -0.0511,0.84042 -0.0484,0.57134 -0.1443,1.58307 -0.24505,2.33921 -0.10076,0.75614 -0.20678,1.2608 -0.25967,1.51251 -0.0529,0.25172 -0.053,0.25148 -0.21453,0.73791 z"
       id="path12703"
       sodipodi:nodetypes="aaaaaaaaaaaccaaaaaaaaaascscsaccaaa"
       inkscape:original-d="m 275.65706,292.07899 c -0.26782,0.99124 -0.56337,1.98092 -0.97101,2.92332 -0.63743,1.18135 -1.28115,2.37149 -1.92323,3.55574 -0.7002,0.87199 -1.4014,1.74299 -2.1036,2.61298 -0.52773,0.50026 -1.05647,0.99952 -1.5862,1.49778 -0.1791,0.14839 -0.3592,0.29579 -0.5403,0.44218 -0.98753,0.65039 -1.97606,1.29979 -2.96559,1.94818 -0.58882,0.2826 -1.17864,0.56421 -1.76946,0.84481 -0.6954,0.24925 -1.3918,0.49751 -2.0892,0.74476 -0.74756,0.17695 -1.49613,0.3529 -2.24569,0.52785 -0.68162,0.0854 -1.36576,0.17007 -2.04786,0.25331 -0.48356,0.0384 -1.45435,0.0513 -1.45435,0.0513 l -0.008,25.31328 c 0,0 1.06892,0.46426 1.60188,0.69489 1.16721,0.35861 2.3355,0.71687 3.49862,1.07284 1.24087,0.18535 2.48517,0.37035 3.72625,0.55403 1.17483,0.003 2.34865,0.005 3.52148,0.006 1.51045,-0.21698 3.01991,-0.43496 4.52836,-0.65395 1.3662,-0.40009 2.73139,-0.80118 4.09559,-1.20327 1.20736,-0.56536 2.41372,-1.13172 3.61908,-1.69907 1.18756,-0.84515 2.37412,-1.69131 3.55968,-2.53846 1.17913,-1.27752 2.35725,-2.55605 3.53437,-3.83557 0.83427,-1.30119 1.66754,-2.60339 2.49981,-3.90658 0.82359,-1.78266 1.64633,-3.56666 2.46776,-5.35097 0.66217,-2.18839 1.32282,-4.37606 1.9839,-6.56946 0.32224,-1.54142 0.64317,-3.08233 0.96259,-4.62181 0.37138,-2.45922 0.74212,-4.92188 1.11267,-7.39084 0.077,-0.68828 0.15294,-1.37639 0.22771,-2.06421 0.18185,-2.37357 0.36345,-4.75793 0.54355,-7.13668 0.0213,-0.34141 0.0497,-1.025 0.0497,-1.025 l -21.21972,0.009 c 0,0 0.003,0.26914 -0.004,0.40344 -0.0945,1.00842 -0.19033,2.02015 -0.28689,3.02767 -0.10487,0.5049 -0.21089,1.00956 -0.31782,1.51275 z"
       inkscape:path-effect="#path-effect12707"
       class="inferior_direito" />
    <path
       id="path12435"
       style="opacity:1;stroke:#a3c64d;stroke-width:0.247;stroke-linecap:square;stroke-dasharray:none;stroke-opacity:0"
       class="centro"
       d="m 276.26573,287.13536 a 20.313172,20.347337 0 0 1 -20.31318,20.34734 20.313172,20.347337 0 0 1 -20.31317,-20.34734 20.313172,20.347337 0 0 1 20.31317,-20.34734 20.313172,20.347337 0 0 1 20.31318,20.34734 z"
       transform="translate(-3.1722948e-6)" />
    <path
       style="stroke:#a3c64d;stroke-width:0.0264587;stroke-linecap:square;stroke-dasharray:none;stroke-opacity:0"
       d="m 11.527388,7.4207727 3e-6,-6.46158097 C 10.93036,1.1189661 10.480775,1.2681297 9.9548578,1.4133614 9.860338,1.439463 9.7672379,1.4729196 9.6703997,1.488335 8.745304,1.6355983 7.7831215,1.465944 6.8648976,1.6512908 6.2116779,1.7831454 5.5541018,1.979616 4.9803814,2.3186243 4.2873696,2.7281213 3.7068531,3.3184871 3.1761582,3.9237276 2.4056694,4.8024454 1.716162,5.7728082 1.2081057,6.8252704 0.74343391,7.7878596 0.4405203,8.833638 0.2498374,9.8853689 0.07599184,10.844232 0.07151551,11.822147 0.08844151,12.804395 c 3.08618079,2.65e-4 2.90892469,0.0022 6.06467389,0.002 0.02261,-0.198192 0.019458,-0.599472 0.073863,-0.89324 0.076849,-0.41496 0.1824282,-0.830051 0.3544276,-1.215426 C 6.8064379,10.193495 7.0950179,9.7089447 7.4554136,9.2906371 7.8195555,8.8679813 8.2581774,8.5032763 8.7308635,8.206957 9.1312526,7.9559596 9.5735124,7.76453 10.027847,7.6345641 10.513278,7.4957028 10.881725,7.4841255 11.527388,7.4207727 Z"
       id="path12637"
       sodipodi:nodetypes="ccaaaaaaaccaaaaac"
       transform="matrix(3.7794824,0,0,3.7794824,212.38493,238.74134)"
       class="superior_esquerdo" />
    <path
       style="stroke:#a3c64d;stroke-width:0.0264587;stroke-linecap:round;stroke-linejoin:round;stroke-dasharray:none;stroke-opacity:0;paint-order:stroke fill markers"
       d="M 22.680575,9.6517813 C 22.771826,9.1387115 22.954357,8.1124044 22.96207,7.3369572 22.969784,6.56151 22.802546,6.0368563 22.602111,5.2883311 22.401677,4.5398059 22.168087,3.5674692 21.779002,2.8423711 21.389917,2.1172731 20.845157,1.6395174 20.310734,1.3145803 19.776312,0.98964322 19.252219,0.81768174 18.710438,0.6537013 18.168658,0.48972085 17.60922,0.33374624 16.93966,0.22008735 16.2701,0.10642846 15.490488,0.03515225 14.620703,0.15370549 c -0.869786,0.11855324 -1.827887,0.42646477 -2.359271,0.59263575 -0.531383,0.16617098 -0.632778,0.18952599 -0.734041,0.21285049 0,0 -6e-6,6.46158097 -6e-6,6.46158097 0.09822,0.0027 0.196536,0.0054 0.357154,0.01993 0.160618,0.014527 0.426578,0.045947 0.599085,0.076882 0.172507,0.030935 0.398976,0.086351 0.636695,0.1616226 0.23772,0.075272 0.479181,0.1678982 0.648618,0.2454096 0.169438,0.077511 0.404469,0.2045349 0.593527,0.3220283 0.189057,0.1174933 0.372151,0.2473723 0.490272,0.3420381 0.118121,0.094666 0.175537,0.1578541 0.24605,0.2222584 0.07051,0.064404 0.160465,0.1358707 0.204641,0.1712267 0.04418,0.035356 0.04636,0.037561 0.07145,0.063963 0.02509,0.026402 0.07153,0.075356 0.143868,0.1536302 0.07234,0.078274 0.168424,0.1835547 0.25493,0.2947829 0.08651,0.1112281 0.163754,0.228969 0.214374,0.3061308 0.05062,0.077162 0.07432,0.1133079 0.102916,0.1569068 0.02859,0.043599 0.06181,0.09425 0.09873,0.1505475 0.03692,0.0563 0.0778,0.118638 0.163063,0.324418 0.08526,0.205781 0.243021,0.630072 0.316811,0.876475 0.07379,0.246402 0.134536,0.54656 0.169777,0.802219 0.03524,0.255659 0.04861,0.468524 0.06271,0.693153 0,0 5.614351,2.3e-5 5.614351,2.3e-5 0.02433,-0.879848 0.05239,-1.894662 0.06268,-2.267103 0.0103,-0.372441 0.01024,-0.372464 0.10149,-0.8855337 z"
       id="path12788"
       sodipodi:nodetypes="ccccccccccccscsaascsaaaaaasccccc"
       inkscape:original-d="M 22.589325,10.164851 C 22.77213,9.1387656 22.95466,8.1124584 23.136928,7.0858681 22.969948,6.5614577 22.80271,6.0368039 22.635203,5.5118749 22.401867,4.5397603 22.168277,3.5674235 21.934417,2.5948009 21.389901,2.1172911 20.845141,1.6395352 20.300106,1.1615069 19.776259,0.98980343 19.252166,0.81784338 18.727801,0.64561345 18.168608,0.48989901 17.609171,0.33392263 17.04946,0.17768166 16.270078,0.10666666 15.490466,0.03539234 14.710571,-0.03615185 13.751019,0.2725756 12.792918,0.5804872 11.831179,0.88921823 c -0.101059,0.0236031 -0.303788,0.0699735 -0.303788,0.0699735 l -6e-6,6.46158097 c 0,0 0.196529,0.00566 0.29466,0.0081 0.223085,0.026588 0.489045,0.058007 0.667268,0.078828 0.166772,0.041008 0.393241,0.096424 0.622483,0.1523178 0.246188,0.094603 0.487649,0.1872294 0.667012,0.2558713 0.159516,0.086333 0.394547,0.2133561 0.591351,0.3195982 0.189187,0.1176198 0.36442,0.2585804 0.545092,0.386665 0.06225,0.055159 0.113035,0.1243726 0.167792,0.184661 0.08623,0.068566 0.176181,0.1400319 0.262161,0.2082894 0.0024,0.00242 0.0046,0.00461 0.0065,0.00656 0.04827,0.050862 0.09471,0.099818 0.142051,0.1497331 0.09734,0.1066276 0.193426,0.2119087 0.289662,0.3173783 0.08609,0.110878 0.154074,0.2346975 0.231016,0.3521088 0.0243,0.036911 0.048,0.07306 0.07191,0.1096522 0.03321,0.050647 0.06643,0.1012952 0.09964,0.1519422 0.04063,0.06195 0.08845,0.119741 0.121889,0.185852 0.169588,0.335331 0.28805,0.774236 0.392892,1.056645 0.04279,0.21041 0.103541,0.510567 0.158978,0.785532 0.01509,0.236378 0.04231,0.673888 0.04231,0.673888 l 5.614351,2.3e-5 c 0,0 0.05266,-1.894654 0.07298,-2.639544 z"
       inkscape:path-effect="#path-effect12792"
       transform="matrix(3.7794824,0,0,3.7794824,212.38493,238.74134)"
       class="superior_direito" />
  </g>
</svg>
