<?xml version="1.0" encoding="UTF-8" standalone="no"?><svg   width="54.87112"   height="66.227257"   viewBox="0 0 14.517986 17.522838"   version="1.1"   id="svg10"   xmlns="http://www.w3.org/2000/svg"   xmlns:svg="http://www.w3.org/2000/svg">  <defs     id="defs14" />  <g     id="layer10"     transform="matrix(-0.26458649,0,0,0.26458649,97.855359,-68.142767)">    <path       style="fill:none;stroke:#030303;stroke-width:0.7;stroke-linecap:round;stroke-linejoin:round;stroke-dasharray:none;stroke-opacity:1;paint-order:stroke fill markers"       d="m 331.81393,263.28744 c -1.36725,0.332 -4.10244,0.99619 -6.15249,1.40222 -2.05004,0.40603 -3.41504,0.55383 -4.66248,0.99741 -1.24744,0.44358 -2.3766,1.18297 -3.20054,2.26919 -0.82395,1.08622 -1.34219,2.51846 -1.71279,4.35225 -0.37059,1.83378 -0.59363,4.06865 -0.70191,6.66693 -0.10828,2.59828 -0.10188,5.55969 0.24411,8.81987 0.34598,3.26018 1.0313,6.81877 1.76149,9.73977 0.73019,2.921 1.50502,5.20418 2.68475,7.97811 1.17973,2.77392 2.76411,6.03841 4.52986,8.6854 1.76575,2.64699 3.71237,4.67652 6.01056,6.14546 2.29818,1.46894 4.94756,2.37783 8.16328,2.80782 3.21573,0.42998 6.99781,0.38146 10.24271,-0.41655 3.24489,-0.79801 5.95309,-2.34529 7.8735,-3.87975 1.92041,-1.53447 3.05335,-3.05637 4.40627,-5.37449 1.35291,-2.31812 2.92578,-5.43254 4.10042,-8.53526 1.17464,-3.10271 1.95096,-6.19386 2.55575,-9.44975 0.60478,-3.2559 1.03793,-6.67651 1.28066,-10.0768 0.24273,-3.4003 0.29495,-6.7802 0.23052,-9.36852 -0.0644,-2.58832 -0.2456,-4.38504 -0.73303,-5.55156 -0.48743,-1.16652 -1.2821,-1.70248 -3.08715,-2.60508 -1.80504,-0.9026 -4.6204,-2.17155 -7.22419,-3.51431 -2.6038,-1.34275 -4.99584,-2.75939 -6.91364,-3.83116 -1.91781,-1.07177 -3.3613,-1.79851 -4.56879,-2.22145 -1.20749,-0.42294 -2.17882,-0.54159 -3.62747,-0.33782 -1.44865,0.20376 -3.37409,0.73024 -5.14244,1.61172 -1.76834,0.88149 -3.37897,2.11784 -4.18437,2.73609 -0.8054,0.61825 -0.80535,0.61825 -2.17259,0.95026 z"       id="path1293" />    <path       style="fill:none;stroke:#808080;stroke-width:0.3;stroke-linecap:round;stroke-linejoin:round;stroke-dasharray:none;stroke-opacity:1;paint-order:stroke fill markers"       d="m 325.68048,273.06138 c -1.02256,1.04093 -1.9745,2.38999 -2.68742,3.43805 -0.71291,1.04805 -1.18675,1.79501 -1.06728,3.50106 0.11947,1.70604 0.83174,4.37012 1.39778,6.76145 0.56605,2.39132 0.98592,4.50978 1.47768,6.56183 0.49176,2.05205 1.05527,4.03753 1.71636,6.16606 0.66109,2.12853 1.41965,4.39996 3.00298,6.5077 1.58332,2.10773 3.99062,4.05198 6.55394,5.33612 2.56332,1.28413 5.28244,1.9087 7.70295,2.22086 2.42052,0.31216 4.54248,0.31216 6.42944,0.14013 1.88696,-0.17203 3.53906,-0.51593 4.70005,-1.27493 1.16099,-0.759 1.83175,-1.93353 2.63022,-3.82938 0.79847,-1.89584 1.72462,-4.51311 2.45604,-6.74143 0.73142,-2.22831 1.26806,-4.06762 1.85885,-6.17784 0.5908,-2.11022 1.2357,-4.49124 1.44941,-7.329 0.2137,-2.83776 -0.004,-6.13245 -0.37274,-8.62232 -0.36867,-2.48988 -0.88852,-4.17494 -2.0542,-5.57342 -1.16568,-1.39848 -2.97791,-2.50984 -5.06139,-3.23287 -2.08348,-0.72304 -4.43802,-1.05715 -7.94453,-1.15694 -3.5065,-0.0998 -8.1646,0.0349 -11.51983,0.20718 -3.35522,0.17225 -5.40732,0.38208 -6.98014,0.8532 -1.57282,0.47112 -2.66561,1.20356 -3.68817,2.24449 z"       id="path1297" />    <path       style="fill:none;stroke:#4d4d4d;stroke-width:0.7;stroke-linecap:round;stroke-linejoin:round;stroke-dasharray:none;stroke-opacity:1;paint-order:stroke fill markers"       d="m 329.88784,279.81973 c 0.46546,1.74846 0.9306,3.49574 1.88609,5.43664 0.95549,1.94089 2.40079,4.07534 3.92299,5.27916 1.52219,1.20381 3.12082,1.47789 5.19748,1.66444 2.07667,0.18654 4.63134,0.2857 6.75105,-0.0914 2.11971,-0.37713 3.805,-1.23028 5.35969,-2.65241 1.55468,-1.42212 2.97921,-3.41351 4.03773,-5.02935 1.05853,-1.61584 1.75105,-2.85619 2.44378,-4.09691"       id="path1301" />    <path       style="fill:none;stroke:#4d4d4d;stroke-width:0.7;stroke-linecap:round;stroke-linejoin:round;stroke-dasharray:none;stroke-opacity:1;paint-order:stroke fill markers"       d="m 355.80248,299.50414 c -0.99552,-2.33954 -1.99156,-4.68029 -2.79639,-6.08469 -0.80483,-1.4044 -1.41905,-1.87209 -2.03438,-2.34063"       id="path1305" />    <path       style="fill:none;stroke:#4d4d4d;stroke-width:0.7;stroke-linecap:round;stroke-linejoin:round;stroke-dasharray:none;stroke-opacity:1;paint-order:stroke fill markers"       d="m 329.6981,299.06386 c 0.84005,-1.76112 1.6803,-3.52266 2.63273,-4.90812 0.95244,-1.38545 2.0168,-2.39433 3.08114,-3.40319"       id="path1309" />    <path       style="stroke:#777536;stroke-width:0.0264587;stroke-linecap:round;stroke-linejoin:round;stroke-dasharray:none;stroke-opacity:0;paint-order:stroke fill markers"       d="m 14.289679,8.1540825 c 0.02268,-0.2595892 0.04534,-0.5189391 0.06796,-0.9592972 0.02262,-0.4403581 0.04516,-1.0614156 0.04324,-1.641491 -0.0019,-0.5800754 -0.02832,-1.1188744 -0.08175,-1.5014608 C 14.265703,3.6692471 14.184974,3.4423757 14.013791,3.242383 13.842609,3.0423902 13.579175,2.8675169 13.091654,2.6050794 12.604133,2.3426419 11.891898,1.9922786 11.283765,1.6759608 10.675633,1.359643 10.171606,1.0773512 9.6238844,0.80595319 9.0761632,0.5345552 8.4847439,0.27408694 8.0832934,0.16810676 7.681843,0.06212657 7.4702939,0.11086414 7.2589381,0.15955717 c 0,0 0,6.42341533 0,6.42341533 0.093249,0.00197 0.1867685,0.00394 0.3376566,0.028679 0.150888,0.02474 0.3593755,0.072187 0.5544692,0.1604292 0.1950936,0.088242 0.3767865,0.217127 0.4955751,0.3123789 0.1187886,0.095252 0.1747209,0.1568072 0.2520947,0.2538927 0.077374,0.097085 0.1762214,0.2296831 0.2385502,0.3282576 0.062329,0.098575 0.088232,0.1631032 0.1142664,0.2237756 0.026034,0.060672 0.052181,0.1174882 0.08119,0.2178034 0.029009,0.1003152 0.060685,0.2429083 0.078146,0.3600612 0.01746,0.117153 0.020162,0.2046537 0.022895,0.2931827 0,0 4.7855449,-4.106e-4 4.7855449,-4.106e-4 0,0 0.07035,-0.6069394 0.07035,-0.6069394 z"       id="path12788"       class="superior_direito"       transform="matrix(3.7794824,0,0,3.7794824,314.97233,257.54439)" />    <path       style="stroke:#777536;stroke-width:0.0264587;stroke-linecap:round;stroke-linejoin:round;stroke-dasharray:none;stroke-opacity:0;paint-order:stroke fill markers"       d="m 7.2589351,10.939874 c 0,0 3e-6,6.48923 3e-6,6.48923 C 6.9229874,17.404721 6.5873193,17.380358 6.3794205,17.361297 6.1715218,17.342236 6.0916586,17.328466 5.892707,17.280113 5.6937554,17.231759 5.3759469,17.148856 5.0635893,17.032357 4.7512317,16.915859 4.4455589,16.766189 4.1792034,16.602924 3.912848,16.439659 3.6869366,16.263334 3.422134,15.992645 3.1573315,15.721956 2.8528214,15.355898 2.5009317,14.790068 2.149042,14.224238 1.7495293,13.458226 1.3907383,12.566578 1.0319473,11.674931 0.71394572,10.657652 0.53439231,10.002496 0.35483891,9.3473396 0.3137502,9.0540328 0.27270294,8.7610219 c 0,0 4.80920416,0.00339 4.80920416,0.00339 0.00584,0.145119 0.011764,0.2923163 0.047708,0.4468437 0.035944,0.1545273 0.1035491,0.3242388 0.1708809,0.4751962 0.067332,0.1509574 0.1363535,0.2874881 0.2546691,0.4344242 0.1183157,0.146936 0.2940435,0.314108 0.4796317,0.440258 0.1855882,0.126149 0.395568,0.221166 0.5577179,0.275379 0.16215,0.05421 0.2862573,0.07122 0.3904705,0.08217 0.1042132,0.01095 0.1901144,0.01607 0.2759531,0.02118"       id="path12774"       class="inferior_esquerdo"       transform="matrix(3.7794824,0,0,3.7794824,314.97233,257.54439)" />    <ellipse       style="stroke:#777536;stroke-width:0.0264587;stroke-linecap:square;stroke-dasharray:none;stroke-opacity:0"       id="path12435"       cx="7.2589931"       cy="8.7614202"       rx="2.1747899"       ry="2.1784477"       class="centro"       transform="matrix(3.7794824,0,0,3.7794824,314.97233,257.54439)" />    <path       style="stroke:#777536;stroke-width:0.0264587;stroke-linecap:square;stroke-dasharray:none;stroke-opacity:0"       d="M 7.2589381,6.5829725 V 0.15955733 c -0.597031,0.1597744 -0.5547632,0.15080612 -0.5547632,0.15080612 0,0 -0.5851583,0.23786721 -0.858799,0.39373344 C 5.5584281,0.86754288 5.3192689,1.1071865 5.030897,1.2681067 4.8482685,1.370019 4.6544034,1.4532089 4.4560591,1.5195326 4.1638404,1.6172467 3.8574861,1.6662657 3.5566857,1.733041 3.1966672,1.8129623 2.835351,1.8871576 2.4732375,1.9569758 2.393266,1.9723949 2.3125074,1.9836476 2.2327271,2.000027 2.0387946,2.0398426 1.8391494,2.0637015 1.6541468,2.1341936 1.4195648,2.2235771 1.1695454,2.3166225 0.99332254,2.4954063 0.65915306,2.8344322 0.48259081,3.3085541 0.32650899,3.7582721 c -0.0598912,0.1725642 -0.0764263,0.3576865 -0.0993501,0.5389042 -0.0323173,0.2554759 -0.0371708,0.513687 -0.0535333,0.7706785 -0.0479485,0.7530866 -0.16899546,1.506407 -0.13081267,2.2600518 0.02448055,0.4831925 0.07335735,0.4591356 0.22988993,1.4331153 3.08618095,2.65e-4 1.65575135,2.6e-4 4.81150035,0 0.01153,-1.211643 0.9808468,-2.1879384 2.1747349,-2.1780494 z"       id="path12637"       class="superior_esquerdo"       transform="matrix(3.7794824,0,0,3.7794824,314.97233,257.54439)" />    <path       style="stroke:#777536;stroke-width:0.0264587;stroke-linecap:round;stroke-linejoin:round;stroke-dasharray:none;stroke-opacity:0;paint-order:stroke fill markers"       d="m 9.3872911,9.201681 c -0.00874,0.036132 -0.026249,0.1084919 -0.051048,0.1882124 -0.024799,0.07972 -0.05695,0.1671 -0.085752,0.2374633 -0.028802,0.070363 -0.054139,0.1234793 -0.077731,0.1684303 -0.023592,0.044951 -0.045256,0.081415 -0.070656,0.1251984 -0.0254,0.043784 -0.054582,0.094972 -0.1101411,0.1639096 -0.05556,0.06894 -0.1375531,0.155843 -0.1936969,0.215454 -0.056144,0.05961 -0.085389,0.09081 -0.154691,0.145898 -0.069302,0.05508 -0.1759289,0.132165 -0.3066157,0.205945 -0.1306869,0.07378 -0.2887479,0.143238 -0.4100461,0.179603 -0.1212982,0.03636 -0.2860259,0.06462 -0.4087566,0.08166 -0.1227307,0.01704 -0.1877323,0.02151 -0.2592209,0.02642 0,0 3.8e-6,6.48923 3.8e-6,6.48923 0.2711803,-0.0097 0.5419365,-0.01932 0.9224445,-0.07617 0.380508,-0.05684 0.8672671,-0.160279 1.1274994,-0.218158 0.2602323,-0.05788 0.2846189,-0.06691 0.4958956,-0.171078 0.2112766,-0.104166 0.4993096,-0.249372 0.8174216,-0.456424 0.318112,-0.207052 0.616688,-0.450924 0.856803,-0.693265 0.240115,-0.24234 0.421825,-0.483211 0.697174,-0.964147 0.275348,-0.480935 0.644334,-1.201954 0.936598,-1.898089 0.292263,-0.696135 0.507774,-1.36737 0.645999,-1.848235 0.138226,-0.480865 0.198863,-0.770022 0.249484,-1.034181 0.05062,-0.2641578 0.08957,-0.4942027 0.123591,-0.7115171 0.03402,-0.2173145 0.06052,-0.4054287 0.08748,-0.596823 0,0 -4.7855444,-0.00162 -4.7855444,-0.00162 -0.00896,0.1144929 -0.01794,0.2292281 -0.024241,0.2969039 -0.0063,0.067676 -0.00993,0.088599 -0.011719,0.09892 -0.00179,0.010321 -0.00179,0.010325 -0.010535,0.046457 z"       id="path12703"       class="inferior_direito"       transform="matrix(3.7794824,0,0,3.7794824,314.97233,257.54439)" />  </g></svg>