<?xml version="1.0" encoding="UTF-8" standalone="no"?>
<svg
   width="54.87112"
   height="66.227264"
   viewBox="0 0 14.517986 17.52284"
   version="1.1"
   id="svg10"
   sodipodi:docname="dente_15_quadrantes_noplain.svg"
   inkscape:version="1.2.2 (732a01da63, 2022-12-09)"
   inkscape:export-filename="dente_15_quadrantes.svg"
   inkscape:export-xdpi="96"
   inkscape:export-ydpi="96"
   xmlns:inkscape="http://www.inkscape.org/namespaces/inkscape"
   xmlns:sodipodi="http://sodipodi.sourceforge.net/DTD/sodipodi-0.dtd"
   xmlns="http://www.w3.org/2000/svg"
   xmlns:svg="http://www.w3.org/2000/svg">
  <defs
     id="defs14">
    <inkscape:path-effect
       effect="bspline"
       id="path-effect12792"
       is_visible="true"
       lpeversion="1"
       weight="33.333333"
       steps="2"
       helper_size="0"
       apply_no_weight="true"
       apply_with_weight="true"
       only_selected="false" />
    <inkscape:path-effect
       effect="bspline"
       id="path-effect12778"
       is_visible="true"
       lpeversion="1"
       weight="33.333333"
       steps="2"
       helper_size="0"
       apply_no_weight="true"
       apply_with_weight="true"
       only_selected="false" />
    <inkscape:path-effect
       effect="bspline"
       id="path-effect12707"
       is_visible="true"
       lpeversion="1"
       weight="33.333333"
       steps="2"
       helper_size="0"
       apply_no_weight="true"
       apply_with_weight="true"
       only_selected="false" />
    <inkscape:path-effect
       effect="bspline"
       id="path-effect1295"
       is_visible="true"
       lpeversion="1"
       weight="33.333333"
       steps="2"
       helper_size="0"
       apply_no_weight="true"
       apply_with_weight="true"
       only_selected="false" />
    <inkscape:path-effect
       effect="bspline"
       id="path-effect1299"
       is_visible="true"
       lpeversion="1"
       weight="33.333333"
       steps="2"
       helper_size="0"
       apply_no_weight="true"
       apply_with_weight="true"
       only_selected="false" />
    <inkscape:path-effect
       effect="bspline"
       id="path-effect1303"
       is_visible="true"
       lpeversion="1"
       weight="33.333333"
       steps="2"
       helper_size="0"
       apply_no_weight="true"
       apply_with_weight="true"
       only_selected="false" />
    <inkscape:path-effect
       effect="bspline"
       id="path-effect1307"
       is_visible="true"
       lpeversion="1"
       weight="33.333333"
       steps="2"
       helper_size="0"
       apply_no_weight="true"
       apply_with_weight="true"
       only_selected="false" />
    <inkscape:path-effect
       effect="bspline"
       id="path-effect1311"
       is_visible="true"
       lpeversion="1"
       weight="33.333333"
       steps="2"
       helper_size="0"
       apply_no_weight="true"
       apply_with_weight="true"
       only_selected="false" />
  </defs>
  <sodipodi:namedview
     id="namedview12"
     pagecolor="#ffffff"
     bordercolor="#000000"
     borderopacity="0.25"
     inkscape:showpageshadow="2"
     inkscape:pageopacity="0.0"
     inkscape:pagecheckerboard="0"
     inkscape:deskcolor="#d1d1d1"
     showgrid="false"
     showguides="true"
     inkscape:zoom="8.0000004"
     inkscape:cx="21.687499"
     inkscape:cy="41.249998"
     inkscape:window-width="1920"
     inkscape:window-height="1009"
     inkscape:window-x="-8"
     inkscape:window-y="-8"
     inkscape:window-maximized="1"
     inkscape:current-layer="layer10">
    <inkscape:grid
       type="xygrid"
       id="grid12545"
       originx="-27.467575"
       originy="7.7030735" />
    <sodipodi:guide
       position="-27.467561,-2.9846388"
       orientation="1,0"
       id="guide12547"
       inkscape:locked="false" />
    <sodipodi:guide
       position="-15.940184,-2.9846388"
       orientation="1,0"
       id="guide12551"
       inkscape:locked="false" />
    <sodipodi:guide
       position="-15.940128,-2.9846288"
       orientation="0,-1"
       id="guide12553"
       inkscape:locked="false" />
    <sodipodi:guide
       position="7.2589381,8.7618181"
       orientation="1,0"
       id="guide13350"
       inkscape:locked="false" />
    <sodipodi:guide
       position="7.2589381,8.7618181"
       orientation="0,-1"
       id="guide13352"
       inkscape:locked="false" />
    <sodipodi:guide
       position="7.2589381,8.7618181"
       orientation="-0.70710678,-0.70710678"
       id="guide13354"
       inkscape:locked="false" />
    <sodipodi:guide
       position="7.2589381,8.7618181"
       orientation="0.70710678,-0.70710678"
       id="guide13356"
       inkscape:locked="false" />
  </sodipodi:namedview>
  <g
     inkscape:groupmode="layer"
     id="layer10"
     inkscape:label="Image 10"
     transform="matrix(0.26458649,0,0,0.26458649,-83.337425,-68.142767)"
     sodipodi:insensitive="true"
     inkscape:export-filename="dente_25_quadrante.svg"
     inkscape:export-xdpi="96"
     inkscape:export-ydpi="96">
    <path
       style="fill:none;stroke:#030303;stroke-width:0.7;stroke-linecap:round;stroke-linejoin:round;stroke-dasharray:none;stroke-opacity:1;paint-order:stroke fill markers"
       d="m 331.81393,263.28744 c -1.36725,0.332 -4.10244,0.99619 -6.15249,1.40222 -2.05004,0.40603 -3.41504,0.55383 -4.66248,0.99741 -1.24744,0.44358 -2.3766,1.18297 -3.20054,2.26919 -0.82395,1.08622 -1.34219,2.51846 -1.71279,4.35225 -0.37059,1.83378 -0.59363,4.06865 -0.70191,6.66693 -0.10828,2.59828 -0.10188,5.55969 0.24411,8.81987 0.34598,3.26018 1.0313,6.81877 1.76149,9.73977 0.73019,2.921 1.50502,5.20418 2.68475,7.97811 1.17973,2.77392 2.76411,6.03841 4.52986,8.6854 1.76575,2.64699 3.71237,4.67652 6.01056,6.14546 2.29818,1.46894 4.94756,2.37783 8.16328,2.80782 3.21573,0.42998 6.99781,0.38146 10.24271,-0.41655 3.24489,-0.79801 5.95309,-2.34529 7.8735,-3.87975 1.92041,-1.53447 3.05335,-3.05637 4.40627,-5.37449 1.35291,-2.31812 2.92578,-5.43254 4.10042,-8.53526 1.17464,-3.10271 1.95096,-6.19386 2.55575,-9.44975 0.60478,-3.2559 1.03793,-6.67651 1.28066,-10.0768 0.24273,-3.4003 0.29495,-6.7802 0.23052,-9.36852 -0.0644,-2.58832 -0.2456,-4.38504 -0.73303,-5.55156 -0.48743,-1.16652 -1.2821,-1.70248 -3.08715,-2.60508 -1.80504,-0.9026 -4.6204,-2.17155 -7.22419,-3.51431 -2.6038,-1.34275 -4.99584,-2.75939 -6.91364,-3.83116 -1.91781,-1.07177 -3.3613,-1.79851 -4.56879,-2.22145 -1.20749,-0.42294 -2.17882,-0.54159 -3.62747,-0.33782 -1.44865,0.20376 -3.37409,0.73024 -5.14244,1.61172 -1.76834,0.88149 -3.37897,2.11784 -4.18437,2.73609 -0.8054,0.61825 -0.80535,0.61825 -2.17259,0.95026 z"
       id="path1293"
       inkscape:path-effect="#path-effect1295"
       inkscape:original-d="m 333.18117,262.95543 c -2.7342,0.66519 -5.4694,1.32937 -8.2056,1.99256 -1.36405,0.1488 -2.72905,0.29659 -4.09508,0.44339 -1.12821,0.74043 -2.25737,1.47982 -3.38755,2.21823 -0.51727,1.4333 -1.03551,2.86555 -1.55476,4.29682 -0.22205,2.23597 -0.44509,4.47084 -0.66914,6.70476 0.007,2.96253 0.0138,5.92394 0.0192,8.88441 0.68635,3.55974 1.37167,7.11833 2.056,10.67599 0.77586,2.28429 1.55069,4.56747 2.32454,6.84971 1.58544,3.26561 3.16981,6.5301 4.75322,9.79364 1.9477,2.03062 3.89432,4.06015 5.83999,6.08872 2.65048,0.90992 5.29986,1.81881 7.9483,2.72672 3.78322,-0.0475 7.5653,-0.096 11.34645,-0.14555 2.70931,-1.54634 5.41751,-3.09361 8.12477,-4.64192 1.134,-1.52097 2.26695,-3.04287 3.39892,-4.56581 1.57393,-3.11354 3.1468,-6.22795 4.7187,-9.34343 0.77735,-3.09027 1.55368,-6.18141 2.32902,-9.27362 0.43416,-3.41974 0.86731,-6.84035 1.29946,-10.26203 0.0532,-3.37903 0.10543,-6.75893 0.15665,-10.1399 -0.18019,-1.79578 -0.36138,-3.5925 -0.54356,-5.39024 -0.79371,-0.53498 -1.58838,-1.07094 -2.38406,-1.60791 -2.81447,-1.268 -5.62983,-2.53695 -8.44625,-3.80693 -2.39113,-1.4157 -4.78318,-2.83233 -7.17627,-4.25 -1.44254,-0.72577 -2.88603,-1.45252 -4.33055,-2.18028 -0.97037,-0.11765 -1.9417,-0.23629 -2.91405,-0.35594 -1.92452,0.52749 -3.84996,1.05397 -5.77643,1.57946 -1.60969,1.23741 -3.22031,2.47377 -4.83197,3.70915 z" />
    <path
       style="fill:none;stroke:#808080;stroke-width:0.3;stroke-linecap:round;stroke-linejoin:round;stroke-dasharray:none;stroke-opacity:1;paint-order:stroke fill markers"
       d="m 325.68048,273.06138 c -1.02256,1.04093 -1.9745,2.38999 -2.68742,3.43805 -0.71291,1.04805 -1.18675,1.79501 -1.06728,3.50106 0.11947,1.70604 0.83174,4.37012 1.39778,6.76145 0.56605,2.39132 0.98592,4.50978 1.47768,6.56183 0.49176,2.05205 1.05527,4.03753 1.71636,6.16606 0.66109,2.12853 1.41965,4.39996 3.00298,6.5077 1.58332,2.10773 3.99062,4.05198 6.55394,5.33612 2.56332,1.28413 5.28244,1.9087 7.70295,2.22086 2.42052,0.31216 4.54248,0.31216 6.42944,0.14013 1.88696,-0.17203 3.53906,-0.51593 4.70005,-1.27493 1.16099,-0.759 1.83175,-1.93353 2.63022,-3.82938 0.79847,-1.89584 1.72462,-4.51311 2.45604,-6.74143 0.73142,-2.22831 1.26806,-4.06762 1.85885,-6.17784 0.5908,-2.11022 1.2357,-4.49124 1.44941,-7.329 0.2137,-2.83776 -0.004,-6.13245 -0.37274,-8.62232 -0.36867,-2.48988 -0.88852,-4.17494 -2.0542,-5.57342 -1.16568,-1.39848 -2.97791,-2.50984 -5.06139,-3.23287 -2.08348,-0.72304 -4.43802,-1.05715 -7.94453,-1.15694 -3.5065,-0.0998 -8.1646,0.0349 -11.51983,0.20718 -3.35522,0.17225 -5.40732,0.38208 -6.98014,0.8532 -1.57282,0.47112 -2.66561,1.20356 -3.68817,2.24449 z"
       id="path1297"
       inkscape:path-effect="#path-effect1299"
       inkscape:original-d="m 325.61,272.75306 c -0.95094,1.35006 -1.90289,2.69911 -2.85583,4.04717 -0.47286,0.74799 -0.94669,1.49495 -1.42154,2.24093 0.7133,2.66519 1.42557,5.32927 2.13686,7.99241 0.42089,2.11954 0.84076,4.238 1.25964,6.3555 0.56453,1.98656 1.12804,3.97204 1.69057,5.95656 0.75958,2.27253 1.51814,4.54396 2.27572,6.81443 2.40839,1.94532 4.81569,3.88957 7.22203,5.83285 2.72022,0.6256 5.43934,1.25017 8.1575,1.87376 2.12304,10e-4 4.245,10e-4 6.366,0 1.65316,-0.34291 3.30526,-0.6868 4.95639,-1.0317 0.67179,-1.17358 1.34255,-2.34812 2.01233,-3.52367 0.92719,-2.61638 1.85333,-5.23366 2.7785,-7.85198 0.53766,-1.83838 1.0743,-3.67769 1.60995,-5.51804 0.64593,-2.38012 1.29084,-4.76114 1.93476,-7.14322 -0.21677,-3.29382 -0.43454,-6.58851 -0.65331,-9.88426 -0.51887,-1.68413 -1.03872,-3.36919 -1.55957,-5.05528 -1.81131,-1.1104 -3.62354,-2.22176 -5.43681,-3.33414 -2.35364,-0.33313 -4.70818,-0.66724 -7.06377,-1.00236 -4.65727,0.13573 -9.31537,0.27045 -13.97455,0.40418 -2.05119,0.21083 -4.10329,0.42066 -6.15644,0.62949 -1.09183,0.73347 -2.18462,1.46591 -3.27843,2.19737 z" />
    <path
       style="fill:none;stroke:#4d4d4d;stroke-width:0.7;stroke-linecap:round;stroke-linejoin:round;stroke-dasharray:none;stroke-opacity:1;paint-order:stroke fill markers"
       d="m 329.88784,279.81973 c 0.46546,1.74846 0.9306,3.49574 1.88609,5.43664 0.95549,1.94089 2.40079,4.07534 3.92299,5.27916 1.52219,1.20381 3.12082,1.47789 5.19748,1.66444 2.07667,0.18654 4.63134,0.2857 6.75105,-0.0914 2.11971,-0.37713 3.805,-1.23028 5.35969,-2.65241 1.55468,-1.42212 2.97921,-3.41351 4.03773,-5.02935 1.05853,-1.61584 1.75105,-2.85619 2.44378,-4.09691"
       id="path1301"
       inkscape:path-effect="#path-effect1303"
       inkscape:original-d="m 329.88784,279.81973 c 0.46614,1.74828 0.93129,3.49556 1.39543,5.24184 1.44637,2.13554 2.89168,4.26999 4.33601,6.40349 1.59969,0.27509 3.19832,0.54917 4.79597,0.82225 2.55578,0.10016 5.11045,0.19932 7.66417,0.29748 1.68635,-0.85218 3.37164,-1.70533 5.05595,-2.5595 1.42559,-1.99047 2.85011,-3.98186 4.27367,-5.97429 0.69355,-1.2394 1.38607,-2.47975 2.07761,-3.72113" />
    <path
       style="fill:none;stroke:#4d4d4d;stroke-width:0.7;stroke-linecap:round;stroke-linejoin:round;stroke-dasharray:none;stroke-opacity:1;paint-order:stroke fill markers"
       d="m 355.80248,299.50414 c -0.99552,-2.33954 -1.99156,-4.68029 -2.79639,-6.08469 -0.80483,-1.4044 -1.41905,-1.87209 -2.03438,-2.34063"
       id="path1305"
       inkscape:path-effect="#path-effect1307"
       inkscape:original-d="m 355.80248,299.50414 c -0.99503,-2.33975 -1.99107,-4.6805 -2.9881,-7.02224 -0.61324,-0.4667 -1.22745,-0.93439 -1.84267,-1.40308" />
    <path
       style="fill:none;stroke:#4d4d4d;stroke-width:0.7;stroke-linecap:round;stroke-linejoin:round;stroke-dasharray:none;stroke-opacity:1;paint-order:stroke fill markers"
       d="m 329.6981,299.06386 c 0.84005,-1.76112 1.6803,-3.52266 2.63273,-4.90812 0.95244,-1.38545 2.0168,-2.39433 3.08114,-3.40319"
       id="path1309"
       inkscape:path-effect="#path-effect1311"
       inkscape:original-d="m 329.6981,299.06386 c 0.84125,-1.76055 1.6815,-3.52209 2.52075,-5.28464 1.06539,-1.00791 2.12975,-2.01678 3.19312,-3.02667" />
    <path
       style="stroke:#777536;stroke-width:0.0264587;stroke-linecap:round;stroke-linejoin:round;stroke-dasharray:none;stroke-opacity:0;paint-order:stroke fill markers"
       d="m 14.289679,8.1540825 c 0.02268,-0.2595892 0.04534,-0.5189391 0.06796,-0.9592972 0.02262,-0.4403581 0.04516,-1.0614156 0.04324,-1.641491 -0.0019,-0.5800754 -0.02832,-1.1188744 -0.08175,-1.5014608 C 14.265703,3.6692471 14.184974,3.4423757 14.013791,3.242383 13.842609,3.0423902 13.579175,2.8675169 13.091654,2.6050794 12.604133,2.3426419 11.891898,1.9922786 11.283765,1.6759608 10.675633,1.359643 10.171606,1.0773512 9.6238844,0.80595319 9.0761632,0.5345552 8.4847439,0.27408694 8.0832934,0.16810676 7.681843,0.06212657 7.4702939,0.11086414 7.2589381,0.15955717 c 0,0 0,6.42341533 0,6.42341533 0.093249,0.00197 0.1867685,0.00394 0.3376566,0.028679 0.150888,0.02474 0.3593755,0.072187 0.5544692,0.1604292 0.1950936,0.088242 0.3767865,0.217127 0.4955751,0.3123789 0.1187886,0.095252 0.1747209,0.1568072 0.2520947,0.2538927 0.077374,0.097085 0.1762214,0.2296831 0.2385502,0.3282576 0.062329,0.098575 0.088232,0.1631032 0.1142664,0.2237756 0.026034,0.060672 0.052181,0.1174882 0.08119,0.2178034 0.029009,0.1003152 0.060685,0.2429083 0.078146,0.3600612 0.01746,0.117153 0.020162,0.2046537 0.022895,0.2931827 0,0 4.7855449,-4.106e-4 4.7855449,-4.106e-4 0,0 0.07035,-0.6069394 0.07035,-0.6069394 z"
       id="path12788"
       sodipodi:nodetypes="cssssssssccssssssscccc"
       inkscape:original-d="m 14.289679,8.1540825 c 0,0 0.04563,-0.5189137 0.06804,-0.7787675 0.02281,-0.6208778 0.04535,-1.2419353 0.06763,-1.863427 C 14.399207,4.9732065 14.372803,4.4344075 14.346131,3.8952704 14.265855,3.6691931 14.185125,3.442322 14.104508,3.2162447 13.842568,3.0424518 13.579134,2.8675786 13.31605,2.6928487 12.60408,2.3427501 11.891845,1.9923869 11.179346,1.6417591 10.675583,1.3597316 10.171556,1.0774396 9.6672633,0.79488288 9.0761086,0.53467921 8.4846893,0.27421094 7.8930054,0.01347809 7.6819142,0.0624357 7.2589381,0.15955717 7.2589381,0.15955717 V 6.5829725 c 0,0 0.186763,0.0042 0.279747,0.0059 0.208754,0.04771 0.417241,0.09516 0.62547,0.142345 0.181966,0.129156 0.363659,0.258041 0.545092,0.386665 0.05619,0.06182 0.112126,0.123372 0.167792,0.184661 0.09911,0.132863 0.1979593,0.2654593 0.296542,0.397792 0.026168,0.064794 0.052071,0.1293226 0.07771,0.193587 0.026411,0.057081 0.052558,0.1138966 0.07844,0.170448 0.032215,0.1440896 0.06389,0.286683 0.09585,0.431475 0.003,0.08955 0.0082,0.265587 0.0082,0.265587 l 4.7855449,-4.106e-4 z"
       inkscape:path-effect="#path-effect12792"
       class="superior_direito"
       transform="matrix(3.7794824,0,0,3.7794824,314.97233,257.54439)" />
    <path
       style="stroke:#777536;stroke-width:0.0264587;stroke-linecap:round;stroke-linejoin:round;stroke-dasharray:none;stroke-opacity:0;paint-order:stroke fill markers"
       d="m 7.2589351,10.939874 c 0,0 3e-6,6.48923 3e-6,6.48923 C 6.9229874,17.404721 6.5873193,17.380358 6.3794205,17.361297 6.1715218,17.342236 6.0916586,17.328466 5.892707,17.280113 5.6937554,17.231759 5.3759469,17.148856 5.0635893,17.032357 4.7512317,16.915859 4.4455589,16.766189 4.1792034,16.602924 3.912848,16.439659 3.6869366,16.263334 3.422134,15.992645 3.1573315,15.721956 2.8528214,15.355898 2.5009317,14.790068 2.149042,14.224238 1.7495293,13.458226 1.3907383,12.566578 1.0319473,11.674931 0.71394572,10.657652 0.53439231,10.002496 0.35483891,9.3473396 0.3137502,9.0540328 0.27270294,8.7610219 c 0,0 4.80920416,0.00339 4.80920416,0.00339 0.00584,0.145119 0.011764,0.2923163 0.047708,0.4468437 0.035944,0.1545273 0.1035491,0.3242388 0.1708809,0.4751962 0.067332,0.1509574 0.1363535,0.2874881 0.2546691,0.4344242 0.1183157,0.146936 0.2940435,0.314108 0.4796317,0.440258 0.1855882,0.126149 0.395568,0.221166 0.5577179,0.275379 0.16215,0.05421 0.2862573,0.07122 0.3904705,0.08217 0.1042132,0.01095 0.1901144,0.01607 0.2759531,0.02118"
       id="path12774"
       sodipodi:nodetypes="ccccccccccccaaaaaac"
       inkscape:original-d="m 7.2589351,10.939874 3e-6,6.48923 c 0,0 -0.6716367,-0.0485 -1.0078522,-0.07315 -0.0796,-0.01351 -0.1594632,-0.02728 -0.2395931,-0.04131 C 5.693708,17.231941 5.3758992,17.149039 5.0573559,17.065749 4.7511787,16.915967 4.4455057,16.766298 4.1387035,16.615941 3.9128199,16.439695 3.6869081,16.26337 3.4609676,16.086963 3.1573576,15.721934 2.8528476,15.355876 2.5483905,14.989935 2.1491416,14.224186 1.7496288,13.458174 1.3498507,12.691896 1.0321132,11.674879 0.71411133,10.6576 0.39584472,9.6400546 0.35506204,9.3473083 0.27270294,8.7610219 0.27270294,8.7610219 l 4.80920416,0.00339 c 0,0 0.01202,0.292306 0.01752,0.435357 0.06627,0.165959 0.126275,0.338698 0.200506,0.503339 0.068,0.134248 0.137021,0.270779 0.203885,0.4033021 0.169656,0.161409 0.345384,0.328581 0.514474,0.489426 0.186606,0.125672 0.412018,0.186584 0.61491,0.278248 0.119043,0.0343 0.245539,0.03387 0.36822,0.05045 0.08558,0.0084 0.257516,0.01533 0.257516,0.01533"
       inkscape:path-effect="#path-effect12778"
       class="inferior_esquerdo"
       transform="matrix(3.7794824,0,0,3.7794824,314.97233,257.54439)" />
    <ellipse
       style="opacity:1;stroke:#777536;stroke-width:0.0264587;stroke-linecap:square;stroke-dasharray:none;stroke-opacity:0"
       id="path12435"
       cx="7.2589931"
       cy="8.7614202"
       rx="2.1747899"
       ry="2.1784477"
       class="centro"
       transform="matrix(3.7794824,0,0,3.7794824,314.97233,257.54439)" />
    <path
       style="stroke:#777536;stroke-width:0.0264587;stroke-linecap:square;stroke-dasharray:none;stroke-opacity:0"
       d="M 7.2589381,6.5829725 V 0.15955733 c -0.597031,0.1597744 -0.5547632,0.15080612 -0.5547632,0.15080612 0,0 -0.5851583,0.23786721 -0.858799,0.39373344 C 5.5584281,0.86754288 5.3192689,1.1071865 5.030897,1.2681067 4.8482685,1.370019 4.6544034,1.4532089 4.4560591,1.5195326 4.1638404,1.6172467 3.8574861,1.6662657 3.5566857,1.733041 3.1966672,1.8129623 2.835351,1.8871576 2.4732375,1.9569758 2.393266,1.9723949 2.3125074,1.9836476 2.2327271,2.000027 2.0387946,2.0398426 1.8391494,2.0637015 1.6541468,2.1341936 1.4195648,2.2235771 1.1695454,2.3166225 0.99332254,2.4954063 0.65915306,2.8344322 0.48259081,3.3085541 0.32650899,3.7582721 c -0.0598912,0.1725642 -0.0764263,0.3576865 -0.0993501,0.5389042 -0.0323173,0.2554759 -0.0371708,0.513687 -0.0535333,0.7706785 -0.0479485,0.7530866 -0.16899546,1.506407 -0.13081267,2.2600518 0.02448055,0.4831925 0.07335735,0.4591356 0.22988993,1.4331153 3.08618095,2.65e-4 1.65575135,2.6e-4 4.81150035,0 0.01153,-1.211643 0.9808468,-2.1879384 2.1747349,-2.1780494 z"
       id="path12637"
       sodipodi:nodetypes="cccaaaaaaaaaaaaccc"
       class="superior_esquerdo"
       transform="matrix(3.7794824,0,0,3.7794824,314.97233,257.54439)" />
    <path
       style="stroke:#777536;stroke-width:0.0264587;stroke-linecap:round;stroke-linejoin:round;stroke-dasharray:none;stroke-opacity:0;paint-order:stroke fill markers"
       d="m 9.3872911,9.201681 c -0.00874,0.036132 -0.026249,0.1084919 -0.051048,0.1882124 -0.024799,0.07972 -0.05695,0.1671 -0.085752,0.2374633 -0.028802,0.070363 -0.054139,0.1234793 -0.077731,0.1684303 -0.023592,0.044951 -0.045256,0.081415 -0.070656,0.1251984 -0.0254,0.043784 -0.054582,0.094972 -0.1101411,0.1639096 -0.05556,0.06894 -0.1375531,0.155843 -0.1936969,0.215454 -0.056144,0.05961 -0.085389,0.09081 -0.154691,0.145898 -0.069302,0.05508 -0.1759289,0.132165 -0.3066157,0.205945 -0.1306869,0.07378 -0.2887479,0.143238 -0.4100461,0.179603 -0.1212982,0.03636 -0.2860259,0.06462 -0.4087566,0.08166 -0.1227307,0.01704 -0.1877323,0.02151 -0.2592209,0.02642 0,0 3.8e-6,6.48923 3.8e-6,6.48923 0.2711803,-0.0097 0.5419365,-0.01932 0.9224445,-0.07617 0.380508,-0.05684 0.8672671,-0.160279 1.1274994,-0.218158 0.2602323,-0.05788 0.2846189,-0.06691 0.4958956,-0.171078 0.2112766,-0.104166 0.4993096,-0.249372 0.8174216,-0.456424 0.318112,-0.207052 0.616688,-0.450924 0.856803,-0.693265 0.240115,-0.24234 0.421825,-0.483211 0.697174,-0.964147 0.275348,-0.480935 0.644334,-1.201954 0.936598,-1.898089 0.292263,-0.696135 0.507774,-1.36737 0.645999,-1.848235 0.138226,-0.480865 0.198863,-0.770022 0.249484,-1.034181 0.05062,-0.2641578 0.08957,-0.4942027 0.123591,-0.7115171 0.03402,-0.2173145 0.06052,-0.4054287 0.08748,-0.596823 0,0 -4.7855444,-0.00162 -4.7855444,-0.00162 -0.00896,0.1144929 -0.01794,0.2292281 -0.024241,0.2969039 -0.0063,0.067676 -0.00993,0.088599 -0.011719,0.09892 -0.00179,0.010321 -0.00179,0.010325 -0.010535,0.046457 z"
       id="path12703"
       sodipodi:nodetypes="sccscscscsccccccscsssscccsss"
       inkscape:original-d="m 9.3960329,9.1655491 c -0.017173,0.072339 -0.03468,0.1446989 -0.052399,0.2165781 -0.031871,0.087604 -0.064022,0.1749835 -0.096473,0.2621955 -0.025154,0.053549 -0.050491,0.1066651 -0.076186,0.1597112 -0.021496,0.036889 -0.0434,0.07321 -0.06519,0.109723 -0.02877,0.05119 -0.05795,0.1023781 -0.08722,0.1529931 -0.08189,0.08734 -0.163884,0.174244 -0.247035,0.261831 -0.02914,0.03163 -0.05838,0.06284 -0.08762,0.09349 -0.109419,0.07956 -0.216048,0.15664 -0.331634,0.239743 -0.145863,0.06448 -0.303925,0.133935 -0.420226,0.184661 -0.126383,0.02199 -0.291111,0.05024 -0.458649,0.07866 -0.077959,0.0056 -0.2144658,0.01474 -0.2144658,0.01474 l 3.8e-6,6.48923 c 0,0 0.5419463,-0.01905 0.8135409,-0.02901 0.4894769,-0.103693 0.9762359,-0.20713 1.4639718,-0.311095 0.032782,-0.01178 0.05717,-0.02081 0.092133,-0.03413 0.3876304,-0.195018 0.6756634,-0.340224 1.0131094,-0.510738 0.298854,-0.243618 0.59743,-0.487491 0.895745,-0.731631 0.181975,-0.240606 0.363685,-0.481477 0.545135,-0.722618 0.369268,-0.720791 0.738254,-1.44181 1.106994,-2.163132 0.215787,-0.671008 0.431298,-1.342243 0.646556,-2.013779 0.06118,-0.290232 0.121819,-0.579389 0.18275,-0.871474 0.04031,-0.2362442 0.07925,-0.4662902 0.119576,-0.7062952 0.02772,-0.1946324 0.08088,-0.5741829 0.08088,-0.5741829 l -4.7855444,-0.00162 c 0,0 -0.017656,0.2292504 -0.026882,0.3434786 -0.00336,0.021153 -0.00699,0.042076 -0.010867,0.062666 z"
       inkscape:path-effect="#path-effect12707"
       class="inferior_direito"
       transform="matrix(3.7794824,0,0,3.7794824,314.97233,257.54439)" />
  </g>
</svg>
