<?xml version="1.0" encoding="UTF-8" standalone="no"?><svg   width="48.764973"   height="56.672092"   viewBox="0 0 12.902402 14.994671"   version="1.1"   id="svg10"   xmlns="http://www.w3.org/2000/svg"   xmlns:svg="http://www.w3.org/2000/svg">  <defs     id="defs14" />  <g     id="layer54"     transform="matrix(0.26458651,0,0,0.26458651,-105.70711,-198.42769)">    <path       style="fill:none;stroke:#030303;stroke-width:0.7;stroke-linecap:round;stroke-linejoin:round;paint-order:stroke fill markers"       d="m 418.48875,752.73175 c -1.65714,0.89152 -3.13587,1.8498 -4.39198,2.74783 -1.25611,0.89803 -2.28943,1.73569 -3.13762,2.62999 -0.84819,0.8943 -1.51094,1.84488 -2.56079,3.27122 -1.04985,1.42633 -2.48676,3.32837 -3.63323,5.19196 -1.14647,1.86358 -2.00236,3.68833 -2.68546,5.74611 -0.68311,2.05777 -1.19343,4.34813 -1.58054,6.62299 -0.3871,2.27485 -0.65104,4.53393 -0.63016,6.66097 0.0209,2.12705 0.32626,4.12168 0.80571,5.92418 0.47946,1.8025 1.13261,3.41268 2.2481,4.64037 1.11548,1.2277 2.6925,2.07341 4.40312,3.03918 1.71063,0.96577 3.55478,2.05148 6.00626,3.25759 2.45147,1.20612 5.51009,2.53273 7.95068,3.23417 2.44059,0.70145 4.26326,0.77817 6.43137,0.1724 2.16811,-0.60578 4.68221,-1.89376 7.15041,-3.55626 2.4682,-1.6625 4.89067,-3.69955 6.88586,-5.59521 1.9952,-1.89566 3.56316,-3.64998 4.59199,-5.71501 1.02884,-2.06503 1.51861,-4.44135 1.58303,-6.9368 0.0644,-2.49545 -0.29684,-5.11023 -1.12536,-8.07536 -0.82851,-2.96512 -2.12456,-6.28048 -3.56441,-9.30381 -1.43985,-3.02332 -3.02362,-5.75439 -4.43172,-7.9552 -1.40809,-2.20081 -2.64056,-3.87117 -4.08824,-5.20648 -1.44768,-1.33531 -3.11082,-2.33507 -4.96326,-2.83531 -1.85244,-0.50024 -3.89389,-0.50024 -5.8326,-0.088 -1.93871,0.41226 -3.77402,1.23695 -5.43116,2.12846 z"       id="path2820" />    <path       style="fill:none;stroke:#808080;stroke-width:0.3;stroke-linecap:round;stroke-linejoin:round;paint-order:stroke fill markers"       d="m 407.14822,777.01119 c -0.04,-0.17946 -0.12026,-0.53953 0.52119,-1.93008 0.64144,-1.39055 2.00499,-3.81064 3.59546,-6.1172 1.59046,-2.30656 3.40764,-4.49923 5.1124,-6.06295 1.70475,-1.56371 3.29658,-2.49811 5.93081,-2.76787 2.63423,-0.26977 6.30991,0.12479 9.04888,1.09989 2.73898,0.9751 4.54114,2.52985 6.06806,5.2913 1.52691,2.76146 2.77918,6.72915 3.74486,9.92339 0.96569,3.19425 1.64477,5.61487 1.23216,7.47933 -0.41261,1.86447 -1.91662,3.17393 -3.36643,4.29479 -1.4498,1.12087 -2.84548,2.05316 -4.81115,2.51113 -1.96567,0.45797 -4.50198,0.44144 -6.59415,0.39256 -2.09217,-0.0489 -3.74012,-0.13014 -5.39008,-0.23007 -1.64995,-0.0999 -3.30184,-0.21855 -4.58798,0.003 -1.28614,0.22198 -2.20568,0.78479 -3.24809,1.14498 -1.04242,0.36019 -2.20821,0.51769 -3.25897,0.45446 -1.05076,-0.0632 -1.98675,-0.34767 -2.91893,-1.51747 -0.93217,-1.16979 -1.85983,-3.22571 -2.12764,-5.583 -0.26781,-2.35728 0.12488,-5.01541 0.41663,-6.43372 0.29175,-1.41832 0.48238,-1.59589 0.57767,-1.68467 0.0953,-0.0888 0.0953,-0.0888 0.0553,-0.26822 z"       id="path2824" />    <path       style="fill:none;stroke:#4d4d4d;stroke-width:0.7;stroke-linecap:round;stroke-linejoin:round;paint-order:stroke fill markers"       d="m 411.14955,779.71621 c 1.24901,-2.01175 2.49818,-4.02377 3.4607,-5.50295 0.96252,-1.47918 1.63831,-2.42538 2.63283,-3.1606 0.99451,-0.73522 2.30703,-1.25903 3.54144,-1.62249 1.23441,-0.36347 2.39036,-0.56663 3.60194,-0.50545 1.21159,0.0612 2.47836,0.38624 3.59846,0.72485 1.12009,0.33862 2.09343,0.69063 3.08279,1.25743 0.98935,0.56681 1.99476,1.34794 2.94279,2.53509 0.94803,1.18716 1.83907,2.77992 2.72947,4.37153"       id="path2828" />    <path       style="fill:none;stroke:#4d4d4d;stroke-width:0.7;stroke-linecap:round;stroke-linejoin:round;paint-order:stroke fill markers"       d="m 433.57239,772.90723 c -0.23498,-1.3306 -0.47017,-2.66234 -0.32472,-3.59806 0.14544,-0.93573 0.67169,-1.47429 1.19797,-2.01287"       id="path2832" />    <path       style="fill:none;stroke:#4d4d4d;stroke-width:0.7;stroke-linecap:round;stroke-linejoin:round;paint-order:stroke fill markers"       d="m 415.17132,773.62711 c 0.10385,-1.17054 0.20778,-2.34199 0.10003,-3.31841 -0.10776,-0.97642 -0.42776,-1.75809 -0.74826,-2.54099"       id="path2836" />    <path       id="path12435"       style="stroke:#44150b;stroke-width:0.0317487;stroke-linecap:square;stroke-opacity:0"       class="centro"       d="m 9.0607537,7.4973356 c 1e-7,1.4436709 -1.1683361,2.6139974 -2.6095524,2.6139984 -1.4412165,0 -2.609553,-1.1703273 -2.6095529,-2.6139984 -6e-7,-1.4436715 1.1683361,-2.6139989 2.6095529,-2.6139994 1.4412166,8e-7 2.609553,1.1703281 2.6095524,2.6139994 z"       transform="matrix(3.7794822,0,0,3.7794822,399.51814,749.95392)" />    <path       style="stroke:#44150b;stroke-width:0.0264587;stroke-opacity:0"       d="M 5.573468,5.034883 C 5.3196261,5.1301158 5.0735924,5.2584122 4.8599795,5.4253689 4.6282796,5.606462 4.4313189,5.8335789 4.2620293,6.074038 4.1682115,6.2072969 4.094978,6.3555561 4.0353439,6.507225 c -0.076512,0.1945954 -0.1263912,0.3996511 -0.16558,0.6050427 -0.011917,0.06246 -0.015712,0.1262361 -0.02093,0.1896083 -0.00279,0.033894 -0.00432,0.067889 -0.00554,0.101876 -0.00112,0.031179 -0.00164,0.093584 -0.00164,0.093584 l -3.5518468,-10e-8 c 0,0 0.0420842,-0.2272152 0.0653236,-0.3403865 C 0.3818421,7.0268699 0.4084403,6.8966938 0.4403024,6.7677791 0.4619194,6.6803161 0.4880175,6.5940217 0.5121724,6.5072254 0.56691095,6.3105115 0.61244887,6.1109278 0.67774608,5.917461 0.76645246,5.6546361 0.86703345,5.3951921 0.98433079,5.1438217 1.1039952,4.8873786 1.2422125,4.6394938 1.3882838,4.3971185 1.5276889,4.1658043 1.6837452,3.9448426 1.8382928,3.7233588 1.9699791,3.5346376 2.1088371,3.351022 2.2448049,3.1653617 2.3082283,3.0787587 2.371625,2.9921333 2.435723,2.9060285 2.5630326,2.7350094 2.683341,2.5583407 2.8203737,2.3950088 2.9418664,2.2501993 3.0700798,2.1104538 3.2072829,1.9804324 3.3282129,1.8658324 3.4580644,1.7606458 3.5904774,1.6595318 3.8526451,1.4593339 4.1251146,1.2723496 4.403196,1.0949185 4.6037212,0.96697245 4.8090359,0.8460683 5.0193675,0.73497747 5.2509308,0.61267263 5.48521,0.49345819 5.7291071,0.39809427 5.963925,0.3062803 6.451201,0.17291935 6.451201,0.17291935 V 4.8833362 c 0,0 -0.1606607,4.308e-4 -0.2400814,0.010915 C 5.9953333,4.9227376 5.7772568,4.9584284 5.573468,5.034883 Z"       id="path1255"       class="superior_esquerdo"       transform="matrix(3.7794822,0,0,3.7794822,399.51814,749.95392)" />    <path       style="stroke:#44150b;stroke-width:0.0264587;stroke-linecap:square;stroke-opacity:0"       d="M 6.7808589,0.11792912 C 6.8713205,0.10673078 6.962347,0.09964551 7.0534176,0.09579224 7.141883,0.09204919 7.23059,0.09097738 7.3190497,0.09485446 c 0.1183538,0.0051873 0.2367559,0.0148696 0.3539276,0.03234363 0.1099876,0.0164026 0.2190526,0.0397273 0.3266297,0.067896 0.1311053,0.0343295 0.2632759,0.0688654 0.3875364,0.122962 0.150746,0.065627 0.2912133,0.15358026 0.4295112,0.2424899 0.084627,0.0544051 0.1651799,0.11511355 0.2440991,0.1775101 0.1198065,0.0947236 0.238998,0.19111235 0.3476925,0.29840491 0.1566488,0.1546282 0.2979813,0.3244249 0.4365253,0.4954638 0.067566,0.083414 0.1295121,0.1712535 0.1921615,0.2584205 0.04759,0.066215 0.09378,0.1334328 0.139533,0.2009333 0.05648,0.083339 0.111812,0.1674629 0.166608,0.2519222 0.0523,0.080619 0.103776,0.161779 0.154777,0.2432281 0.05145,0.082161 0.102218,0.1647464 0.152545,0.2475979 0.0377,0.062059 0.07495,0.1243905 0.111915,0.1868863 0.03693,0.062439 0.07371,0.124978 0.109791,0.187911 0.07188,0.1253499 0.143102,0.2510858 0.212555,0.3777938 0.06914,0.1261336 0.136726,0.2531227 0.203212,0.3806741 0.04783,0.091769 0.09455,0.1841229 0.140789,0.2767039 0.03434,0.068753 0.0681,0.1377949 0.101486,0.2070189 0.03278,0.067969 0.06505,0.1361803 0.097,0.2045384 0.02338,0.050017 0.04648,0.1001695 0.06931,0.1504393 0.02999,0.066031 0.05967,0.1322052 0.08891,0.1985719 0.0644,0.1461525 0.130158,0.2917576 0.190561,0.4396051 0.05563,0.1361582 0.106476,0.2742267 0.158193,0.4119174 0.036,0.095855 0.0719,0.1917667 0.105889,0.2883543 0.05416,0.1539064 0.106833,0.3083722 0.156212,0.463879 0.04012,0.1263309 0.07784,0.2534355 0.113748,0.3810245 0.02547,0.0905 0.04961,0.1813903 0.07214,0.2726688 0.02754,0.1116136 0.07703,0.3361738 0.07703,0.3361738 L 9.0607437,7.4973358 C 9.0594537,7.4049855 9.0574528,7.323531 9.0479987,7.237247 9.0345291,7.1143156 9.0139913,6.991888 8.9854998,6.8715477 8.9634981,6.7786185 8.9374621,6.6861626 8.902016,6.5974863 8.8287619,6.4142247 8.7453095,6.2329497 8.6365928,6.0682329 8.51797,5.8885073 8.3784956,5.7201137 8.2194585,5.5749246 8.0462847,5.4168298 7.8516795,5.2788292 7.6432567,5.1713903 7.4175674,5.0550507 7.173941,4.9684983 6.9253767,4.916668 6.7702644,4.8843242 6.451201,4.8833362 6.451201,4.8833362 V 0.17291935 c 0,0 0.2190975,-0.0413038 0.3296579,-0.0549902 z"       id="path3383"       class="superior_direito"       transform="matrix(3.7794822,0,0,3.7794822,399.51814,749.95392)" />    <path       style="stroke:#44150b;stroke-width:0.0264587;stroke-linecap:square;stroke-opacity:0"       d="m 3.8416484,7.4973355 c 0,0.153683 0.00197,0.1529879 0.00987,0.2289727 0.014056,0.1350634 0.066632,0.4018925 0.066632,0.4018925 l 5e-7,2.2e-6 c 0.022789,0.083172 0.045088,0.1666906 0.074561,0.2477357 0.037313,0.1026051 0.079607,0.2037062 0.1291226,0.3010109 0.053672,0.1054727 0.1145063,0.2075644 0.181382,0.3052008 0.060008,0.087609 0.1253533,0.1719208 0.1965462,0.2507104 0.092836,0.1027418 0.1896748,0.2034956 0.2993575,0.2880182 0.1924653,0.1483157 0.3993958,0.2830825 0.6225752,0.3791626 0.2301379,0.099076 0.4776979,0.1588135 0.7252339,0.1976125 0.1003009,0.01572 0.3042693,0.01368 0.3042693,0.01368 v 4.778352 c 0,0 -0.3798594,-0.04311 -0.5652336,-0.08772 C 5.5741266,14.726919 5.2705235,14.618312 4.9720942,14.500775 4.5222747,14.323612 4.0881222,14.108279 3.6550026,13.893497 3.2783143,13.706699 2.9098606,13.503616 2.5412672,13.301312 2.3166783,13.178046 2.0934897,13.052158 1.8724662,12.922607 1.6950256,12.818602 1.5118575,12.72274 1.3448637,12.602677 1.1875261,12.489555 1.0209659,12.379499 0.90082088,12.227457 0.80073009,12.100794 0.75949572,11.937029 0.68222701,11.795285 0.59281615,11.631267 0.47090346,11.484126 0.3989607,11.31173 0.31356004,11.107085 0.27067565,10.886467 0.22744477,10.668972 0.17703999,10.415385 0.15233039,10.157206 0.12562401,9.9000415 0.10258682,9.6782088 0.07361492,9.4558801 0.07528734,9.2328607 0.07668257,9.0468041 0.10604887,8.8619788 0.12562401,8.6769495 0.15051128,8.4417087 0.17733839,8.2065907 0.21093402,7.9724348 0.23373319,7.8135284 0.2935016,7.5594655 0.2898016,7.4973355 Z"       id="path8594"       class="inferior_esquerdo"       transform="matrix(3.7794822,0,0,3.7794822,399.51814,749.95392)" />    <path       style="stroke:#44150b;stroke-width:0.0264587;stroke-linecap:square;stroke-opacity:0"       d="m 6.451201,14.889686 c 0.116516,0.0086 0.4730357,0.01261 0.7051241,-0.02549 0.2606269,-0.04279 0.5131331,-0.130644 0.7594226,-0.226029 0.2594609,-0.100487 0.5082541,-0.228178 0.7517232,-0.362864 0.2876987,-0.159154 0.5641423,-0.338641 0.8352429,-0.524665 0.2182057,-0.149728 0.4313333,-0.307432 0.6358822,-0.475337 0.244393,-0.20061 0.467649,-0.425716 0.7051,-0.634497 0.160613,-0.14122 0.334002,-0.268328 0.486681,-0.41809 0.25076,-0.245969 0.497677,-0.500184 0.701958,-0.785929 0.1904,-0.266327 0.356216,-0.553579 0.48144,-0.85607 0.102582,-0.247796 0.167135,-0.511269 0.216692,-0.7748406 0.04827,-0.2567465 0.0717,-0.5187161 0.07747,-0.7798977 0.0071,-0.3236393 -0.01705,-0.6480059 -0.05324,-0.9696941 -0.02114,-0.1878304 -0.09552,-0.5589451 -0.09552,-0.5589451 l -3.5984203,10e-8 c -0.007,0.089947 -0.0061,0.1997639 -0.017128,0.2989749 -0.00957,0.086146 -0.022698,0.1721478 -0.042483,0.2565362 C 8.9682497,8.1931572 8.9298337,8.3331195 8.8748372,8.4663263 8.8034682,8.6391893 8.7161772,8.8066214 8.6124704,8.9622491 8.5209214,9.0996326 8.4302392,9.2462586 8.2975941,9.3445477 8.2065011,9.4120467 8.1092491,9.5199558 8.0062718,9.5967041 7.886048,9.6863061 7.7597864,9.7689291 7.6269616,9.8384984 7.5627486,9.8721314 7.4942166,9.8969394 7.4264501,9.9226714 7.3370391,9.9566234 7.2471319,9.9900494 7.1548573,10.0152 7.04,10.04651 6.9230649,10.07141 6.8051095,10.0875 6.6879568,10.10348 6.4511997,10.11134 6.4511997,10.11134 Z"       id="path24007"       class="inferior_direito"       transform="matrix(3.7794822,0,0,3.7794822,399.51814,749.95392)" />  </g></svg>