<?xml version="1.0" encoding="UTF-8" standalone="no"?>
<svg
   width="54.072247"
   height="59.230083"
   viewBox="0 0 14.306618 15.671481"
   version="1.1"
   id="svg10"
   xmlns="http://www.w3.org/2000/svg"
   xmlns:svg="http://www.w3.org/2000/svg">
  <defs
     id="defs14" />
  <g
     id="layer51"
     transform="matrix(-0.26458651,0,0,0.26458651,101.55314,-197.06159)">
    <path
       style="fill:none;stroke:#030303;stroke-width:0.7;stroke-linecap:round;stroke-linejoin:round;paint-order:stroke fill markers"
       d="m 349.84643,746.07816 c -1.11937,0.42151 -3.35866,1.26473 -5.24113,2.02813 -1.88247,0.7634 -3.40798,1.44695 -4.77551,2.54037 -1.36753,1.09342 -2.57646,2.59632 -3.49033,4.91554 -0.91388,2.31922 -1.53262,5.45397 -2.18682,8.15809 -0.6542,2.70412 -1.3438,4.9776 -1.91815,7.22433 -0.57435,2.24673 -1.03347,4.46646 -1.4443,6.52427 -0.41082,2.05782 -0.77334,3.95358 -0.67881,6.32658 0.0945,2.373 0.64571,5.22273 2.05306,7.34988 1.40735,2.12716 3.66982,3.53205 6.6286,5.00311 2.95879,1.47106 6.61366,3.00842 10.08235,4.36235 3.46869,1.35393 6.751,2.52444 9.41693,2.96758 2.66593,0.44314 4.71567,0.15946 7.26773,-1.12062 2.55207,-1.28008 5.60697,-3.55644 8.53649,-5.59138 2.92951,-2.03493 5.73338,-3.82828 7.28269,-5.59258 1.54932,-1.7643 1.84441,-3.50043 1.9855,-6.93389 0.14109,-3.43346 0.12802,-8.56421 0.0219,-12.58931 -0.10607,-4.02511 -0.30522,-6.94442 -1.13653,-9.91382 -0.8313,-2.9694 -2.29522,-5.98886 -4.68224,-8.60289 -2.38702,-2.61404 -5.69755,-4.82206 -8.45654,-6.12753 -2.759,-1.30547 -4.96628,-1.70777 -7.55368,-1.82546 -2.5874,-0.11769 -5.55455,0.0495 -7.38306,0.17622 -1.8285,0.12673 -2.51822,0.21307 -2.8635,0.2563 -0.34529,0.0432 -0.34532,0.0432 -1.46469,0.46473 z"
       id="path2772" />
    <path
       style="fill:none;stroke:#808080;stroke-width:0.3;stroke-linecap:round;stroke-linejoin:round;paint-order:stroke fill markers"
       d="m 342.64916,757.56392 c -0.62231,1.26504 -1.62497,3.19389 -2.44995,5.65633 -0.82499,2.46245 -1.47233,5.458 -2.10565,8.42318 -0.63333,2.96519 -1.25261,5.89982 -1.36475,8.50967 -0.11213,2.60985 0.28253,4.89436 1.50851,6.70752 1.22598,1.81315 3.28224,3.15526 5.94208,3.91346 2.65985,0.75821 5.92323,0.9332 8.92402,0.80866 3.0008,-0.12454 5.73905,-0.5484 8.25608,-0.5542 2.51703,-0.006 4.81237,0.40611 7.39909,-0.15813 2.58671,-0.56423 5.46542,-2.10417 7.39455,-3.99718 1.92912,-1.89302 2.90913,-4.13966 3.29001,-6.75065 0.38088,-2.611 0.16234,-5.5868 -0.35503,-8.8222 -0.51737,-3.23539 -1.33371,-6.73029 -2.65336,-9.25703 -1.31965,-2.52675 -3.14332,-4.08496 -5.03427,-5.50702 -1.89096,-1.42207 -3.84918,-2.70775 -5.50472,-3.52975 -1.65555,-0.822 -3.00835,-1.17983 -4.48536,-0.93334 -1.47701,0.24649 -3.07733,1.09777 -4.85328,1.66411 -1.77595,0.56633 -3.7279,0.84761 -5.23545,0.82527 -1.50755,-0.0223 -2.57097,-0.34878 -3.75806,-0.31084 -1.18709,0.0379 -2.4972,0.44081 -3.27368,0.94328 -0.77648,0.50248 -1.01846,1.10383 -1.64078,2.36886 z"
       id="path2776" />
    <path
       style="fill:none;stroke:#4d4d4d;stroke-width:0.7;stroke-linecap:round;stroke-linejoin:round;paint-order:stroke fill markers"
       d="m 339.42052,779.21182 c 1.41712,-2.49846 2.83443,-4.99726 3.83076,-6.39244 0.99633,-1.39519 1.57107,-1.68621 3.11182,-1.99465 1.54076,-0.30844 4.04695,-0.63436 6.3638,-1.18361 2.31685,-0.54926 4.44453,-1.32171 5.906,-1.9979 1.46148,-0.67619 2.25706,-1.25615 3.34549,-0.85445 1.08843,0.40171 2.46882,1.78392 4.10884,2.99912 1.64002,1.21519 3.53939,2.26366 5.03743,3.5018 1.49804,1.23814 2.595,2.66542 3.45966,4.24108 0.86465,1.57565 1.49737,3.2995 2.12966,5.02217"
       id="path2780" />
    <path
       style="fill:none;stroke:#4d4d4d;stroke-width:0.7;stroke-linecap:round;stroke-linejoin:round;paint-order:stroke fill markers"
       d="m 375.64782,765.17251 c -0.63518,0.57272 -1.27042,1.14548 -1.84601,1.94264 -0.5756,0.79716 -1.09128,1.81822 -1.38475,2.82494 -0.29346,1.00673 -0.36483,1.99851 -0.43614,2.98939"
       id="path2784" />
    <path
       style="fill:none;stroke:#4d4d4d;stroke-width:0.7;stroke-linecap:round;stroke-linejoin:round;paint-order:stroke fill markers"
       d="m 360.99399,767.2102 c 0.0861,-1.27006 0.17234,-2.54105 0.36725,-4.01595 0.19491,-1.4749 0.4986,-3.1535 0.73146,-4.45258 0.23286,-1.29909 0.39488,-2.2186 0.55704,-3.13892"
       id="path2788" />
    <path
       style="fill:none;stroke:#4d4d4d;stroke-width:0.7;stroke-linecap:round;stroke-linejoin:round;paint-order:stroke fill markers"
       d="m 343.74644,772.51634 c -0.42765,-1.34247 -0.85567,-2.68613 -1.23208,-3.64049 -0.3764,-0.95437 -0.70147,-1.5194 -0.82286,-2.18989 -0.12139,-0.67049 -0.0383,-1.44609 0.0448,-2.2226"
       id="path2792" />
    <path
       id="path12435"
       style="stroke:#44150b;stroke-width:0.0413073;stroke-linecap:square;stroke-opacity:0"
       class="centro"
       d="M 3.7580871,7.8357404 A 3.395223,3.4010056 0 0 0 7.1533083,11.236747 3.395223,3.4010056 0 0 0 10.54853,7.8357404 3.395223,3.4010056 0 0 0 7.1533083,4.4347335 3.395223,3.4010056 0 0 0 3.7580871,7.8357404 Z"
       transform="matrix(3.7794822,0,0,3.7794822,329.74649,744.79077)" />
    <path
       style="stroke:#44150b;stroke-width:0.0264587;stroke-opacity:0"
       d="m 7.868169,4.5109731 c 0.276018,0.059934 0.5519351,0.1401525 0.8039633,0.2676664 0.2792522,0.1412879 0.535374,0.3311421 0.7666343,0.542004 0.2110067,0.1923948 0.3993356,0.4128029 0.5568434,0.6509854 0.144027,0.2177972 0.255409,0.4575989 0.348413,0.701586 0.06526,0.1712035 0.10816,0.3506941 0.145249,0.5301205 0.02142,0.1036391 0.0345,0.2090051 0.04438,0.3143729 0.0099,0.1056632 0.01488,0.3180322 0.01488,0.3180322 l 3.658591,1.834e-4 c 0,0 -0.01222,-0.4860778 -0.01467,-0.7291721 -0.0023,-0.2292627 0.01294,-0.4589141 0,-0.687823 -0.0097,-0.1721877 -0.03848,-0.3427723 -0.0583,-0.514092 C 14.108629,5.6842339 14.092622,5.4622513 14.056087,5.2432027 14.013472,4.9877021 13.958782,4.7338945 13.891747,4.4836888 13.851453,4.3332917 13.805666,4.1839584 13.749052,4.0389143 13.628854,3.7309676 13.499863,3.4239562 13.332196,3.1390592 13.137269,2.8078444 12.9055,2.4971137 12.652889,2.2074802 12.490004,2.0207225 12.305147,1.8535189 12.117312,1.6918775 11.917869,1.5202469 11.707698,1.3606968 11.491194,1.2111634 11.267367,1.0565727 11.035695,0.91264696 10.797227,0.78176621 10.58312,0.66425596 10.364953,0.5519195 10.137405,0.46319399 9.8517732,0.35182039 9.5566469,0.26203764 9.2570745,0.19687613 9.0727917,0.15679184 8.8843547,0.13663297 8.6964154,0.12095789 8.4043047,0.09659441 8.11061,0.09378913 7.8174863,0.09296818 7.5960192,0.09234792 7.153311,0.11039558 7.153311,0.11039558 l -2e-6,4.32433832 c 0,0 0.4806805,0.02539 0.714862,0.07624 z"
       id="path1255"
       class="superior_esquerdo"
       transform="matrix(3.7794822,0,0,3.7794822,329.74649,744.79077)" />
    <path
       style="stroke:#44150b;stroke-width:0.0264587;stroke-linecap:square;stroke-opacity:0"
       d="M 6.9064066,0.12241 C 6.8360856,0.126155 6.7657833,0.130271 6.6954962,0.134611 6.6180962,0.13939 6.5407056,0.144341 6.4633546,0.1498517 6.3289378,0.1594277 6.1944812,0.1686986 6.0602705,0.1808251 5.9419292,0.19151781 5.822035,0.19343081 5.705709,0.21766433 5.5730321,0.24530414 5.4462034,0.29618255 5.3181726,0.34062633 5.2166862,0.3758557 5.1170914,0.41631584 5.0166632,0.45445761 4.8820309,0.50558984 4.7474415,0.55683807 4.6130693,0.60865005 4.5000989,0.65220979 4.3870674,0.69562499 4.2745626,0.74037347 4.0649037,0.82376472 3.8544336,0.90536089 3.6474701,0.99523321 3.5188438,1.0510882 3.3917382,1.1104825 3.2656615,1.1718759 3.1728861,1.217053 3.078132,1.2590975 2.9900781,1.3129004 2.9139997,1.3593861 2.8436768,1.4148126 2.7730114,1.4691749 2.6840282,1.537629 2.5954399,1.6070092 2.5127159,1.6829086 2.4453126,1.7447513 2.3806197,1.8098836 2.3209939,1.8792556 2.2274009,1.988147 2.141287,2.103704 2.0615081,2.223087 2.0137517,2.2945507 1.97019,2.3689626 1.9307722,2.445343 1.8497646,2.6023123 1.7781004,2.7643064 1.7141449,2.9289615 1.6617683,3.0638066 1.6202026,3.2026588 1.5776961,3.340933 c -0.02389,0.077714 -0.045144,0.1562189 -0.066617,0.2346348 -0.016835,0.061478 -0.032907,0.1231641 -0.048777,0.1848983 -0.017208,0.066941 -0.034695,0.1338244 -0.050355,0.2011441 -0.014988,0.064433 -0.026522,0.1296404 -0.04172,0.1940237 -0.01692,0.071675 -0.037553,0.1424299 -0.055053,0.2139652 C 1.2778563,4.5221424 1.244627,4.6756579 1.2086814,4.8285303 1.1945661,4.8885606 1.1804757,4.9485987 1.165808,5.0084964 1.1167217,5.2089477 1.0673892,5.4093591 1.0147742,5.6089131 0.96562182,5.7953341 0.91164637,5.9804514 0.86097308,6.1664646 0.79261076,6.4174114 0.72305167,6.6680556 0.65829122,6.9199559 0.6231808,7.0565258 0.58983708,7.1935532 0.55752741,7.3308126 0.5179939,7.4987606 0.44362938,7.8357405 0.44362938,7.8357405 l 3.31445772,-1e-7 c 0.0013,-0.09235 0.027233,-0.485201 0.077436,-0.7219763 C 3.8813821,6.897479 3.9554543,6.6872081 4.0385089,6.4823077 4.0815539,6.3761134 4.1314225,6.2721168 4.1908683,6.1741561 4.3339931,5.9383009 4.4932737,5.7096671 4.6795969,5.5062069 4.8285908,5.3435093 4.9943129,5.1931582 5.1773651,5.0700259 5.4713187,4.8722943 5.7939763,4.7132772 6.1274519,4.5936925 6.3049831,4.5300296 6.4925656,4.4956972 6.6791313,4.4680653 6.8358701,4.444851 7.153307,4.4347335 7.153307,4.4347335 l 2e-6,-4.32433829 c 0,0 -0.1646208,0.007633 -0.2469024,0.0120148 z"
       id="path3383"
       class="superior_direito"
       transform="matrix(3.7794822,0,0,3.7794822,329.74649,744.79077)" />
    <path
       style="stroke:#44150b;stroke-width:0.0264587;stroke-linecap:square;stroke-opacity:0"
       d="m 10.54853,7.8357404 c 0,0.153683 -0.01556,0.3753769 -0.04637,0.5601974 -0.0308,0.1847798 -0.0829,0.3657314 -0.137833,0.5448253 -0.01137,0.037063 -0.02496,0.073455 -0.0396,0.1093508 -0.05364,0.1314992 -0.08469,0.2021291 -0.176517,0.3877729 -0.01859,0.052191 -0.05178,0.098113 -0.08175,0.1447113 -0.1104037,0.1716728 -0.2257269,0.3416211 -0.3601538,0.4952119 -0.1343456,0.153497 -0.2877248,0.289884 -0.4428628,0.422332 -0.034144,0.02915 -0.069083,0.05778 -0.1070841,0.08169 -0.3060163,0.192496 -0.6249853,0.373342 -0.9663128,0.49249 -0.235218,0.08211 -0.086659,0.02656 -0.7324602,0.148745 l -0.3042693,0.01368 3e-6,4.209205 c 0,0 0.8873223,0.179529 1.3254099,0.111358 0.5572279,-0.08671 1.0660629,-0.380818 1.5631081,-0.647215 0.353099,-0.189247 0.667472,-0.443291 0.997704,-0.670096 0.233307,-0.160236 0.462529,-0.326346 0.694894,-0.487945 0.136574,-0.09498 0.274132,-0.188541 0.411006,-0.283089 0.146851,-0.10144 0.29445,-0.201816 0.440142,-0.304914 0.11304,-0.07999 0.227145,-0.158658 0.336707,-0.243353 0.190379,-0.147168 0.382595,-0.293488 0.556603,-0.459691 0.102339,-0.09775 0.206625,-0.196831 0.285083,-0.314613 0.125993,-0.189143 0.226997,-0.398719 0.289824,-0.617127 0.101328,-0.352251 0.108302,-0.725838 0.132873,-1.091549 0.02318,-0.344946 0.01313,-0.6913599 0.01352,-1.0370837 4.76e-4,-0.4188469 -0.02514,-0.8377829 -0.01352,-1.2564688 0.0029,-0.1029931 0.01676,-0.24629 0.02046,-0.30842 z"
       id="path8594"
       class="inferior_esquerdo"
       transform="matrix(3.7794822,0,0,3.7794822,329.74649,744.79077)" />
    <path
       style="stroke:#44150b;stroke-width:0.0264587;stroke-linecap:square;stroke-opacity:0"
       d="M 7.153309,15.445947 C 7.036793,15.454547 6.6509028,15.309109 6.4026382,15.230916 6.2202681,15.173477 6.0400372,15.109346 5.8602188,15.044358 5.5578085,14.935065 5.2575884,14.819719 4.958192,14.702422 4.6487058,14.581171 4.3408802,14.455676 4.0338137,14.328422 3.896191,14.271388 3.7589043,14.213514 3.6223995,14.153854 3.3338321,14.027735 3.0452707,13.90135 2.7608136,13.766215 2.5081419,13.646181 2.2527302,13.530263 2.0104205,13.390488 1.7078785,13.215967 1.3810113,13.062486 1.1352504,12.814311 0.76939365,12.444861 0.49248288,11.982174 0.29028832,11.503152 0.21278859,11.319546 0.18836849,11.117192 0.15610258,10.920529 0.12354081,10.722063 0.09573893,10.521236 0.09654496,10.320118 0.09879401,9.7589444 0.1893301,9.200613 0.27614998,8.6461915 c 0.042678,-0.2725369 0.1674794,-0.810451 0.1674794,-0.810451 l 3.31445772,-1e-7 c 0.038763,0.4982935 0.064523,1.4722109 0.9929371,2.4033706 0.928415,0.93116 2.0544669,0.997636 2.4022859,0.997636 z"
       id="path24007"
       transform="matrix(3.7794822,0,0,3.7794822,329.74649,744.79077)"
       class="inferior_direito" />
  </g>
</svg>
