<?xml version="1.0" encoding="UTF-8" standalone="no"?>
<svg
   width="78.286064"
   height="84.132286"
   viewBox="0 0 20.713191 22.260266"
   version="1.1"
   id="svg10"
   sodipodi:docname="dente_17_quadrantes_notplain.svg"
   inkscape:version="1.2.2 (732a01da63, 2022-12-09)"
   inkscape:export-filename="dente_17_quadrantes.svg"
   inkscape:export-xdpi="96"
   inkscape:export-ydpi="96"
   xmlns:inkscape="http://www.inkscape.org/namespaces/inkscape"
   xmlns:sodipodi="http://sodipodi.sourceforge.net/DTD/sodipodi-0.dtd"
   xmlns="http://www.w3.org/2000/svg"
   xmlns:svg="http://www.w3.org/2000/svg">
  <defs
     id="defs14">
    <inkscape:path-effect
       effect="spiro"
       id="path-effect3387"
       is_visible="true"
       lpeversion="1" />
    <inkscape:path-effect
       effect="bspline"
       id="path-effect1091-4"
       is_visible="true"
       lpeversion="1"
       weight="33.333333"
       steps="2"
       helper_size="0"
       apply_no_weight="true"
       apply_with_weight="true"
       only_selected="false" />
    <inkscape:path-effect
       effect="bspline"
       id="path-effect1095-7"
       is_visible="true"
       lpeversion="1"
       weight="33.333333"
       steps="2"
       helper_size="0"
       apply_no_weight="true"
       apply_with_weight="true"
       only_selected="false" />
    <inkscape:path-effect
       effect="bspline"
       id="path-effect1099-9"
       is_visible="true"
       lpeversion="1"
       weight="33.333333"
       steps="2"
       helper_size="0"
       apply_no_weight="true"
       apply_with_weight="true"
       only_selected="false" />
    <inkscape:path-effect
       effect="bspline"
       id="path-effect1103-5"
       is_visible="true"
       lpeversion="1"
       weight="33.333333"
       steps="2"
       helper_size="0"
       apply_no_weight="true"
       apply_with_weight="true"
       only_selected="false" />
    <inkscape:path-effect
       effect="bspline"
       id="path-effect1107-5"
       is_visible="true"
       lpeversion="1"
       weight="33.333333"
       steps="2"
       helper_size="0"
       apply_no_weight="true"
       apply_with_weight="true"
       only_selected="false" />
    <inkscape:path-effect
       effect="bspline"
       id="path-effect1111-5"
       is_visible="true"
       lpeversion="1"
       weight="33.333333"
       steps="2"
       helper_size="0"
       apply_no_weight="true"
       apply_with_weight="true"
       only_selected="false" />
    <inkscape:path-effect
       effect="bspline"
       id="path-effect1115-7"
       is_visible="true"
       lpeversion="1"
       weight="33.333333"
       steps="2"
       helper_size="0"
       apply_no_weight="true"
       apply_with_weight="true"
       only_selected="false" />
    <inkscape:path-effect
       effect="bspline"
       id="path-effect1119-6"
       is_visible="true"
       lpeversion="1"
       weight="33.333333"
       steps="2"
       helper_size="0"
       apply_no_weight="true"
       apply_with_weight="true"
       only_selected="false" />
  </defs>
  <sodipodi:namedview
     id="namedview12"
     pagecolor="#ffffff"
     bordercolor="#000000"
     borderopacity="0.25"
     inkscape:showpageshadow="2"
     inkscape:pageopacity="0.0"
     inkscape:pagecheckerboard="0"
     inkscape:deskcolor="#d1d1d1"
     showgrid="false"
     showguides="true"
     inkscape:zoom="5.6568543"
     inkscape:cx="73.27394"
     inkscape:cy="30.405591"
     inkscape:window-width="1920"
     inkscape:window-height="1009"
     inkscape:window-x="-8"
     inkscape:window-y="-8"
     inkscape:window-maximized="1"
     inkscape:current-layer="layer2" />
  <g
     inkscape:groupmode="layer"
     id="layer2"
     inkscape:label="Image 2"
     transform="matrix(-0.26458649,0,0,0.26458649,50.838551,-64.421284)"
     inkscape:export-filename="dente_27_quadrantes.svg"
     inkscape:export-xdpi="96"
     inkscape:export-ydpi="96">
    <path
       style="fill:none;stroke:#030303;stroke-width:0.7;stroke-linecap:round;stroke-linejoin:round;stroke-dasharray:none;stroke-opacity:1;paint-order:stroke fill markers"
       d="m 128.77611,252.7889 c -1.61385,0.97255 -3.20298,2.0438 -4.71988,3.58501 -1.51689,1.54121 -2.96103,3.55187 -4.64796,5.84355 -1.68693,2.29169 -3.61647,4.86416 -4.5079,7.86247 -0.89142,2.99832 -0.74478,6.42121 -0.52105,10.03728 0.22373,3.61607 0.5245,7.42481 0.64052,11.40872 0.11602,3.9839 0.0474,8.14264 0.2535,11.80487 0.20613,3.66224 0.6868,6.82753 1.75378,9.72824 1.06698,2.90071 2.71963,5.53652 4.94309,7.83287 2.22345,2.29636 5.01709,4.25345 8.53602,5.29205 3.51894,1.03861 7.76284,1.15937 11.2262,1.03925 3.46337,-0.12012 6.14592,-0.48095 8.45264,-0.59839 2.30672,-0.11744 4.23715,0.008 7.04827,0.20639 2.81113,0.19802 6.50276,0.46825 9.76428,0.14671 3.26151,-0.32155 6.09319,-1.23455 8.91634,-3.75733 2.82314,-2.52279 5.63829,-6.6555 7.50833,-11.92689 1.87004,-5.27139 2.79472,-11.68143 3.79543,-17.19306 1.00072,-5.51163 2.07743,-10.12416 2.97118,-14.5016 0.89375,-4.37744 1.60447,-8.5196 1.60497,-12.13698 5.1e-4,-3.61737 -0.70957,-6.71005 -2.02921,-9.66254 -1.31965,-2.95248 -3.24921,-5.76438 -6.08717,-8.00146 -2.83795,-2.23708 -6.58443,-3.89848 -10.65642,-4.90377 -4.07198,-1.0053 -8.46899,-1.354 -12.45391,-0.80704 -3.98492,0.54695 -7.5567,1.98978 -10.93758,2.99898 -3.38088,1.0092 -6.5707,1.58457 -9.19933,2.0094 -2.62863,0.42484 -4.69581,0.69905 -6.54886,1.27301 -1.85305,0.57395 -3.49143,1.44772 -5.10528,2.42026 z"
       id="path1089"
       inkscape:path-effect="#path-effect1091-4"
       inkscape:original-d="m 128.75122,252.69032 c -1.58818,1.07228 -3.17732,2.14353 -4.76752,3.21383 -1.44323,2.01178 -2.88737,4.02244 -4.33259,6.03221 -1.92865,2.57363 -3.85819,5.1461 -5.78885,7.71773 0.14765,3.42412 0.29428,6.84701 0.43993,10.26913 0.30178,3.80999 0.60254,7.61873 0.90232,11.42671 -0.0676,4.15992 -0.13627,8.31866 -0.20591,12.4765 0.4817,3.16648 0.96237,6.33177 1.44206,9.49624 1.65371,2.63691 3.30636,5.27272 4.95804,7.90758 2.79482,1.95822 5.58846,3.91531 8.38127,5.87152 4.24517,0.12177 8.48907,0.24253 12.73225,0.3623 2.68373,-0.35986 5.36628,-0.7207 8.04801,-1.08256 1.9315,0.1268 3.86193,0.25261 5.7914,0.37741 3.69277,0.27123 7.3844,0.54146 11.0751,0.81069 2.83279,-0.91204 5.66447,-1.82504 8.4952,-2.73906 2.81632,-4.13197 5.63147,-8.26468 8.44579,-12.39865 0.92573,-6.40943 1.85041,-12.81947 2.77414,-19.2309 1.07775,-4.61172 2.15446,-9.22425 3.23019,-13.83787 0.71174,-4.14133 1.42245,-8.2835 2.13218,-12.42675 -0.70912,-3.09186 -1.4192,-6.18454 -2.13032,-9.27841 -1.92869,-2.81107 -3.85825,-5.62298 -5.78894,-8.43606 -3.74564,-1.66046 -7.49212,-3.32186 -11.23968,-4.98429 -4.39627,-0.34772 -8.79328,-0.69641 -13.19156,-1.04613 -3.571,1.44393 -7.14278,2.88675 -10.71579,4.32867 -3.18903,0.57641 -6.37885,1.15178 -9.56989,1.72619 -2.06628,0.27523 -4.13346,0.54945 -6.20169,0.82267 -1.63738,0.87477 -3.27576,1.74853 -4.91514,2.6213 z"
       sodipodi:nodetypes="ccccccccccccccccccccccccccc" />
    <path
       style="fill:none;stroke:#808080;stroke-width:0.3;stroke-linecap:round;stroke-linejoin:round;stroke-dasharray:none;stroke-opacity:1;paint-order:stroke fill markers"
       d="m 132.27976,267.27973 c -0.54026,0.0203 -1.62172,0.0609 -2.83964,0.46582 -1.21791,0.40489 -2.57159,1.17415 -3.95475,2.32503 -1.38316,1.15087 -2.79534,2.68306 -3.58278,3.77105 -0.78745,1.08798 -0.94998,1.73105 -1.15475,3.43089 -0.20478,1.69984 -0.45187,4.45613 -0.61424,7.21613 -0.16237,2.75999 -0.24006,5.52345 -0.17597,7.98925 0.0641,2.4658 0.2698,4.63366 0.6433,7.00953 0.3735,2.37586 0.91462,4.95949 1.92365,7.49697 1.00904,2.53747 2.48546,5.02863 4.17999,6.69351 1.69454,1.66488 3.60656,2.50405 5.47658,3.10369 1.87002,0.59964 3.69798,0.96001 4.99453,0.95613 1.29654,-0.004 2.06231,-0.3716 2.52443,-0.84574 0.46211,-0.47413 0.62113,-1.05554 0.98207,-1.77601 0.36094,-0.72047 0.92374,-1.57952 1.66546,-2.32266 0.74172,-0.74313 1.66194,-1.36993 2.62229,-1.22372 0.96035,0.14621 1.95996,1.0643 3.00033,2.16845 1.04036,1.10415 2.12154,2.39415 3.55303,3.36316 1.43149,0.96901 3.21289,1.6176 5.07821,1.94168 1.86532,0.32408 3.81466,0.32408 6.3819,-0.54082 2.56724,-0.86489 5.75286,-2.59443 8.10751,-4.44017 2.35464,-1.84574 3.87863,-3.80789 5.52263,-7.4944 1.64401,-3.68652 3.408,-9.0976 4.87756,-14.54261 1.46956,-5.44502 2.64456,-10.92377 3.0485,-15.28723 0.40395,-4.36346 0.0366,-7.61173 -0.89422,-10.26728 -0.93077,-2.65555 -2.42553,-4.71824 -4.39181,-6.09505 -1.96627,-1.3768 -4.4043,-2.06686 -6.06174,-2.31884 -1.65745,-0.25198 -2.5338,-0.0654 -3.12216,0.15749 -0.58835,0.22287 -0.88803,0.48191 -1.33544,0.72701 -0.44742,0.2451 -1.04301,0.47639 -1.75445,0.45463 -0.71145,-0.0218 -1.53938,-0.29716 -2.55604,-0.54649 -1.01666,-0.24932 -2.22192,-0.47237 -3.80191,-0.59688 -1.57998,-0.1245 -3.53444,-0.15027 -5.38832,-0.18347 -1.85388,-0.0332 -3.60708,-0.0738 -5.28325,0.026 -1.67617,0.0998 -3.27502,0.3402 -4.95834,0.86018 -1.68333,0.51998 -3.45063,1.3196 -5.33847,2.56556 -1.88785,1.24596 -3.89574,2.93807 -5.05474,3.96899 -1.159,1.03093 -1.46889,1.40046 -1.62379,1.58519 -0.15491,0.18472 -0.15491,0.18474 -0.69516,0.20504 z"
       id="path1093"
       inkscape:path-effect="#path-effect1095-7"
       inkscape:original-d="m 132.82001,267.25943 c -1.08047,0.0416 -2.16193,0.0823 -3.24439,0.1219 -1.35274,0.77029 -2.70642,1.53955 -4.06113,2.30783 -1.41124,1.53325 -2.82342,3.06544 -4.23663,4.59666 -0.16154,0.64409 -0.32407,1.28716 -0.48761,1.92924 -0.2461,2.7574 -0.4932,5.51369 -0.7413,8.26903 -0.0767,2.76458 -0.15438,5.52804 -0.23307,8.29056 0.20673,2.16896 0.41244,4.33683 0.61717,6.50375 0.54214,2.58473 1.08325,5.16836 1.62338,7.75104 1.47748,2.49226 2.95391,4.98341 4.42937,7.47361 1.9131,0.84021 3.82512,1.67938 5.73618,2.51757 1.82904,0.36139 3.657,0.72177 5.48401,1.08115 0.76681,-0.36673 1.53258,-0.73444 2.29738,-1.10316 0.16003,-0.58043 0.31906,-1.16184 0.47709,-1.74427 0.56382,-0.85807 1.12662,-1.71712 1.68843,-2.57718 0.92126,-0.62582 1.84147,-1.25262 2.7607,-1.88043 1.00065,0.91912 2.00026,1.83722 2.9989,2.75433 1.08223,1.29106 2.16341,2.58106 3.24362,3.8701 1.78247,0.64961 3.56386,1.29821 5.34429,1.94581 1.95042,0.001 3.89976,0.001 5.84815,0 3.18674,-1.7286 6.37236,-3.45814 9.55705,-5.18871 1.52506,-1.96124 3.04905,-3.92339 4.57208,-5.88659 1.76506,-5.4103 3.52906,-10.82138 5.29209,-16.23357 1.17604,-5.47798 2.35104,-10.95673 3.52507,-16.43659 -0.36641,-3.24741 -0.73381,-6.49568 -1.10222,-9.74503 -1.49382,-2.06178 -2.98859,-4.12447 -4.48439,-6.18821 -2.43712,-0.68908 -4.87515,-1.37913 -7.31422,-2.0702 -0.87538,0.18761 -1.75173,0.3742 -2.62909,0.5598 -0.29868,0.26005 -0.59836,0.51909 -0.89903,0.77713 -0.59461,0.23229 -1.1902,0.46358 -1.78679,0.69387 -0.82697,-0.27441 -1.6549,-0.54981 -2.48385,-0.82622 -1.20432,-0.22206 -2.40958,-0.4451 -3.61587,-0.66915 -1.95354,-0.0248 -3.908,-0.0505 -5.8635,-0.0773 -1.75227,-0.0396 -3.50547,-0.0803 -5.2597,-0.1219 -1.59792,0.2414 -3.19677,0.4818 -4.79666,0.72119 -1.76638,0.80065 -3.53369,1.60026 -5.30204,2.3989 -2.00697,1.69316 -4.01487,3.38526 -6.0238,5.0764 -0.3089,0.37054 -0.61878,0.74008 -0.92967,1.10862 z" />
    <path
       style="fill:none;stroke:#4d4d4d;stroke-width:0.7;stroke-linecap:round;stroke-linejoin:round;stroke-dasharray:none;stroke-opacity:1;paint-order:stroke fill markers"
       d="m 121.67524,284.01473 c 1.07512,1.36427 2.14938,2.72743 2.70665,4.12367 0.55727,1.39624 0.5984,2.82556 0.2731,3.95839 -0.3253,1.13284 -1.01689,1.97002 -1.34656,3.14094 -0.32968,1.17092 -0.29755,2.67456 -0.36286,3.73911 -0.0653,1.06454 -0.22783,1.69025 -0.39019,2.31529"
       id="path1097"
       inkscape:path-effect="#path-effect1099-9"
       inkscape:original-d="m 121.67524,284.01473 c 1.07525,1.36417 2.14951,2.72733 3.22276,4.08949 0.0421,1.43039 0.0833,2.85971 0.12339,4.28807 -0.69062,0.83823 -1.3822,1.67542 -2.0748,2.51163 0.0331,1.50471 0.0653,3.00835 0.0964,4.51103 -0.16154,0.62674 -0.32407,1.25245 -0.48761,1.87718" />
    <path
       style="fill:none;stroke:#4d4d4d;stroke-width:0.7;stroke-linecap:round;stroke-linejoin:round;stroke-dasharray:none;stroke-opacity:1;paint-order:stroke fill markers"
       d="m 125.07455,291.54955 c 2.04779,0.16902 4.0945,0.33795 5.62182,0.54354 1.52733,0.20558 2.53513,0.44763 2.98686,0.9549 0.45172,0.50727 0.34865,1.27917 0.59284,2.1893 0.24419,0.91013 0.83484,1.9581 1.48337,3.29484 0.64853,1.33674 1.35505,2.96215 2.17119,4.69874 0.81614,1.7366 1.74178,3.58429 2.41651,4.78526 0.67472,1.20096 1.09825,1.75523 1.52093,2.3084"
       id="path1101"
       inkscape:path-effect="#path-effect1103-5"
       inkscape:original-d="m 125.07455,291.54955 c 2.04771,0.16993 4.09442,0.33886 6.14013,0.50679 1.00885,0.24305 2.01665,0.48509 3.02347,0.72614 -0.10208,0.77293 -0.20516,1.54483 -0.30924,2.31574 0.59168,1.04901 1.18233,2.09698 1.772,3.14397 0.70754,1.62647 1.41405,3.25188 2.11958,4.87632 0.92668,1.84876 1.85232,3.69645 2.77698,5.54317 0.42454,0.5553 0.84807,1.10957 1.2706,1.66285" />
    <path
       style="fill:none;stroke:#4d4d4d;stroke-width:0.7;stroke-linecap:round;stroke-linejoin:round;stroke-dasharray:none;stroke-opacity:1;paint-order:stroke fill markers"
       d="m 134.40901,293.29414 c 0.94736,-0.0768 1.89379,-0.15361 3.0305,-0.37732 1.1367,-0.22372 2.46385,-0.59426 3.7416,-1.13469 1.27776,-0.54042 2.50639,-1.25071 3.74161,-2.02554 1.23521,-0.77483 2.47702,-1.61419 3.80364,-2.07447 1.32662,-0.46027 2.73725,-0.54154 4.22051,-0.52191 1.48326,0.0196 3.03893,0.14 4.21373,0.66936 1.1748,0.52937 1.96882,1.46669 3.12293,2.24945 1.15411,0.78276 2.66794,1.41148 4.23259,1.51302 1.56466,0.10154 3.18058,-0.32341 4.20726,-0.73232 1.02668,-0.4089 1.46474,-0.80188 2.0909,-0.99835 0.62616,-0.19646 1.43946,-0.19646 2.16939,-0.0796 0.72993,0.11686 1.37626,0.35016 2.29802,0.89225 0.92176,0.54209 2.11897,1.39257 3.31507,2.24226"
       id="path1105"
       inkscape:path-effect="#path-effect1107-5"
       inkscape:original-d="m 134.40901,293.29414 c 0.94744,-0.0758 1.89388,-0.15253 2.83933,-0.2303 1.3282,-0.36956 2.65535,-0.74009 3.98153,-1.11164 1.22968,-0.70931 2.45832,-1.41959 3.68598,-2.13089 1.24286,-0.8384 2.48467,-1.67776 3.7255,-2.51814 1.41169,-0.0803 2.82232,-0.16154 4.23198,-0.2438 1.55673,0.12138 3.1124,0.24175 4.6671,0.36113 0.79506,0.93836 1.58908,1.87568 2.38212,2.81203 1.51489,0.62974 3.02871,1.25847 4.54156,1.8862 1.61698,-0.42397 3.2329,-0.84892 4.84784,-1.27488 0.43906,-0.39198 0.87711,-0.78496 1.31416,-1.17894 0.81433,10e-4 1.62763,10e-4 2.43995,0 0.64734,0.2343 1.29366,0.4676 1.93899,0.69989 1.19826,0.85152 2.39547,1.702 3.59171,2.55149" />
    <path
       style="fill:none;stroke:#4d4d4d;stroke-width:0.7;stroke-linecap:round;stroke-linejoin:round;stroke-dasharray:none;stroke-opacity:1;paint-order:stroke fill markers"
       d="m 172.47401,289.59944 c 0.64339,-1.31214 1.28697,-2.62469 2.21258,-3.9052 0.9256,-1.28051 2.133,-2.52854 3.27552,-3.93273 1.14251,-1.40419 2.22022,-2.96466 2.87664,-3.8625 0.65641,-0.89783 0.89136,-1.13278 1.12631,-1.36773"
       id="path1109"
       inkscape:path-effect="#path-effect1111-5"
       inkscape:original-d="m 172.47401,289.59944 c 0.64459,-1.31155 1.28818,-2.6241 1.93076,-3.93765 1.20844,-1.24707 2.41584,-2.4951 3.62225,-3.74415 1.07875,-1.55953 2.15646,-3.12 3.23318,-4.6815 0.23596,-0.23396 0.47091,-0.46891 0.70486,-0.70486" />
    <path
       style="fill:none;stroke:#4d4d4d;stroke-width:0.7;stroke-linecap:round;stroke-linejoin:round;stroke-dasharray:none;stroke-opacity:1;paint-order:stroke fill markers"
       d="m 153.60005,299.4923 c -0.39722,-0.97933 -0.79493,-1.95987 -0.99403,-3.43162 -0.1991,-1.47174 -0.1991,-3.43439 -0.2194,-4.99599 -0.0203,-1.56161 -0.0609,-2.7221 -0.3148,-3.46169 -0.25386,-0.73959 -0.72205,-1.058 -0.7825,-1.86856 -0.0604,-0.81057 0.28817,-2.11314 0.3837,-3.71913 0.0955,-1.60598 -0.0623,-3.51569 -0.1904,-5.40182 -0.12807,-1.88612 -0.22632,-3.74852 -0.26482,-4.97922 -0.0385,-1.2307 -0.0171,-1.82956 0.30357,-2.81727 0.32069,-0.98772 0.94085,-2.36371 1.56123,-3.74019"
       id="path1113"
       inkscape:path-effect="#path-effect1115-7"
       inkscape:original-d="m 153.60005,299.4923 c -0.39671,-0.97954 -0.79442,-1.96008 -1.19313,-2.94162 10e-4,-1.96174 10e-4,-3.92439 0,-5.88809 -0.0396,-1.15954 -0.0803,-2.32003 -0.1219,-3.48154 -0.46721,-0.31742 -0.9354,-0.63583 -1.40459,-0.95524 0.34963,-1.30162 0.69825,-2.60419 1.04587,-3.90778 -0.15685,-1.90878 -0.31469,-3.81849 -0.47354,-5.72924 -0.0973,-1.86147 -0.19552,-3.72387 -0.29478,-5.5873 0.0224,-0.59788 0.0437,-1.19674 0.0641,-1.79661 0.62119,-1.37505 1.24135,-2.75105 1.86052,-4.12807" />
    <path
       style="fill:none;stroke:#4d4d4d;stroke-width:0.7;stroke-linecap:round;stroke-linejoin:round;stroke-dasharray:none;stroke-opacity:1;paint-order:stroke fill markers"
       d="m 151.11513,269.92351 c -0.86645,-0.9715 -1.73384,-1.94406 -2.54804,-2.72614 -0.8142,-0.78207 -1.57535,-1.37346 -2.03152,-1.7775 -0.45617,-0.40404 -0.60703,-0.62101 -0.75869,-0.83912"
       id="path1117"
       inkscape:path-effect="#path-effect1119-6"
       inkscape:original-d="m 151.11513,269.92351 c -0.86639,-0.97155 -1.73378,-1.94411 -2.60216,-2.91766 -0.76019,-0.59041 -1.52134,-1.1818 -2.2835,-1.77419 -0.14987,-0.21597 -0.30073,-0.43294 -0.45259,-0.65091" />
    <path
       style="stroke:#d6764a;stroke-width:0.0264587;stroke-linecap:butt;stroke-dasharray:none;stroke-opacity:0"
       d="m 10.350233,6.4064998 c 0,0 -0.6836251,0.042928 -1.0178231,0.1123666 -0.255075,0.052998 -0.505214,0.1330732 -0.746714,0.2307965 C 8.3397443,6.8491876 8.1013315,6.9699218 7.8757598,7.1096172 7.64557,7.2521726 7.4305927,7.419385 7.2241056,7.5945206 7.0864692,7.7112593 6.9511557,7.8327509 6.8343304,7.9703138 6.5910017,8.2568356 6.3676969,8.5651355 6.1934345,8.8982064 6.0155993,9.238106 5.8821154,9.6034252 5.7884452,9.9754238 5.6934743,10.352588 5.6366875,11.077859 5.6328627,11.131817 l -5.40223504,-0.008 C 0.19699997,10.375955 0.13699842,9.9350653 0.1172133,9.3393721 0.10206447,8.8832689 0.07452291,8.4250266 0.11319969,7.9703138 0.13992917,7.6560624 0.1919962,7.3422868 0.2757328,7.0382199 0.32616511,6.8550887 0.39581286,6.6766201 0.47904143,6.5058762 0.66622139,6.1218755 0.9035174,5.7636275 1.1404639,5.4081711 1.3866115,5.0389116 1.6504953,4.6810024 1.9287033,4.3352546 2.2528857,3.9323713 2.5655877,3.5125517 2.9534217,3.1705079 3.3547701,2.8165452 3.8178364,2.5356363 4.2818378,2.2690414 4.5045376,2.1410878 4.7369229,2.0281075 4.9767282,1.9361254 5.2400305,1.8351306 5.5169089,1.7737874 5.7884452,1.6976559 5.9158296,1.6619407 6.0421523,1.6211144 6.1718964,1.5952531 6.5198774,1.5258916 6.8774386,1.5152531 7.2270413,1.4545918 7.6055102,1.3889218 7.9798075,1.3006355 8.3538365,1.2131513 8.8586668,1.0950731 9.3634471,0.97488499 9.861444,0.83067988 c 0.164758,-0.0477091 0.1225204,-0.0396675 0.489218,-0.15955717 0.0011,2.92966339 -4.29e-4,5.73537709 -4.29e-4,5.73537709 z"
       id="path1255"
       sodipodi:nodetypes="caaaaaaaccaaaaaaaaaaaaaacc"
       inkscape:label="superior_esquerdo"
       class="superior_esquerdo"
       transform="matrix(3.7794825,0,0,3.7794825,113.85825,243.47911)" />
    <path
       style="stroke:#d6764a;stroke-width:0.0264587;stroke-linecap:square;stroke-dasharray:none;stroke-opacity:0"
       d="m 10.350662,0.67112268 c 0.156574,-0.0215968 0.532178,-0.17173085 0.801096,-0.24806011 0.174574,-0.0495509 0.350077,-0.0962666 0.527102,-0.13618787 0.188259,-0.0424546 0.37781,-0.0798154 0.568457,-0.10977497 0.145098,-0.0228018 0.291067,-0.0407124 0.437416,-0.0531795 0.209132,-0.0178153 0.419047,-0.02771185 0.628913,-0.03082957 0.164495,-0.0024437 0.329108,0.0019591 0.493447,0.0095108 0.248146,0.0114028 0.496766,0.0232741 0.743262,0.0540318 0.161338,0.0201317 0.320677,0.0541345 0.480258,0.0852644 0.208409,0.0406548 0.416839,0.081987 0.623071,0.13254093 0.180697,0.0442948 0.35986,0.0950076 0.537745,0.14951203 0.128854,0.0394814 0.256916,0.0818131 0.383337,0.12850549 0.196044,0.0724074 0.390941,0.14865035 0.581271,0.23496659 0.19503,0.0884471 0.387,0.1842823 0.573541,0.2894558 0.166224,0.093718 0.327533,0.1963173 0.485216,0.3037849 0.08856,0.060355 0.171302,0.1288547 0.258434,0.1912465 0.109844,0.078654 0.230839,0.1425856 0.333187,0.2307726 0.08536,0.073553 0.158858,0.1601995 0.231443,0.2463876 0.07654,0.090888 0.144399,0.188774 0.21452,0.2847037 0.160073,0.2189893 0.327728,0.4333089 0.470626,0.6638729 0.110192,0.1777949 0.198637,0.3393419 0.296979,0.5527972 0.06383,0.1385442 0.212891,0.5006664 0.212891,0.5006664 0,0 0.06269,0.172353 0.09108,0.2595257 0.02788,0.085588 0.05503,0.1715076 0.07782,0.2585886 0.04964,0.1896314 0.09432,0.3808491 0.128168,0.5739248 0.03001,0.1711906 0.05156,0.3439996 0.06625,0.5171792 0.0165,0.1945513 0.02284,0.3899941 0.02451,0.5852371 0.0011,0.1287672 -0.0034,0.2575718 -0.0096,0.3861976 -0.0072,0.1501555 -0.01806,0.3001588 -0.03179,0.4498565 -0.01622,0.1768654 -0.03692,0.3533288 -0.05976,0.5294621 -0.02111,0.1628173 -0.04565,0.32519 -0.07142,0.487336 -0.02703,0.1701314 -0.05417,0.3403207 -0.08726,0.5093776 -0.03809,0.1945874 -0.08918,0.3864642 -0.128059,0.5808954 -0.0646,0.3230289 -0.109532,0.6497985 -0.174772,0.9726991 -0.05835,0.288807 -0.178311,0.820918 -0.193711,0.862442 l -4.783903,0.0063 c -0.0021,-0.158069 -0.03166,-0.655237 -0.101541,-0.974144 C 14.898284,9.7881885 14.784818,9.4227221 14.615411,9.0864302 14.392139,8.6432108 14.106224,8.2254015 13.767755,7.862451 13.486437,7.5607839 13.154965,7.3022165 12.80204,7.088705 12.448832,6.8750228 12.064713,6.7046413 11.667555,6.5920306 11.485252,6.5403403 11.243174,6.484409 11.026859,6.4536729 c -0.223841,-0.031805 -0.676626,-0.047173 -0.676626,-0.047173 0,0 8.99e-4,-2.8043095 4.29e-4,-5.73537722 z"
       id="path3383"
       sodipodi:nodetypes="caaaaaaaaaaaaaaaaaaascaaaaaaaaaaaaccaaaasacc"
       inkscape:label="superior_direito"
       class="superior_direito"
       transform="matrix(3.7794825,0,0,3.7794825,113.85825,243.47911)" />
    <path
       style="stroke:#d6764a;stroke-width:0.0264587;stroke-linecap:square;stroke-dasharray:none;stroke-opacity:0"
       d="m 10.350662,21.990736 c 0.233715,0.0091 0.467343,0.02048 0.700841,0.03406 0.600286,0.03491 1.199848,0.08452 1.800849,0.103482 0.692141,0.02184 1.394575,0.0017 2.060197,-0.189347 0.344389,-0.09883 0.676461,-0.243212 0.97795,-0.436794 0.347683,-0.223243 0.650987,-0.509029 0.934606,-0.809497 0.256267,-0.271491 0.4989,-0.557211 0.704919,-0.868557 0.295674,-0.446837 0.51239,-0.940909 0.706963,-1.440136 0.164313,-0.421585 0.314073,-0.849332 0.431344,-1.286345 0.03605,-0.134334 0.06902,-0.269508 0.09781,-0.405581 0.05079,-0.240017 0.08854,-0.482565 0.130873,-0.724217 0.05607,-0.320058 0.120195,-0.638688 0.191127,-0.955783 0.08997,-0.402204 0.19102,-0.802661 0.249102,-1.210692 0.02938,-0.206375 0.04771,-0.414398 0.08515,-0.619465 0.03902,-0.213763 0.09859,-0.423174 0.146378,-0.63515 0.03008,-0.133445 0.05549,-0.26789 0.08224,-0.402043 0.02304,-0.115565 0.04708,-0.230928 0.07117,-0.34628 0.02922,-0.139938 0.05851,-0.279862 0.08806,-0.41973 0.01795,-0.08496 0.036,-0.169908 0.05415,-0.254831 l -4.78399,0.002 c 1.99e-4,0.204857 -0.01295,0.409726 -0.03934,0.612876 -0.04,0.307973 -0.110489,0.611978 -0.210077,0.906138 -0.146678,0.433253 -0.356705,0.845002 -0.621333,1.21809 -0.219782,0.309861 -0.477112,0.593064 -0.764565,0.841436 -0.287457,0.248375 -0.605006,0.46189 -0.94348,0.634392 -0.379624,0.193473 -0.785547,0.335261 -1.203076,0.420206 -0.311688,0.06341 -0.629795,0.09522 -0.947868,0.09479 z"
       id="path3385"
       inkscape:path-effect="#path-effect3387"
       inkscape:original-d="m 10.350662,21.990736 c 0,0 0.46728,0.02168 0.700841,0.03406 0.600429,0.03184 1.199664,0.113778 1.800849,0.103482 0.689526,-0.01181 1.39302,-0.01482 2.060197,-0.189347 0.345399,-0.09035 0.676782,-0.24506 0.97795,-0.436794 0.347668,-0.221338 0.647878,-0.513439 0.934606,-0.809497 0.259406,-0.267847 0.504001,-0.554446 0.704919,-0.868557 0.288153,-0.450493 0.50368,-0.945512 0.706963,-1.440136 0.171915,-0.418297 0.306323,-0.851723 0.431344,-1.286345 0.03845,-0.13365 0.06913,-0.269501 0.09781,-0.405581 0.05059,-0.240043 0.08656,-0.46295 0.130873,-0.724217 0.0511,-0.301288 0.126534,-0.637367 0.191127,-0.955783 0.08191,-0.403793 0.179494,-0.804597 0.249102,-1.210692 0.03521,-0.205434 0.04751,-0.414461 0.08515,-0.619465 0.03923,-0.213696 0.100206,-0.422846 0.146378,-0.63515 0.02907,-0.133665 0.05477,-0.268041 0.08224,-0.402043 0.02367,-0.115438 0.04721,-0.230902 0.07117,-0.34628 0.02907,-0.13997 0.05852,-0.279859 0.08806,-0.41973 0.01794,-0.08497 0.05415,-0.254831 0.05415,-0.254831 l -4.78399,0.002 c 0,0 -0.0096,0.41034 -0.03934,0.612876 -0.04509,0.30676 -0.103832,0.614852 -0.210077,0.906138 -0.156186,0.428207 -0.362229,0.843095 -0.621333,1.21809 -0.215428,0.311785 -0.477809,0.593665 -0.764565,0.841436 -0.28676,0.247774 -0.604572,0.464792 -0.94348,0.634392 -0.379871,0.190101 -0.788333,0.328397 -1.203076,0.420206 -0.310027,0.06863 -0.947868,0.09479 -0.947868,0.09479 z"
       sodipodi:nodetypes="caaaaaaaaasaaaaaaaccaaaaaacc"
       class="inferior_direito"
       inkscape:label="inferior_direito"
       transform="matrix(3.7794825,0,0,3.7794825,113.85825,243.47911)" />
    <path
       style="stroke:#d6764a;stroke-width:0.0264587;stroke-linecap:square;stroke-dasharray:none;stroke-opacity:0"
       d="m 5.6328567,11.127206 c 0,0.153682 0.020476,0.481102 0.054594,0.719037 0.025407,0.177186 0.064405,0.352596 0.1114472,0.525302 0.037162,0.136433 0.085864,0.269549 0.1345708,0.402299 0.041704,0.113664 0.085068,0.226898 0.134898,0.337242 0.0457,0.101197 0.1147819,0.250824 0.1502219,0.297316 0.036031,0.04727 0.1618125,0.279529 0.2547597,0.41133 0.123558,0.175207 0.4013671,0.502574 0.4013671,0.502574 l 0.3534082,0.347043 c 0,0 0.3234884,0.267259 0.4974479,0.383923 0.1739129,0.116632 0.3542484,0.225549 0.5438526,0.314426 0.2993622,0.140325 0.6096079,0.264347 0.9308788,0.34241 0.3755081,0.09124 1.0907611,0.141477 1.1503651,0.143677 l -2e-6,6.136971 c -0.298774,-0.01642 -0.4927775,0.0024 -0.7390768,0.0085 -0.7422759,0.01843 -1.4834466,0.07566 -2.2258929,0.08496 -0.7310916,0.0092 -1.4811078,0.136879 -2.1932589,-0.02871 C 4.1870021,21.821702 3.122989,21.458267 2.395708,20.725732 1.6929428,20.01789 1.1314754,19.126728 0.76300851,18.191988 0.56756991,17.696192 0.60110501,17.117222 0.47904143,16.618631 0.18911646,15.434379 0.37364194,14.18246 0.31977026,12.964426 0.29926335,12.500767 0.28153101,12.036971 0.25735734,11.573488 0.24953667,11.423542 0.23427147,11.185962 0.2306264,11.123832 Z"
       id="path8594"
       sodipodi:nodetypes="caaaasaccaaaccaaasasaacc"
       inkscape:label="inferior_esquerdo"
       class="inferior_esquerdo"
       transform="matrix(3.7794825,0,0,3.7794825,113.85825,243.47911)" />
    <path
       id="path8849"
       style="stroke:#d6764a;stroke-width:0.216597;stroke-linecap:round;stroke-opacity:0"
       d="m 170.85446,285.54534 c 1e-5,9.85994 -7.99326,17.85301 -17.85346,17.85301 -9.8602,0 -17.85348,-7.99306 -17.85347,-17.85301 0,-9.85994 7.99327,-17.853 17.85347,-17.853 9.86019,0 17.85346,7.99306 17.85346,17.853 z"
       class="centro"
       sodipodi:nodetypes="sssss" />
  </g>
</svg>
