<?xml version="1.0" encoding="UTF-8" standalone="no"?>
<svg
   width="87.136169"
   height="96.788048"
   viewBox="0 0 23.054782 25.60881"
   version="1.1"
   id="svg10"
   xmlns="http://www.w3.org/2000/svg"
   xmlns:svg="http://www.w3.org/2000/svg">
  <defs
     id="defs14" />
  <g
     id="layer6"
     transform="matrix(0.26458649,0,0,0.26458649,-56.194196,-63.167732)">
    <path
       style="fill:none;stroke:#030303;stroke-width:0.7;stroke-linecap:round;stroke-linejoin:round;stroke-dasharray:none;stroke-opacity:1;paint-order:stroke fill markers"
       d="m 246.98321,244.51253 c -1.93713,0.0407 -5.62952,0.001 -8.65252,0.46983 -3.02301,0.46872 -5.37602,1.44592 -7.68929,2.9457 -2.31328,1.49977 -4.58625,3.52189 -6.96259,6.36086 -2.37634,2.83897 -4.85569,6.49434 -6.72787,10.24841 -1.87218,3.75406 -3.13702,7.6062 -3.74757,12.4957 -0.61055,4.8895 -0.56699,10.81564 -0.19775,16.86734 0.36924,6.05171 1.06401,12.22852 2.01249,17.23947 0.94847,5.01095 2.15033,8.85567 3.89941,11.9415 1.74908,3.08584 4.04466,5.41282 6.74215,7.18537 2.69749,1.77254 5.79652,2.99109 8.93891,3.37201 3.14239,0.38093 6.32833,-0.0752 8.56608,-0.49217 2.23774,-0.41698 3.52737,-0.79474 4.64659,-1.31712 1.11922,-0.52238 2.06842,-1.18939 3.62767,-0.87701 1.55926,0.31238 3.72749,1.60326 6.11545,2.53695 2.38796,0.9337 4.99553,1.51059 7.65673,1.65396 2.6612,0.14336 5.37617,-0.14645 8.04136,-0.77167 2.66518,-0.62521 5.28075,-1.58568 7.70652,-3.05079 2.42576,-1.4651 4.66208,-3.43489 6.67882,-6.12916 2.01675,-2.69427 3.81408,-6.11328 5.13202,-9.69741 1.31795,-3.58413 2.15641,-7.33354 2.78204,-10.75144 0.62563,-3.41789 1.03836,-6.5042 1.34038,-9.45505 0.30203,-2.95085 0.4933,-5.76616 0.61962,-8.76487 0.12633,-2.99871 0.18767,-6.1807 0.56323,-9.71135 0.37556,-3.53065 1.06543,-7.40956 1.09458,-10.34035 0.0292,-2.93079 -0.60292,-4.91371 -1.36046,-7.74275 -0.75754,-2.82904 -1.64039,-6.50397 -3.11093,-9.24446 -1.47054,-2.7405 -3.52945,-4.54617 -5.54929,-5.77426 -2.01984,-1.2281 -4.00064,-1.87802 -6.04829,-2.49778 -2.04765,-0.61976 -4.16203,-1.20927 -6.69263,-1.63884 -2.53059,-0.42957 -5.47712,-0.69896 -8.76446,-0.25089 -3.28733,0.44807 -6.91479,1.61385 -10.03111,2.55149 -3.11631,0.93763 -5.72136,1.64705 -7.11545,2.06218 -1.39409,0.41513 -1.57672,0.53591 -3.51384,0.5766 z"
       id="path1153" />
    <path
       style="fill:none;stroke:#808080;stroke-width:0.3;stroke-linecap:round;stroke-linejoin:round;stroke-dasharray:none;stroke-opacity:1;paint-order:stroke fill markers"
       d="m 243.49592,258.79074 c -2.08696,1.05691 -6.26128,3.17091 -9.78664,5.11952 -3.52536,1.9486 -6.40153,3.7317 -8.32474,5.98158 -1.92322,2.24988 -2.89292,4.96565 -3.57094,8.3185 -0.67803,3.35285 -1.06447,7.34221 -1.34144,11.15505 -0.27697,3.81284 -0.44449,7.44885 -0.38924,10.61651 0.0553,3.16765 0.33312,5.86664 1.05148,8.52574 0.71836,2.6591 1.87674,5.27803 3.3179,7.09558 1.44116,1.81756 3.16436,2.83413 5.80317,3.90984 2.63882,1.07571 6.19305,2.2108 8.47914,2.40626 2.28608,0.19547 3.30495,-0.54816 3.9261,-1.54517 0.62116,-0.99701 0.8449,-2.24826 0.97125,-3.15477 0.12636,-0.90651 0.15522,-1.46837 0.42812,-1.76877 0.27289,-0.30041 0.78881,-0.33833 1.52073,0.16018 0.73193,0.49851 1.67978,1.53232 3.10836,2.6562 1.42857,1.12387 3.33759,2.33805 6.05926,3.24573 2.72167,0.90767 6.25584,1.50934 9.20401,1.85306 2.94816,0.34373 5.31028,0.42966 7.35661,-0.0715 2.04633,-0.50114 3.77753,-1.5891 5.86881,-3.64256 2.09129,-2.05346 4.54288,-5.07254 5.95781,-7.35165 1.41493,-2.27911 1.79321,-3.81871 2.10662,-5.78928 0.31341,-1.97056 0.56183,-4.37213 1.2095,-7.41563 0.64767,-3.0435 1.69464,-6.7285 2.49566,-9.94381 0.80102,-3.2153 1.35602,-5.96083 1.80833,-8.29284 0.45232,-2.332 0.8019,-4.25037 0.95646,-6.47472 0.15456,-2.22435 0.11393,-4.75477 -0.139,-6.99799 -0.25293,-2.24322 -0.71839,-4.19927 -1.99249,-6.13364 -1.27409,-1.93438 -3.35748,-3.84675 -5.65902,-5.17857 -2.30154,-1.33182 -4.82124,-2.08243 -7.23575,-2.59056 -2.41452,-0.50813 -4.72362,-0.77352 -7.12859,-0.64704 -2.40498,0.12647 -4.90533,0.64507 -7.10397,1.36943 -2.19864,0.72437 -4.09509,1.6545 -5.7885,2.11967 -1.69342,0.46517 -3.1843,0.46517 -4.65376,0.30591 -1.46946,-0.15926 -2.91759,-0.47802 -3.9858,-0.3209 -1.06821,0.15712 -1.75532,0.79039 -2.09891,1.10705 -0.34359,0.31666 -0.34357,0.31666 -2.43053,1.37356 z"
       id="path1157" />
    <path
       style="fill:none;stroke:#4d4d4d;stroke-width:0.7;stroke-linecap:round;stroke-linejoin:round;stroke-dasharray:none;stroke-opacity:1;paint-order:stroke fill markers"
       d="m 222.69448,283.14228 c 1.35137,1.78772 2.70189,3.57432 3.43834,4.96602 0.73645,1.3917 0.85954,2.38847 0.80207,3.36442 -0.0575,0.97595 -0.29516,1.93142 -0.89339,3.49943 -0.59823,1.56802 -1.55693,3.74872 -2.51544,5.92898"
       id="path1161" />
    <path
       style="fill:none;stroke:#4d4d4d;stroke-width:0.7;stroke-linecap:round;stroke-linejoin:round;stroke-dasharray:none;stroke-opacity:1;paint-order:stroke fill markers"
       d="m 226.92361,291.61152 c 1.31861,-0.36148 2.63657,-0.72277 4.11063,-0.4334 1.47407,0.28938 3.10368,1.22851 4.33805,1.71809 1.23437,0.48959 2.07357,0.53022 3.08707,0.41585 1.01351,-0.11436 2.20158,-0.38351 3.61683,-0.61938 1.41525,-0.23587 3.05746,-0.43851 4.53829,-1.01703 1.48083,-0.57851 2.80086,-1.53285 4.34345,-2.36848 1.54258,-0.83564 3.3073,-1.55245 4.96656,-1.8701 1.65926,-0.31764 3.21242,-0.23638 5.00749,0.1062 1.79507,0.34257 3.83178,0.94612 5.73855,1.43182 1.90677,0.4857 3.68351,0.85364 5.77002,0.99684 2.08651,0.1432 4.48284,0.0619 6.17087,0.0213 1.68802,-0.0406 2.6676,-0.0406 3.85348,0.42999 1.18588,0.4706 2.57784,1.41101 3.96867,2.35065"
       id="path1165" />
    <path
       style="fill:none;stroke:#4d4d4d;stroke-width:0.7;stroke-linecap:round;stroke-linejoin:round;stroke-dasharray:none;stroke-opacity:1;paint-order:stroke fill markers"
       d="m 289.74934,276.40348 c -1.53763,1.85397 -3.07517,3.70784 -4.62511,5.77482 -1.54995,2.06697 -3.11217,4.34686 -4.05003,5.74534 -0.93787,1.39848 -1.25132,1.91543 -1.56459,2.43209"
       id="path1169" />
    <path
       style="fill:none;stroke:#4d4d4d;stroke-width:0.7;stroke-linecap:round;stroke-linejoin:round;stroke-dasharray:none;stroke-opacity:1;paint-order:stroke fill markers"
       d="m 256.69434,259.79212 c 0.13464,2.56663 0.26922,5.13221 0.17807,7.70671 -0.0911,2.57449 -0.40785,5.158 -0.64749,7.84795 -0.23963,2.68995 -0.40225,5.48612 -0.30922,7.61465 0.093,2.12853 0.44135,3.58908 0.61129,5.29988 0.16994,1.7108 0.16177,3.6719 0.41849,5.3861 0.25671,1.71421 0.77785,3.18121 1.27422,4.13266 0.49637,0.95144 0.96732,1.38752 1.43725,1.82265"
       id="path1173" />
    <path
       style="fill:none;stroke:#4d4d4d;stroke-width:0.7;stroke-linecap:round;stroke-linejoin:round;stroke-dasharray:none;stroke-opacity:1;paint-order:stroke fill markers"
       d="m 236.72003,293.50197 c -0.0275,1.47603 -0.055,2.95109 0.10387,4.56053 0.15889,1.60943 0.5039,3.35301 1.13958,4.98547 0.63567,1.63246 1.56148,3.15369 2.55169,4.74983 0.9902,1.59615 2.04474,3.26714 2.67103,4.18139 0.6263,0.91426 0.82397,1.07205 1.02054,1.22896"
       id="path1177" />
    <path
       style="stroke:#777536;stroke-width:0.0264587;stroke-linecap:round;stroke-linejoin:round;stroke-dasharray:none;stroke-opacity:0;paint-order:stroke fill markers"
       d="M 22.680575,9.6517813 C 22.771826,9.1387115 22.954357,8.1124044 22.96207,7.3369572 22.969784,6.56151 22.802546,6.0368563 22.602111,5.2883311 22.401677,4.5398059 22.168087,3.5674692 21.779002,2.8423711 21.389917,2.1172731 20.845157,1.6395174 20.310734,1.3145803 19.776312,0.98964322 19.252219,0.81768174 18.710438,0.6537013 18.168658,0.48972085 17.60922,0.33374624 16.93966,0.22008735 16.2701,0.10642846 15.490488,0.03515225 14.620703,0.15370549 c -0.869786,0.11855324 -1.827887,0.42646477 -2.359271,0.59263575 -0.531383,0.16617098 -0.632778,0.18952599 -0.734041,0.21285049 0,0 0,9.66676527 0,9.66676527 0.09325,0.002 0.186769,0.0039 0.337657,0.02868 0.150888,0.02474 0.359375,0.07219 0.554469,0.160429 0.195093,0.08824 0.376786,0.217127 0.495575,0.312379 0.118789,0.09525 0.174721,0.156807 0.252095,0.253892 0.07737,0.09709 0.181325,0.23653 0.240433,0.330014 0.05911,0.09349 0.08371,0.154772 0.112396,0.221627 0.02869,0.06686 0.05622,0.126676 0.08073,0.211464 0.02451,0.08479 0.06113,0.24964 0.07859,0.366793 0.01746,0.117153 0.02016,0.204654 0.0229,0.293183 0,0 8.814145,0 8.814145,0 0.02433,-0.879848 0.05239,-1.894662 0.06268,-2.267103 0.0103,-0.372441 0.01026,-0.372463 0.101514,-0.8855327 z"
       id="path12788"
       transform="matrix(3.7794824,0,0,3.7794824,212.38493,238.74134)"
       class="superior_direito" />
    <path
       style="stroke:#777536;stroke-width:0.0264587;stroke-linecap:round;stroke-linejoin:round;stroke-dasharray:none;stroke-opacity:0;paint-order:stroke fill markers"
       d="m 11.527391,14.982853 c 0,0 0.0066,9.905787 0.0066,9.905787 -0.453906,-0.237183 -0.907496,-0.474201 -1.260135,-0.521195 -0.3526388,-0.04699 -0.6037869,0.09642 -0.8999305,0.218102 C 9.0777819,24.707229 8.7365568,24.80718 8.1444822,24.917508 7.5524075,25.027836 6.709435,25.148521 5.8780087,25.047733 5.0465824,24.946946 4.226605,24.624528 3.5128936,24.155539 2.7991821,23.686551 2.191793,23.070851 1.7290153,22.254385 1.2662375,21.43792 0.94823553,20.42064 0.69891456,18.812209 0.44959358,17.203779 0.26900584,15.003944 0.08844151,12.804395 c 0,0 9.26192069,0.003 9.26192069,0.003 0.00584,0.145119 0.011762,0.292316 0.047705,0.446844 0.035944,0.154527 0.1035489,0.324238 0.1708807,0.475195 0.067332,0.150958 0.1363536,0.287489 0.2546692,0.434425 0.1183156,0.146936 0.2940435,0.314108 0.4796315,0.440258 0.185589,0.126149 0.395568,0.221166 0.557718,0.275379 0.16215,0.05421 0.286258,0.07122 0.390471,0.08217 0.104213,0.01096 0.190114,0.01607 0.275953,0.02118"
       id="path12774"
       transform="matrix(3.7794824,0,0,3.7794824,212.38493,238.74134)"
       class="inferior_esquerdo" />
    <ellipse
       style="stroke:#777536;stroke-width:0.0264587;stroke-linecap:square;stroke-dasharray:none;stroke-opacity:0"
       id="path12435"
       cx="11.527405"
       cy="12.804405"
       rx="2.1747899"
       ry="2.1784477"
       transform="matrix(3.7794824,0,0,3.7794824,212.38493,238.74134)"
       class="centro" />
    <path
       style="stroke:#777536;stroke-width:0.0264587;stroke-linecap:square;stroke-dasharray:none;stroke-opacity:0"
       d="M 11.527391,10.625957 V 0.95919173 C 10.93036,1.1189661 10.480775,1.2681297 9.9548578,1.4133614 9.860338,1.439463 9.7672379,1.4729196 9.6703997,1.488335 8.745304,1.6355983 7.7831215,1.465944 6.8648976,1.6512908 6.2116779,1.7831454 5.5541018,1.979616 4.9803814,2.3186243 4.2873696,2.7281213 3.7068531,3.3184871 3.1761582,3.9237276 2.4056694,4.8024454 1.716162,5.7728082 1.2081057,6.8252704 0.74343391,7.7878596 0.4405203,8.833638 0.2498374,9.8853689 0.07599184,10.844232 0.07151551,11.822147 0.08844151,12.804395 c 3.08618079,2.65e-4 6.10842419,2.61e-4 9.26417339,1e-6 0.011529,-1.211643 0.9808881,-2.188328 2.1747761,-2.178439 z"
       id="path12637"
       transform="matrix(3.7794824,0,0,3.7794824,212.38493,238.74134)"
       class="superior_esquerdo" />
    <path
       style="stroke:#777536;stroke-width:0.0264587;stroke-linecap:round;stroke-linejoin:round;stroke-dasharray:none;stroke-opacity:0;paint-order:stroke fill markers"
       d="m 13.613559,13.453376 c -0.03778,0.08064 -0.113401,0.242072 -0.161933,0.340763 -0.04853,0.09869 -0.07026,0.135265 -0.09566,0.179048 -0.0254,0.04378 -0.05458,0.09497 -0.110142,0.16391 -0.05556,0.06894 -0.137553,0.155843 -0.193697,0.215454 -0.05614,0.05961 -0.08539,0.09081 -0.154691,0.145898 -0.0693,0.05508 -0.175928,0.132165 -0.306615,0.205945 -0.130687,0.07378 -0.288748,0.143238 -0.410046,0.179603 -0.121298,0.03636 -0.286026,0.06462 -0.40609,0.08016 -0.120063,0.01554 -0.180663,0.01751 -0.247284,0.01968 0,0 0.0062,9.890282 0.0062,9.890282 0.132134,0.084 0.264245,0.167988 0.670091,0.292762 0.405847,0.124773 1.081696,0.289406 1.779612,0.333536 0.697915,0.04413 1.416261,-0.03255 2.121431,-0.197974 0.705171,-0.165424 1.397216,-0.419551 2.039042,-0.807198 0.641825,-0.387646 1.233522,-0.908825 1.767126,-1.621693 0.533605,-0.712869 1.009152,-1.617489 1.357863,-2.565803 0.348711,-0.948314 0.570557,-1.940357 0.736091,-2.844686 0.165534,-0.904329 0.274734,-1.720924 0.347813,-2.452075 0.07308,-0.731151 0.110009,-1.376728 0.130626,-1.730438 0.02062,-0.35371 0.02492,-0.415518 0.02921,-0.477098 0,0 -8.808861,0.003 -8.808861,0.003 -0.01743,0.188744 -0.03489,0.377726 -0.04359,0.471979 -0.0087,0.09425 -0.0087,0.0943 -0.04649,0.174945 z"
       id="path12703"
       transform="matrix(3.7794824,0,0,3.7794824,212.38493,238.74134)"
       class="inferior_direito" />
  </g>
</svg>