<?xml version="1.0" encoding="UTF-8" standalone="no"?>
<svg
   width="74.656998"
   height="83.999001"
   viewBox="0 0 19.753 22.225"
   version="1.1"
   id="svg10"
   sodipodi:docname="dente_18_quadrantes.svg"
   inkscape:version="1.2.2 (732a01da63, 2022-12-09)"
   inkscape:export-filename="dente_18_teste.svg"
   inkscape:export-xdpi="96"
   inkscape:export-ydpi="96"
   xmlns:inkscape="http://www.inkscape.org/namespaces/inkscape"
   xmlns:sodipodi="http://sodipodi.sourceforge.net/DTD/sodipodi-0.dtd"
   xmlns="http://www.w3.org/2000/svg"
   xmlns:svg="http://www.w3.org/2000/svg">
  <sodipodi:namedview
     id="namedview15699"
     pagecolor="#ffffff"
     bordercolor="#000000"
     borderopacity="0.25"
     inkscape:showpageshadow="2"
     inkscape:pageopacity="0.0"
     inkscape:pagecheckerboard="0"
     inkscape:deskcolor="#d1d1d1"
     showgrid="false"
     inkscape:zoom="2.8284271"
     inkscape:cx="97.050405"
     inkscape:cy="76.721085"
     inkscape:window-width="1920"
     inkscape:window-height="1009"
     inkscape:window-x="-8"
     inkscape:window-y="-8"
     inkscape:window-maximized="1"
     inkscape:current-layer="g8" />
  <defs
     id="defs14" />
  <g
     fill="none"
     id="g8"
     inkscape:export-filename="dente_18_quadrantes_notplain.svg"
     inkscape:export-xdpi="96"
     inkscape:export-ydpi="96"
     transform="matrix(-1,0,0,1,19.739791,0)">
    <path
       d="M 18.126734,15.022887 C 18.007409,15.516027 17.964528,16.025265 17.852,16.52 c -0.115389,0.507314 -0.229057,1.018207 -0.41,1.506 -0.179778,0.484654 -0.35466,0.98811 -0.667,1.4 -0.577828,0.761995 -1.309929,1.450881 -2.161,1.887 -1.031152,0.528399 -2.23078,0.68873 -3.385,0.79 C 10.35939,22.1793 9.4659118,22.1515 8.614,21.961 7.7018475,21.757031 6.8213466,21.380386 6.016,20.906 4.8981687,20.247546 3.8463199,19.433945 2.987,18.462 2.2294935,17.605212 1.6347555,16.59559 1.176,15.548 0.76914017,14.618916 0.53204916,13.61558 0.366,12.615 0.1602847,11.3754 0.17460782,10.108131 0.142,8.852 0.12366999,8.1458844 0.03876413,7.4292169 0.158,6.733 0.24578011,6.2204529 0.42753914,5.7201107 0.666,5.258 0.94154761,4.7240193 1.3011545,4.2276533 1.715,3.792 2.1628142,3.3205881 2.6855184,2.9149452 3.241,2.577 3.6028921,2.3568313 4.0376246,2.2757119 4.401,2.058 4.5163617,1.9888825 4.6082712,1.8858481 4.72,1.811 4.8311555,1.7365359 4.9406156,1.6519103 5.068,1.611 5.2144016,1.5639822 5.3732635,1.5680354 5.527,1.565 5.6815852,1.5619479 5.8361361,1.6082251 5.99,1.593 6.3388692,1.5584789 6.6817457,1.4558093 7.007,1.325 7.4400272,1.150847 7.8000163,0.82415039 8.231,0.645 8.8063428,0.4058427 9.4097428,0.21190671 10.027,0.127 c 0.802796,-0.11042849 1.62099,-0.005676 2.431,0.018 0.816382,0.0238626 1.653648,-0.06901054 2.447,0.125 0.599857,0.14669219 1.15905,0.44638993 1.685,0.77 0.629593,0.3873797 1.262124,0.8143284 1.732,1.385 0.320322,0.3890362 0.484555,0.8844357 0.7,1.34 0.127449,0.2694934 0.276932,0.5339828 0.35,0.823 0.124727,0.4933506 0.0948,1.0133212 0.142,1.52 0.04245,0.4556558 0.119002,0.909441 0.127,1.367 0.0064,0.3642168 0.01242,0.7346215 -0.063,1.091 -0.07181,0.3393159 -0.289615,0.6356839 -0.366,0.974 -0.04859,0.2152216 -0.03462,0.3641138 -0.05598,0.659546 -0.02193,0.303386 -0.01012,0.609362 -0.03289,0.913061 -0.0119,0.158712 -0.02307,0.318297 -0.05414,0.474393 -0.07506,0.377168 -0.223749,0.736165 -0.318,1.109 -0.07854,0.310671 -0.125487,0.628836 -0.206,0.939 -0.05557,0.214062 -0.127182,0.423635 -0.190985,0.635388 -0.07559,0.250883 -0.165657,0.497824 -0.227281,0.752499 z"
       stroke="#000000"
       stroke-width="0.185206"
       id="path2" />
    <path
       d="m 4.214,10.27 a 0.383,0.383 0 0 1 -0.147,0.322 0.615,0.615 0 0 1 -0.233,0.099 c -0.083,0.02 -0.167,0.033 -0.248,0.062 -0.105,0.038 -0.2,0.1 -0.294,0.163 -0.082,0.056 -0.165,0.111 -0.25,0.163 a 2.221,2.221 0 0 1 -0.683,0.293 m 1.847,-1.149 c 0.038,0.153 0.046,0.314 0.024,0.47 -0.021,0.15 -0.07,0.296 -0.151,0.424 -0.09,0.141 -0.215,0.257 -0.298,0.403 -0.054,0.095 -0.088,0.2 -0.143,0.295 -0.032,0.054 -0.07,0.104 -0.104,0.158 a 0.494,0.494 0 0 0 -0.075,0.172 0.529,0.529 0 0 0 0.007,0.186 c 0.01,0.062 0.025,0.123 0.029,0.185 A 0.8,0.8 0 0 1 3.364,12.963 C 3.28,13.104 3.174,13.232 3.05,13.339 M 2.232,8.214 c 0.156,0 0.312,0.05 0.44,0.139 0.092,0.064 0.168,0.147 0.243,0.23 0.14,0.155 0.276,0.313 0.41,0.474 0.128,0.156 0.253,0.316 0.357,0.49 0.09,0.151 0.165,0.315 0.282,0.448 0.1,0.114 0.227,0.202 0.365,0.265 0.137,0.064 0.284,0.104 0.433,0.131 0.15,0.027 0.301,0.042 0.453,0.047 0.207,0.007 0.417,-0.005 0.62,0.033 0.212,0.04 0.41,0.133 0.608,0.215 0.236,0.098 0.484,0.184 0.739,0.172 0.242,-0.011 0.47,-0.11 0.695,-0.203 a 13.276,13.276 0 0 1 1.247,-0.442 h 0.013 m 4.36,0.495 c 0.191,0.094 0.378,0.196 0.56,0.306 0.124,0.075 0.245,0.154 0.37,0.226 0.17,0.098 0.348,0.183 0.504,0.302 0.16,0.122 0.294,0.277 0.453,0.4 0.092,0.07 0.192,0.13 0.298,0.176 m -3.42,-0.652 v 0 l 0.234,0.724 0.282,0.804 0.338,0.774 0.206,0.373 M 8.312,4.436 c 0.117,0.6 0.245,1.2 0.38,1.797 0.127,0.557 0.262,1.113 0.382,1.671 0.106,0.495 0.2,1.011 0.08,1.502 -0.033,0.132 -0.08,0.26 -0.1,0.395 a 0.698,0.698 0 0 0 -0.003,0.203 0.45,0.45 0 0 0 0.07,0.189 c 0.043,0.062 0.103,0.11 0.17,0.145 0.067,0.034 0.14,0.056 0.213,0.07 0.147,0.03 0.299,0.033 0.444,0.071 0.155,0.04 0.297,0.119 0.429,0.21 0.132,0.09 0.254,0.194 0.382,0.29 0.262,0.198 0.553,0.369 0.874,0.439 0.267,0.058 0.549,0.043 0.81,-0.036 0.189,-0.058 0.367,-0.149 0.525,-0.268 0.15,-0.114 0.28,-0.254 0.381,-0.412 0.124,-0.192 0.206,-0.411 0.35,-0.59 0.14,-0.174 0.33,-0.3 0.524,-0.41 0.247,-0.142 0.51,-0.27 0.7,-0.483 0.155,-0.177 0.248,-0.4 0.397,-0.582 0.121,-0.149 0.276,-0.266 0.413,-0.402 0.101,-0.1 0.193,-0.21 0.27,-0.33 A 0.997,0.997 0 0 0 16.178,7.431 0.69,0.69 0 0 0 16.051,6.993"
       stroke="#333333"
       stroke-width="0.185206"
       stroke-linecap="round"
       id="path4" />
    <path
       d="m 16.142,12.526 c -0.012,0.152 -0.016,0.305 -0.024,0.458 -0.01,0.195 -0.024,0.391 -0.004,0.585 0.009,0.081 0.023,0.161 0.027,0.242 a 0.532,0.532 0 0 1 -0.035,0.239 c -0.034,0.079 -0.094,0.142 -0.152,0.206 a 0.621,0.621 0 0 0 -0.142,0.212 0.412,0.412 0 0 0 -0.015,0.177 c 0.007,0.06 0.024,0.117 0.043,0.174 0.024,0.07 0.053,0.14 0.06,0.213 a 0.303,0.303 0 0 1 -0.006,0.111 0.207,0.207 0 0 1 -0.054,0.096 0.237,0.237 0 0 1 -0.087,0.051 0.688,0.688 0 0 1 -0.1,0.025 c -0.033,0.006 -0.066,0.013 -0.098,0.024 a 0.243,0.243 0 0 0 -0.088,0.05 0.256,0.256 0 0 0 -0.072,0.157 c -0.007,0.059 -0.002,0.118 -10e-4,0.177 a 0.48,0.48 0 0 1 -0.052,0.255 0.5,0.5 0 0 1 -0.126,0.132 c -0.048,0.038 -0.098,0.073 -0.14,0.118 -0.075,0.08 -0.117,0.185 -0.183,0.273 -0.077,0.103 -0.183,0.181 -0.27,0.277 -0.108,0.12 -0.185,0.267 -0.31,0.369 -0.114,0.092 -0.257,0.137 -0.39,0.2 -0.158,0.078 -0.301,0.183 -0.456,0.267 -0.229,0.123 -0.483,0.2 -0.695,0.348 -0.163,0.115 -0.296,0.268 -0.457,0.385 -0.183,0.132 -0.396,0.213 -0.608,0.288 -0.223,0.079 -0.448,0.153 -0.668,0.241 -0.314,0.127 -0.626,0.287 -0.965,0.298 C 9.789,19.183 9.514,19.085 9.248,18.984 8.848,18.831 8.452,18.667 8.074,18.467 7.755,18.298 7.444,18.101 7.092,18.024 6.942,17.992 6.788,17.981 6.64,17.94 A 0.776,0.776 0 0 1 6.43,17.85 0.485,0.485 0 0 1 6.27,17.687 C 6.246,17.645 6.23,17.6 6.206,17.557 A 0.7,0.7 0 0 0 5.893,17.281 C 5.767,17.218 5.63,17.177 5.499,17.124 A 2.253,2.253 0 0 1 4.994,16.84 2.896,2.896 0 0 1 4.391,16.208 C 4.177,15.912 4.003,15.587 3.759,15.316 3.584,15.121 3.375,14.956 3.222,14.744 3.007,14.444 2.918,14.067 2.706,13.764 2.581,13.587 2.416,13.436 2.321,13.241 A 1.151,1.151 0 0 1 2.222,12.721 C 2.225,12.544 2.254,12.368 2.277,12.192 2.309,11.953 2.215,11.778 2.213,11.537 2.211,11.385 2.2,11.168 2.201,11.017 2.202,10.749 2.356,10.473 2.277,10.217 2.239,10.093 2.175,9.98 2.114,9.867 A 1.448,1.448 0 0 1 1.964,9.511 C 1.933,9.381 1.937,9.244 1.941,9.111 1.945,8.976 1.948,8.841 1.916,8.711 1.86,8.487 1.706,8.298 1.657,8.073 A 1.05,1.05 0 0 1 1.665,7.666 C 1.69,7.532 1.727,7.4 1.753,7.266 1.783,7.111 1.795,6.954 1.826,6.799 1.856,6.645 1.907,6.49 2.003,6.366 2.138,6.19 2.349,6.09 2.561,6.027 2.773,5.964 2.993,5.933 3.203,5.863 3.61,5.726 3.953,5.451 4.331,5.246 4.685,5.054 5.072,4.923 5.396,4.685 5.672,4.482 5.897,4.205 6.206,4.059 6.493,3.924 6.821,3.914 7.128,3.838 7.416,3.767 7.685,3.638 7.963,3.536 8.434,3.363 8.945,3.268 9.441,3.346 c 0.31,0.05 0.607,0.164 0.883,0.314 0.165,0.089 0.328,0.192 0.513,0.22 0.11,0.019 0.223,0.008 0.336,0.005 a 0.814,0.814 0 0 1 0.331,0.04 c 0.077,0.031 0.144,0.082 0.209,0.134 0.064,0.052 0.128,0.106 0.2,0.146 0.1,0.055 0.212,0.08 0.325,0.091 0.112,0.011 0.226,0.007 0.339,0.005 0.53,-0.01 1.062,0.022 1.593,0 0.506,-0.021 1.023,-0.09 1.51,0.05 0.175,0.05 0.341,0.126 0.512,0.187 0.234,0.084 0.483,0.142 0.688,0.284 0.206,0.143 0.35,0.36 0.46,0.585 0.111,0.228 0.19,0.47 0.267,0.711 0.105,0.333 0.205,0.672 0.226,1.021 0.022,0.365 -0.044,0.729 -0.075,1.093 -0.042,0.48 -0.028,0.976 -0.212,1.42 -0.081,0.195 -0.2,0.376 -0.258,0.579 -0.036,0.123 -0.049,0.251 -0.067,0.378 a 1.23,1.23 0 0 1 -0.1,0.37 c -0.047,0.095 -0.114,0.179 -0.178,0.263 a 0.985,0.985 0 0 0 -0.16,0.274 c -0.033,0.098 -0.037,0.203 -0.061,0.303 a 0.5,0.5 0 0 1 -0.056,0.144 0.284,0.284 0 0 1 -0.11,0.107 0.467,0.467 0 0 1 -0.119,0.037 0.46,0.46 0 0 0 -0.119,0.037 0.305,0.305 0 0 0 -0.136,0.166 0.792,0.792 0 0 0 -0.04,0.216 z"
       stroke="#999999"
       stroke-width="0.079374"
       id="path6" />
    <path
       id="path12435"
       style="stroke:#18170b;stroke-width:0.0451802;stroke-linecap:square;stroke-opacity:0"
       class="centro"
       d="M 13.590059,11.1125 A 3.7135589,3.7198839 0 0 1 9.8765007,14.832385 3.7135589,3.7198839 0 0 1 6.1629415,11.1125 3.7135589,3.7198839 0 0 1 9.8765007,7.3926156 3.7135589,3.7198839 0 0 1 13.590059,11.1125 Z" />
    <path
       style="stroke:#18170b;stroke-width:0.0264587;stroke-linecap:butt;stroke-dasharray:none;stroke-opacity:0"
       d="m 9.8708386,7.3926199 c -0.082164,0 -0.5966525,0.038773 -0.8857636,0.1088133 C 8.7203537,7.5655646 8.462302,7.6628564 8.2183594,7.7840267 7.9852572,7.8998124 7.7646594,8.0432003 7.5605226,8.2046659 7.3756977,8.3508565 7.2056683,8.5172561 7.0527505,8.696555 6.9000918,8.8755501 6.7561872,9.0657904 6.6478515,9.274614 6.551303,9.460717 6.4553069,9.6505023 6.3838607,9.8486107 6.312388,10.046792 6.265917,10.254038 6.2206593,10.459203 c -0.047092,0.213482 -0.05125,0.562051 -0.057718,0.653298 l -5.9558694,-0.0063 C 0.17344441,10.358294 0.17188277,9.6096236 0.14249449,8.8617378 0.13038186,8.5534903 0.09125503,8.2094165 0.09643893,7.9374282 0.10162286,7.6654402 0.08657922,7.391852 0.11119698,7.1206699 0.13407707,6.8686294 0.16958296,6.616138 0.23440089,6.3715025 0.32421217,6.0325372 0.44371827,5.6989907 0.60007633,5.3851186 0.79978023,4.9842344 1.049407,4.6069666 1.3243783,4.2534407 1.6266907,3.8647627 1.9526434,3.4865013 2.3343067,3.1753799 2.677383,2.8957136 3.0789416,2.6953845 3.4664634,2.481512 3.8187941,2.2870614 4.1933042,2.1352659 4.5489118,1.9468749 4.7692626,1.8301392 4.9586526,1.6417049 5.1997482,1.5780292 5.3583268,1.5361471 5.5281447,1.5885478 5.6917963,1.5776191 6.0458342,1.5539764 6.4083483,1.5430551 6.7469412,1.4369578 7.0613854,1.3384274 7.3322273,1.1339983 7.6261573,0.98503999 8.0056034,0.79274368 8.3684056,0.56116046 8.767781,0.41468009 9.1230565,0.2843744 9.503237,0.21920868 9.8705648,0.14510583 9.8716351,3.0747692 9.8690724,4.4629572 9.8708386,7.3926199 Z"
       id="path1255"
       class="superior_esquerdo"
       sodipodi:nodetypes="caaaasasccsssssssssssssscc" />
    <path
       style="stroke:#18170b;stroke-width:0.0264587;stroke-linecap:square;stroke-dasharray:none;stroke-opacity:0"
       d="M 9.8704257,0.14859676 C 10.027,0.127 10.271036,0.09465723 10.472684,0.08599613 c 0.193659,-0.008318 0.387648,0.005333 0.581422,0.01030447 0.178909,0.0045901 0.357768,0.01108645 0.536601,0.0180255 0.17889,0.006941 0.357561,0.0203248 0.536556,0.0236159 0.227653,0.004186 0.455398,-0.001095 0.683057,-0.00493 0.214811,-0.003618 0.42946,-0.018234 0.644298,-0.0170581 0.205353,0.001124 0.410882,0.007342 0.615637,0.0230453 0.204132,0.0156558 0.408981,0.0325456 0.61009,0.0708878 0.148233,0.0282612 0.293709,0.0706623 0.437364,0.11686899 0.143899,0.046285 0.285248,0.10079015 0.424202,0.16029463 0.144301,0.0617941 0.285105,0.13171203 0.424469,0.20395439 0.139556,0.0723423 0.275171,0.15206242 0.411899,0.22961771 0.161606,0.0916666 0.32477,0.18082958 0.482766,0.27858738 0.157768,0.097617 0.311139,0.2022374 0.464092,0.3072384 0.106226,0.072923 0.213811,0.1442734 0.314951,0.2241006 0.108549,0.085675 0.212927,0.1769003 0.312465,0.2728958 0.08111,0.078221 0.158858,0.1601995 0.231443,0.2463876 0.07654,0.090888 0.150185,0.1848019 0.21452,0.2847037 0.139336,0.216362 0.25375,0.4480425 0.369153,0.6780621 0.0909,0.1811877 0.168778,0.3686269 0.254331,0.5524016 0.06483,0.1392597 0.134036,0.2765072 0.196249,0.4169552 0.03072,0.06936 0.06209,0.1386167 0.08738,0.2101369 0.04443,0.1256542 0.08458,0.2533465 0.112684,0.3836282 0.0286,0.1325674 0.04159,0.2681145 0.05646,0.4029137 0.01783,0.1616169 0.03268,0.3237463 0.03923,0.4862119 0.0059,0.1475984 -0.006,0.2955594 0,0.4431541 0.0074,0.1799716 0.03216,0.3588374 0.04413,0.5385615 0.0086,0.1290974 0.0074,0.2588606 0.01987,0.3876408 0.01431,0.1477338 0.05056,0.292894 0.063,0.4407977 0.016,0.1903234 0.02655,0.3821614 0.0148,0.5727944 C 19.645044,8.222134 19.62193,8.3969435 19.578,8.566 19.49077,8.901684 19.289312,9.2018946 19.212,9.54 c -0.06603,0.2887501 -0.06483,0.589186 -0.08,0.885 -0.01163,0.226801 0.007,0.639723 -0.0084,0.681247 l -5.533546,-4.5e-5 c -0.0012,-0.09235 -0.02655,-0.459583 -0.06489,-0.686071 -0.02245,-0.1326 -0.0571,-0.263153 -0.09633,-0.391792 C 13.38858,9.8963201 13.343049,9.7654158 13.286512,9.6395062 13.198497,9.4434919 13.099061,9.2514646 12.981322,9.0717268 12.863637,8.8920726 12.731828,8.7201261 12.582915,8.5653673 12.390487,8.3653848 12.182373,8.1757543 11.948886,8.0257359 11.625902,7.8182141 11.273468,7.6474591 10.905422,7.5382519 10.571549,7.4391845 9.8708386,7.3926199 9.8708386,7.3926199 c 0,0 5.69e-5,-4.3129555 -4.129e-4,-7.24402314 z"
       id="path3383"
       class="superior_direito"
       sodipodi:nodetypes="cssssssssssssssssssssssssccscccsssccaaaaaaacc" />
    <path
       style="stroke:#18170b;stroke-width:0.0264587;stroke-linecap:square;stroke-dasharray:none;stroke-opacity:0"
       d="m 9.8705592,14.832178 8.1e-6,7.28775 c 0.2019337,0.0149 0.4044347,0.02212 0.6069167,0.02164 0.496288,-0.0012 0.99146,-0.04855 1.483529,-0.113139 0.637178,-0.08363 1.272889,-0.196759 1.884414,-0.394312 0.483977,-0.156349 0.953781,-0.366827 1.368453,-0.66132 0.223558,-0.158767 0.429555,-0.340754 0.632306,-0.525354 0.273146,-0.248693 0.542475,-0.504125 0.769696,-0.795377 0.296438,-0.379974 0.51625,-0.814973 0.690978,-1.264112 0.184931,-0.475366 0.320936,-0.968206 0.447329,-1.462369 0.03446,-0.13474 0.06824,-0.269683 0.09781,-0.405581 0.05216,-0.239737 0.09114,-0.482111 0.130873,-0.724217 0.05264,-0.320753 0.106792,-0.64187 0.191127,-0.955783 0.109064,-0.405962 0.267975,-0.797463 0.371,-1.205 0.05124,-0.202681 0.08846,-0.408599 0.1328,-0.6129 0.04556,-0.209926 0.09866,-0.41824 0.160291,-0.624021 0.03502,-0.11691 0.07278,-0.232974 0.110208,-0.349135 0.03306,-0.102605 0.0659,-0.205435 0.09023,-0.310452 0.0223,-0.09623 0.03738,-0.193986 0.05014,-0.291935 0.01473,-0.113108 0.02639,-0.226617 0.03496,-0.340359 l -5.533589,-0.0059 c 5.7e-4,0.191202 -0.09539,1.010827 -0.296111,1.46782 -0.224688,0.511564 -0.553547,1.001575 -0.985679,1.355756 -0.305547,0.250429 -0.732016,0.500706 -1.136783,0.674984 -0.180194,0.07759 -0.373328,0.12455 -0.566072,0.16114 -0.241801,0.0459 -0.483991,0.07284 -0.7348248,0.07216"
       id="path3385"
       class="inferior_direito"
       sodipodi:nodetypes="ccccssssssssssscsccccasaac" />
    <path
       style="stroke:#18170b;stroke-width:0.0264587;stroke-linecap:square;stroke-dasharray:none;stroke-opacity:0"
       d="m 6.1629415,11.112501 c 0,0.153682 0.02542,0.467581 0.065889,0.697625 0.028278,0.160744 0.073615,0.318379 0.1230869,0.473913 0.031541,0.09916 0.07004,0.196086 0.1104959,0.291954 0.031935,0.07568 0.066982,0.150081 0.1042537,0.223278 0.039593,0.07776 0.08103,0.154711 0.1266713,0.229078 0.071961,0.117253 0.1493095,0.231366 0.2316024,0.341614 0.052432,0.07024 0.109118,0.137285 0.1667051,0.203368 0.040615,0.04661 0.082399,0.09226 0.1260042,0.136082 0.082111,0.08252 0.1654117,0.16429 0.2550771,0.238527 0.1403733,0.11622 0.2864911,0.226601 0.4413779,0.322632 0.1654113,0.102556 0.3385698,0.194126 0.5182177,0.268995 0.2031324,0.08465 0.4133658,0.155852 0.6285425,0.201985 0.2655522,0.05693 0.809704,0.09063 0.809704,0.09063 v 0 l 5e-7,7.292694 C 9.5717921,22.10846 9.3677533,22.100337 9.1209246,22.054958 8.5135866,21.9433 7.9085909,21.790437 7.3358033,21.559696 6.6310295,21.275786 5.9602814,20.901083 5.3302687,20.476354 4.5961735,19.981457 3.873095,19.444094 3.2836521,18.783506 2.4266903,17.82311 1.7284583,16.710555 1.176,15.548 0.88982086,14.945785 0.71846549,14.292103 0.56604588,13.643003 0.39533064,12.915989 0.30890114,12.170675 0.22813772,11.428267 0.21650258,11.321312 0.21071717,11.168328 0.2070721,11.106198 Z"
       id="path8594"
       class="inferior_esquerdo"
       sodipodi:nodetypes="caaaaaaaaaaaacccssssssscc" />
  </g>
</svg>
