<?xml version="1.0" encoding="UTF-8" standalone="no"?>
<svg
   width="56.890766"
   height="68.566536"
   viewBox="0 0 15.052351 18.14178"
   version="1.1"
   id="svg10"
   sodipodi:docname="dente_14_quadrantes_notplain.svg"
   inkscape:version="1.2.2 (1:1.2.2+202212051552+b0a8486541)"
   inkscape:export-filename="dente_24_quadrantes.svg"
   inkscape:export-xdpi="96"
   inkscape:export-ydpi="96"
   xmlns:inkscape="http://www.inkscape.org/namespaces/inkscape"
   xmlns:sodipodi="http://sodipodi.sourceforge.net/DTD/sodipodi-0.dtd"
   xmlns="http://www.w3.org/2000/svg"
   xmlns:svg="http://www.w3.org/2000/svg">
  <defs
     id="defs14">
    <inkscape:path-effect
       effect="bspline"
       id="path-effect12792"
       is_visible="true"
       lpeversion="1"
       weight="33.333333"
       steps="2"
       helper_size="0"
       apply_no_weight="true"
       apply_with_weight="true"
       only_selected="false" />
    <inkscape:path-effect
       effect="bspline"
       id="path-effect12778"
       is_visible="true"
       lpeversion="1"
       weight="33.333333"
       steps="2"
       helper_size="0"
       apply_no_weight="true"
       apply_with_weight="true"
       only_selected="false" />
    <inkscape:path-effect
       effect="bspline"
       id="path-effect12707"
       is_visible="true"
       lpeversion="1"
       weight="33.333333"
       steps="2"
       helper_size="0"
       apply_no_weight="true"
       apply_with_weight="true"
       only_selected="false" />
    <inkscape:path-effect
       effect="bspline"
       id="path-effect1341"
       is_visible="true"
       lpeversion="1"
       weight="33.333333"
       steps="2"
       helper_size="0"
       apply_no_weight="true"
       apply_with_weight="true"
       only_selected="false" />
    <inkscape:path-effect
       effect="bspline"
       id="path-effect1345"
       is_visible="true"
       lpeversion="1"
       weight="33.333333"
       steps="2"
       helper_size="0"
       apply_no_weight="true"
       apply_with_weight="true"
       only_selected="false" />
    <inkscape:path-effect
       effect="bspline"
       id="path-effect1349"
       is_visible="true"
       lpeversion="1"
       weight="33.333333"
       steps="2"
       helper_size="0"
       apply_no_weight="true"
       apply_with_weight="true"
       only_selected="false" />
    <inkscape:path-effect
       effect="bspline"
       id="path-effect1353"
       is_visible="true"
       lpeversion="1"
       weight="33.333333"
       steps="2"
       helper_size="0"
       apply_no_weight="true"
       apply_with_weight="true"
       only_selected="false" />
    <inkscape:path-effect
       effect="bspline"
       id="path-effect1357"
       is_visible="true"
       lpeversion="1"
       weight="33.333333"
       steps="2"
       helper_size="0"
       apply_no_weight="true"
       apply_with_weight="true"
       only_selected="false" />
  </defs>
  <sodipodi:namedview
     id="namedview12"
     pagecolor="#ffffff"
     bordercolor="#000000"
     borderopacity="0.25"
     inkscape:showpageshadow="2"
     inkscape:pageopacity="0.0"
     inkscape:pagecheckerboard="0"
     inkscape:deskcolor="#d1d1d1"
     showgrid="false"
     showguides="true"
     inkscape:zoom="5.6568543"
     inkscape:cx="19.003495"
     inkscape:cy="17.766058"
     inkscape:window-width="1920"
     inkscape:window-height="1016"
     inkscape:window-x="0"
     inkscape:window-y="27"
     inkscape:window-maximized="1"
     inkscape:current-layer="layer13">
    <inkscape:grid
       type="xygrid"
       id="grid12545"
       originx="-44.496791"
       originy="13.803896" />
    <sodipodi:guide
       position="-44.496777,-8.4665216"
       orientation="1,0"
       id="guide12547"
       inkscape:locked="false" />
    <sodipodi:guide
       position="-32.9694,-8.4665216"
       orientation="1,0"
       id="guide12551"
       inkscape:locked="false" />
    <sodipodi:guide
       position="7.5261755,11.262567"
       orientation="1,0"
       id="guide13350"
       inkscape:locked="false" />
    <sodipodi:guide
       position="-9.7702773,3.2799355"
       orientation="0,-1"
       id="guide13352"
       inkscape:locked="false" />
    <sodipodi:guide
       position="-9.7702773,3.2799355"
       orientation="0.70710678,-0.70710678"
       id="guide13356"
       inkscape:locked="false" />
  </sodipodi:namedview>
  <g
     inkscape:groupmode="layer"
     id="layer13"
     inkscape:label="Image 13"
     transform="matrix(0.2645865,0,0,0.2645865,-102.02576,-68.631934)"
     sodipodi:insensitive="true"
     style="fill:"
     inkscape:export-filename="dente_14_quadrantes_notplain.svg"
     inkscape:export-xdpi="96"
     inkscape:export-ydpi="96">
    <path
       style="fill:none;stroke:#030303;stroke-width:0.7;stroke-linecap:round;stroke-linejoin:round;stroke-dasharray:none;stroke-opacity:1;paint-order:stroke fill markers"
       d="m 411.90507,260.91151 c -2.09211,0.70142 -4.5576,1.44111 -7.68371,2.28624 -3.1261,0.84513 -6.91274,1.79564 -9.75689,3.53916 -2.84414,1.74351 -4.74482,4.27958 -6.17181,7.23846 -1.42698,2.95887 -2.38014,6.33987 -2.33702,10.34378 0.0431,4.00391 1.08205,8.62997 2.00359,13.09351 0.92154,4.46354 1.7257,8.76431 3.04289,12.25729 1.31719,3.49298 3.14675,6.17796 5.0873,8.6198 1.94056,2.44183 3.99181,4.6405 6.53959,6.07777 2.54778,1.43726 5.59173,2.11382 8.82524,2.62532 3.2335,0.51151 6.65644,0.85808 9.90637,0.40922 3.24993,-0.44886 6.32725,-1.69279 8.49355,-3.21625 2.16631,-1.52346 3.42215,-3.32676 4.23194,-6.16604 0.80979,-2.83927 1.17342,-6.71502 1.87482,-10.50945 0.7014,-3.79442 1.74062,-7.50707 2.81856,-10.7314 1.07793,-3.22432 2.19453,-5.95998 2.81039,-9.00034 0.61587,-3.04037 0.7308,-6.3857 0.2824,-9.02614 -0.4484,-2.64044 -1.46075,-4.57606 -2.99128,-6.10219 -1.53054,-1.52612 -3.57974,-2.64211 -6.118,-4.28621 -2.53827,-1.64411 -5.5654,-3.8164 -8.20148,-5.48443 -2.63608,-1.66802 -4.88101,-2.8315 -6.86327,-3.08208 -1.98226,-0.25058 -3.70108,0.41255 -5.79318,1.11398 z"
       id="path1339"
       inkscape:path-effect="#path-effect1341"
       inkscape:original-d="m 412.2778,260.87344 c -2.46448,0.74068 -4.92997,1.48037 -7.39645,2.21906 -3.7858,0.95155 -7.57244,1.90206 -11.36015,2.8516 -1.89975,2.53716 -3.80043,5.07323 -5.70214,7.60834 -0.95219,3.38214 -1.90535,6.76314 -2.85953,10.14321 1.03997,4.62724 2.0789,9.2533 3.11684,13.87845 0.80519,4.30195 1.60935,8.60272 2.41252,12.90259 1.83063,2.68609 3.66019,5.37107 5.48879,8.0551 2.05234,2.19976 4.10359,4.39843 6.15389,6.59615 3.04506,0.67758 6.08901,1.35414 9.13201,2.02971 3.42408,0.34758 6.84702,0.69416 10.26903,1.03974 3.07843,-1.24298 6.15575,-2.48691 9.23212,-3.73187 1.25689,-1.80237 2.51273,-3.60568 3.7676,-5.41001 0.36465,-3.87491 0.72828,-7.75066 1.09093,-11.62749 1.04026,-3.71179 2.07948,-7.42444 3.11772,-11.13816 1.11765,-2.73477 2.23425,-5.47043 3.34987,-8.20715 0.11593,-3.34446 0.23086,-6.68979 0.34479,-10.03619 -1.01139,-1.93471 -2.02373,-3.87034 -3.0371,-5.80701 -2.04827,-1.11503 -4.09747,-2.23101 -6.1477,-3.34802 -3.02625,-2.17137 -6.05337,-4.34367 -9.08156,-6.517 -2.24403,-1.16253 -4.48897,-2.326 -6.73496,-3.4905 -1.71787,0.66416 -3.43668,1.3273 -5.15652,1.98945 z" />
    <path
       style="fill:none;stroke:#808080;stroke-width:0.3;stroke-linecap:round;stroke-linejoin:round;stroke-dasharray:none;stroke-opacity:1;paint-order:stroke fill markers"
       d="m 397.98898,274.97787 c -1.53796,1.38561 -3.31375,3.75146 -4.34759,6.44523 -1.03384,2.69377 -1.32575,5.71457 -0.991,9.07265 0.33475,3.35807 1.29575,7.05291 2.44031,10.57649 1.14455,3.52358 2.47242,6.87567 4.8043,10.04811 2.33188,3.17245 5.66704,6.16535 8.48019,7.72058 2.81315,1.55523 5.10412,1.67363 7.56157,1.13141 2.45746,-0.54222 5.08185,-1.74475 7.17245,-2.50842 2.0906,-0.76366 3.64699,-1.08847 4.83926,-2.69089 1.19226,-1.60241 2.02129,-4.48312 3.15,-7.9252 1.12871,-3.44208 2.55704,-7.44523 3.72521,-11.41528 1.16816,-3.97006 2.07606,-7.90695 1.68744,-11.23983 -0.38861,-3.33287 -2.07459,-6.06198 -4.73425,-7.85488 -2.65967,-1.7929 -6.2933,-2.64861 -9.47345,-3.25478 -3.18015,-0.60617 -5.90659,-0.96264 -7.82138,-1.39981 -1.91479,-0.43718 -3.01795,-0.95545 -4.94229,-0.78605 -1.92434,0.16941 -4.66915,1.02723 -6.69129,1.65865 -2.02214,0.63142 -3.32151,1.03641 -4.85948,2.42202 z"
       id="path1343"
       inkscape:path-effect="#path-effect1345"
       inkscape:original-d="m 398.22692,273.99746 c -1.77478,2.36686 -3.55057,4.73271 -5.32735,7.09757 -0.29093,3.02194 -0.58284,6.04275 -0.87577,9.06263 0.96204,3.69598 1.92304,7.39082 2.88305,11.08473 1.32892,3.35322 2.65679,6.70531 3.98369,10.05646 3.33629,2.99401 6.67145,5.98691 10.00568,8.97886 2.29207,0.1194 4.58304,0.23779 6.87306,0.35519 2.62549,-1.20158 5.24988,-2.40411 7.87332,-3.60766 1.55745,-0.32383 3.11384,-0.64864 4.66926,-0.97445 0.83006,-2.87983 1.65909,-5.76054 2.48713,-8.64231 1.42939,-4.0023 2.85772,-8.00545 4.28509,-12.00967 0.90893,-3.93605 1.81683,-7.87294 2.72374,-11.81092 -1.68504,-2.72821 -3.37101,-5.45732 -5.05802,-8.18748 -3.63277,-0.85475 -7.2664,-1.71046 -10.9011,-2.56719 -2.72554,-0.35548 -5.45198,-0.71195 -8.17946,-1.06942 -1.1022,-0.51729 -2.20536,-1.03556 -3.30954,-1.55485 -2.74391,0.85886 -5.48872,1.71668 -8.23458,2.57351 -1.29843,0.40601 -2.5978,0.811 -3.8982,1.215 z" />
    <path
       style="fill:none;stroke:#4d4d4d;stroke-width:0.7;stroke-linecap:round;stroke-linejoin:round;stroke-dasharray:none;stroke-opacity:1;paint-order:stroke fill markers"
       d="m 396.30859,284.5832 c 1.26206,3.37562 2.52366,6.75004 2.7061,9.43871 0.18243,2.68867 -0.7136,4.69226 -1.60944,6.69543"
       id="path1347"
       inkscape:path-effect="#path-effect1349"
       inkscape:original-d="m 396.30859,284.5832 c 1.2626,3.37542 2.52421,6.74983 3.78481,10.12324 -0.89507,2.00468 -1.7911,4.00827 -2.68815,6.0109" />
    <path
       style="fill:none;stroke:#4d4d4d;stroke-width:0.7;stroke-linecap:round;stroke-linejoin:round;stroke-dasharray:none;stroke-opacity:1;paint-order:stroke fill markers"
       d="m 399.53316,293.57667 c 3.12468,1.01982 6.24816,2.03924 9.26171,2.87603 3.01354,0.8368 5.91708,1.49107 9.02367,1.37628 3.10659,-0.1148 6.4165,-0.99818 8.90876,-2.74342 2.49225,-1.74523 4.16754,-4.35262 5.51561,-6.06495 1.34807,-1.71233 2.36856,-2.52915 3.38895,-3.34588"
       id="path1351"
       inkscape:path-effect="#path-effect1353"
       inkscape:original-d="m 399.53316,293.57667 c 3.12448,1.02043 6.24796,2.03985 9.37044,3.05827 2.90465,0.65529 5.80818,1.30956 8.71078,1.96285 3.31106,-0.88243 6.62098,-1.76581 9.92998,-2.65022 1.67635,-2.6065 3.35164,-5.21389 5.02597,-7.82234 1.02153,-0.81585 2.04202,-1.63267 3.06153,-2.4505" />
    <path
       style="fill:none;stroke:#4d4d4d;stroke-width:0.7;stroke-linecap:round;stroke-linejoin:round;stroke-dasharray:none;stroke-opacity:1;paint-order:stroke fill markers"
       d="m 428.68931,301.94823 c -0.19879,-1.93326 -0.39769,-3.8676 -0.70391,-5.00067 -0.30622,-1.13307 -0.72074,-1.46465 -1.13636,-1.7971"
       id="path1355"
       inkscape:path-effect="#path-effect1357"
       inkscape:original-d="m 428.68931,301.94823 c -0.1979,-1.93335 -0.3968,-3.86769 -0.5967,-5.80304 -0.41353,-0.33058 -0.82805,-0.66215 -1.24357,-0.99473" />
    <path
       style="stroke:#fff933;stroke-width:0.0264587;stroke-linecap:round;stroke-linejoin:round;stroke-dasharray:none;stroke-opacity:0;paint-order:stroke fill markers"
       d="m 14.590023,8.3478064 c 0.0331,-0.1157461 0.09936,-0.3474143 0.162476,-0.6519433 0.06311,-0.3045291 0.123072,-0.6819631 0.156516,-1.003445 0.03344,-0.321482 0.04035,-0.587051 0.02453,-0.878545 C 14.917734,5.5223792 14.87916,5.2049264 14.822044,4.9324724 14.764929,4.6600184 14.689202,4.4325382 14.594763,4.2350525 14.500324,4.0375667 14.387073,3.8700885 14.215421,3.6696658 14.043769,3.4692431 13.81366,3.2359142 13.375409,2.9213762 12.937159,2.6068383 12.290986,2.2113313 11.679451,1.8246231 11.067917,1.4379149 10.492036,1.0606342 10.06449,0.80212325 9.6369447,0.54361232 9.3579613,0.40406896 9.0883493,0.30569132 8.8187373,0.20731369 8.5585063,0.150193 8.2975082,0.14273225 8.03651,0.13527151 7.7746199,0.17760817 7.5129461,0.21990988 c 0,0 0.013229,6.67253282 0.013229,6.67253282 0.093249,0.00197 0.1867685,0.00394 0.3349847,0.035716 0.1482163,0.031777 0.3513523,0.093274 0.5628519,0.2005333 0.2114997,0.1072593 0.4313578,0.2601565 0.5406585,0.3360153 0.1093007,0.075859 0.1080808,0.074622 0.1696306,0.1579172 0.06155,0.083295 0.1859191,0.2510978 0.2604262,0.3620373 0.074507,0.1109395 0.099226,0.1649933 0.1227869,0.2198898 0.023561,0.054897 0.045981,0.1106363 0.07567,0.2329376 0.029689,0.1223012 0.073873,0.3476858 0.089183,0.4323752 0.01531,0.084689 0.016423,0.1085157 0.017139,0.1345843 7.161e-4,0.026069 0.00106,0.051827 0.00142,0.079665 0,0 4.6482258,8e-7 4.6482258,8e-7 0.06926,-0.2068542 0.170312,-0.50869 0.207768,-0.6205627 -10e-7,10e-8 -2e-6,3e-7 0.0331,-0.1157458 z"
       id="path12788"
       sodipodi:nodetypes="aaaaaaaaaaaaccsssssssccccaa"
       inkscape:original-d="m 14.556919,8.4635526 c 0.06652,-0.2314028 0.13278,-0.4630703 0.198772,-0.6950023 0.06022,-0.377169 0.120179,-0.7546027 0.179871,-1.1323009 0.0072,-0.2653054 0.01407,-0.5308753 0.02071,-0.7967099 C 14.917963,5.5223513 14.879389,5.2048985 14.84055,4.8871811 14.765088,4.6599654 14.689361,4.4324852 14.613369,4.2047404 14.500383,4.0375268 14.387132,3.8700486 14.273616,3.7023058 14.043771,3.4692414 13.813662,3.2359123 13.583288,3.0023187 12.937113,2.6069128 12.29094,2.211406 11.643968,1.8153071 11.067875,1.4379788 10.491994,1.0606982 9.9156107,0.6829969 9.6368918,0.54371812 9.3579084,0.40417475 9.0786604,0.26436679 8.8186941,0.2075107 8.5584631,0.15039002 8.2979676,0.09300475 8.0365584,0.13557105 7.5129461,0.21990988 7.5129461,0.21990988 l 0.013229,6.67253282 c 0,0 0.186763,0.0042 0.279747,0.0059 0.2034029,0.061762 0.4065388,0.1232592 0.6094184,0.184494 0.2201331,0.153169 0.4399912,0.3060662 0.6595906,0.4587029 -9.584e-4,-9.751e-4 -0.00218,-0.00221 -0.00367,-0.00372 0.1246337,0.1680672 0.249003,0.33587 0.3731079,0.5034085 0.024984,0.054319 0.049703,0.1083727 0.074158,0.1621634 0.022684,0.056002 0.045104,0.1117417 0.067259,0.167216 0.037292,0.1891429 0.081476,0.4145275 0.1110822,0.5666326 0.00106,0.017302 0.00218,0.041128 0.00296,0.063358 6.548e-4,0.029916 0.0011,0.083516 0.0011,0.083516 l 4.6482258,8e-7 c 0,0 0.17063,-0.5085836 0.207768,-0.6205627 0,-5e-7 -2e-6,2e-7 -3e-6,4e-7 z"
       inkscape:path-effect="#path-effect12792"
       class="superior_direito"
       transform="matrix(3.7794823,0,0,3.7794823,385.60456,259.39318)" />
    <path
       style="stroke:#777536;stroke-width:0.0264587;stroke-linecap:round;stroke-linejoin:round;stroke-dasharray:none;stroke-opacity:0;paint-order:stroke fill markers"
       d="m 7.5129461,11.279211 c 0,0 0,6.700257 0,6.700257 C 7.1081086,17.924969 6.7032021,17.870461 6.4608927,17.836333 6.2185834,17.802204 6.139008,17.788484 5.9400559,17.740131 5.7411038,17.691778 5.4230618,17.608814 5.1109331,17.4924 4.7988044,17.375987 4.4925871,17.226051 4.2265098,17.062956 3.9604326,16.899862 3.7345206,16.723536 3.4722639,16.440305 3.2100073,16.157074 2.9114739,15.766873 2.6362858,15.381321 2.3610977,14.995769 2.1092785,14.614856 1.9204433,14.291423 1.731608,13.96799 1.6050712,13.700466 1.4003237,13.008012 1.1955763,12.315558 0.90870855,11.185186 0.73236181,10.459913 0.55601507,9.7346393 0.4888892,9.4092267 0.42182643,9.0841201 c 0,0 4.92959927,1.2e-6 4.92959927,1.2e-6 0.0085,0.1065461 0.017052,0.2137474 0.053301,0.3696677 0.036249,0.1559203 0.1012321,0.3648687 0.1894963,0.550747 0.088264,0.185877 0.2049853,0.35894 0.3485734,0.513172 0.1435882,0.154233 0.3228779,0.299296 0.4616934,0.394524 0.1388156,0.09523 0.2424975,0.14462 0.3769253,0.189951 0.1344277,0.04533 0.3031495,0.08777 0.4301096,0.111626 0.1269601,0.02386 0.2141443,0.02967 0.3014211,0.03549"
       id="path12774"
       sodipodi:nodetypes="ccacaaaaaacccaaaaaac"
       inkscape:original-d="m 7.5129461,11.279211 v 6.700257 c 0,0 -0.8097742,-0.108782 -1.2145125,-0.163496 -0.080105,-0.01229 -0.1594631,-0.02727 -0.239593,-0.04131 C 5.741056,17.691961 5.4230139,17.608997 5.1047036,17.525767 4.7987509,17.376096 4.4925336,17.22616 4.1860516,17.075959 3.9604042,16.899898 3.7344922,16.723572 3.5083156,16.546981 3.2100467,16.157044 2.9115131,15.766843 2.6127149,15.376377 2.3611602,14.995728 2.1093409,14.614815 1.857257,14.233637 1.731722,13.967936 1.5794088,13.712604 1.4798583,13.435741 1.1957619,12.315511 0.90889408,11.185139 0.62301474,10.05944 0.5562165,9.7345977 0.42182643,9.0841201 0.42182643,9.0841201 l 4.92959927,1.2e-6 c 0,0 0.017293,0.2137281 0.025499,0.3196383 0.064217,0.2058979 0.1292,0.4148464 0.1925275,0.6190574 0.088403,0.184209 0.204679,0.357572 0.3427453,0.508189 0.1741622,0.140965 0.3534516,0.286029 0.5283822,0.427515 0.1026718,0.04905 0.2063553,0.09844 0.3088562,0.147137 0.1622452,0.0584 0.3350815,0.08448 0.501679,0.126186 0.087351,0.0061 0.2618305,0.01745 0.2618305,0.01745"
       inkscape:path-effect="#path-effect12778"
       class="inferior_esquerdo"
       transform="matrix(3.7794823,0,0,3.7794823,385.60456,259.39318)" />
    <path
       id="path12435"
       style="stroke:#777536;stroke-width:0.0264587;stroke-linecap:square;stroke-opacity:0"
       class="centro"
       inkscape:label="path12435"
       transform="matrix(3.7794823,0,0,3.7794823,385.60456,259.39318)"
       d="M 9.7009654,9.0708904 A 2.1747899,2.1784477 0 0 1 7.5261755,11.249338 2.1747899,2.1784477 0 0 1 5.3513856,9.0708904 2.1747899,2.1784477 0 0 1 7.5261755,6.8924427 2.1747899,2.1784477 0 0 1 9.7009654,9.0708904 Z" />
    <path
       style="stroke:#777536;stroke-width:0.0264587;stroke-linecap:square;stroke-dasharray:none;stroke-opacity:0"
       d="M 7.5309169,6.8925577 7.5129461,0.21990998 C 6.9159151,0.37968438 7.1438353,0.34218819 6.9587606,0.40172875 6.6550007,0.49945161 6.3513405,0.59761488 6.0458063,0.68964025 5.7885048,0.76713816 5.5297701,0.8398329 5.2709586,0.91212806 5.0351018,0.97801117 4.7977806,1.0385809 4.561979,1.1046617 4.2916741,1.1804116 4.0194444,1.2502996 3.7529223,1.3384405 3.4547818,1.4370377 3.1572077,1.540179 2.8704151,1.6680821 2.6896709,1.7486899 2.5138587,1.8411342 2.3442145,1.9430504 2.2360019,2.0080607 2.132149,2.0805142 2.0317387,2.1570262 1.7656422,2.3597902 1.4749802,2.5443089 1.2653009,2.8049911 0.96694263,3.1759227 0.78940968,3.6317877 0.59848686,4.0678569 0.50531174,4.2806696 0.43322754,4.5025281 0.36635209,4.7250107 0.2976715,4.9534987 0.22414585,5.182933 0.19313531,5.4194962 c -0.0913015,0.6964912 -0.087242,1.4066221 -0.0342615,2.1070712 0.0397123,0.5250313 0.26295262,1.5575527 0.26295262,1.5575527 l 4.92959927,1.2e-6 c 0,0 0.00481,-0.096283 0.013954,-0.2054596 0.00679,-0.081078 0.015964,-0.1692666 0.027328,-0.230413 0.01222,-0.065754 0.027864,-0.1265708 0.046714,-0.1908982 0.01315,-0.044876 0.027369,-0.093954 0.045148,-0.1370905 C 5.5440979,8.1758231 5.6013098,8.0461508 5.6796014,7.9200999 5.757844,7.7941279 5.8495278,7.675614 5.951693,7.5681285 6.0530125,7.4615327 6.1658422,7.3648497 6.2866151,7.2809319 6.4073115,7.1970673 6.5374388,7.1256597 6.6723505,7.0673528 6.7761394,7.0224967 6.8850508,6.9886203 6.9953622,6.9638092 7.171065,6.9242904 7.3971585,6.8914496 7.5309199,6.8925575 Z"
       id="path12637"
       sodipodi:nodetypes="ccaaaaaaaaaaaaaccssssaaaaacc"
       class="superior_esquerdo"
       transform="matrix(3.7794823,0,0,3.7794823,385.60456,259.39318)" />
    <path
       style="stroke:#777536;stroke-width:0.0264587;stroke-linecap:round;stroke-linejoin:round;stroke-dasharray:none;stroke-opacity:0;paint-order:stroke fill markers"
       d="m 9.6457462,9.5441107 c -0.00963,0.029527 -0.028922,0.088652 -0.054605,0.1617875 -0.025683,0.073136 -0.057834,0.1605183 -0.086636,0.230881 -0.028802,0.070363 -0.054141,0.1234788 -0.077734,0.1684318 -0.023594,0.04495 -0.045256,0.08141 -0.091647,0.149788 -0.046391,0.06837 -0.1177799,0.169029 -0.1733383,0.237978 -0.055559,0.06895 -0.09568,0.106778 -0.1306663,0.141592 -0.034987,0.03481 -0.064232,0.06602 -0.133534,0.121101 -0.069302,0.05508 -0.1759289,0.132165 -0.3066157,0.205945 -0.1306869,0.07378 -0.2887479,0.143238 -0.4100461,0.179603 -0.1212982,0.03636 -0.2860259,0.06462 -0.4087556,0.08166 -0.1227297,0.01704 -0.187733,0.02151 -0.2592214,0.02642 0,0 7e-7,6.73017 7e-7,6.73017 0.5658032,0.01447 1.1325193,0.02897 1.6438661,-0.01503 0.5113469,-0.044 0.9718014,-0.147037 1.3348984,-0.256323 0.363097,-0.109286 0.63866,-0.228159 0.924484,-0.416663 0.285825,-0.188505 0.60284,-0.461473 0.835999,-0.7637 0.233158,-0.302227 0.407608,-0.666064 0.573409,-1.300217 0.165801,-0.634153 0.332625,-1.569297 0.480729,-2.313711 0.148103,-0.744414 0.278964,-1.306327 0.389232,-1.73683 0.110267,-0.430503 0.19953,-0.728174 0.276504,-0.973672 0.07697,-0.2454975 0.139094,-0.4308587 0.200857,-0.6114595 0.06176,-0.1806009 0.118494,-0.3427416 0.176227,-0.5077474 0,0 -4.6482267,4.2e-6 -4.6482267,4.2e-6 -0.0012,0.037657 -0.00241,0.075563 -0.008,0.1368213 -0.00558,0.061258 -0.015544,0.1462612 -0.022527,0.1990692 -0.00698,0.052808 -0.011031,0.073844 -0.013025,0.084207 -0.00199,0.010362 -0.002,0.010366 -0.011629,0.039892 z"
       id="path12703"
       sodipodi:nodetypes="sccscscscscccsaaaaasscccssss"
       inkscape:original-d="m 9.6553791,9.5145839 c -0.018949,0.059157 -0.038238,0.118282 -0.057734,0.1769669 -0.03187,0.0876 -0.06402,0.174983 -0.09647,0.262195 -0.02515,0.05355 -0.05049,0.1066652 -0.07619,0.1597112 -0.0215,0.03689 -0.0434,0.07321 -0.06519,0.109723 -0.070762,0.100407 -0.1421507,0.201062 -0.2133764,0.300848 -0.039935,0.03817 -0.080056,0.076 -0.1208786,0.113976 -0.02914,0.03163 -0.05838,0.06284 -0.08762,0.09349 -0.109419,0.07956 -0.216048,0.15664 -0.331634,0.239743 -0.145863,0.06448 -0.303925,0.133935 -0.420226,0.184661 -0.126383,0.02199 -0.291111,0.05024 -0.458649,0.07866 -0.077957,0.0056 -0.2144653,0.01474 -0.2144653,0.01474 l 7e-7,6.73017 c 0,0 1.1325126,0.02923 1.6974097,0.04342 0.4578724,-0.102137 0.9183268,-0.205176 1.3743818,-0.307555 0.281002,-0.09116 0.563329,-0.194353 0.81377,-0.351043 0.303755,-0.261058 0.620771,-0.534026 0.921129,-0.793144 0.166033,-0.345466 0.340483,-0.709303 0.507927,-1.059344 0.288845,-0.896118 0.330967,-1.853508 0.496053,-2.780659 0.131128,-0.561659 0.261988,-1.123572 0.392589,-1.68577 0.08994,-0.298786 0.179203,-0.596457 0.269024,-0.897135 0.06413,-0.1903051 0.12625,-0.3756662 0.190723,-0.5691034 0.05905,-0.1677609 0.173199,-0.4950175 0.173199,-0.4950175 l -4.6482267,4.2e-6 c 0,0 -0.00214,0.075572 -0.00361,0.1129706 -0.00968,0.085143 -0.019641,0.1701461 -0.029832,0.2545948 -0.00376,0.021192 -0.00781,0.042228 -0.012102,0.062894 z"
       inkscape:path-effect="#path-effect12707"
       class="inferior_direito"
       transform="matrix(3.7794823,0,0,3.7794823,385.60456,259.39318)" />
  </g>
</svg>
