<?xml version="1.0" encoding="UTF-8" standalone="no"?><svg   width="87.136169"   height="96.788048"   viewBox="0 0 23.054782 25.60881"   version="1.1"   id="svg10"   xmlns="http://www.w3.org/2000/svg"   xmlns:svg="http://www.w3.org/2000/svg">  <defs     id="defs14" />  <g     id="layer6"     transform="matrix(-0.26458649,0,0,0.26458649,79.248977,-63.167732)">    <path       style="fill:none;stroke:#030303;stroke-width:0.7;stroke-linecap:round;stroke-linejoin:round;stroke-dasharray:none;stroke-opacity:1;paint-order:stroke fill markers"       d="m 246.98321,244.51253 c -1.93713,0.0407 -5.62952,0.001 -8.65252,0.46983 -3.02301,0.46872 -5.37602,1.44592 -7.68929,2.9457 -2.31328,1.49977 -4.58625,3.52189 -6.96259,6.36086 -2.37634,2.83897 -4.85569,6.49434 -6.72787,10.24841 -1.87218,3.75406 -3.13702,7.6062 -3.74757,12.4957 -0.61055,4.8895 -0.56699,10.81564 -0.19775,16.86734 0.36924,6.05171 1.06401,12.22852 2.01249,17.23947 0.94847,5.01095 2.15033,8.85567 3.89941,11.9415 1.74908,3.08584 4.04466,5.41282 6.74215,7.18537 2.69749,1.77254 5.79652,2.99109 8.93891,3.37201 3.14239,0.38093 6.32833,-0.0752 8.56608,-0.49217 2.23774,-0.41698 3.52737,-0.79474 4.64659,-1.31712 1.11922,-0.52238 2.06842,-1.18939 3.62767,-0.87701 1.55926,0.31238 3.72749,1.60326 6.11545,2.53695 2.38796,0.9337 4.99553,1.51059 7.65673,1.65396 2.6612,0.14336 5.37617,-0.14645 8.04136,-0.77167 2.66518,-0.62521 5.28075,-1.58568 7.70652,-3.05079 2.42576,-1.4651 4.66208,-3.43489 6.67882,-6.12916 2.01675,-2.69427 3.81408,-6.11328 5.13202,-9.69741 1.31795,-3.58413 2.15641,-7.33354 2.78204,-10.75144 0.62563,-3.41789 1.03836,-6.5042 1.34038,-9.45505 0.30203,-2.95085 0.4933,-5.76616 0.61962,-8.76487 0.12633,-2.99871 0.18767,-6.1807 0.56323,-9.71135 0.37556,-3.53065 1.06543,-7.40956 1.09458,-10.34035 0.0292,-2.93079 -0.60292,-4.91371 -1.36046,-7.74275 -0.75754,-2.82904 -1.64039,-6.50397 -3.11093,-9.24446 -1.47054,-2.7405 -3.52945,-4.54617 -5.54929,-5.77426 -2.01984,-1.2281 -4.00064,-1.87802 -6.04829,-2.49778 -2.04765,-0.61976 -4.16203,-1.20927 -6.69263,-1.63884 -2.53059,-0.42957 -5.47712,-0.69896 -8.76446,-0.25089 -3.28733,0.44807 -6.91479,1.61385 -10.03111,2.55149 -3.11631,0.93763 -5.72136,1.64705 -7.11545,2.06218 -1.39409,0.41513 -1.57672,0.53591 -3.51384,0.5766 z"       id="path1153"       transform="translate(-3.1722948e-6)" />    <path       style="fill:none;stroke:#808080;stroke-width:0.3;stroke-linecap:round;stroke-linejoin:round;stroke-dasharray:none;stroke-opacity:1;paint-order:stroke fill markers"       d="m 243.49592,258.79074 c -2.08696,1.05691 -6.26128,3.17091 -9.78664,5.11952 -3.52536,1.9486 -6.40153,3.7317 -8.32474,5.98158 -1.92322,2.24988 -2.89292,4.96565 -3.57094,8.3185 -0.67803,3.35285 -1.06447,7.34221 -1.34144,11.15505 -0.27697,3.81284 -0.44449,7.44885 -0.38924,10.61651 0.0553,3.16765 0.33312,5.86664 1.05148,8.52574 0.71836,2.6591 1.87674,5.27803 3.3179,7.09558 1.44116,1.81756 3.16436,2.83413 5.80317,3.90984 2.63882,1.07571 6.19305,2.2108 8.47914,2.40626 2.28608,0.19547 3.30495,-0.54816 3.9261,-1.54517 0.62116,-0.99701 0.8449,-2.24826 0.97125,-3.15477 0.12636,-0.90651 0.15522,-1.46837 0.42812,-1.76877 0.27289,-0.30041 0.78881,-0.33833 1.52073,0.16018 0.73193,0.49851 1.67978,1.53232 3.10836,2.6562 1.42857,1.12387 3.33759,2.33805 6.05926,3.24573 2.72167,0.90767 6.25584,1.50934 9.20401,1.85306 2.94816,0.34373 5.31028,0.42966 7.35661,-0.0715 2.04633,-0.50114 3.77753,-1.5891 5.86881,-3.64256 2.09129,-2.05346 4.54288,-5.07254 5.95781,-7.35165 1.41493,-2.27911 1.79321,-3.81871 2.10662,-5.78928 0.31341,-1.97056 0.56183,-4.37213 1.2095,-7.41563 0.64767,-3.0435 1.69464,-6.7285 2.49566,-9.94381 0.80102,-3.2153 1.35602,-5.96083 1.80833,-8.29284 0.45232,-2.332 0.8019,-4.25037 0.95646,-6.47472 0.15456,-2.22435 0.11393,-4.75477 -0.139,-6.99799 -0.25293,-2.24322 -0.71839,-4.19927 -1.99249,-6.13364 -1.27409,-1.93438 -3.35748,-3.84675 -5.65902,-5.17857 -2.30154,-1.33182 -4.82124,-2.08243 -7.23575,-2.59056 -2.41452,-0.50813 -4.72362,-0.77352 -7.12859,-0.64704 -2.40498,0.12647 -4.90533,0.64507 -7.10397,1.36943 -2.19864,0.72437 -4.09509,1.6545 -5.7885,2.11967 -1.69342,0.46517 -3.1843,0.46517 -4.65376,0.30591 -1.46946,-0.15926 -2.91759,-0.47802 -3.9858,-0.3209 -1.06821,0.15712 -1.75532,0.79039 -2.09891,1.10705 -0.34359,0.31666 -0.34357,0.31666 -2.43053,1.37356 z"       id="path1157" />    <path       style="fill:none;stroke:#4d4d4d;stroke-width:0.7;stroke-linecap:round;stroke-linejoin:round;stroke-dasharray:none;stroke-opacity:1;paint-order:stroke fill markers"       d="m 222.69448,283.14228 c 1.35137,1.78772 2.70189,3.57432 3.43834,4.96602 0.73645,1.3917 0.85954,2.38847 0.80207,3.36442 -0.0575,0.97595 -0.29516,1.93142 -0.89339,3.49943 -0.59823,1.56802 -1.55693,3.74872 -2.51544,5.92898"       id="path1161" />    <path       style="fill:none;stroke:#4d4d4d;stroke-width:0.7;stroke-linecap:round;stroke-linejoin:round;stroke-dasharray:none;stroke-opacity:1;paint-order:stroke fill markers"       d="m 226.92361,291.61152 c 1.31861,-0.36148 2.63657,-0.72277 4.11063,-0.4334 1.47407,0.28938 3.10368,1.22851 4.33805,1.71809 1.23437,0.48959 2.07357,0.53022 3.08707,0.41585 1.01351,-0.11436 2.20158,-0.38351 3.61683,-0.61938 1.41525,-0.23587 3.05746,-0.43851 4.53829,-1.01703 1.48083,-0.57851 2.80086,-1.53285 4.34345,-2.36848 1.54258,-0.83564 3.3073,-1.55245 4.96656,-1.8701 1.65926,-0.31764 3.21242,-0.23638 5.00749,0.1062 1.79507,0.34257 3.83178,0.94612 5.73855,1.43182 1.90677,0.4857 3.68351,0.85364 5.77002,0.99684 2.08651,0.1432 4.48284,0.0619 6.17087,0.0213 1.68802,-0.0406 2.6676,-0.0406 3.85348,0.42999 1.18588,0.4706 2.57784,1.41101 3.96867,2.35065"       id="path1165" />    <path       style="fill:none;stroke:#4d4d4d;stroke-width:0.7;stroke-linecap:round;stroke-linejoin:round;stroke-dasharray:none;stroke-opacity:1;paint-order:stroke fill markers"       d="m 289.74934,276.40348 c -1.53763,1.85397 -3.07517,3.70784 -4.62511,5.77482 -1.54995,2.06697 -3.11217,4.34686 -4.05003,5.74534 -0.93787,1.39848 -1.25132,1.91543 -1.56459,2.43209"       id="path1169" />    <path       style="fill:none;stroke:#4d4d4d;stroke-width:0.7;stroke-linecap:round;stroke-linejoin:round;stroke-dasharray:none;stroke-opacity:1;paint-order:stroke fill markers"       d="m 256.69434,259.79212 c 0.13464,2.56663 0.26922,5.13221 0.17807,7.70671 -0.0911,2.57449 -0.40785,5.158 -0.64749,7.84795 -0.23963,2.68995 -0.40225,5.48612 -0.30922,7.61465 0.093,2.12853 0.44135,3.58908 0.61129,5.29988 0.16994,1.7108 0.16177,3.6719 0.41849,5.3861 0.25671,1.71421 0.77785,3.18121 1.27422,4.13266 0.49637,0.95144 0.96732,1.38752 1.43725,1.82265"       id="path1173" />    <path       style="fill:none;stroke:#4d4d4d;stroke-width:0.7;stroke-linecap:round;stroke-linejoin:round;stroke-dasharray:none;stroke-opacity:1;paint-order:stroke fill markers"       d="m 236.72003,293.50197 c -0.0275,1.47603 -0.055,2.95109 0.10387,4.56053 0.15889,1.60943 0.5039,3.35301 1.13958,4.98547 0.63567,1.63246 1.56148,3.15369 2.55169,4.74983 0.9902,1.59615 2.04474,3.26714 2.67103,4.18139 0.6263,0.91426 0.82397,1.07205 1.02054,1.22896"       id="path1177" />    <path       style="stroke:#a3c64d;stroke-width:0.0264587;stroke-linecap:round;stroke-linejoin:round;stroke-dasharray:none;stroke-opacity:0;paint-order:stroke fill markers"       d="m 11.533991,24.88864 c -0.453906,-0.237183 -0.907496,-0.474201 -1.260138,-0.521193 -0.3526411,-0.04699 -0.6037866,0.09642 -0.8999288,0.2181 -0.2961423,0.121682 -0.6417505,0.222917 -1.0680086,0.309327 -0.426258,0.08641 -0.9566621,0.162653 -1.4113469,0.191538 -0.4546848,0.02889 -0.8352816,0.01204 -1.2060991,-0.04877 C 5.3176521,24.976826 4.9300819,24.867281 4.5612767,24.720712 4.1924716,24.574142 3.8490603,24.393506 3.5264241,24.178058 3.2037879,23.96261 2.8809351,23.697061 2.5857773,23.3825 2.2906194,23.067939 2.0087331,22.690519 1.7640916,22.254741 1.5194502,21.818963 1.3103314,21.322381 1.1383467,20.795783 0.96636189,20.269186 0.8315701,19.712581 0.68137716,18.763321 0.53118422,17.814061 0.36562937,16.472165 0.26424097,15.413612 0.16285258,14.355058 0.12564041,13.579588 0.08844151,12.804395 c 0,0 6.06437109,0 6.06437109,0 0.00476,0.130756 0.00953,0.261707 0.03075,0.455708 0.02122,0.194001 0.059125,0.452941 0.1043479,0.667962 0.045223,0.21502 0.098036,0.387975 0.1555837,0.561664 0.057547,0.173688 0.1200868,0.348843 0.221989,0.56427 0.1019021,0.215427 0.2446838,0.474293 0.3760201,0.683681 0.1313363,0.209387 0.2518132,0.370464 0.3857292,0.528794 0.1339159,0.158329 0.2812355,0.313936 0.405589,0.435774 0.1243536,0.121839 0.2255992,0.209834 0.3875931,0.330458 0.1619939,0.120624 0.3839474,0.273342 0.6249815,0.412002 0.2410341,0.138661 0.5008695,0.263138 0.7446948,0.360525 0.2438254,0.09739 0.4716417,0.167739 0.7273097,0.224688 0.255669,0.05695 0.539209,0.100547 0.745556,0.124664 0.206347,0.02412 0.335253,0.02878 0.464431,0.03345 0,0 0.0066,6.700609 0.0066,6.700609 z"       id="path12774"       transform="matrix(3.7794824,0,0,3.7794824,212.38493,238.74134)"       class="inferior_esquerdo" />    <path       style="stroke:#a3c64d;stroke-width:0.1;stroke-linecap:round;stroke-linejoin:round;stroke-dasharray:none;stroke-opacity:0;paint-order:stroke fill markers"       d="m 275.49549,292.56542 c -0.16158,0.48643 -0.48701,1.46619 -0.96754,2.54189 -0.48052,1.07571 -1.12424,2.26584 -1.79533,3.29385 -0.67109,1.028 -1.3723,1.899 -1.9872,2.58405 -0.6149,0.68505 -1.14364,1.18431 -1.49801,1.50761 -0.35438,0.32329 -0.53448,0.47069 -1.11873,0.86905 -0.58425,0.39835 -1.57278,1.04775 -2.36186,1.51322 -0.78908,0.46548 -1.37891,0.74708 -2.02194,1.01201 -0.64304,0.26493 -1.33944,0.51318 -2.06184,0.7253 -0.72241,0.21212 -1.47097,0.38807 -2.18649,0.51829 -0.71552,0.13023 -1.39967,0.21485 -1.9828,0.26557 -0.58314,0.0507 -1.0684,0.0678 -1.55318,0.0849 0,0 -0.008,25.31328 -0.008,25.31328 0.53396,0.23163 1.06913,0.46378 1.9192,0.75833 0.85008,0.29454 2.01838,0.65279 3.22033,0.92335 1.20196,0.27056 2.44626,0.45557 3.65416,0.54883 1.20789,0.0933 2.38171,0.0953 3.72327,-0.0128 1.34156,-0.10805 2.85102,-0.32604 4.28825,-0.63561 1.43723,-0.30957 2.80242,-0.71066 4.08809,-1.19439 1.28568,-0.48373 2.49204,-1.05009 3.68837,-1.75631 1.19634,-0.70622 2.3829,-1.55237 3.56513,-2.61462 1.18223,-1.06225 2.36035,-2.34078 3.36598,-3.63103 1.00564,-1.29025 1.83891,-2.59244 2.66682,-4.13527 0.8279,-1.54284 1.65065,-3.32683 2.39245,-5.31309 0.74181,-1.98625 1.40246,-4.17392 1.89414,-6.04127 0.49167,-1.86735 0.8126,-3.40826 1.15802,-5.40758 0.34541,-1.99931 0.71616,-4.46197 0.93996,-6.04056 0.22381,-1.5786 0.29972,-2.26671 0.42804,-3.79739 0.12832,-1.53067 0.30992,-3.91503 0.40879,-5.27519 0.0989,-1.36015 0.11543,-1.70184 0.132,-2.04351 0,0 -21.21972,0.009 -21.21972,0.009 -0.001,0.13448 -0.003,0.26908 -0.0511,0.84042 -0.0484,0.57134 -0.1443,1.58307 -0.24505,2.33921 -0.10076,0.75614 -0.20678,1.2608 -0.25967,1.51251 -0.0529,0.25172 -0.053,0.25148 -0.21453,0.73791 z"       id="path12703"       class="inferior_direito" />    <path       id="path12435"       style="stroke:#a3c64d;stroke-width:0.247;stroke-linecap:square;stroke-dasharray:none;stroke-opacity:0"       class="centro"       d="m 276.26573,287.13536 a 20.313172,20.347337 0 0 1 -20.31318,20.34734 20.313172,20.347337 0 0 1 -20.31317,-20.34734 20.313172,20.347337 0 0 1 20.31317,-20.34734 20.313172,20.347337 0 0 1 20.31318,20.34734 z"       transform="translate(-3.1722948e-6)" />    <path       style="stroke:#a3c64d;stroke-width:0.0264587;stroke-linecap:square;stroke-dasharray:none;stroke-opacity:0"       d="m 11.527388,7.4207727 3e-6,-6.46158097 C 10.93036,1.1189661 10.480775,1.2681297 9.9548578,1.4133614 9.860338,1.439463 9.7672379,1.4729196 9.6703997,1.488335 8.745304,1.6355983 7.7831215,1.465944 6.8648976,1.6512908 6.2116779,1.7831454 5.5541018,1.979616 4.9803814,2.3186243 4.2873696,2.7281213 3.7068531,3.3184871 3.1761582,3.9237276 2.4056694,4.8024454 1.716162,5.7728082 1.2081057,6.8252704 0.74343391,7.7878596 0.4405203,8.833638 0.2498374,9.8853689 0.07599184,10.844232 0.07151551,11.822147 0.08844151,12.804395 c 3.08618079,2.65e-4 2.90892469,0.0022 6.06467389,0.002 0.02261,-0.198192 0.019458,-0.599472 0.073863,-0.89324 0.076849,-0.41496 0.1824282,-0.830051 0.3544276,-1.215426 C 6.8064379,10.193495 7.0950179,9.7089447 7.4554136,9.2906371 7.8195555,8.8679813 8.2581774,8.5032763 8.7308635,8.206957 9.1312526,7.9559596 9.5735124,7.76453 10.027847,7.6345641 10.513278,7.4957028 10.881725,7.4841255 11.527388,7.4207727 Z"       id="path12637"       transform="matrix(3.7794824,0,0,3.7794824,212.38493,238.74134)"       class="superior_esquerdo" />    <path       style="stroke:#a3c64d;stroke-width:0.0264587;stroke-linecap:round;stroke-linejoin:round;stroke-dasharray:none;stroke-opacity:0;paint-order:stroke fill markers"       d="M 22.680575,9.6517813 C 22.771826,9.1387115 22.954357,8.1124044 22.96207,7.3369572 22.969784,6.56151 22.802546,6.0368563 22.602111,5.2883311 22.401677,4.5398059 22.168087,3.5674692 21.779002,2.8423711 21.389917,2.1172731 20.845157,1.6395174 20.310734,1.3145803 19.776312,0.98964322 19.252219,0.81768174 18.710438,0.6537013 18.168658,0.48972085 17.60922,0.33374624 16.93966,0.22008735 16.2701,0.10642846 15.490488,0.03515225 14.620703,0.15370549 c -0.869786,0.11855324 -1.827887,0.42646477 -2.359271,0.59263575 -0.531383,0.16617098 -0.632778,0.18952599 -0.734041,0.21285049 0,0 -6e-6,6.46158097 -6e-6,6.46158097 0.09822,0.0027 0.196536,0.0054 0.357154,0.01993 0.160618,0.014527 0.426578,0.045947 0.599085,0.076882 0.172507,0.030935 0.398976,0.086351 0.636695,0.1616226 0.23772,0.075272 0.479181,0.1678982 0.648618,0.2454096 0.169438,0.077511 0.404469,0.2045349 0.593527,0.3220283 0.189057,0.1174933 0.372151,0.2473723 0.490272,0.3420381 0.118121,0.094666 0.175537,0.1578541 0.24605,0.2222584 0.07051,0.064404 0.160465,0.1358707 0.204641,0.1712267 0.04418,0.035356 0.04636,0.037561 0.07145,0.063963 0.02509,0.026402 0.07153,0.075356 0.143868,0.1536302 0.07234,0.078274 0.168424,0.1835547 0.25493,0.2947829 0.08651,0.1112281 0.163754,0.228969 0.214374,0.3061308 0.05062,0.077162 0.07432,0.1133079 0.102916,0.1569068 0.02859,0.043599 0.06181,0.09425 0.09873,0.1505475 0.03692,0.0563 0.0778,0.118638 0.163063,0.324418 0.08526,0.205781 0.243021,0.630072 0.316811,0.876475 0.07379,0.246402 0.134536,0.54656 0.169777,0.802219 0.03524,0.255659 0.04861,0.468524 0.06271,0.693153 0,0 5.614351,2.3e-5 5.614351,2.3e-5 0.02433,-0.879848 0.05239,-1.894662 0.06268,-2.267103 0.0103,-0.372441 0.01024,-0.372464 0.10149,-0.8855337 z"       id="path12788"       transform="matrix(3.7794824,0,0,3.7794824,212.38493,238.74134)"       class="superior_direito" />  </g></svg>