<?xml version="1.0" encoding="UTF-8"?>
<svg width="28px" height="28px" viewBox="0 0 28 28" version="1.1" xmlns="http://www.w3.org/2000/svg" xmlns:xlink="http://www.w3.org/1999/xlink">
    <!-- Generator: Sketch 63.1 (92452) - https://sketch.com -->
    <title>nav-financeiro</title>
    <desc>Created with Sketch.</desc>
    <g id="Page-1" stroke="none" stroke-width="1" fill="none" fill-rule="evenodd">
        <g id="nav-financeiro" transform="translate(0.000000, 0.000000)" fill="#FFFFFF" fill-rule="nonzero">
            <path d="M13.8426966,0 C17.6597384,0 21.1209718,1.57021712 23.6278133,4.10620797 C26.1334408,6.64097063 27.6853933,10.1405663 27.6853933,14 C27.6853933,17.8594337 26.1334408,21.3590294 23.6278133,23.893792 C21.1209718,26.4297829 17.6597384,28 13.8426966,28 C10.0256548,28 6.56442145,26.4297829 4.05757992,23.893792 C1.55195246,21.3590294 0,17.8594337 0,14 C0,10.1405663 1.55195246,6.64097063 4.05757992,4.10620797 C6.56442145,1.57021712 10.0256548,0 13.8426966,0 Z M13.8426966,1.81924768 C10.5244865,1.81924768 7.51576722,3.18511419 5.33646674,5.38975537 C3.15594845,7.59562853 1.80556913,10.6412227 1.80556913,14 C1.80556913,17.3587773 3.15594845,20.4043715 5.33646674,22.6102446 C7.51576722,24.8148858 10.5244865,26.1807523 13.8426966,26.1807523 C17.1609067,26.1807523 20.169626,24.8148858 22.3489265,22.6102446 C24.5294448,20.4043715 25.8798241,17.3587773 25.8798241,14 C25.8798241,10.6412227 24.5294448,7.59562853 22.3489265,5.38975537 C20.169626,3.18511419 17.1609067,1.81924768 13.8426966,1.81924768 Z" id="Shape"></path>
            <path d="M13.8426966,5.34831461 C14.0940224,5.34831461 14.3211889,5.45027181 14.485589,5.61501727 C14.6499547,5.77972823 14.7515605,6.00727018 14.7515605,6.25842697 L14.7515605,6.25842697 L14.7515605,8.3258427 L16.2197253,8.3258427 C17.1256672,8.3258427 17.9473193,8.69500054 18.5424133,9.29134473 C19.1372683,9.88744944 19.505618,10.7104653 19.505618,11.6179775 C19.505618,11.8691343 19.4040121,12.0966763 19.2396464,12.2613872 C19.0752464,12.4261327 18.8480798,12.5280899 18.5967541,12.5280899 C18.3454283,12.5280899 18.1182617,12.4261327 17.9538617,12.2613872 C17.789496,12.0966763 17.6878901,11.8691343 17.6878901,11.6179775 C17.6878901,11.2121926 17.522983,10.8442058 17.2569626,10.5776265 C16.9911812,10.3112867 16.6243275,10.1460674 16.2197253,10.1460674 L16.2197253,10.1460674 L14.7515605,10.1460674 L14.7515605,13.0898876 L16.2197253,13.0898876 C17.142977,13.0898876 18.0303311,13.4831118 18.6516287,14.1681034 C19.2721718,14.8522956 19.5784936,15.7764807 19.4899746,16.7024196 C19.4102797,17.5367869 19.0000561,18.2818451 18.3902029,18.8175079 C17.7845468,19.3494842 16.982472,19.6741573 16.1175874,19.6741573 L16.1175874,19.6741573 L14.7515605,19.6741573 L14.7515605,21.741573 C14.7515605,21.9927298 14.6499547,22.2202718 14.485589,22.3849827 C14.3211889,22.5497282 14.0940224,22.6516854 13.8426966,22.6516854 C13.5913709,22.6516854 13.3642043,22.5497282 13.1998042,22.3849827 C13.0354386,22.2202718 12.9338327,21.9927298 12.9338327,21.741573 L12.9338327,21.741573 L12.9338327,19.6741573 L11.4656679,19.6741573 C10.5597261,19.6741573 9.738074,19.3049995 9.14298001,18.7086553 C8.54812499,18.1125506 8.17977528,17.2895347 8.17977528,16.3820225 C8.17977528,16.1308657 8.28138116,15.9033237 8.44574681,15.7386128 C8.61014689,15.5738673 8.83731346,15.4719101 9.0886392,15.4719101 C9.33996494,15.4719101 9.56713152,15.5738673 9.73153159,15.7386128 C9.89589725,15.9033237 9.99750312,16.1308657 9.99750312,16.3820225 C9.99750312,16.7878074 10.1624102,17.1557942 10.4284306,17.4223735 C10.6942121,17.6887133 11.0610658,17.8539326 11.4656679,17.8539326 L11.4656679,17.8539326 L12.9338327,17.8539326 L12.9338327,14.9101124 L11.5678059,14.9101124 C10.7029212,14.9101124 9.90084645,14.5854392 9.29519037,14.053463 C8.68533713,13.5178001 8.27511352,12.7727419 8.19541921,11.9383801 C8.10689819,11.0117776 8.4132267,10.0882448 9.03376953,9.40405304 C9.65506213,8.71906682 10.5424163,8.3258427 11.4656679,8.3258427 L11.4656679,8.3258427 L12.9338327,8.3258427 L12.9338327,6.25842697 C12.9338327,6.00727018 13.0354386,5.77972823 13.1998042,5.61501727 C13.3642043,5.45027181 13.5913709,5.34831461 13.8426966,5.34831461 Z M16.2197253,14.9101124 L14.7515605,14.9101124 L14.7515605,17.8539326 L16.1175874,17.8539326 C16.5225323,17.8539326 16.8979261,17.7062832 17.1810419,17.4635789 C17.4571592,17.2268741 17.6459617,16.8988717 17.6815001,16.5292822 C17.7216863,16.1071585 17.5883178,15.7032299 17.3064866,15.3920124 C17.028569,15.0857567 16.6329044,14.9101124 16.2197253,14.9101124 Z M12.9338327,10.1460674 L11.4656679,10.1460674 C11.0526173,10.1460674 10.6570351,10.3215922 10.3794483,10.6280101 C10.096924,10.938984 9.96430595,11.3433097 10.0045018,11.7655339 C10.0397844,12.1349337 10.2284187,12.4628521 10.5043936,12.6995079 C10.7874451,12.9422322 11.1628506,13.0898876 11.5678059,13.0898876 L12.9338327,13.0898876 L12.9338327,10.1460674 Z" id="Shape"></path>
        </g>
    </g>
</svg>