<?xml version="1.0" encoding="UTF-8"?>
<svg width="28px" height="28px" viewBox="0 0 28 28" version="1.1" xmlns="http://www.w3.org/2000/svg" xmlns:xlink="http://www.w3.org/1999/xlink">
    <!-- Generator: Sketch 63.1 (92452) - https://sketch.com -->
    <title>nav-manutencao</title>
    <desc>Created with Sketch.</desc>
    <g id="Page-1" stroke="none" stroke-width="1" fill="none" fill-rule="evenodd">
        <g id="nav-manutencao" transform="translate(0.000000, 0.000000)" fill="#FFFFFF" fill-rule="nonzero">
            <path d="M4.10599236,19.7115204 C4.61884851,19.2703956 4.73921511,19.3157951 4.8446554,19.3455945 L4.85571556,19.3486519 L7.41408911,20.0339971 C7.63741792,20.0938582 7.8118576,20.2682969 7.87172633,20.4916498 L7.87172633,20.4916498 L8.55707293,23.0499752 C8.58699371,23.1616788 8.58597683,23.2771209 8.55703226,23.3850752 C8.52808775,23.4930293 8.47121565,23.5934956 8.38943936,23.6752345 L8.38943936,23.6752345 L6.51647412,25.5477214 C6.39510259,25.6691284 6.23047159,25.7373737 6.05880481,25.7373737 C6.00228588,25.7373737 5.94601187,25.7299864 5.89166234,25.7153551 L5.89166234,25.7153551 L3.33328879,25.0300099 C3.10995998,24.9701488 2.9355203,24.7957101 2.87565157,24.5723572 L2.87565157,24.5723572 L2.19026519,22.0138831 C2.13067271,21.7906764 2.19456354,21.5526289 2.3579051,21.3892647 C3.25225651,20.494693 3.78083557,19.9911987 4.10599236,19.7115204 Z M4.8815382,20.6976173 L3.53740927,22.0417322 L4.02915674,23.8729067 L5.86611372,24.3669285 L7.21169037,23.0275382 L6.71781247,21.1915662 L4.8815382,20.6976173 Z" id="Shape"></path>
            <path d="M19.1730432,1.00485111 C20.5878386,-0.0511005605 22.4303884,-0.292429814 24.0587192,0.364389676 C24.2577778,0.444847469 24.4054828,0.62141897 24.4508062,0.836618865 C24.4953933,1.05015568 24.4305496,1.27201205 24.2799968,1.42568432 L24.2799968,1.42568432 L21.5942446,4.17606366 L21.7998533,5.65634471 L23.2336224,5.86587551 L25.9125882,3.11347347 C26.0660207,2.9564684 26.2865529,2.89044916 26.4982792,2.93679757 C26.7084559,2.98280674 26.8826482,3.13392249 26.9598947,3.34036021 C27.5980422,5.00640572 27.3625078,6.89129626 26.335761,8.33868238 C25.307153,9.78869219 23.6278725,10.5987539 21.8833726,10.4886806 C21.8182984,10.4871491 21.75585,10.5145581 21.7113362,10.5632534 L21.7113362,10.5632534 L21.2581447,11.0317118 C21.9216755,11.7270571 22.3393996,12.6305515 22.4436444,13.5979734 L22.4436444,13.5979734 L22.766703,16.5527154 C22.8457049,17.2814674 23.1200634,17.9720745 23.557628,18.5484783 L23.557628,18.5484783 L23.7133705,18.3887276 C23.8318608,18.2651513 23.9942132,18.1965439 24.1630473,18.1977184 C24.332902,18.1965074 24.4964043,18.2647943 24.616604,18.3881174 L24.616604,18.3881174 L27.1564466,20.9933273 C27.2786035,21.1193759 27.3400673,21.2840896 27.3400673,21.4489977 C27.3400673,21.6139058 27.2786035,21.7786195 27.1555455,21.9055915 C27.0301559,22.0332165 26.8662154,22.0966051 26.7024931,22.0966051 C26.5387708,22.0966051 26.3748303,22.0332165 26.2489305,21.9050701 L26.2489305,21.9050701 L24.1630848,19.7655425 L17.4504797,26.655333 L17.6395705,26.8465584 C17.762674,26.9733796 17.8246119,27.1391993 17.8246119,27.3052131 C17.8246119,27.4708762 17.7629355,27.6363459 17.6403499,27.7630634 C17.5162555,27.8852546 17.3557129,27.9520964 17.1883867,27.9539669 C17.0165309,27.9532958 16.8542121,27.8854944 16.7332922,27.764183 L16.7332922,27.764183 L16.101057,27.1110771 C15.9811159,26.9920244 15.9126399,26.8284448 15.9119558,26.6570649 C15.912654,26.4830356 15.9808699,26.3181823 16.1006987,26.1973213 L16.1006987,26.1973213 L16.2902737,26.0028674 L11.4748157,21.0678407 L10.3199432,22.2524353 C10.2689291,22.3009066 10.2419837,22.3701135 10.2453196,22.4412178 C10.2499374,22.5406876 10.2544958,22.644895 10.2544957,22.7490002 C10.2552362,24.1405204 9.71662174,25.4751347 8.75786312,26.459463 C7.79733073,27.4456125 6.49407049,27.9994931 5.13501253,28 C3.71354185,27.9993405 2.42949127,27.4112549 1.50076256,26.4603524 C0.572546496,25.5099747 -0.000641872045,24.1970034 -3.33960636e-10,22.7467158 C0.000643114191,21.2972776 0.574333949,19.9855285 1.50071454,19.0361699 C2.42880803,18.0850558 3.71075561,17.4975411 5.12621459,17.498201 C5.18414676,17.5006011 5.23163497,17.5017078 5.27857075,17.5028144 C5.32915288,17.504007 5.37912822,17.5052014 5.43027612,17.507574 C5.497608,17.5099898 5.56249527,17.482271 5.60889841,17.4322874 L5.60889841,17.4322874 L6.76962974,16.2416831 L6.26580569,15.7248925 C5.99157635,15.4475488 5.80913086,15.1007226 5.7288448,14.7305173 C5.64863418,14.3606598 5.67042206,13.9675399 5.80419007,13.5974536 C5.93827983,13.2264772 6.17234568,12.9132157 6.46890585,12.6858669 C6.71115426,12.5001545 6.99509989,12.3717324 7.30053425,12.3157292 C7.2029133,11.6844462 7.40357173,11.0376786 7.84878277,10.578645 C8.07794,10.3465976 8.35722183,10.178297 8.66202137,10.0857205 C8.55796244,9.79324061 8.5230108,9.48392779 8.55470558,9.18195693 C8.59431607,8.80456935 8.73800371,8.43873135 8.98052735,8.1314652 C9.22394601,7.8230651 9.54424922,7.6022881 9.89710062,7.48359168 C10.1849586,7.38675854 10.4945224,7.35782694 10.8019566,7.40478215 C10.8579872,7.09142422 10.9848582,6.80063035 11.1672719,6.55291612 C11.391109,6.24894955 11.6985343,6.009844 12.0614846,5.87297221 C12.4253553,5.73575333 12.8115265,5.71386244 13.1748839,5.79692153 C13.5376347,5.87984196 13.8777294,6.06740435 14.1492173,6.34893503 L14.1492173,6.34893503 L15.2839336,7.51285479 L17.0024426,5.7501178 C17.0516165,5.70060473 17.0787564,5.6327673 17.0785359,5.56199819 C16.9721615,3.77577692 17.7623869,2.0577135 19.1730432,1.00485111 Z M17.821142,13.3720321 C17.7556366,13.3720321 17.6903286,13.3972167 17.6394229,13.4468163 C17.2314589,13.8625566 16.7098156,14.1038528 16.1655853,14.1651975 C15.6642269,14.2217097 15.1435311,14.1253787 14.6752913,13.8712578 C14.4713164,14.0533084 14.2327938,14.189617 13.9751759,14.2718819 C14.1670739,14.8207265 14.1176389,15.432854 13.8317261,15.9456287 C13.5424232,16.4644834 13.045484,16.8207508 12.4794294,16.9268547 C12.5342922,17.3012006 12.4843439,17.6761585 12.3456895,18.0126423 C12.1810075,18.4122894 11.8912804,18.7575752 11.5038356,18.9839064 C11.1149604,19.2110732 10.6759849,19.2903236 10.2554191,19.2315075 C9.83534412,19.1727601 9.43346181,18.9762165 9.11841331,18.6509142 L7.66581348,17.1609312 L6.51314402,18.3473857 C6.20991914,18.6591002 5.79267531,18.8247817 5.36216589,18.804631 C5.2849167,18.8002289 5.19050248,18.7957322 5.12612669,18.7957322 C4.06356256,18.7951267 3.10167842,19.2366889 2.40511061,19.9503902 C1.70682962,20.6658469 1.2750293,21.6546516 1.27443681,22.7469016 C1.27384578,23.8398241 1.70511939,24.8296672 2.40502544,25.5459951 C3.10249488,26.2598293 4.06681892,26.7018637 5.13520682,26.7024689 C6.19651042,26.701259 7.15708942,26.2587195 7.85241283,25.5447077 C8.54944537,24.8289408 8.98005928,23.8404954 8.98005862,22.7491006 C8.98005862,22.6696595 8.97566381,22.5902219 8.97136124,22.5107826 C8.94945089,22.0718503 9.1114971,21.6452314 9.41584931,21.337187 L16.1000969,14.4809057 C16.2252255,14.3533169 16.3884305,14.2901488 16.5514162,14.2901488 C16.7144018,14.2901488 16.8776069,14.3533169 17.0023434,14.4805047 C17.0975137,14.578878 17.1559708,14.6997202 17.1777753,14.8258031 C17.3158068,14.587992 17.4844775,14.363688 17.6837646,14.1588842 L18.0024423,13.8320048 C18.0523892,13.780785 18.0797253,13.7110206 18.0790348,13.6350739 C18.0796933,13.5647617 18.0527857,13.4969853 18.003755,13.4476811 C17.953488,13.3978112 17.887416,13.3720321 17.821142,13.3720321 Z M17.821142,9.66043608 C17.6405009,9.66043608 17.4600573,9.72963989 17.3199432,9.86726788 L15.10039,12.1439441 C15.0489792,12.1969939 15.0234638,12.2669804 15.0234638,12.3367725 C15.0234638,12.4065646 15.0489792,12.4765511 15.1007808,12.530003 C15.3257901,12.7605143 15.6210604,12.8764436 15.9165532,12.8764436 C16.2120461,12.8764436 16.5073164,12.7605143 16.7360087,12.5263063 C17.0392698,12.2302368 17.4291804,12.082585 17.8188987,12.082585 C18.208617,12.082585 18.5985276,12.2302368 18.9048991,12.5294146 C19.1917632,12.8228498 19.3533821,13.2212174 19.3533821,13.6368753 C19.3533821,14.0522549 19.1919796,14.4503673 18.9054752,14.7437465 L18.5919441,15.069941 C18.1885776,15.48382 17.98774,16.0250757 17.98774,16.5661336 C17.98774,17.1071914 18.1885776,17.6484471 18.5910343,18.0613863 L18.9060105,18.3890777 C19.0276287,18.5145681 19.0890925,18.6792818 19.0890925,18.8441899 C19.0890925,19.0081116 19.0283618,19.1718412 18.9076573,19.2975943 C18.7889278,19.4242329 18.6249104,19.4953329 18.4537616,19.4953329 C18.2835135,19.4953329 18.1203221,19.4249793 18.0017632,19.2995823 L17.6843006,18.9785357 C17.0361283,18.3127178 16.7116527,17.4406747 16.7116527,16.5684346 C16.7116527,16.2202955 16.7633438,15.8721877 16.8666765,15.5372114 L12.3707614,20.1488366 L17.1861665,25.083809 L22.6529873,19.4718945 C22.0147425,18.6819543 21.6143898,17.7168489 21.5034383,16.6946296 L21.1804146,13.7402071 C21.1002049,13.0303402 20.7655819,12.3753998 18.3236333,9.86859564 C18.1829947,9.72993474 18.0021676,9.66043608 17.821142,9.66043608 Z M7.66609267,13.5584231 C7.47915773,13.5589674 7.30007178,13.6349839 7.16699481,13.7694886 C7.03177932,13.9067278 6.95620622,14.0944038 6.95678932,14.2898124 C6.95692357,14.4845041 7.03257167,14.6708214 7.16756221,14.8072399 L10.0215898,17.7393226 C10.110944,17.8309763 10.2207995,17.8949162 10.3389337,17.9273848 C10.4564649,17.9596877 10.5821421,17.9608071 10.7037462,17.9273848 C10.9495859,17.8598169 11.140402,17.662021 11.2061484,17.4103374 C11.2724477,17.1565369 11.2022255,16.885426 11.0207536,16.6996059 L10.7066604,16.3728267 L8.16767518,13.7684974 C8.03515345,13.632532 7.85499651,13.5565649 7.66609267,13.5584231 Z M9.25385742,11.2797178 C9.07362589,11.2797178 8.89361376,11.3503764 8.75585525,11.490842 C8.62175224,11.6282442 8.54661428,11.8152386 8.54661428,12.010021 C8.54661428,12.2050325 8.62192907,12.3922376 8.7566486,12.5300115 L9.0707803,12.8568309 L11.6097655,15.4611602 C11.7477962,15.6027433 11.9285959,15.6739667 12.109619,15.6739667 C12.290642,15.6739667 12.4714417,15.6027433 12.6094724,15.4611602 C12.7493505,15.3176822 12.8188985,15.1295322 12.8188985,14.9415803 C12.8188985,14.7536283 12.7493505,14.5654784 12.6094724,14.4220004 L11.9723661,13.7684974 L10.8641602,12.6317703 L9.75146752,11.4904411 C9.61410109,11.3503764 9.43408895,11.2797178 9.25385742,11.2797178 Z M10.52134,8.68478369 C10.3411769,8.68478369 10.1612104,8.75362167 10.0212544,8.89052415 C9.88741384,9.02754395 9.8126096,9.21365033 9.8126096,9.40751425 C9.8126096,9.60143735 9.88745952,9.78759817 10.0213516,9.92465479 L11.7667988,11.7150232 L12.8775004,12.8543101 C13.0185919,12.9900517 13.1988754,13.0582932 13.3793448,13.0582932 C13.5464623,13.0582932 13.7134203,12.9997758 13.8492456,12.8833298 C13.7188167,12.5303847 13.7191478,12.1402912 13.850239,11.7875347 L11.0225887,8.89166447 C10.8824675,8.75400392 10.7020025,8.68478369 10.52134,8.68478369 Z M12.7422386,7.05913915 C12.5621356,7.05913915 12.3822179,7.12710376 12.2412543,7.26229601 C12.1035906,7.40622008 12.0351461,7.59353457 12.0351461,7.78065991 C12.0351461,7.96865731 12.10423,8.15684562 12.2431574,8.30103668 L14.6468272,10.7665636 L15.6532242,9.73426576 L13.244083,7.26312227 C13.1029915,7.12738068 12.922708,7.05913915 12.7422386,7.05913915 Z M19.661035,2.27390352 C18.7611642,3.07908166 18.2766549,4.26682001 18.3481708,5.49028076 C18.371508,5.92873077 18.2093385,6.35602063 17.9039146,6.66345938 L16.1798823,8.43186186 L16.5583359,8.82005542 C16.9268022,8.52026417 17.3729261,8.37063451 17.8188987,8.37063451 C18.3241615,8.37063451 18.8296183,8.56269402 19.2221189,8.94758657 L20.3583504,10.1130605 L20.8060949,9.65379276 C21.1081137,9.33929332 21.5271252,9.17305156 21.9582042,9.196307 C23.1475315,9.26945482 24.3023507,8.77233298 25.0854307,7.85153212 C25.7904676,7.02249982 26.1229384,5.93444665 26.0149956,4.85104663 L23.9121978,7.00796263 C23.7707304,7.154567 23.5692808,7.22423358 23.3692072,7.19646874 L21.1474778,6.869595 C21.0070028,6.84920235 20.8810992,6.78244788 20.7855316,6.68442068 C20.691192,6.58765322 20.6264657,6.46035567 20.6067742,6.31764151 L20.2881423,4.03902405 L20.2869977,4.03031526 C20.2683474,3.88766636 20.2675318,3.710353 22.5839466,1.32330203 C21.5286835,1.21066379 20.4685087,1.55139956 19.661035,2.27390352 Z" id="Shape"></path>
        </g>
    </g>
</svg>