<?xml version="1.0" encoding="UTF-8"?>
<svg width="28px" height="28px" viewBox="0 0 28 28" version="1.1" xmlns="http://www.w3.org/2000/svg" xmlns:xlink="http://www.w3.org/1999/xlink">
    <!-- Generator: Sketch 63.1 (92452) - https://sketch.com -->
    <title>nav-qualidade</title>
    <desc>Created with Sketch.</desc>
    <g id="Page-1" stroke="none" stroke-width="1" fill="none" fill-rule="evenodd">
        <g id="nav-qualidade" transform="translate(0.000000, 0.000000)" fill="#FFFFFF" fill-rule="nonzero">
            <path d="M17.258112,11.1653723 L13.071091,15.0101291 L11.0616295,13.0003047 C10.8388601,12.777334 10.4720392,12.7722614 10.242918,12.9888364 C10.0135699,13.2056319 10.0083523,13.5620322 10.2311217,13.7850029 L12.6412051,16.190264 C12.8651087,16.409265 13.2269388,16.4167635 13.4601435,16.2070255 L18.0654808,11.9840344 C18.1773192,11.8814811 18.2426528,11.7398914 18.246963,11.5905826 C18.2512732,11.4412738 18.1943331,11.2963759 18.0886198,11.1878679 C17.8644893,10.9613684 17.4949462,10.9514439 17.258112,11.1653723 L17.258112,11.1653723 Z" id="Path"></path>
            <path d="M13.999891,4.71910112 C16.3871002,4.71910112 18.551849,5.72515649 20.1193794,7.3517964 C21.6827855,8.97415658 22.6516854,11.2140536 22.6516854,13.6852802 C22.6516854,16.1566077 21.6827955,18.3965489 20.1194063,20.0189339 C18.5518735,21.6456189 16.3871136,22.6516854 13.999891,22.6516854 C11.6127659,22.6516854 9.44804846,21.6456087 7.88053957,20.018906 C6.31719369,18.3965235 5.34831461,16.1565937 5.34831461,13.6852802 C5.34831461,11.2140676 6.31720371,8.97418192 7.88056649,7.35182432 C9.4480729,5.72516673 11.6127793,4.71910112 13.999891,4.71910112 Z M13.999891,6.5065024 C12.0964906,6.5065024 10.3722749,7.31093699 9.12321701,8.6071291 C7.86915127,9.90851807 7.09359996,11.7054144 7.09359996,13.6852802 C7.09359996,15.6651648 7.86916519,17.4621306 9.12324989,18.7635785 C10.3723043,20.0598062 12.0965061,20.8642841 13.999891,20.8642841 C15.9058001,20.8642841 17.6306622,20.0616648 18.8794339,18.7657697 C20.1323798,17.4655427 20.9064,15.6690474 20.9064,13.6852802 C20.9064,11.7015318 20.1323937,9.9051059 18.8794668,8.60493788 C17.6306917,7.30907834 15.9058157,6.5065024 13.999891,6.5065024 Z" id="Shape"></path>
            <path d="M13.8455339,0 C14.0143662,0 14.1831936,0.0489039133 14.3304827,0.147082036 L14.3304827,0.147082036 L17.0357942,1.95423133 L20.2843452,1.77712438 C20.4583666,1.76881166 20.6268584,1.81225656 20.7717445,1.89706877 C20.9158117,1.98140166 21.0365412,2.10667626 21.1166707,2.26437224 L21.1166707,2.26437224 L22.5766837,5.18375612 L25.4620285,6.65895271 C25.618606,6.73802347 25.7445489,6.86040231 25.8286887,7.0073473 C25.9123631,7.15347966 25.9546462,7.3238808 25.9446198,7.49895648 L25.9446198,7.49895648 L25.764053,10.7789603 L27.5412733,13.5158417 C27.6372836,13.6630933 27.6853933,13.832223 27.6853933,14.0013926 C27.6853933,14.1705621 27.6372836,14.3396918 27.5411136,14.4871882 L27.5411136,14.4871882 L25.7528406,17.2243113 L25.9335144,20.5064521 C25.941654,20.6808231 25.8989574,20.8494287 25.8159466,20.994402 C25.7324796,21.1401722 25.6082816,21.2620367 25.4521888,21.3431215 L25.4521888,21.3431215 L22.5654447,22.8190293 L21.1059999,25.7372715 C21.0276965,25.8954429 20.9065105,26.022369 20.7614042,26.1073101 C20.6154535,26.1927455 20.4452896,26.235759 20.2704397,26.225522 L20.2704397,26.225522 L17.0300202,26.0431534 L14.3268672,27.8486451 C14.1798904,27.9496282 14.0098923,28 13.839942,28 C13.6699918,28 13.5,27.9496282 13.3530168,27.8486451 L13.3530168,27.8486451 L10.6498633,26.043153 L7.40676286,26.2256615 C7.23255195,26.2339751 7.06397718,26.1905408 6.91910328,26.1057357 C6.77496999,26.0213641 6.65427068,25.8960042 6.57445207,25.7384129 L6.57445207,25.7384129 L5.11443911,22.819029 L2.22921791,21.3438948 C2.07247675,21.264828 1.94653757,21.1424637 1.86241389,20.9955468 C1.77872837,20.8493951 1.73647371,20.6789552 1.74650302,20.5038287 L1.74650302,20.5038287 L1.9270648,17.2239162 L0.144027985,14.481232 C0.0480546241,14.3338647 0,14.1647931 0,13.9957387 C0,13.8265989 0.0481005608,13.6575369 0.144279674,13.5100266 L0.144279674,13.5100266 L1.9325588,10.772894 L1.75209911,7.4907627 C1.74395661,7.31632911 1.78663858,7.14758899 1.86968464,7.00255404 C1.95319317,6.85671143 2.07747521,6.73484297 2.23341634,6.65409755 L2.23341634,6.65409755 L5.1199554,5.17818549 L6.57943175,2.26031135 C6.65762437,2.10184401 6.77882756,1.97474327 6.92404396,1.88973769 C7.07005332,1.80426793 7.24036749,1.76129431 7.41517503,1.77169281 L7.41517503,1.77169281 L10.655364,1.95406052 L13.3608208,0.146814577 C13.5079512,0.0488571054 13.6767875,0 13.8455339,0 Z M13.8454585,1.9507087 L11.3759563,3.59933338 C11.2171173,3.69885533 11.0328127,3.74776744 10.8466143,3.74052572 L7.88532948,3.57499508 L6.55618036,6.23633455 C6.47259409,6.40501927 6.33642302,6.54236924 6.16876257,6.62730375 L3.5367031,7.97116702 L3.7002659,10.9625481 C3.71555133,11.1546852 3.66529859,11.3464676 3.55814944,11.5058489 L1.92864369,14.0013926 L3.56208109,16.5029575 C3.65960361,16.661826 3.70801342,16.8465102 3.7006471,17.0334882 L3.53673273,20.0310904 L6.17449851,21.370026 C6.3420937,21.454753 6.4782996,21.5921471 6.56234805,21.761761 L7.89110846,24.4223189 L10.8860426,24.2563862 C11.0630521,24.2549698 11.2362897,24.3079773 11.3828827,24.4080969 L13.8454575,26.0522851 L16.3150494,24.4035299 C16.4736647,24.3039694 16.6580727,24.2549675 16.8447471,24.2624957 L19.8055873,24.4278046 L21.1349555,21.7666471 C21.2185198,21.5980069 21.3547358,21.4603975 21.5223603,21.3754813 L24.1542127,20.0316186 L23.990855,17.0404298 C23.9755755,16.8481088 24.025747,16.6567811 24.1325702,16.4972166 L25.7624649,14.0013926 L24.1287066,11.4996524 C24.0314813,11.3408192 23.9831141,11.1561317 23.9904758,10.9695218 L24.1542135,7.97116704 L21.5214629,6.62684736 C21.3546998,6.54236926 21.2185288,6.40501935 21.1345043,6.23545389 L19.8055874,3.57499508 L16.8518654,3.74011447 C16.6601163,3.75568224 16.4685982,3.70471129 16.3091484,3.59531582 L13.8454585,1.9507087 Z" id="Shape"></path>
        </g>
    </g>
</svg>