<?xml version="1.0" encoding="UTF-8"?>
<svg width="28px" height="28px" viewBox="0 0 28 28" version="1.1" xmlns="http://www.w3.org/2000/svg" xmlns:xlink="http://www.w3.org/1999/xlink">
    <!-- Generator: Sketch 63.1 (92452) - https://sketch.com -->
    <title>nav-gerenciamento</title>
    <desc>Created with Sketch.</desc>
    <g id="Page-1" stroke="none" stroke-width="1" fill="none" fill-rule="evenodd">
        <g id="nav-gerenciamento" fill="#FFFFFF" fill-rule="nonzero">
            <path d="M10.2684082,0.464435706 C12.6663469,-0.177184313 15.1422581,-0.143087146 17.4529722,0.499142908 C19.7632704,1.14125737 21.9084477,2.3912966 23.6453633,4.18179579 L23.6453633,4.18179579 L25.5770564,6.13526085 C25.6919437,6.25150555 25.7495273,6.40380864 25.7495273,6.55618292 C25.7495273,6.70855721 25.6919437,6.8608603 25.5770515,6.97710994 L25.5770515,6.97710994 L23.3637694,9.21631217 C23.6005602,9.69025421 23.8015351,10.1816507 23.9649687,10.6862879 L23.9649687,10.6862879 L27.0943127,10.6862879 C27.2577245,10.6862879 27.4057439,10.7531558 27.5128593,10.861504 C27.6193731,10.9692437 27.6853933,11.1180462 27.6853933,11.2824899 L27.6853933,11.2824899 L27.6853933,16.8097955 C27.6853933,16.9742391 27.6193731,17.1230417 27.5128593,17.2307813 C27.4057439,17.3391296 27.2577245,17.4059975 27.0943127,17.4059975 L27.0943127,17.4059975 L23.9645105,17.4059975 C23.800853,17.911285 23.5995771,18.4033029 23.3624133,18.8778257 L23.3624133,18.8778257 L25.5756903,21.1170228 C25.6905776,21.2332675 25.7481612,21.3855706 25.7481612,21.5379449 C25.7481612,21.6903192 25.6905776,21.8426223 25.5756759,21.9588815 L25.5756759,21.9588815 L21.7118654,25.8671618 C21.5962941,25.9840279 21.4448002,26.0423142 21.2933818,26.0423142 C21.1419634,26.0423142 20.9904695,25.9840279 20.8748933,25.8671568 L20.8748933,25.8671568 L18.6627649,23.6300148 C18.1949362,23.8688209 17.7099462,24.0715518 17.211933,24.2364798 L17.211933,24.2364798 L17.211933,27.403798 C17.211933,27.5682416 17.1459128,27.7170442 17.0393991,27.8247838 C16.9322836,27.9331321 16.7842643,28 16.6208524,28 L16.6208524,28 L11.1564384,28 C10.9930266,28 10.8450072,27.9331321 10.7378918,27.8247838 C10.631378,27.7170442 10.5653578,27.5682416 10.5653578,27.403798 L10.5653578,27.403798 L10.5653578,24.2360567 C10.0668833,24.0711751 9.58144025,23.8684248 9.11317727,23.6295366 L9.11317727,23.6295366 L6.90102653,25.8667012 C6.78545525,25.9835673 6.63396131,26.0418536 6.48254292,26.0418536 C6.33112453,26.0418536 6.1796306,25.9835673 6.06403368,25.8666752 L6.06403368,25.8666752 L4.13281821,23.9127723 C0.593443057,20.3993358 -0.809318461,15.2345506 0.459231417,10.3852035 C1.09355597,7.96034022 2.34695184,5.80104039 4.04104636,4.08756919 C5.7354413,2.37379413 7.87068421,1.10599829 10.2684082,0.464435706 Z M23.2323426,5.41433758 L19.5337178,9.17746443 C22.1988583,13.3354042 22.0893994,16.7417237 19.2053411,19.3964229 C14.8792537,23.3784717 9.75384888,20.2560166 9.12386275,19.7236987 L5.42458039,23.4866077 L6.51962915,24.5978651 L8.61870392,22.4681614 C8.71209492,22.3728693 8.83146041,22.3149989 8.95628497,22.2974759 C9.08127933,22.2799291 9.21180522,22.302823 9.32766039,22.3690818 C9.96374088,22.7312037 10.64035,23.0151654 11.3429282,23.2148127 C11.4703885,23.2507936 11.5784649,23.3277509 11.654542,23.4294229 C11.7302612,23.5306165 11.7742517,23.6562964 11.774175,23.7901986 L11.774175,26.807596 L16.0496011,26.807596 L16.0496011,23.7891982 C16.0495245,23.6553739 16.0935149,23.529694 16.1692341,23.4285003 C16.2453113,23.3268283 16.3533876,23.2498711 16.4810732,23.2138263 C17.1834262,23.0142428 17.8600353,22.7302811 18.4963472,22.3680273 C18.6119709,22.3019004 18.7424968,22.2790065 18.8674912,22.2965534 C18.9923157,22.3140763 19.1116812,22.3719468 19.2053411,22.4675125 L21.304147,24.5969426 L24.327391,21.5289493 L22.2264044,19.3964229 C22.1329616,19.3021132 22.0760382,19.1816363 22.0588497,19.0555429 C22.0416838,18.9296151 22.0641628,18.7981395 22.1289742,18.6814358 C22.4859526,18.0356898 22.7658715,17.3488015 22.9626816,16.635553 C22.9980429,16.5065519 23.073835,16.3973179 23.1737153,16.3203526 C23.2740723,16.24302 23.3987441,16.1982325 23.5315082,16.1983108 L26.5032321,16.1983108 L26.5032321,11.8562331 L23.5314285,11.8562331 C23.3987441,11.8563113 23.2740723,11.8115239 23.1737153,11.7341912 C23.073835,11.6572259 22.9980429,11.547992 22.9626206,11.4187693 C22.765939,10.705714 22.4860201,10.0188258 22.128853,9.37288941 C22.0641628,9.25640434 22.0416838,9.12492877 22.0588497,8.99900096 C22.0760382,8.87290757 22.1329616,8.75243063 22.2266741,8.65784802 L24.3273911,6.5255946 L23.2323426,5.41433758 Z M13.7140911,1.5153361 C10.6092356,1.58063168 7.52839582,2.81862106 5.16822155,5.21433347 C2.80733295,7.61077097 1.58764709,10.7390317 1.52330225,13.8915138 C1.46001265,16.9922954 2.51447449,20.1166506 4.70069601,22.5912614 L8.66250054,18.5698023 C8.79584443,18.4344914 8.9706134,18.3670143 9.14529522,18.3670143 C9.31959322,18.3670143 9.49397799,18.4341952 9.62719383,18.5688946 C10.8301223,19.770214 12.3976503,20.3670453 13.9628426,20.360576 C15.5280429,20.3541067 17.0907373,19.744332 18.2839972,18.5331048 C19.4779991,17.3211242 20.0787769,15.7338277 20.0851539,14.1441556 C20.0915289,12.5549607 19.5038612,10.9632307 18.3203422,9.74156167 C18.1926809,9.61207353 18.1209021,9.43671905 18.1209021,9.25377795 C18.1209021,9.11102377 18.1195116,8.97227043 22.2846598,4.74254484 C19.8471462,2.52216738 16.7690678,1.45108949 13.7140911,1.5153361 Z" id="Shape"></path>
            <path d="M13.5381736,5.97752809 C13.7854952,5.97752809 14.0106285,6.08110143 14.1731273,6.25224066 C14.321715,6.40872904 14.4173295,6.62232677 14.4239375,6.85987408 L14.4239375,6.85987408 L14.4242961,11.6782739 C14.7941696,11.8476983 15.1056277,12.1180259 15.3317372,12.4528878 C15.6176592,12.8763303 15.7665954,13.402931 15.7227846,13.9534383 C15.6788388,14.5056415 15.4475972,15.0000471 15.0977405,15.3685064 C14.7408695,15.744353 14.2609869,15.9895675 13.7269134,16.0367106 C13.1909442,16.0840211 12.6774209,15.9252751 12.2647651,15.6162173 C11.94953,15.3801226 11.6932159,15.0558878 11.533253,14.6694421 L11.533253,14.6694421 L8.75129759,14.6694421 C8.50397605,14.6694421 8.27884271,14.5658687 8.11634388,14.3947295 C7.96229962,14.2324944 7.86516854,14.0088679 7.86516854,13.7608062 C7.86516854,13.5127445 7.96229962,13.289118 8.11634388,13.1268829 C8.27330517,12.9615756 8.48872071,12.8593354 8.72609188,12.8525311 L8.72609188,12.8525311 L11.5348341,12.8521817 C11.6438381,12.5920132 11.7974229,12.3579364 11.9852593,12.1601124 C12.1757666,11.9594754 12.4014731,11.7960733 12.6520446,11.6799299 L12.6520446,11.6799299 L12.6520446,6.88616397 C12.6520446,6.63810231 12.7491756,6.41447578 12.9032199,6.25224066 C13.0657187,6.08110143 13.2908521,5.97752809 13.5381736,5.97752809 Z M13.5381736,13.2945136 C13.424988,13.2945136 13.3237435,13.3448344 13.2499912,13.4225083 C13.1677843,13.5090863 13.118791,13.6291918 13.118791,13.7608062 C13.118791,13.8924206 13.1677843,14.0125261 13.2499912,14.0991041 C13.3237435,14.176778 13.424988,14.2270988 13.5381736,14.2270988 C13.6513592,14.2270988 13.7526037,14.176778 13.8263561,14.0991041 C13.9085629,14.0125261 13.9575562,13.8924206 13.9575562,13.7608062 C13.9575562,13.6291918 13.9085629,13.5090863 13.8263561,13.4225083 C13.7526037,13.3448344 13.6513592,13.2945136 13.5381736,13.2945136 Z" id="Shape"></path>
            <path d="M13.6853933,5.03370787 C13.4247645,5.03370787 13.2134831,4.85764007 13.2134831,4.64044944 L13.2134831,3.85393258 C13.2134831,3.63674195 13.4247645,3.46067416 13.6853933,3.46067416 C13.946022,3.46067416 14.1573034,3.63674195 14.1573034,3.85393258 L14.1573034,4.64044944 C14.1573034,4.85764007 13.946022,5.03370787 13.6853933,5.03370787 Z" id="Path"></path>
            <path d="M9.12358503,6.60674157 C9.01095815,6.60688842 8.90684542,6.5264327 8.850532,6.3957328 L8.53559195,5.6643771 C8.45002579,5.46271201 8.50197475,5.20631107 8.6519011,5.09031794 C8.80182746,4.97432481 8.99351297,5.04223369 9.08106813,5.24235997 L9.39600818,5.97371567 C9.45223805,6.10422129 9.45226885,6.26500126 9.396089,6.39554556 C9.33990915,6.52608986 9.23604459,6.60658689 9.12358503,6.60674157 L9.12358503,6.60674157 Z" id="Path"></path>
            <path d="M6.4993168,10.0674157 C6.42521625,10.0676097 6.3524018,10.043338 6.28831083,9.99707859 L5.55696414,9.47218328 C5.35684033,9.32625936 5.28893228,9.00678641 5.40492398,8.75691143 C5.52091569,8.50703646 5.77731347,8.42045564 5.97897608,8.5630646 L6.71032277,9.08795991 C6.87572666,9.20675104 6.95636452,9.44890745 6.90693009,9.67837388 C6.85749565,9.90784031 6.69031436,10.0674157 6.4993168,10.0674157 Z" id="Path"></path>
            <path d="M4.64044944,14.7865169 L3.85393258,14.7865169 C3.63674195,14.7865169 3.46067416,14.5752355 3.46067416,14.3146067 C3.46067416,14.053978 3.63674195,13.8426966 3.85393258,13.8426966 L4.64044944,13.8426966 C4.85764007,13.8426966 5.03370787,14.053978 5.03370787,14.3146067 C5.03370787,14.5752355 4.85764007,14.7865169 4.64044944,14.7865169 Z" id="Path"></path>
            <path d="M5.76906739,19.505618 C5.57864854,19.505618 5.4119738,19.3463862 5.36268915,19.1174138 C5.31340449,18.8884414 5.39379803,18.6468064 5.55870076,18.5282711 L6.2878315,18.004506 C6.41807808,17.9094508 6.57925218,17.9085609 6.71017088,18.0021742 C6.84108959,18.0957875 6.9216792,18.2695503 6.92134831,18.4575008 C6.92101538,18.6454514 6.83981284,18.8187714 6.70856477,18.9116672 L5.97943402,19.4354323 C5.91553724,19.4815921 5.84294342,19.5058116 5.76906739,19.505618 L5.76906739,19.505618 Z" id="Path"></path>
            <path d="M13.9023039,18.5617978 C12.7483854,18.5652556 11.6413488,18.0676438 10.8289282,17.1803005 C10.7160565,17.0619061 10.6709598,16.8867781 10.7109698,16.7222227 C10.7509798,16.5576673 10.8698706,16.429291 11.0219494,16.3864321 C11.1740282,16.3435733 11.3356299,16.3929012 11.4446469,16.5154578 C12.3196667,17.4833052 13.6073898,17.8675337 14.8167245,17.5216125 C16.0260593,17.1756912 16.9705532,16.1529535 17.29001,14.843435 C17.6094668,13.5339164 17.2546334,12.1395157 16.3608305,11.1920075 C16.2476499,11.0739593 16.2020959,10.8989702 16.2416758,10.7342929 C16.2812558,10.5696155 16.3998107,10.4408756 16.551777,10.3975511 C16.7037432,10.3542265 16.8654731,10.4030592 16.9748099,10.5252814 C18.2171777,11.8717359 18.5887337,13.895705 17.9163859,15.654309 C17.2440382,17.4129131 15.6600385,18.5602321 13.9023039,18.5617978 Z" id="Path"></path>
        </g>
    </g>
</svg>