<?xml version="1.0" encoding="UTF-8"?>
<svg width="28px" height="28px" viewBox="0 0 28 28" version="1.1" xmlns="http://www.w3.org/2000/svg" xmlns:xlink="http://www.w3.org/1999/xlink">
    <!-- Generator: Sketch 63.1 (92452) - https://sketch.com -->
    <title>nav-rh</title>
    <desc>Created with Sketch.</desc>
    <g id="Page-1" stroke="none" stroke-width="1" fill="none" fill-rule="evenodd">
        <g id="nav-rh" transform="translate(0.000000, 0.000000)" fill="#FFFFFF" fill-rule="nonzero">
            <path d="M13.6853933,0 C14.682651,0 15.5848809,0.38603962 16.2382005,1.00824874 C16.8972116,1.6358784 17.3033708,2.50334864 17.3033708,3.46067416 C17.3033708,4.41799968 16.8972116,5.28546992 16.2382005,5.91309957 C15.5848809,6.5353087 14.682651,6.92134813 13.685054,6.92134813 C12.6883735,6.92027342 11.7867902,6.53404449 11.1336921,5.9120462 C10.4749155,5.28463994 10.0685534,4.41780616 10.0674157,3.46067416 C10.0674157,2.50334864 10.4735749,1.6358784 11.132586,1.00824874 C11.7859056,0.38603962 12.6881355,0 13.6853933,0 Z M13.6853933,1.52808989 C13.1194243,1.5287248 12.6061722,1.74652808 12.2347363,2.10027654 C11.8689783,2.44861748 11.6411067,2.9292467 11.6404492,3.46106314 C11.6404492,3.99264814 11.8681401,4.47349152 12.2339178,4.82185127 C12.6053872,5.17563162 13.1188868,5.39325843 13.6853933,5.39325843 C14.2518997,5.39325843 14.7653993,5.17563162 15.1368687,4.82185127 C15.5026464,4.47349152 15.7303371,3.99264814 15.7303371,3.46067416 C15.7303371,2.92870017 15.5026464,2.44785679 15.1368687,2.09949705 C14.7653993,1.74571669 14.2518997,1.52808989 13.6853933,1.52808989 Z" id="Shape"></path>
            <path d="M12.5057788,6.92134836 C11.3106808,6.92269688 10.2290592,7.41642381 9.44594183,8.21489643 C8.6650091,9.01114156 8.18109453,10.1106028 8.17977527,11.3255011 L8.17977527,19.3657928 L9.96254682,19.3657928 L9.96254682,28 L11.4831461,28 L11.4831461,16.9188514 L9.96254682,16.9188514 L9.96254682,17.8277154 L9.70037453,17.8277154 L9.70037453,11.3258427 C9.70125376,10.5342299 10.0159798,9.81708256 10.525204,9.29787354 C11.0322437,8.78089191 11.7322961,8.46031866 12.5059812,8.45942551 L15.1797753,8.45942572 C15.9530971,8.46031866 16.6531496,8.78089191 17.1601893,9.29787354 C17.6694135,9.81708256 17.9841395,10.5342299 17.9850189,11.326192 L17.9850187,17.8277154 L17.7228464,17.8277154 L17.7228464,16.9188514 L16.2022472,16.9188514 L16.2022472,28 L17.7228464,28 L17.7228464,19.3657928 L19.505618,19.3657928 L19.505618,11.3258427 C19.5041933,10.0135355 18.9487114,8.83269663 17.6172925,8.01818157 C16.5159194,7.34440037 14.8601832,6.92255211 12.5057788,6.92134836 Z" id="Path"></path>
            <path d="M23.1235955,4.71910112 C23.9489302,4.71910112 24.6961206,5.05362579 25.2369778,5.59448291 C25.7778349,6.13534003 26.1123596,6.88253043 26.1123596,7.70786517 C26.1123596,8.53319991 25.7778349,9.28039031 25.2369778,9.82124743 C24.6961206,10.3621045 23.9489302,10.6966291 23.1232868,10.6966291 C22.2983798,10.6958197 21.5516709,10.3611591 21.0109862,9.82047443 C20.4703016,9.2797898 20.135641,8.53308088 20.1348315,7.70786517 C20.1348315,6.88253043 20.4693561,6.13534003 21.0102132,5.59448291 C21.5510704,5.05362579 22.2982608,4.71910112 23.1235955,4.71910112 Z M23.1235955,6.23970037 C22.7181756,6.23970037 22.3511347,6.40403212 22.0854486,6.66971823 C21.8197625,6.93540433 21.6554307,7.30244522 21.6554307,7.70786517 C21.6554307,8.11328511 21.8197625,8.480326 22.0854486,8.74601211 C22.3511347,9.01169822 22.7181756,9.17602996 23.1235955,9.17602996 C23.5290154,9.17602996 23.8960563,9.01169822 24.1617424,8.74601211 C24.4274286,8.480326 24.5917603,8.11328511 24.5917603,7.70786517 C24.5917603,7.30244522 24.4274286,6.93540433 24.1617424,6.66971823 C23.8960563,6.40403212 23.5290154,6.23970037 23.1235955,6.23970037 Z" id="Shape"></path>
            <path d="M20.1348315,10.6966292 L20.1348315,12.2271485 L24.3426966,12.2271485 C24.8511297,12.2277724 25.3110779,12.4439265 25.6443908,12.7911615 C25.9822571,13.1431402 26.1904048,13.6294763 26.1910114,14.1661619 L26.1910112,19.7096872 L25.9550562,19.7096872 L25.9550562,18.8083814 L24.4606742,18.8083814 L24.4606742,28 L25.9550562,28 L25.9550562,21.2402065 L27.6853933,21.2402065 L27.6853933,14.1658063 C27.6843542,13.2095528 27.3111208,12.3447846 26.7098308,11.7183792 C26.1039869,11.0872299 25.2670018,10.6977192 24.3430677,10.6966292 L20.1348315,10.6966292 Z" id="Path"></path>
            <polygon id="Path" points="21.3932584 18.8764045 19.8202247 18.8764045 19.8202247 19.77055 17.9325843 19.77055 17.9325843 21.2939089 19.8202247 21.2939089 19.8202247 28 21.3932584 28"></polygon>
            <path d="M4.56179775,4.71910112 C5.38713249,4.71910112 6.13432289,5.05362579 6.67518001,5.59448291 C7.21603713,6.13534003 7.5505618,6.88253043 7.5505618,7.70786517 C7.5505618,8.53319991 7.21603713,9.28039031 6.67518001,9.82124743 C6.13432289,10.3621045 5.38713249,10.6966291 4.56148907,10.6966291 C3.73658204,10.6958197 2.98987313,10.3611591 2.44918849,9.82047443 C1.90850386,9.2797898 1.57384323,8.53308088 1.57303371,7.70786517 C1.57303371,6.88253043 1.90755838,6.13534003 2.44841549,5.59448291 C2.98927261,5.05362579 3.73646301,4.71910112 4.56179775,4.71910112 Z M4.56179775,6.23959551 C4.15637781,6.23970037 3.78933692,6.40403212 3.52365081,6.66971823 C3.2579647,6.93540433 3.09363296,7.30244522 3.09363296,7.70786517 C3.09363296,8.11328511 3.2579647,8.480326 3.52365081,8.74601211 C3.78933692,9.01169822 4.15637781,9.17602996 4.56179775,9.17602996 C4.9672177,9.17602996 5.33425859,9.01169822 5.59994469,8.74601211 C5.8656308,8.480326 6.02996255,8.11328511 6.02996255,7.70786517 C6.02996255,7.30244522 5.8656308,6.93540433 5.59994469,6.66971823 C5.351971,6.42174453 5.01570602,6.26206174 4.64235136,6.2418728 L4.56179775,6.23959551 Z" id="Shape"></path>
            <path d="M7.5505618,10.6966292 L3.34269663,10.6966292 C2.41839143,10.6977192 1.58140636,11.0872299 0.975562499,11.7183792 C0.374272461,12.3447846 0.00103908438,13.2095528 -8.64690847e-09,14.1654643 L-8.64690847e-09,21.2402065 L1.73033708,21.2402065 L1.73033708,28 L3.2247191,28 L3.2247191,18.8083814 L1.73033708,18.8083814 L1.73033708,19.7096872 L1.49438202,19.7096872 L1.49438202,14.1658063 C1.49498845,13.6294763 1.70313613,13.1431402 2.04100246,12.7911615 C2.37431535,12.4439265 2.83426357,12.2277724 3.34308256,12.2271483 L7.5505618,12.2271485 L7.5505618,10.6966292 Z" id="Path"></path>
            <polygon id="Path" points="7.86516854 18.8764045 6.29213483 18.8764045 6.29213483 28 7.86516854 28 7.86516854 21.2939089 9.75280899 21.2939089 9.75280899 19.77055 7.86516854 19.77055"></polygon>
        </g>
    </g>
</svg>