<?xml version="1.0" encoding="UTF-8"?>
<svg width="28px" height="28px" viewBox="0 0 28 28" version="1.1" xmlns="http://www.w3.org/2000/svg" xmlns:xlink="http://www.w3.org/1999/xlink">
    <!-- Generator: Sketch 63.1 (92452) - https://sketch.com -->
    <title>nav-producao</title>
    <desc>Created with Sketch.</desc>
    <g id="Page-1" stroke="none" stroke-width="1" fill="none" fill-rule="evenodd">
        <g id="nav-producao" fill="#FFFFFF" fill-rule="nonzero">
            <path d="M2.34613949,0 C2.9233888,0 3.50071769,0.215865561 3.9492441,0.647488691 L3.9492441,0.647488691 L7.53999544,4.27114614 C7.95965628,4.05683157 8.43070518,3.97891333 8.88773721,4.03751401 C9.36318948,4.09847653 9.82351314,4.30702035 10.1949424,4.66346957 L10.1949424,4.66346957 L14.2931283,8.80009554 C14.2698837,6.75367749 15.2771993,4.68848922 16.7726587,3.17885611 C18.0762538,1.86273163 19.8189961,0.945713336 21.5218357,0.721433133 C23.0741606,0.516977141 24.5923229,0.885398195 25.7305252,2.03412613 C26.8512993,3.16546154 27.2329622,4.70699617 27.0272941,6.29967966 C26.809957,7.98272765 25.9346283,9.72161017 24.5973349,11.0718685 C23.2226355,12.4595928 21.3424482,13.4696355 19.4092099,13.5681374 L19.4092099,13.5681374 L19.0324419,13.5848615 L23.0854446,17.6772076 C23.4629868,18.0583785 23.6832062,18.5393085 23.7458289,19.0368669 C23.8014396,19.4787129 23.7326054,19.9335498 23.5396656,20.3430861 L23.5396656,20.3430861 L27.0780867,23.9974493 C27.53194,24.4553214 27.7588995,25.0549855 27.7588995,25.6546901 C27.7588995,26.2544982 27.5316894,26.8541771 27.0779766,27.3117929 C26.6235724,27.7709085 26.0283626,28 25.4333055,28 C24.8560292,28 24.2786421,27.7842376 23.8299352,27.3526594 L23.8299352,27.3526594 L20.2256502,23.7145399 C19.806572,23.9287068 19.335174,24.0071682 18.8773195,23.9484343 C18.4026189,23.8875394 17.9424236,23.6793614 17.5703657,23.3220867 L17.5703657,23.3220867 L12.7871866,18.49422 L6.08766581,26.3393573 C5.51148256,27.0256641 4.67215516,27.4211704 3.80669978,27.4567221 C2.98565426,27.4904496 2.14078944,27.2012601 1.4749512,26.5288038 C0.808669666,25.8560098 0.525037028,25.0055598 0.558761961,24.1800385 C0.593810829,23.3221097 0.972745399,22.4913942 1.61846289,21.9172443 L1.61846289,21.9172443 L9.42526492,15.1001857 L4.67949468,10.3090065 C4.3021753,9.92772087 4.08207586,9.44678311 4.01949742,8.94922127 C3.96392944,8.50739964 4.03273026,8.0525915 4.22558274,7.64300667 L4.22558274,7.64300667 L0.701332711,4.00254099 C0.247497129,3.54480109 0.0205817494,2.94522822 0.0205817494,2.34554518 C0.0205817494,1.74571907 0.247783127,1.14595531 0.70142643,0.688180785 C1.15584896,0.229046581 1.75108834,0 2.34613949,0 Z M22.574044,21.508078 L21.3262154,22.7679 L24.8111224,26.286302 C24.9831757,26.4601826 25.2081787,26.5473425 25.4333036,26.5473425 C25.6585109,26.5473425 25.8835619,26.4602263 26.0555028,26.286546 C26.2288927,26.1115766 26.3150907,25.8831458 26.3150907,25.6549681 C26.3150907,25.4261379 26.2285438,25.1974126 26.0557774,25.0230731 L22.574044,21.508078 Z M10.4467957,16.1314955 L2.6058585,22.9783053 C2.23863699,23.2924819 2.02146522,23.7551854 2.00123609,24.2339842 C1.98245302,24.6785566 2.13478721,25.1372229 2.49756216,25.5034846 C2.86029388,25.8698848 3.3119987,26.02379 3.74957504,26.0054269 C4.22329385,25.985547 4.67995104,25.765524 4.98800038,25.3986839 L11.7653489,17.4623664 L10.4467957,16.1314955 Z M8.59217831,5.47055107 C8.36659958,5.47055107 8.14112116,5.55730776 7.96955185,5.73043928 L5.70215369,8.01963045 C5.52973018,8.19379847 5.4437996,8.42276711 5.4437996,8.65160408 C5.4437996,8.88046014 5.52973972,9.10949015 5.70221961,9.28380241 L18.5507879,22.2552318 C18.7223909,22.4284842 18.9478216,22.5152216 19.1733109,22.5152216 C19.3988006,22.5152216 19.6242315,22.4284835 19.7958307,22.255235 L22.0628443,19.9664321 C22.235474,19.7921432 22.3215115,19.5631932 22.3215115,19.3344058 C22.3215115,19.1056423 22.2354904,18.8767558 22.0628773,18.7025708 C22.0327691,18.6721732 9.74042848,6.26107801 9.21480399,5.7301657 C9.04319828,5.55717092 8.81769737,5.47055107 8.59217831,5.47055107 Z M25.5475433,4.65590721 C25.4879062,4.76662985 25.4272949,4.87526465 25.3657651,4.98109437 C24.5800258,6.33254731 23.3226503,7.78014492 22.3297038,8.78263502 C21.3342108,9.78769616 19.8945403,11.0617951 18.5527751,11.8543584 C18.4490143,11.9156485 18.342449,11.9760615 18.233504,12.0355453 C18.3574148,12.0619344 18.4810136,12.0824104 18.6039527,12.0969496 C19.2545456,12.1738904 19.9618826,12.0934626 20.6720535,11.8677966 C21.6821845,11.5468142 22.6984663,10.9312371 23.5749673,10.0465144 C24.3969607,9.21662042 25.0471415,8.17175193 25.3843092,7.09025288 C25.5984177,6.4034785 25.6866606,5.70135352 25.6088443,5.03175465 C25.5942489,4.90616399 25.5737051,4.78079929 25.5475433,4.65590721 Z M24.6281424,3.14180105 C24.5526409,3.15650002 24.4815155,3.17365867 24.4154433,3.19329061 C23.2258516,3.54675176 21.1018042,5.46629736 20.0617336,6.49416838 C19.206261,7.35785992 17.1560712,9.62358261 16.7919047,10.8932375 C16.7727228,10.9601145 16.7560428,11.0318143 16.7416935,11.1078167 C16.8177806,11.0924111 16.8893395,11.0746433 16.9556698,11.0545141 C18.1382125,10.6956491 20.2851694,8.78924355 21.3073007,7.75710606 C22.1582025,6.89802579 24.2155013,4.6247663 24.5785131,3.35466881 C24.5974791,3.28831118 24.6139658,3.21718483 24.6281424,3.14180105 Z M20.6982217,2.38197755 C19.6883192,2.70300511 18.6721238,3.31889338 17.7950503,4.20439684 C16.9182409,5.08943096 16.3082672,6.11586481 15.9901324,7.13611089 C15.7673888,7.85044134 15.6873051,8.56195593 15.7614749,9.2173965 C15.7756669,9.34281192 15.7958226,9.46896643 15.8217794,9.59551452 C15.8817228,9.48419701 15.9426944,9.37490676 16.0045946,9.26845594 C16.7901668,7.91749531 18.0471781,6.47032499 19.0396724,5.4682914 C20.035895,4.46231444 21.4751469,3.18852184 22.8174942,2.39572268 C22.9212181,2.33446268 23.0277363,2.27408249 23.1366261,2.21463345 C23.0128353,2.18824876 22.8892812,2.16772206 22.7663787,2.1531341 C22.1157698,2.07590981 21.4084513,2.15620992 20.6982217,2.38197755 Z M2.34621302,1.45281525 C2.12077273,1.45281525 1.89561256,1.54010192 1.72393325,1.71360512 C1.55047766,1.8885536 1.46431232,2.11696458 1.46431232,2.34511102 C1.46431232,2.57391957 1.55084027,2.80262941 1.72359258,2.97686735 L5.19095105,6.47816114 L6.43921048,5.21755595 L2.9682882,1.71367941 C2.79609105,1.53974049 2.57114541,1.45281525 2.34621302,1.45281525 Z" id="Shape"></path>
        </g>
    </g>
</svg>